#N canvas 1299 188 318 113 12;
#X obj 20 -105 bng 31 250 50 0 empty empty empty 17 7 0 10 -262144
-1 -1;
#N canvas 645 295 792 300 init 0;
#X obj 72 115 s bigbang;
#X obj 40 91 t b b;
#X obj 54 50 loadbang;
#X obj 40 181 s latebang;
#X obj 40 157 delay 50;
#X obj 217 106 throw~ outL;
#X obj 234 128 throw~ outR;
#X obj 216 81 r~ soundOut;
#X obj 39 4 inlet;
#X obj 146 209 print >>>>>>>>>>>>>>>>>>>>>>>;
#X obj 44 243 print <<<<<<<<<<<<<<<<<<<<<<<<;
#X obj 561 36 r bigbang;
#X msg 561 124 resize \$1;
#X obj 649 123 s tableSize;
#X obj 561 150 s waveAll;
#X obj 652 150 s waveZoom;
#X obj 561 84 t f f;
#X msg 561 59 24;
#X connect 1 0 4 0;
#X connect 1 0 10 0;
#X connect 1 1 0 0;
#X connect 1 1 9 0;
#X connect 2 0 1 0;
#X connect 4 0 3 0;
#X connect 7 0 5 0;
#X connect 7 0 6 0;
#X connect 8 0 1 0;
#X connect 11 0 17 0;
#X connect 12 0 14 0;
#X connect 12 0 15 0;
#X connect 16 0 12 0;
#X connect 16 1 13 0;
#X connect 17 0 16 0;
#X restore 20 -69 pd init;
#N canvas 271 88 923 633 controls 0;
#X obj 466 266 r knob2;
#X obj 301 268 r knob1;
#X obj 301 376 send;
#X symbolatom 326 352 10 0 0 0 - - -;
#X msg 326 327 symbol knob1_\$1;
#X floatatom 591 187 5 0 0 0 - - -;
#X obj 465 369 send;
#X symbolatom 489 345 10 0 0 0 - - -;
#X msg 489 320 symbol knob2_\$1;
#X obj 645 268 r knob3;
#X obj 647 369 send;
#X symbolatom 671 345 10 0 0 0 - - -;
#X msg 673 319 symbol knob3_\$1;
#X obj 833 366 send;
#X symbolatom 858 341 10 0 0 0 - - -;
#X msg 860 315 symbol knob4_\$1;
#X obj 836 266 r knob4;
#X obj 591 161 r scene;
#N canvas 649 108 1009 687 encoder 0;
#X obj 11 9 loadbang;
#X msg 11 34 send /enablepatchsub 1;
#X obj 11 59 s oscOut;
#X obj 344 39 r oscIn;
#X obj 344 64 routeOSC /encoder/turn /encoder/button;
#X floatatom 344 89 5 0 0 0 - - -;
#X obj 606 90 bng 15 250 50 0 empty empty empty 17 7 0 10 -262144 -1
-1;
#X msg 606 110 send /gohome 1;
#X obj 606 135 s oscOut;
#X obj 290 370 outlet;
#X obj 372 371 outlet;
#X obj 342 180 sel 0;
#X connect 0 0 1 0;
#X connect 1 0 2 0;
#X connect 3 0 4 0;
#X connect 4 0 5 0;
#X connect 4 1 6 0;
#X connect 5 0 11 0;
#X connect 6 0 7 0;
#X connect 7 0 8 0;
#X connect 11 0 9 0;
#X connect 11 1 10 0;
#X restore 24 -3 pd encoder;
#X obj 24 21 bng 35 250 50 0 empty empty empty 17 7 0 10 -191407 -1
-1;
#X obj 65 21 bng 35 250 50 0 empty empty empty 17 7 0 10 -191407 -1
-1;
#X floatatom 218 187 5 0 0 0 - - -;
#X obj 24 129 expr if($f1 > $f2 \, 1 \, $f1);
#X obj 24 154 expr if($f1 < 1 \, $f2 \, $f1);
#X obj 24 105 +;
#X floatatom 60 105 5 0 0 0 - - -;
#X msg 24 81 -1;
#X msg 65 81 1;
#X obj 203 80 r bigbang;
#X obj 218 211 s scene;
#X msg 247 142 1;
#X msg 203 103 3;
#X obj 136 557 s refreshScreen;
#X obj 101 417 r aux;
#X connect 0 0 6 0;
#X connect 0 0 32 0;
#X connect 1 0 2 0;
#X connect 1 0 32 0;
#X connect 3 0 2 1;
#X connect 4 0 3 0;
#X connect 5 0 4 0;
#X connect 5 0 12 0;
#X connect 5 0 8 0;
#X connect 5 0 15 0;
#X connect 7 0 6 1;
#X connect 8 0 7 0;
#X connect 9 0 10 0;
#X connect 9 0 32 0;
#X connect 11 0 10 1;
#X connect 12 0 11 0;
#X connect 14 0 13 1;
#X connect 15 0 14 0;
#X connect 16 0 13 0;
#X connect 16 0 32 0;
#X connect 17 0 5 0;
#X connect 18 0 19 0;
#X connect 18 1 20 0;
#X connect 19 0 26 0;
#X connect 20 0 27 0;
#X connect 21 0 25 0;
#X connect 21 0 29 0;
#X connect 21 0 32 0;
#X connect 22 0 23 0;
#X connect 23 0 21 0;
#X connect 24 0 22 0;
#X connect 25 0 24 1;
#X connect 26 0 24 0;
#X connect 27 0 24 0;
#X connect 28 0 31 0;
#X connect 28 0 30 0;
#X connect 30 0 21 0;
#X connect 31 0 22 1;
#X connect 31 0 23 1;
#X connect 33 0 32 0;
#X restore 99 -101 pd controls;
#N canvas 289 452 968 642 screen 0;
#N canvas 4 50 1016 741 wave_gfx 0;
#X obj 335 989 s 2screen;
#X msg 335 958 /oled/gLine 3 \$1 \$2 \$3 \$4 1;
#X obj 337 573 list prepend;
#X obj 454 741 unpack;
#X obj 444 830 i;
#X obj 491 830 i;
#X obj 337 901 pack 1 2 3 4;
#X floatatom 491 854 5 0 0 0 - - -;
#X floatatom 444 854 5 0 0 0 - - -;
#X obj 337 737 unpack;
#X obj 337 651 t l l b;
#X floatatom 383 853 5 0 0 0 - - -;
#X floatatom 337 853 5 0 0 0 - - -;
#X obj 418 506 r isFirstPoint;
#X obj 337 596 route 0 1;
#X obj 465 688 s isFirstPoint;
#X msg 465 666 0;
#X obj 444 555 print ------------------;
#X obj 444 532 sel 1;
#X obj 338 503 pack;
#X obj 578 398 r waveZoomSize;
#X obj 337 239 until;
#X obj 337 293 i;
#X obj 368 293 + 1;
#X obj 337 318 t f f;
#X obj 337 107 inlet;
#X obj 337 181 i;
#X obj 355 156 r waveZoomSize;
#X obj 337 131 t b b;
#X obj 369 345 tabread waveZoom;
#X msg 380 268 0;
#X obj 363 452 expr int((($f1 + 1) / 2) * 50) + 11;
#X obj 338 431 expr int(($f1/($f2 - 1)) * 123) + 2;
#X obj 423 269 s isFirstPoint;
#X msg 423 247 1;
#X connect 1 0 0 0;
#X connect 2 0 14 0;
#X connect 3 0 4 1;
#X connect 3 1 5 1;
#X connect 4 0 8 0;
#X connect 5 0 7 0;
#X connect 6 0 1 0;
#X connect 7 0 6 3;
#X connect 8 0 6 2;
#X connect 9 0 12 0;
#X connect 9 1 11 0;
#X connect 10 0 9 0;
#X connect 10 1 3 0;
#X connect 10 2 4 0;
#X connect 10 2 5 0;
#X connect 11 0 6 1;
#X connect 12 0 6 0;
#X connect 13 0 2 1;
#X connect 13 0 18 0;
#X connect 14 0 10 0;
#X connect 14 1 3 0;
#X connect 14 1 16 0;
#X connect 16 0 15 0;
#X connect 18 0 17 0;
#X connect 19 0 2 0;
#X connect 20 0 32 1;
#X connect 21 0 22 0;
#X connect 22 0 23 0;
#X connect 22 0 24 0;
#X connect 23 0 22 1;
#X connect 24 0 32 0;
#X connect 24 1 29 0;
#X connect 25 0 28 0;
#X connect 26 0 21 0;
#X connect 27 0 26 1;
#X connect 28 0 26 0;
#X connect 28 1 30 0;
#X connect 28 1 34 0;
#X connect 29 0 31 0;
#X connect 30 0 22 1;
#X connect 31 0 19 1;
#X connect 32 0 19 0;
#X connect 34 0 33 0;
#X restore 569 373 pd wave_gfx;
#N canvas 991 154 913 475 screen_init 0;
#X msg 47 179 /oled/gFlip 3;
#X obj 134 18 r bigbang;
#X msg 484 99 /oled/gShowInfoBar 3 0;
#X obj 47 205 s 2screen;
#X obj 484 120 s 2screen;
#X obj 484 169 s 2screen;
#X obj 113 29 bng 15 250 50 0 empty empty empty 17 7 0 10 -262144 -1
-1;
#X msg 484 146 /oled/gClear 3 1;
#X obj 16 12 r 2screen;
#X obj 16 36 s oscOut;
#X obj 134 51 t b b b b;
#X obj 240 414 s 2screen;
#X msg 295 337 /oled/gLine 3 1 63 126 63 1;
#X msg 292 314 /oled/gLine 3 1 9 126 9 1;
#X msg 293 359 /oled/gLine 3 0 10 0 62 1;
#X msg 292 380 /oled/gLine 3 127 9 127 62 1;
#X connect 0 0 3 0;
#X connect 1 0 10 0;
#X connect 2 0 4 0;
#X connect 6 0 10 0;
#X connect 7 0 5 0;
#X connect 8 0 9 0;
#X connect 10 0 0 0;
#X connect 10 1 13 0;
#X connect 10 1 15 0;
#X connect 10 1 14 0;
#X connect 10 1 12 0;
#X connect 10 2 7 0;
#X connect 10 3 2 0;
#X connect 12 0 11 0;
#X connect 13 0 11 0;
#X connect 14 0 11 0;
#X connect 15 0 11 0;
#X restore 17 14 pd screen_init;
#X msg 150 368 /oled/gFlip 3;
#X obj 150 394 s 2screen;
#X obj 84 73 bng 40 250 50 0 empty empty empty 17 7 0 10 -262144 -1
-1;
#N canvas 164 512 918 612 cursor 0;
#X obj 273 542 s 2screen;
#X obj 761 53 r cursorY;
#X obj 273 47 inlet;
#X obj 298 99 r drawingOn;
#X obj 273 304 route 1 0;
#X floatatom 763 201 5 0 0 0 - - -;
#X obj 273 258 pack 1 2 3;
#X obj 273 131 i;
#X floatatom 422 114 5 0 0 0 - - -;
#X obj 593 51 r waveZoomSize;
#X floatatom 593 125 5 0 0 0 - - -;
#X obj 422 164 expr int($f1 / $f2) * $f2;
#X obj 593 75 - 1;
#X obj 422 52 r cursorX;
#X floatatom 422 212 5 0 0 0 - - -;
#X obj 99 179 r turnOffCursor;
#X obj 99 233 t b b;
#X msg 131 256 0;
#X msg 99 409 /oled/gFlip 3;
#X obj 335 402 t l l;
#X msg 383 426 /oled/gFilledCircle 3 \$1 \$2 2 0;
#X obj 99 203 delay 200;
#X obj 422 89 expr int($f1 * 123);
#X obj 593 100 expr 123 / $f1;
#X obj 421 188 expr int($f1) + 2;
#X obj 763 76 expr int($f1 * 50) + 11;
#X msg 346 484 /oled/gSetPixel 3 \$1 \$2 1;
#X msg 273 368 /oled/gFilledCircle 3 \$1 \$2 2 1;
#X msg 331 453 /oled/gCircle 3 \$1 \$2 2 1;
#X connect 1 0 25 0;
#X connect 2 0 7 0;
#X connect 3 0 7 1;
#X connect 4 0 27 0;
#X connect 4 1 19 0;
#X connect 5 0 6 2;
#X connect 6 0 4 0;
#X connect 7 0 6 0;
#X connect 8 0 11 0;
#X connect 9 0 12 0;
#X connect 10 0 11 1;
#X connect 11 0 24 0;
#X connect 12 0 23 0;
#X connect 13 0 22 0;
#X connect 14 0 6 1;
#X connect 15 0 21 0;
#X connect 16 0 18 0;
#X connect 16 1 17 0;
#X connect 17 0 6 0;
#X connect 18 0 0 0;
#X connect 19 0 28 0;
#X connect 19 0 26 0;
#X connect 19 1 20 0;
#X connect 20 0 0 0;
#X connect 21 0 16 0;
#X connect 22 0 8 0;
#X connect 23 0 10 0;
#X connect 24 0 14 0;
#X connect 25 0 5 0;
#X connect 27 0 0 0;
#X connect 28 0 0 0;
#X restore 430 506 pd cursor;
#N canvas 1108 281 786 599 bar 0;
#X obj 71 521 s 2screen;
#X obj 57 20 inlet;
#X obj 218 23 r zoomRatio;
#X obj 390 22 r zoomPosition;
#X obj 390 46 t b f;
#X obj 218 47 t b f;
#X floatatom 218 129 5 0 0 0 - - -;
#X floatatom 509 129 5 0 0 0 - - -;
#X obj 71 428 pack 0 1 1;
#X msg 71 453 /oled/gFillArea 3 \$2 2 \$3 2 1;
#X obj 217 91 expr int((((1 - $f2) * 0.9) + 0.1 )* 120) \; int(($f3)
* (119 - $f4)) + 2;
#X msg 370 394 /oled/gLine 3 1 0 126 0 1;
#X msg 371 420 /oled/gLine 3 1 5 126 5 1;
#X msg 370 442 /oled/gLine 3 0 1 0 4 1;
#X msg 370 464 /oled/gLine 3 127 1 127 4 1;
#X obj 57 262 t b b;
#X msg 370 362 /oled/gFillArea 3 1 1 126 4 0;
#X connect 1 0 15 0;
#X connect 2 0 5 0;
#X connect 3 0 4 0;
#X connect 4 0 10 0;
#X connect 4 1 10 2;
#X connect 5 0 10 0;
#X connect 5 1 10 1;
#X connect 6 0 8 2;
#X connect 6 0 10 3;
#X connect 7 0 8 1;
#X connect 8 0 9 0;
#X connect 9 0 0 0;
#X connect 10 0 6 0;
#X connect 10 1 7 0;
#X connect 11 0 0 0;
#X connect 12 0 0 0;
#X connect 13 0 0 0;
#X connect 14 0 0 0;
#X connect 15 0 8 0;
#X connect 15 1 11 0;
#X connect 15 1 14 0;
#X connect 15 1 13 0;
#X connect 15 1 12 0;
#X connect 15 1 16 0;
#X connect 16 0 0 0;
#X restore 372 506 pd bar;
#N canvas 498 73 770 626 markers 0;
#X obj 88 457 s 2screen;
#X obj 89 -30 inlet;
#X obj 184 87 r waveZoomSize;
#X obj 88 196 until;
#X obj 88 148 i;
#X obj 88 219 i;
#X obj 88 172 t f b;
#X msg 131 196 0;
#X obj 118 218 + 1;
#X obj 88 385 *;
#X floatatom 120 385 5 0 0 0 - - -;
#X obj 88 243 t f f;
#X obj 127 299 expr if($f1 != 0 \, 1 \, 0);
#X obj 88 327 spigot;
#X obj 184 111 - 1;
#X obj 183 188 expr int(127 / $f1);
#X msg 88 418 /oled/gSetPixel 3 \$1 7 1;
#X obj 374 73 s 2screen;
#X obj 89 -6 t b b;
#X msg 375 45 /oled/gFillArea 3 0 6 128 3 0;
#X connect 1 0 18 0;
#X connect 2 0 14 0;
#X connect 3 0 5 0;
#X connect 4 0 6 0;
#X connect 5 0 8 0;
#X connect 5 0 11 0;
#X connect 6 0 3 0;
#X connect 6 1 7 0;
#X connect 7 0 5 1;
#X connect 8 0 5 1;
#X connect 9 0 16 0;
#X connect 10 0 9 1;
#X connect 11 0 13 0;
#X connect 11 1 12 0;
#X connect 12 0 13 1;
#X connect 13 0 9 0;
#X connect 14 0 4 1;
#X connect 14 0 15 0;
#X connect 15 0 10 0;
#X connect 16 0 0 0;
#X connect 18 0 4 0;
#X connect 18 1 19 0;
#X connect 19 0 17 0;
#X restore 287 509 pd markers;
#N canvas 66 114 1574 826 logKnobs 0;
#X obj 162 623 s 2screen;
#X obj 33 267 spigot;
#X msg 76 216 1;
#X msg 117 240 0;
#X obj 212 217 r bigbang;
#X obj 77 192 bang;
#X floatatom 89 267 5 0 0 0 - - -;
#X floatatom 117 306 5 0 0 0 - - -;
#X obj 494 47 change;
#X obj 118 215 delay 600;
#X msg 491 189 1;
#X obj 575 46 change;
#X obj 661 46 change;
#X obj 741 46 change;
#X obj 495 22 r knob1;
#X obj 576 20 r knob2;
#X obj 742 21 r knob4;
#X obj 661 21 r knob3;
#X msg 574 188 2;
#X msg 658 188 3;
#X msg 738 188 4;
#X obj 690 231 r scene;
#X obj 33 305 i;
#X obj 33 329 pack;
#X obj 33 465 route 1 2 3 4 11 12 13 14 21 22 23 24;
#X obj 181 552 r logTranspose;
#X obj 162 576 i;
#X obj 473 619 s 2screen;
#X obj 473 571 expr int($f1 * 100);
#X msg 473 595 /oled/gPrintln 3 0 0 8 1 ATTACK: \$1%;
#X msg 162 600 /oled/gPrintln 3 0 0 8 1 TRANSPOSE: \$1;
#X obj 753 617 s 2screen;
#X obj 753 569 expr int($f1 * 100);
#X msg 753 593 /oled/gPrintln 3 0 0 8 1 RELEASE: \$1%;
#X obj 1032 618 s 2screen;
#X obj 1032 570 expr int($f1 * 100);
#X msg 1032 593 /oled/gPrintln 3 0 0 8 1 PORTAMENTO: \$1%;
#X obj 285 744 s 2screen;
#X obj 285 697 i;
#X obj 602 744 s 2screen;
#X obj 602 696 expr int($f1 * 100);
#X obj 882 742 s 2screen;
#X obj 882 694 expr int($f1 * 100);
#X obj 1174 744 s 2screen;
#X obj 1174 696 expr int($f1 * 100);
#X msg 602 720 /oled/gPrintln 3 0 0 8 1 QUANTITY: \$1%;
#X msg 882 719 /oled/gPrintln 3 0 0 8 1 CONSTRAIN: \$1%;
#X msg 1174 719 /oled/gPrintln 3 0 0 8 1 PHASE: \$1%;
#X obj 304 673 r logChangeTime;
#X msg 285 721 /oled/gPrintln 3 0 0 8 1 CHANGE TIME: \$1 ms;
#X obj 33 353 t l b;
#X obj 64 417 s 2screen;
#X obj 33 14 inlet;
#X obj 248 32 r scene;
#X obj 247 54 != 1;
#X obj 209 142 spigot;
#X msg 64 391 /oled/gFillArea 3 0 0 128 9 0;
#X floatatom 698 267 5 0 0 0 - - -;
#X floatatom 489 321 5 0 0 0 - - -;
#X obj 488 293 expr $f1 + ($f2 - 1) * 10;
#X obj 283 676 bng 15 250 50 0 empty empty empty 17 7 0 10 -262144
-1 -1;
#X obj 160 556 bng 15 250 50 0 empty empty empty 17 7 0 10 -262144
-1 -1;
#X floatatom 193 574 5 0 0 0 - - -;
#X connect 1 0 22 0;
#X connect 2 0 6 0;
#X connect 3 0 6 0;
#X connect 4 0 3 0;
#X connect 5 0 2 0;
#X connect 5 0 9 0;
#X connect 6 0 1 1;
#X connect 7 0 23 1;
#X connect 8 0 7 0;
#X connect 8 0 10 0;
#X connect 8 0 55 0;
#X connect 9 0 3 0;
#X connect 10 0 59 0;
#X connect 11 0 18 0;
#X connect 11 0 7 0;
#X connect 11 0 55 0;
#X connect 12 0 19 0;
#X connect 12 0 7 0;
#X connect 12 0 55 0;
#X connect 13 0 20 0;
#X connect 13 0 7 0;
#X connect 13 0 55 0;
#X connect 14 0 8 0;
#X connect 15 0 11 0;
#X connect 16 0 13 0;
#X connect 17 0 12 0;
#X connect 18 0 59 0;
#X connect 19 0 59 0;
#X connect 20 0 59 0;
#X connect 21 0 57 0;
#X connect 21 0 59 1;
#X connect 22 0 23 0;
#X connect 23 0 50 0;
#X connect 24 4 61 0;
#X connect 24 5 28 0;
#X connect 24 6 32 0;
#X connect 24 7 35 0;
#X connect 24 8 60 0;
#X connect 24 9 40 0;
#X connect 24 10 42 0;
#X connect 24 11 44 0;
#X connect 25 0 26 1;
#X connect 25 0 62 0;
#X connect 26 0 30 0;
#X connect 28 0 29 0;
#X connect 29 0 27 0;
#X connect 30 0 0 0;
#X connect 32 0 33 0;
#X connect 33 0 31 0;
#X connect 35 0 36 0;
#X connect 36 0 34 0;
#X connect 38 0 49 0;
#X connect 40 0 45 0;
#X connect 42 0 46 0;
#X connect 44 0 47 0;
#X connect 45 0 39 0;
#X connect 46 0 41 0;
#X connect 47 0 43 0;
#X connect 48 0 38 1;
#X connect 49 0 37 0;
#X connect 50 0 24 0;
#X connect 50 1 56 0;
#X connect 52 0 1 0;
#X connect 53 0 54 0;
#X connect 54 0 55 1;
#X connect 55 0 5 0;
#X connect 56 0 51 0;
#X connect 57 0 59 1;
#X connect 59 0 22 1;
#X connect 59 0 58 0;
#X connect 60 0 38 0;
#X connect 61 0 26 0;
#X restore 521 473 pd logKnobs;
#X obj 373 427 spigot;
#X obj 424 402 r scene;
#X obj 424 426 == 1;
#X obj 324 175 t b b b b b;
#X obj 675 356 s 2screen;
#X msg 670 287 /oled/gFillArea 3 1 10 126 53 0;
#N canvas 0 50 800 531 logScene 0;
#X obj 317 268 s 2screen;
#X obj 258 86 inlet;
#X obj 258 180 spigot;
#X obj 258 204 t f b;
#X obj 258 318 sel 1 2 3;
#X obj 255 465 s 2screen;
#X obj 351 15 r scene;
#X obj 258 150 i;
#X msg 347 154 1;
#X msg 427 157 0;
#X obj 335 73 t f b;
#X msg 317 244 /oled/gFillArea 3 0 0 128 9 0;
#X obj 427 123 delay 1000;
#X msg 280 429 /oled/gPrintln 3 0 0 8 1 MUTATION SCREEN;
#X msg 159 383 /oled/gPrintln 3 0 0 8 1 DRAWING SCREEN;
#X msg 233 408 /oled/gPrintln 3 0 0 8 1 SYNTH OPTIONS SCREEN;
#X connect 1 0 7 0;
#X connect 2 0 3 0;
#X connect 3 0 4 0;
#X connect 3 1 11 0;
#X connect 4 0 14 0;
#X connect 4 1 15 0;
#X connect 4 2 13 0;
#X connect 6 0 10 0;
#X connect 7 0 2 0;
#X connect 8 0 2 1;
#X connect 9 0 2 1;
#X connect 10 0 7 1;
#X connect 10 1 8 0;
#X connect 10 1 12 0;
#X connect 11 0 0 0;
#X connect 12 0 9 0;
#X connect 13 0 5 0;
#X connect 14 0 5 0;
#X connect 15 0 5 0;
#X restore 310 351 pd logScene;
#X obj 521 449 spigot;
#X obj 561 425 != 1;
#X obj 561 402 r scene;
#X obj 324 39 r latebang;
#X obj 373 451 t b b b;
#X obj 118 273 t b b;
#X msg 118 368 0;
#X obj 324 97 metro 60;
#X obj 324 131 spigot;
#X msg 375 131 1;
#X obj 596 63 r refreshScreen;
#X obj 596 87 bang;
#X obj 72 331 spigot;
#X obj 39 249 r scene;
#X obj 39 273 != 3;
#X connect 2 0 3 0;
#X connect 4 0 12 0;
#X connect 9 0 20 0;
#X connect 10 0 11 0;
#X connect 11 0 9 1;
#X connect 12 0 21 0;
#X connect 12 1 15 0;
#X connect 12 2 9 0;
#X connect 12 2 16 0;
#X connect 12 3 0 0;
#X connect 12 4 14 0;
#X connect 14 0 13 0;
#X connect 16 0 8 0;
#X connect 17 0 16 1;
#X connect 18 0 17 0;
#X connect 19 0 23 0;
#X connect 19 0 25 0;
#X connect 20 0 7 0;
#X connect 20 1 6 0;
#X connect 20 2 5 0;
#X connect 21 0 28 0;
#X connect 21 1 2 0;
#X connect 22 0 24 1;
#X connect 23 0 24 0;
#X connect 24 0 12 0;
#X connect 25 0 24 1;
#X connect 26 0 27 0;
#X connect 27 0 25 0;
#X connect 28 0 22 0;
#X connect 29 0 30 0;
#X connect 30 0 28 1;
#X restore 98 -78 pd screen;
#N canvas 245 248 1638 1060 sound 0;
#X obj 599 -167 r aux;
#N canvas 0 50 450 250 (subpatch) 0;
#X array waveAll 24 float 1;
#A 0 1 0.199997 1 1 0.41428 -0.692308 -0.230769 -0.692308 1 -0.692308
-0.384615 1 -0.328569 -0.414282 1 1 1 -0.557138 -0.514281 -0.385711
-0.285712 -0.214284 -0.0857143 0.128569;
#X coords 0 1 23 -1 200 140 1;
#X restore 1227 270 graph;
#X obj 392 94 hsl 100 20 0 1 0 0 empty empty empty -2 -8 0 10 -262144
-1 -1 0 1;
#X obj 416 201 hsl 100 20 0 1 0 0 empty empty empty -2 -8 0 10 -262144
-1 -1 0 1;
#X obj 391 143 t b f;
#X obj 412 279 t b f;
#X obj 675 360 r tableSize;
#N canvas 0 50 450 250 (subpatch) 0;
#X array waveZoom 24 float 3;
#A 0 1 0.199997 1 1 0.41428 -0.692308 -0.230769 -0.692308 1 -0.692308
-0.384615 1 -0.328569 -0.414282 1 1 1 -0.557138 -0.514281 -0.385711
-0.285712 -0.214284 -0.0857143 0.128569;
#X coords 0 1 24 -1 200 140 1 0 0;
#X restore 1227 441 graph;
#X obj 424 443 tabwrite waveAll;
#X obj 391 377 t b f;
#X obj 395 1032 tabwrite waveZoom;
#X obj 391 817 until;
#X obj 391 736 t b b;
#X obj 391 871 i;
#X obj 422 871 + 1;
#X obj 395 989 tabread waveAll;
#X obj 395 932 t f f;
#X obj 600 -31 tgl 40 0 empty empty empty 17 7 0 10 -204786 -1 -1 0
1;
#X obj 424 416 spigot;
#X obj 490 528 hsl 200 20 0 1 0 0 empty empty empty -2 -8 0 10 -262144
-1 -1 0 1;
#X obj 391 780 i;
#X floatatom 419 780 5 0 0 0 - - -;
#X obj 483 632 t b f;
#X obj 577 963 s waveZoom;
#X msg 577 938 resize \$1;
#X obj 515 664 s waveZoomSize;
#X obj 577 914 r waveZoomSize;
#X obj 600 71 sel 1;
#X obj 729 671 hsl 100 20 0 1 0 0 empty empty empty -2 -8 0 10 -262144
-1 -1 0 1;
#X obj 689 790 r tableSize;
#X obj 726 762 t b f;
#X msg 446 840 0;
#X obj 395 956 + 0;
#X obj 629 833 expr int(($f2 - $f3) * $f4);
#X obj 717 808 r waveZoomSize;
#X obj 389 62 r knob1_1;
#X obj 414 178 r knob2_1;
#X obj 483 505 r knob3_1;
#X obj 725 648 r knob4_1;
#X obj 697 198 s oscOut;
#X msg 802 173 send /led 0;
#X obj 499 840 s isFirstPoint;
#X msg 499 818 1;
#X obj 362 901 t f f;
#X obj 168 960 sel 1;
#X obj 168 934 expr if($f1 == $f2 - 1 \, 1 \, 0);
#X obj 12 -123 r notes;
#X obj 12 244 s~ soundOut;
#X obj 12 213 *~ 1;
#X obj 12 111 voice;
#X obj 12 -2 poly 6 1;
#X obj 12 71 route 1 2 3 4 5 6;
#X obj 35 153 voice;
#X obj 23 132 voice;
#X obj 77 111 voice;
#X obj 100 153 voice;
#X obj 88 132 voice;
#X obj 12 22 pack 0 0 0;
#X obj 799 488 r latebang;
#X msg 799 512 0;
#X obj 401 119 s cursorX;
#X obj 424 248 s cursorY;
#X obj 767 51 s drawingOn;
#X obj 413 226 expr 1 - $f1;
#X obj 527 576 s zoomRatio;
#X obj 769 696 s zoomPosition;
#X obj 726 696 t f f;
#X obj 483 575 t f f;
#X msg 697 173 send /led 7;
#X obj 1228 236 hsl 200 15 0 1 0 0 empty empty empty -2 -8 0 10 -262144
-1 -1 0 1;
#X floatatom 618 377 5 0 0 0 - - -;
#X obj 465 -167 r bigbang;
#X obj 764 335 r zoomPosition;
#X obj 661 566 r tableSize;
#X obj 635 459 s degug1;
#X obj 1225 152 r degug1;
#X obj 1225 176 expr $f1 / $f2;
#X obj 1320 149 r tableSize;
#X obj 826 361 r waveZoomSize;
#X floatatom 826 385 5 0 0 0 - - -;
#X floatatom 764 384 5 0 0 0 - - -;
#X floatatom 617 434 5 0 0 0 - - -;
#X floatatom 675 383 5 0 0 0 - - -;
#X floatatom 430 627 5 0 0 0 - - -;
#X obj 618 409 expr int($f1 + $f3 * ($f2 - $f4));
#X obj 527 290 r waveZoomSize;
#X obj 391 316 expr ($f3 * 2) - 1 \; int($f2 * ($f4 - 1));
#N canvas 0 50 450 250 (subpatch) 0;
#X array waveZoomHirez 92 float 1;
#A 0 0.799999 0.599998 0.399998 0.199997 0.399998 0.599998 0.799999
1 1 1 1 1 0.85357 0.70714 0.56071 0.41428 0.137633 -0.139014 -0.415661
-0.692308 -0.576923 -0.461538 -0.346154 -0.230769 -0.346154 -0.461538
-0.576923 -0.692308 -0.269231 0.153846 0.576923 1 0.576923 0.153846
-0.269231 -0.692308 -0.615385 -0.538462 -0.461538 -0.384615 -0.0384613
0.307692 0.653846 1 0.667858 0.335716 0.0035733 -0.328569 -0.349997
-0.371426 -0.392854 -0.414282 -0.0607115 0.292859 0.646429 1 1 1 1
1 1 1 1 1 0.610716 0.221431 -0.167853 -0.557138 -0.546424 -0.53571
-0.524995 -0.514281 -0.482138 -0.449996 -0.417854 -0.385711 -0.360711
-0.335712 -0.310712 -0.285712 -0.267855 -0.249998 -0.232141 -0.214284
-0.182142 -0.149999 -0.117857 -0.0857143 -0.0321435 0.0214274 0.0749982
0.128569;
#X coords 0 1 91 -1 200 140 1 0 0;
#X restore 1226 596 graph;
#N canvas 738 54 864 841 resample 0;
#X obj 188 757 tabwrite waveZoomHirez;
#X obj 464 120 r waveZoomSize;
#X obj 187 212 tabread waveZoom;
#X obj 187 128 i;
#X floatatom 219 129 5 0 0 0 - - -;
#X obj 187 155 until;
#X obj 187 182 i;
#X obj 218 182 + 1;
#X obj 187 -1 t b b;
#X floatatom 464 230 5 0 0 0 - - -;
#X obj 241 419 pack;
#X obj 239 378 f;
#X obj 61 579 until;
#X floatatom 370 593 10 0 0 0 - - -;
#X floatatom 276 586 5 0 0 0 - - -;
#X obj 633 237 s pointsInBetween;
#X msg 218 21 0;
#X obj 218 42 s zero;
#X obj 231 155 r zero;
#X obj 188 686 expr $f2 + $f3;
#X floatatom 188 710 10 0 0 0 - - -;
#X obj 370 547 /;
#X obj 388 522 r pointsInBetween;
#X obj 370 499 abs;
#X obj 370 571 *;
#X obj 219 80 r waveZoomSize;
#X obj 112 -8 bng 40 250 50 0 empty empty empty 17 7 0 10 -262144 -1
-1;
#X obj 188 340 t b b f b f;
#X obj 633 101 r bigbang;
#X obj 336 684 i;
#X obj 354 661 r zero;
#X obj 367 684 + 1;
#X floatatom 336 708 5 0 0 0 - - -;
#X obj 188 648 t b b;
#X obj 108 129 bng 40 250 50 0 empty empty empty 17 7 0 10 -262144
-1 -1;
#X obj 242 443 expr $f1 \; if ($f2 > $f1 \, $f1 - $f2 \, $f2 - $f1)
\; if ($f2 > $f1 \, 1 \, - 1) \;;
#X obj 61 547 i;
#X obj 92 520 r pointsInBetween;
#X obj 464 309 s waveZoomHirez;
#X msg 464 287 resize \$1;
#X obj 481 261 s waveZoomHirezSize;
#X msg 633 133 4;
#X obj 187 240 pack;
#X obj 258 241 r zero;
#X msg 187 264 \$2 \$1;
#X obj 187 288 route 0 1;
#X msg 310 241 1;
#X obj 464 175 expr $f2 * $f1;
#X obj 464 202 -;
#X obj 186 -28 r resampleBang;
#X connect 1 0 47 0;
#X connect 2 0 42 0;
#X connect 3 0 5 0;
#X connect 4 0 3 1;
#X connect 5 0 6 0;
#X connect 6 0 7 0;
#X connect 6 0 2 0;
#X connect 7 0 6 1;
#X connect 8 0 3 0;
#X connect 8 1 16 0;
#X connect 9 0 39 0;
#X connect 9 0 40 0;
#X connect 10 0 35 0;
#X connect 11 0 10 0;
#X connect 12 0 33 0;
#X connect 13 0 19 2;
#X connect 14 0 19 1;
#X connect 16 0 17 0;
#X connect 18 0 6 1;
#X connect 19 0 20 0;
#X connect 20 0 19 1;
#X connect 20 0 0 0;
#X connect 21 0 24 0;
#X connect 22 0 21 1;
#X connect 23 0 21 0;
#X connect 24 0 13 0;
#X connect 25 0 4 0;
#X connect 26 0 8 0;
#X connect 27 1 36 0;
#X connect 27 2 11 1;
#X connect 27 3 11 0;
#X connect 27 4 10 1;
#X connect 28 0 41 0;
#X connect 29 0 31 0;
#X connect 29 0 32 0;
#X connect 30 0 29 1;
#X connect 31 0 29 1;
#X connect 32 0 0 1;
#X connect 33 0 19 0;
#X connect 33 1 29 0;
#X connect 34 0 6 0;
#X connect 35 0 14 0;
#X connect 35 1 23 0;
#X connect 35 2 24 1;
#X connect 36 0 12 0;
#X connect 37 0 36 1;
#X connect 39 0 38 0;
#X connect 41 0 15 0;
#X connect 41 0 47 1;
#X connect 41 0 48 1;
#X connect 42 0 44 0;
#X connect 43 0 42 1;
#X connect 44 0 45 0;
#X connect 45 0 46 0;
#X connect 45 0 11 1;
#X connect 45 1 27 0;
#X connect 46 0 42 1;
#X connect 47 0 48 0;
#X connect 48 0 9 0;
#X connect 49 0 8 0;
#X restore 33 635 pd resample;
#X obj 481 600 expr int((1 - $f1) * ($f2 - 4)) + 4;
#X obj 600 14 t f f f;
#X obj 821 101 s turnOffCursor;
#X msg 465 -93 0;
#N canvas 215 93 1147 933 brownian 0;
#X obj 976 399 i;
#X obj 976 426 until;
#X obj 976 453 i;
#X obj 1007 453 + 1;
#X msg 1020 427 0;
#X obj 993 377 r waveZoomSize;
#X obj 161 60 bng 40 250 50 0 empty empty empty 17 7 0 10 -262144 -1
-1;
#X obj 976 631 clip -1 1;
#X obj 976 477 t f f;
#X obj 249 377 s resampleBang;
#X msg 574 123 stop;
#X obj 250 352 delay 2;
#X obj 385 5 r resetBrownian;
#X obj 425 126 s restoreZoom;
#X obj 385 227 metro 100;
#X obj 1227 474 hsl 128 30 0 1 0 0 empty empty empty -2 -8 0 10 -262144
-1 -1 0 1;
#X obj 976 603 expr $f1 + (random(-100 \, 100) * $f2);
#X floatatom 1224 533 5 0 0 0 - - -;
#X obj 1224 509 expr $f1 * 0.003;
#X obj 558 217 hsl 128 30 0 1 0 0 empty empty empty -2 -8 0 10 -262144
-1 -1 0 1;
#X floatatom 555 276 5 0 0 0 - - -;
#X obj 387 95 t b b;
#X obj 976 523 tabread waveZoomMod;
#X obj 976 673 tabwrite waveZoomMod;
#X obj 386 280 t b b b b;
#X obj 366 394 i;
#X obj 366 421 until;
#X obj 366 448 i;
#X obj 397 448 + 1;
#X msg 411 422 0;
#X obj 383 372 r waveZoomSize;
#X obj 355 896 tabwrite waveZoom;
#X obj 353 578 hsl 128 30 0 1 0 0 empty empty empty -2 -8 0 10 -262144
-1 -1 0 1;
#X msg 456 682 0;
#X msg 565 684 1;
#X obj 351 706 expr $f4 + ($f1 - $f2) * (($f5 - $f4) / ($f3 - $f2))
, f 62;
#X obj 350 642 t f b;
#X floatatom 351 730 5 0 0 0 - - -;
#X obj 706 558 tabread waveZoomMod;
#X obj 545 584 tabread waveZoomOrig;
#X floatatom 782 683 5 0 0 0 - - -;
#X floatatom 673 682 5 0 0 0 - - -;
#X obj 366 472 t b f;
#X obj 350 613 expr 1 - $f1;
#X obj 518 3 r scene;
#X obj 556 161 r knob1_3;
#X obj 1224 438 r knob2_3;
#X obj 262 545 r knob3_3;
#X obj 385 69 spigot;
#X obj 518 27 == 3;
#X obj 517 84 t b b;
#X obj 518 51 sel 1;
#X obj 620 499 expr ($f1 + $f2) % $f3;
#X obj 761 468 r waveZoomSize;
#X floatatom 620 521 5 0 0 0 - - -;
#X obj 626 404 hsl 128 30 0 1 0 0 empty empty empty -2 -8 0 10 -262144
-1 -1 0 1;
#X floatatom 578 466 5 0 0 0 - - -;
#X obj 579 378 i;
#X obj 610 378 + 1;
#X msg 595 355 0;
#X floatatom 579 402 5 0 0 0 - - -;
#X obj 579 441 expr int($f1 * $f2);
#X obj 624 305 s logChangeTime;
#X obj 555 252 expr int($f1 * 1900) + 60;
#X obj 651 378 r knob4_3;
#X connect 0 0 1 0;
#X connect 1 0 2 0;
#X connect 2 0 3 0;
#X connect 2 0 8 0;
#X connect 3 0 2 1;
#X connect 4 0 2 1;
#X connect 5 0 0 1;
#X connect 6 0 14 0;
#X connect 7 0 23 0;
#X connect 8 0 22 0;
#X connect 8 1 23 1;
#X connect 10 0 14 0;
#X connect 11 0 9 0;
#X connect 12 0 48 0;
#X connect 14 0 24 0;
#X connect 15 0 18 0;
#X connect 16 0 7 0;
#X connect 17 0 16 1;
#X connect 18 0 17 0;
#X connect 19 0 63 0;
#X connect 20 0 62 0;
#X connect 20 0 14 1;
#X connect 21 0 14 0;
#X connect 21 1 13 0;
#X connect 22 0 16 0;
#X connect 24 0 11 0;
#X connect 24 1 25 0;
#X connect 24 2 0 0;
#X connect 24 3 4 0;
#X connect 24 3 29 0;
#X connect 24 3 57 0;
#X connect 25 0 26 0;
#X connect 26 0 27 0;
#X connect 27 0 28 0;
#X connect 27 0 42 0;
#X connect 28 0 27 1;
#X connect 29 0 27 1;
#X connect 30 0 25 1;
#X connect 32 0 43 0;
#X connect 33 0 35 1;
#X connect 34 0 35 2;
#X connect 35 0 37 0;
#X connect 36 0 35 0;
#X connect 36 1 33 0;
#X connect 36 1 34 0;
#X connect 37 0 31 0;
#X connect 38 0 40 0;
#X connect 39 0 41 0;
#X connect 40 0 35 4;
#X connect 41 0 35 3;
#X connect 42 0 32 0;
#X connect 42 1 31 1;
#X connect 42 1 52 0;
#X connect 43 0 36 0;
#X connect 44 0 49 0;
#X connect 45 0 19 0;
#X connect 46 0 15 0;
#X connect 47 0 32 0;
#X connect 48 0 21 0;
#X connect 49 0 48 1;
#X connect 49 0 51 0;
#X connect 50 0 10 0;
#X connect 50 1 13 0;
#X connect 51 0 21 0;
#X connect 51 1 50 0;
#X connect 52 0 54 0;
#X connect 53 0 52 2;
#X connect 54 0 38 0;
#X connect 54 0 39 0;
#X connect 55 0 61 1;
#X connect 56 0 52 1;
#X connect 57 0 58 0;
#X connect 57 0 60 0;
#X connect 58 0 57 1;
#X connect 59 0 57 1;
#X connect 60 0 61 0;
#X connect 61 0 56 0;
#X connect 63 0 20 0;
#X connect 64 0 55 0;
#X restore 131 635 pd brownian;
#X obj 168 993 s resampleBang;
#X obj 12 -99 unpack;
#X obj 166 -107 sel 0;
#X obj 12 -45 pack;
#X msg 163 -36 -1;
#X msg 197 -36 1;
#X obj 161 53 +;
#X floatatom 191 53 5 0 0 0 - - -;
#X msg 190 30 0;
#X obj 188 8 r bigbang;
#X obj 269 -3 spigot;
#X floatatom 306 -23 5 0 0 0 - - -;
#X obj 197 -82 t b b;
#X obj 162 78 == 0;
#X obj 269 698 r restoreZoom;
#X obj 223 83 s resetBrownian;
#N canvas 0 50 450 250 (subpatch) 0;
#X array waveZoomMod 24 float 3;
#A 0 1 0.199997 1 1 0.41428 -0.692308 -0.230769 -0.692308 1 -0.692308
-0.384615 1 -0.328569 -0.414282 1 1 1 -0.557138 -0.514281 -0.385711
-0.285712 -0.214284 -0.0857143 0.128569;
#X coords 0 1 24 -1 200 140 1 0 0;
#X restore 1439 442 graph;
#X obj 658 963 s waveZoomOrig;
#X obj 401 1058 tabwrite waveZoomOrig;
#N canvas 0 50 450 250 (subpatch) 0;
#X array waveZoomOrig 24 float 3;
#A 0 1 0.199997 1 1 0.41428 -0.692308 -0.230769 -0.692308 1 -0.692308
-0.384615 1 -0.328569 -0.414282 1 1 1 -0.557138 -0.514281 -0.385711
-0.285712 -0.214284 -0.0857143 0.128569;
#X coords 0 1 24 -1 200 140 1 0 0;
#X restore 1017 442 graph;
#X obj 768 963 s waveZoomMod;
#X obj 454 1078 tabwrite waveZoomMod;
#X obj 194 336 r logTranspose;
#X floatatom 194 360 5 0 0 0 - - -;
#X obj 690 145 spigot;
#X obj 599 -93 spigot;
#X obj 639 -141 r scene;
#X obj 639 -117 == 1;
#X floatatom 90 -45 5 0 0 0 - - -;
#X connect 0 0 119 0;
#X connect 2 0 4 0;
#X connect 2 0 60 0;
#X connect 3 0 63 0;
#X connect 4 0 86 0;
#X connect 4 1 86 1;
#X connect 5 0 86 0;
#X connect 5 1 86 2;
#X connect 6 0 82 0;
#X connect 9 0 12 0;
#X connect 9 1 18 0;
#X connect 11 0 13 0;
#X connect 12 0 20 0;
#X connect 12 1 31 0;
#X connect 12 1 33 0;
#X connect 12 1 42 0;
#X connect 13 0 14 0;
#X connect 13 0 43 0;
#X connect 14 0 13 1;
#X connect 15 0 10 0;
#X connect 15 0 112 0;
#X connect 15 0 115 0;
#X connect 16 0 32 0;
#X connect 16 1 10 1;
#X connect 16 1 112 1;
#X connect 16 1 115 1;
#X connect 17 0 90 0;
#X connect 18 0 8 0;
#X connect 19 0 67 0;
#X connect 20 0 11 0;
#X connect 21 0 20 1;
#X connect 21 0 45 1;
#X connect 22 0 12 0;
#X connect 22 1 21 0;
#X connect 22 1 25 0;
#X connect 24 0 23 0;
#X connect 24 0 111 0;
#X connect 24 0 114 0;
#X connect 26 0 24 0;
#X connect 27 0 2 0;
#X connect 27 0 3 0;
#X connect 27 0 68 0;
#X connect 27 1 40 0;
#X connect 27 1 91 0;
#X connect 28 0 66 0;
#X connect 29 0 33 1;
#X connect 30 0 12 0;
#X connect 30 1 33 3;
#X connect 31 0 13 1;
#X connect 32 0 15 0;
#X connect 33 0 32 1;
#X connect 34 0 33 2;
#X connect 35 0 2 0;
#X connect 36 0 3 0;
#X connect 37 0 19 0;
#X connect 38 0 28 0;
#X connect 40 0 39 0;
#X connect 42 0 41 0;
#X connect 43 0 45 0;
#X connect 43 1 16 0;
#X connect 44 0 94 0;
#X connect 45 0 44 0;
#X connect 46 0 95 0;
#X connect 48 0 47 0;
#X connect 49 0 48 0;
#X connect 50 0 57 0;
#X connect 50 1 57 1;
#X connect 50 2 57 2;
#X connect 51 0 49 0;
#X connect 51 1 53 0;
#X connect 51 2 52 0;
#X connect 51 3 54 0;
#X connect 51 4 56 0;
#X connect 51 5 55 0;
#X connect 52 0 48 0;
#X connect 53 0 48 0;
#X connect 54 0 48 0;
#X connect 55 0 48 0;
#X connect 56 0 48 0;
#X connect 57 0 51 0;
#X connect 58 0 59 0;
#X connect 59 0 28 0;
#X connect 59 0 19 0;
#X connect 63 0 5 0;
#X connect 63 0 61 0;
#X connect 66 0 30 0;
#X connect 66 1 65 0;
#X connect 67 0 89 0;
#X connect 67 1 64 0;
#X connect 68 0 39 0;
#X connect 70 0 84 0;
#X connect 71 0 92 0;
#X connect 72 0 80 0;
#X connect 73 0 89 1;
#X connect 75 0 76 0;
#X connect 76 0 69 0;
#X connect 77 0 76 1;
#X connect 78 0 79 0;
#X connect 79 0 84 3;
#X connect 80 0 84 2;
#X connect 81 0 74 0;
#X connect 81 0 8 1;
#X connect 82 0 84 1;
#X connect 84 0 81 0;
#X connect 85 0 86 3;
#X connect 86 0 9 0;
#X connect 86 1 70 0;
#X connect 89 0 22 0;
#X connect 89 0 83 0;
#X connect 90 0 27 0;
#X connect 90 1 18 1;
#X connect 90 2 62 0;
#X connect 92 0 17 0;
#X connect 95 0 97 0;
#X connect 95 0 122 0;
#X connect 95 1 97 1;
#X connect 95 1 96 0;
#X connect 96 0 98 0;
#X connect 96 1 106 0;
#X connect 97 0 50 0;
#X connect 98 0 100 0;
#X connect 99 0 100 0;
#X connect 100 0 101 0;
#X connect 100 0 107 0;
#X connect 101 0 100 1;
#X connect 102 0 101 0;
#X connect 103 0 102 0;
#X connect 104 0 109 0;
#X connect 105 0 104 1;
#X connect 106 0 99 0;
#X connect 106 1 104 0;
#X connect 107 0 105 0;
#X connect 108 0 12 0;
#X connect 116 0 117 0;
#X connect 119 0 17 0;
#X connect 120 0 121 0;
#X connect 121 0 119 1;
#X restore 99 -52 pd sound;
#X connect 0 0 1 0;
