#N canvas 335 67 1451 826 10;
#X obj 154 705 outlet~;
#X obj 152 47 inlet;
#X obj 152 96 unpack;
#X obj 374 309 moses 1;
#X obj 372 500 line;
#X obj 152 323 mtof;
#X floatatom 152 347 5 0 0 0 - - -;
#X obj 153 409 *~;
#X obj 152 374 phasor~ 1;
#X obj 204 346 r resetPhase;
#X obj 186 410 r waveZoomHirezSize;
#X obj 155 437 tabread4~ waveZoomHirez;
#X obj 155 648 *~ 0;
#X obj 152 177 +;
#X floatatom 178 178 5 0 0 0 - - -;
#X obj 152 264 pack 0 10;
#X obj 152 285 line;
#X obj 455 329 / 127;
#X obj 458 417 pack;
#X obj 372 421 pack;
#X obj 881 123 expr $f1 * 1000 + 5;
#X obj 1145 121 expr $f1 * 1000 + 5;
#X floatatom 1145 146 5 0 0 0 - - -;
#X floatatom 1008 144 5 0 0 0 - - -;
#X floatatom 882 145 5 0 0 0 - - -;
#X obj 1008 121 expr $f1 * 2000 + 10;
#X msg 559 113 0;
#X msg 589 113 1;
#X obj 468 93 t f b;
#X msg 675 112 2;
#X msg 646 113 -3;
#X obj 468 68 r knob1_2;
#X obj 881 53 r knob2_2;
#X obj 1008 52 r knob3_2;
#X obj 1144 52 r knob4_2;
#X obj 469 137 expr int($f4 + ($f1 - $f2) * (($f5 - $f4) / ($f3 - $f2)))
* 12, f 62;
#X obj 757 -7 r bigbang;
#X msg 709 27 0.5;
#X msg 744 28 0;
#X msg 780 28 0.3;
#X msg 810 27 0;
#X obj 467 170 s logTranspose;
#X connect 1 0 2 0;
#X connect 2 0 13 0;
#X connect 2 1 3 0;
#X connect 3 0 19 0;
#X connect 3 1 17 0;
#X connect 4 0 12 1;
#X connect 5 0 6 0;
#X connect 6 0 8 0;
#X connect 7 0 11 0;
#X connect 8 0 7 0;
#X connect 9 0 8 1;
#X connect 10 0 7 1;
#X connect 11 0 12 0;
#X connect 12 0 0 0;
#X connect 13 0 15 0;
#X connect 14 0 13 1;
#X connect 15 0 16 0;
#X connect 16 0 5 0;
#X connect 17 0 18 0;
#X connect 18 0 4 0;
#X connect 19 0 4 0;
#X connect 20 0 24 0;
#X connect 21 0 22 0;
#X connect 22 0 15 1;
#X connect 23 0 19 1;
#X connect 24 0 18 1;
#X connect 25 0 23 0;
#X connect 26 0 35 1;
#X connect 27 0 35 2;
#X connect 28 0 35 0;
#X connect 28 1 29 0;
#X connect 28 1 30 0;
#X connect 28 1 27 0;
#X connect 28 1 26 0;
#X connect 29 0 35 4;
#X connect 30 0 35 3;
#X connect 31 0 28 0;
#X connect 32 0 20 0;
#X connect 33 0 25 0;
#X connect 34 0 21 0;
#X connect 35 0 14 0;
#X connect 35 0 41 0;
#X connect 36 0 38 0;
#X connect 36 0 37 0;
#X connect 36 0 39 0;
#X connect 36 0 40 0;
#X connect 37 0 28 0;
#X connect 38 0 20 0;
#X connect 39 0 25 0;
#X connect 40 0 21 0;
