#N canvas 189 40 1631 828 10;
#X obj 164 84 hidin;
#X msg 210 21 print;
#X obj 116 41 tgl 15 0 empty empty empty 17 7 0 10 -262144 -1 -1 1
1;
#X floatatom 18 168 5 0 0 0 - - -;
#X floatatom 72 175 5 0 0 0 - - -;
#X floatatom 153 173 5 0 0 0 - - -;
#X floatatom 194 173 5 0 0 0 - - -;
#X floatatom 314 182 5 0 0 0 - - -;
#X floatatom 553 186 5 0 0 0 - - -;
#X floatatom 590 186 5 0 0 0 - - -;
#X floatatom 631 186 5 0 0 0 - - -;
#X floatatom 671 185 5 0 0 0 - - -;
#X floatatom 709 186 5 0 0 0 - - -;
#X floatatom 748 185 5 0 0 0 - - -;
#X floatatom 788 185 5 0 0 0 - - -;
#X floatatom 859 77 5 0 0 0 - - -;
#X floatatom 898 77 5 0 0 0 - - -;
#X floatatom 938 75 5 0 0 0 - - -;
#X obj 157 126 route 0 1 2 3 4 5 6 7 8 9 10 11 12 13 14 15 16;
#X floatatom 923 45 5 0 0 0 - - -;
#X obj 504 341 bng 15 250 50 0 empty empty empty 17 7 0 10 -262144
-1 -1;
#X obj 538 367 bng 15 250 50 0 empty empty empty 17 7 0 10 -262144
-1 -1;
#X obj 507 408 bng 15 250 50 0 empty empty empty 17 7 0 10 -262144
-1 -1;
#X obj 476 366 bng 15 250 50 0 empty empty empty 17 7 0 10 -262144
-1 -1;
#X obj 628 344 bng 15 250 50 0 empty empty empty 17 7 0 10 -262144
-1 -1;
#X obj 661 307 bng 15 250 50 0 empty empty empty 17 7 0 10 -262144
-1 -1;
#X obj 699 347 bng 15 250 50 0 empty empty empty 17 7 0 10 -262144
-1 -1;
#X obj 664 381 bng 15 250 50 0 empty empty empty 17 7 0 10 -262144
-1 -1;
#X msg 581 376 127;
#X obj 317 308 moses 32768;
#X floatatom 400 345 5 0 0 0 - - -;
#X floatatom 321 344 5 0 0 0 - - -;
#X obj 497 465 s control;
#X msg 474 391 1;
#X msg 500 364 2;
#X msg 538 388 3;
#X msg 507 430 4;
#X obj 581 403 s value;
#X obj 545 291 sel 1 3 5 7;
#X msg 628 364 5;
#X msg 663 329 6;
#X msg 699 369 7;
#X msg 663 400 8;
#X obj 655 487 s control;
#X obj 721 486 s value;
#X obj 722 458 int;
#X obj 745 391 sel 0 1;
#X msg 746 417 1;
#X msg 778 417 0;
#X obj 865 129 bng 15 250 50 0 empty empty empty 17 7 0 10 -262144
-1 -1;
#X obj 866 107 sel 1;
#X obj 866 175 s control;
#X obj 931 175 s value;
#X msg 903 150 1;
#X msg 866 150 11;
#X obj 986 128 bng 15 250 50 0 empty empty empty 17 7 0 10 -262144
-1 -1;
#X obj 987 106 sel 1;
#X obj 987 174 s control;
#X obj 1052 174 s value;
#X msg 1024 149 1;
#X msg 987 149 12;
#X obj 169 297 vsl 15 128 0 127 0 0 empty empty empty 0 -9 0 10 -262144
-1 -1 0 1;
#X obj 104 257 maxlib/scale 0 65535 127 0;
#X obj 62 295 vsl 15 128 0 127 0 0 empty empty empty 0 -9 0 10 -262144
-1 -1 0 1;
#X obj 63 209 maxlib/scale 0 65535 127 0;
#X obj 51 439 hsl 128 15 0 127 0 0 empty empty empty -2 -8 0 10 -262144
-1 -1 0 1;
#X obj 189 441 hsl 128 15 0 127 0 0 empty empty empty -2 -8 0 10 -262144
-1 -1 0 1;
#X obj 111 276 maxlib/scale 0 65535 0 127;
#X obj 71 230 maxlib/scale 0 65535 0 127;
#X obj 121 529 s control;
#X obj 66 528 s value;
#X msg 121 504 13;
#X obj 100 587 s control;
#X obj 45 586 s value;
#X msg 99 560 14;
#X obj 268 506 s control;
#X obj 213 505 s value;
#X obj 247 564 s control;
#X obj 192 563 s value;
#X msg 266 481 15;
#X msg 246 537 16;
#X obj 19 140 spigot;
#X obj 17 82 tgl 15 0 empty empty empty 17 7 0 10 -262144 -1 -1 0 1
;
#X obj 65 145 spigot;
#X obj 114 149 spigot;
#X obj 169 148 spigot;
#X floatatom 1230 123 5 0 0 0 - - -;
#X obj 1233 249 moses 32768;
#X floatatom 1316 286 5 0 0 0 - - -;
#X floatatom 1236 286 5 0 0 0 - - -;
#X obj 1315 343 bng 15 250 50 0 empty empty empty 17 7 0 10 -262144
-1 -1;
#X obj 1342 345 bng 15 250 50 0 empty empty empty 17 7 0 10 -262144
-1 -1;
#X obj 1316 318 sel 128;
#X msg 1352 369 0;
#X obj 1330 403 tgl 15 0 empty empty empty 17 7 0 10 -262144 -1 -1
0 2;
#X obj 1230 345 bng 15 250 50 0 empty empty empty 17 7 0 10 -262144
-1 -1;
#X obj 1266 347 bng 15 250 50 0 empty empty empty 17 7 0 10 -262144
-1 -1;
#X msg 1242 372 1;
#X msg 1275 377 0;
#X obj 1254 405 tgl 15 0 empty empty empty 17 7 0 10 -262144 -1 -1
0 1;
#X obj 1240 320 sel 65408;
#X floatatom 1285 441 5 0 0 0 - - -;
#X msg 1318 370 2;
#X obj 1291 467 * 20;
#X obj 1267 620 ctlout;
#X msg 1400 593 1;
#X obj 1221 522 r value;
#X obj 1277 558 +;
#X floatatom 1232 581 5 0 0 0 - - -;
#X obj 1276 532 r control;
#X obj 1398 564 loadbang;
#X obj 1457 569 bng 15 250 50 0 empty empty empty 17 7 0 10 -262144
-1 -1;
#X floatatom 1277 582 5 0 0 0 - - -;
#X obj 1226 612 bng 15 250 50 0 empty empty empty 17 7 0 10 -262144
-1 -1;
#X obj 1308 500 *;
#X floatatom 1340 483 5 0 0 0 - - -;
#X floatatom 1304 560 5 0 0 0 - - -;
#X obj 916 321 bng 15 250 50 0 empty empty empty 17 7 0 10 -262144
-1 -1;
#X obj 943 323 bng 15 250 50 0 empty empty empty 17 7 0 10 -262144
-1 -1;
#X msg 953 347 0;
#X obj 932 381 tgl 15 0 empty empty empty 17 7 0 10 -262144 -1 -1 0
2;
#X obj 831 323 bng 15 250 50 0 empty empty empty 17 7 0 10 -262144
-1 -1;
#X obj 867 325 bng 15 250 50 0 empty empty empty 17 7 0 10 -262144
-1 -1;
#X msg 843 350 1;
#X msg 876 355 0;
#X obj 855 383 tgl 15 0 empty empty empty 17 7 0 10 -262144 -1 -1 0
1;
#X floatatom 863 407 5 0 0 0 - - -;
#X obj 905 485 * 20;
#X obj 868 598 ctlout;
#X obj 822 500 r value;
#X obj 878 536 +;
#X floatatom 833 559 5 0 0 0 - - -;
#X obj 877 510 r control;
#X floatatom 878 560 5 0 0 0 - - -;
#X obj 827 590 bng 15 250 50 0 empty empty empty 17 7 0 10 -262144
-1 -1;
#X floatatom 905 538 5 0 0 0 - - -;
#X obj 841 298 sel 1 0;
#X obj 918 297 sel 1 0;
#X obj 453 554 vsl 15 128 0 127 0 0 empty empty empty 0 -9 0 10 -262144
-1 -1 1 1;
#X obj 388 514 maxlib/scale 128 32512 127 0;
#X obj 342 550 vsl 15 128 0 127 0 0 empty empty empty 0 -9 0 10 -262144
-1 -1 99 1;
#X obj 347 495 maxlib/scale 32512 65408 0 127;
#X obj 390 653 s control;
#X obj 361 673 s value;
#X obj 524 642 s control;
#X obj 476 671 s value;
#X msg 402 598 9;
#X msg 512 606 10;
#X msg 1001 571 1;
#X obj 999 542 loadbang;
#X obj 1058 547 bng 15 250 50 0 empty empty empty 17 7 0 10 -262144
-1 -1;
#X msg 919 348 2;
#X floatatom 927 408 5 0 0 0 - - -;
#X obj 725 635 expr;
#X floatatom 861 455 0 0 0 0 - - -;
#X obj 861 432 expr $f1 * 0 + $f2 + $f3;
#X floatatom 473 638 5 0 0 0 - - -;
#X floatatom 361 630 5 0 0 0 - - -;
#X obj 348 386 sel 32768;
#X msg 369 435 32767;
#X obj 656 451 t f b;
#X obj 213 474 t f b;
#X obj 192 532 t f b;
#X obj 66 497 t f b;
#X obj 45 555 t f b;
#X obj 360 600 t f b;
#X obj 470 608 t f b;
#X msg 158 21 open 11;
#X connect 0 0 18 0;
#X connect 1 0 0 0;
#X connect 2 0 0 0;
#X connect 3 0 64 0;
#X connect 4 0 68 0;
#X connect 5 0 62 0;
#X connect 6 0 67 0;
#X connect 7 0 29 0;
#X connect 8 0 38 0;
#X connect 9 0 27 0;
#X connect 9 0 46 0;
#X connect 10 0 26 0;
#X connect 10 0 46 0;
#X connect 11 0 24 0;
#X connect 11 0 46 0;
#X connect 12 0 25 0;
#X connect 12 0 46 0;
#X connect 13 0 136 0;
#X connect 14 0 137 0;
#X connect 15 0 50 0;
#X connect 16 0 56 0;
#X connect 18 1 81 0;
#X connect 18 2 83 0;
#X connect 18 3 84 0;
#X connect 18 4 85 0;
#X connect 18 5 7 0;
#X connect 18 6 8 0;
#X connect 18 7 9 0;
#X connect 18 8 10 0;
#X connect 18 9 11 0;
#X connect 18 10 12 0;
#X connect 18 11 13 0;
#X connect 18 12 14 0;
#X connect 18 13 15 0;
#X connect 18 14 16 0;
#X connect 18 15 17 0;
#X connect 18 17 19 0;
#X connect 20 0 34 0;
#X connect 21 0 35 0;
#X connect 22 0 36 0;
#X connect 23 0 33 0;
#X connect 24 0 39 0;
#X connect 25 0 40 0;
#X connect 26 0 41 0;
#X connect 27 0 42 0;
#X connect 28 0 37 0;
#X connect 29 0 30 0;
#X connect 29 1 31 0;
#X connect 30 0 139 0;
#X connect 31 0 141 0;
#X connect 31 0 158 0;
#X connect 33 0 32 0;
#X connect 34 0 32 0;
#X connect 35 0 32 0;
#X connect 36 0 32 0;
#X connect 38 0 20 0;
#X connect 38 1 21 0;
#X connect 38 2 22 0;
#X connect 38 3 23 0;
#X connect 38 4 28 0;
#X connect 39 0 160 0;
#X connect 40 0 160 0;
#X connect 41 0 160 0;
#X connect 42 0 160 0;
#X connect 45 0 44 0;
#X connect 46 0 47 0;
#X connect 46 1 48 0;
#X connect 47 0 45 1;
#X connect 48 0 45 1;
#X connect 49 0 54 0;
#X connect 49 0 53 0;
#X connect 50 0 49 0;
#X connect 53 0 52 0;
#X connect 54 0 51 0;
#X connect 55 0 60 0;
#X connect 55 0 59 0;
#X connect 56 0 55 0;
#X connect 59 0 58 0;
#X connect 60 0 57 0;
#X connect 61 0 161 0;
#X connect 62 0 61 0;
#X connect 63 0 163 0;
#X connect 64 0 63 0;
#X connect 65 0 164 0;
#X connect 66 0 162 0;
#X connect 67 0 66 0;
#X connect 68 0 65 0;
#X connect 71 0 69 0;
#X connect 74 0 72 0;
#X connect 79 0 75 0;
#X connect 80 0 77 0;
#X connect 81 0 3 0;
#X connect 82 0 81 1;
#X connect 82 0 83 1;
#X connect 82 0 84 1;
#X connect 82 0 85 1;
#X connect 83 0 4 0;
#X connect 84 0 5 0;
#X connect 85 0 6 0;
#X connect 86 0 87 0;
#X connect 87 0 88 0;
#X connect 87 1 89 0;
#X connect 88 0 92 0;
#X connect 89 0 100 0;
#X connect 90 0 102 0;
#X connect 91 0 93 0;
#X connect 92 0 90 0;
#X connect 92 1 91 0;
#X connect 93 0 94 0;
#X connect 93 0 101 0;
#X connect 94 0 101 0;
#X connect 95 0 97 0;
#X connect 96 0 98 0;
#X connect 97 0 99 0;
#X connect 98 0 99 0;
#X connect 98 0 101 0;
#X connect 99 0 101 0;
#X connect 100 0 95 0;
#X connect 100 1 96 0;
#X connect 101 0 103 0;
#X connect 102 0 94 0;
#X connect 103 0 114 0;
#X connect 105 0 104 2;
#X connect 105 0 115 0;
#X connect 106 0 108 0;
#X connect 107 0 112 0;
#X connect 108 0 104 0;
#X connect 108 0 113 0;
#X connect 109 0 107 0;
#X connect 110 0 105 0;
#X connect 111 0 105 0;
#X connect 112 0 104 1;
#X connect 114 0 116 0;
#X connect 115 0 114 1;
#X connect 116 0 107 1;
#X connect 117 0 151 0;
#X connect 118 0 119 0;
#X connect 119 0 120 0;
#X connect 120 0 152 0;
#X connect 121 0 123 0;
#X connect 122 0 124 0;
#X connect 123 0 125 0;
#X connect 124 0 125 0;
#X connect 125 0 126 0;
#X connect 126 0 155 1;
#X connect 126 0 155 0;
#X connect 127 0 135 0;
#X connect 129 0 131 0;
#X connect 130 0 133 0;
#X connect 131 0 128 0;
#X connect 131 0 134 0;
#X connect 132 0 130 0;
#X connect 133 0 128 1;
#X connect 135 0 130 1;
#X connect 136 0 121 0;
#X connect 136 1 122 0;
#X connect 137 0 117 0;
#X connect 137 1 118 0;
#X connect 138 0 166 0;
#X connect 139 0 138 0;
#X connect 140 0 165 0;
#X connect 141 0 140 0;
#X connect 146 0 142 0;
#X connect 147 0 144 0;
#X connect 148 0 128 2;
#X connect 149 0 148 0;
#X connect 150 0 148 0;
#X connect 151 0 120 0;
#X connect 152 0 155 2;
#X connect 152 0 155 0;
#X connect 154 0 127 0;
#X connect 155 0 154 0;
#X connect 156 0 145 0;
#X connect 157 0 143 0;
#X connect 158 0 159 0;
#X connect 159 0 139 0;
#X connect 160 0 43 0;
#X connect 160 1 45 0;
#X connect 161 0 76 0;
#X connect 161 1 79 0;
#X connect 162 0 78 0;
#X connect 162 1 80 0;
#X connect 163 0 70 0;
#X connect 163 1 71 0;
#X connect 164 0 73 0;
#X connect 164 1 74 0;
#X connect 165 0 157 0;
#X connect 165 1 146 0;
#X connect 166 0 156 0;
#X connect 166 1 147 0;
#X connect 167 0 0 0;
