#N canvas 171 103 1711 921 10;
#X obj 164 84 hidin;
#X msg 210 21 print;
#X obj 116 41 tgl 15 0 empty empty empty 17 7 0 10 -262144 -1 -1 1
1;
#X floatatom 18 168 5 0 0 0 - - -;
#X floatatom 72 175 5 0 0 0 - - -;
#X floatatom 153 173 5 0 0 0 - - -;
#X floatatom 194 173 5 0 0 0 - - -;
#X floatatom 314 182 5 0 0 0 - - -;
#X floatatom 553 186 5 0 0 0 - - -;
#X floatatom 590 186 5 0 0 0 - - -;
#X floatatom 631 186 5 0 0 0 - - -;
#X floatatom 671 185 5 0 0 0 - - -;
#X floatatom 709 186 5 0 0 0 - - -;
#X floatatom 748 185 5 0 0 0 - - -;
#X floatatom 788 185 5 0 0 0 - - -;
#X floatatom 859 77 5 0 0 0 - - -;
#X floatatom 898 77 5 0 0 0 - - -;
#X floatatom 938 75 5 0 0 0 - - -;
#X obj 157 126 route 0 1 2 3 4 5 6 7 8 9 10 11 12 13 14 15 16;
#X floatatom 923 45 5 0 0 0 - - -;
#X obj 510 308 bng 15 250 50 0 empty empty empty 17 7 0 10 -262144
-1 -1;
#X obj 544 334 bng 15 250 50 0 empty empty empty 17 7 0 10 -262144
-1 -1;
#X obj 513 375 bng 15 250 50 0 empty empty empty 17 7 0 10 -262144
-1 -1;
#X obj 482 333 bng 15 250 50 0 empty empty empty 17 7 0 10 -262144
-1 -1;
#X obj 702 394 bng 15 250 50 0 empty empty empty 17 7 0 10 -262144
-1 -1;
#X obj 735 357 bng 15 250 50 0 empty empty empty 17 7 0 10 -262144
-1 -1;
#X obj 773 397 bng 15 250 50 0 empty empty empty 17 7 0 10 -262144
-1 -1;
#X obj 738 431 bng 15 250 50 0 empty empty empty 17 7 0 10 -262144
-1 -1;
#X obj 317 308 moses 32768;
#X floatatom 400 345 5 0 0 0 - - -;
#X floatatom 321 344 5 0 0 0 - - -;
#X msg 506 331 2;
#X obj 551 258 sel 1 3 5 7;
#X obj 865 129 bng 15 250 50 0 empty empty empty 17 7 0 10 -262144
-1 -1;
#X obj 866 107 sel 1;
#X obj 986 128 bng 15 250 50 0 empty empty empty 17 7 0 10 -262144
-1 -1;
#X obj 987 106 sel 1;
#X obj 169 297 vsl 15 128 0 127 0 0 empty empty empty 0 -9 0 10 -262144
-1 -1 6400 1;
#X obj 104 257 maxlib/scale 0 65535 127 0;
#X obj 62 295 vsl 15 128 0 127 0 0 empty empty empty 0 -9 0 10 -262144
-1 -1 6584 1;
#X obj 63 209 maxlib/scale 0 65535 127 0;
#X obj 51 439 hsl 128 15 0 127 0 0 empty empty empty -2 -8 0 10 -262144
-1 -1 5705 1;
#X obj 189 441 hsl 128 15 0 127 0 0 empty empty empty -2 -8 0 10 -262144
-1 -1 6986 1;
#X obj 111 276 maxlib/scale 0 65535 0 127;
#X obj 71 230 maxlib/scale 0 65535 0 127;
#X obj 121 529 s control;
#X obj 66 528 s value;
#X msg 121 504 13;
#X obj 100 587 s control;
#X obj 45 586 s value;
#X msg 99 560 14;
#X obj 268 506 s control;
#X obj 213 505 s value;
#X obj 247 564 s control;
#X obj 192 563 s value;
#X msg 266 481 15;
#X msg 246 537 16;
#X obj 19 140 spigot;
#X obj 17 82 tgl 15 0 empty empty empty 17 7 0 10 -262144 -1 -1 1 1
;
#X obj 65 145 spigot;
#X obj 114 149 spigot;
#X obj 169 148 spigot;
#X obj 1513 272 bng 15 250 50 0 empty empty empty 17 7 0 10 -262144
-1 -1;
#X obj 1540 274 bng 15 250 50 0 empty empty empty 17 7 0 10 -262144
-1 -1;
#X msg 1550 298 0;
#X obj 1529 332 tgl 15 0 empty empty empty 17 7 0 10 -262144 -1 -1
0 2;
#X obj 1428 274 bng 15 250 50 0 empty empty empty 17 7 0 10 -262144
-1 -1;
#X obj 1464 276 bng 15 250 50 0 empty empty empty 17 7 0 10 -262144
-1 -1;
#X msg 1440 301 1;
#X msg 1473 306 0;
#X obj 1452 334 tgl 15 0 empty empty empty 17 7 0 10 -262144 -1 -1
0 1;
#X floatatom 1460 358 5 0 0 0 - - -;
#X obj 1438 249 sel 1 0;
#X obj 1515 248 sel 1 0;
#X obj 453 554 vsl 15 128 0 127 0 0 empty empty empty 0 -9 0 10 -262144
-1 -1 1 1;
#X obj 388 514 maxlib/scale 128 32512 127 0;
#X obj 342 550 vsl 15 128 0 127 0 0 empty empty empty 0 -9 0 10 -262144
-1 -1 99 1;
#X obj 347 495 maxlib/scale 32512 65408 0 127;
#X obj 390 653 s control;
#X obj 361 673 s value;
#X obj 524 642 s control;
#X obj 476 671 s value;
#X msg 402 598 9;
#X msg 512 606 10;
#X msg 1516 299 2;
#X floatatom 1524 359 5 0 0 0 - - -;
#X floatatom 1458 406 0 0 0 0 - - -;
#X floatatom 473 638 5 0 0 0 - - -;
#X floatatom 361 630 5 0 0 0 - - -;
#X obj 348 386 sel 32768;
#X msg 369 435 32767;
#X obj 213 474 t f b;
#X obj 192 532 t f b;
#X obj 66 497 t f b;
#X obj 45 555 t f b;
#X obj 360 600 t f b;
#X obj 470 608 t f b;
#X msg 158 21 open 11;
#X obj 937 332 sel 0 1;
#X floatatom 1103 184 5 0 0 0 - - -;
#X obj 756 669 +;
#X msg 967 385 100;
#X msg 935 385 0;
#X obj 722 222 t b f;
#X obj 703 251 t b f;
#X obj 678 292 t b f;
#X obj 631 233 t b f;
#X obj 960 739 t f f f;
#X obj 975 766 + 3;
#X obj 973 685 gate 4;
#X obj 1458 383 expr $f1 * 0 + $f2 + $f3 + 1;
#X obj 1037 738 t f f f;
#X obj 1110 739 t f f f;
#X obj 1155 768 + 12;
#X obj 1005 768 + 7;
#X obj 1052 765 + 4;
#X obj 1082 767 + 7;
#X obj 1125 766 + 7;
#X msg 480 358 0;
#X msg 544 355 4;
#X msg 513 397 5;
#X msg 702 414 7;
#X msg 737 450 12;
#X msg 773 419 11;
#X msg 737 380 9;
#X obj 569 223 t f f;
#X obj 591 722 int;
#X msg 674 615 1;
#X obj 620 650 t b b;
#X obj 614 619 sel 0;
#X floatatom 673 818 5 0 0 0 - - -;
#X msg 702 714 0;
#X obj 1087 151 +;
#X msg 829 728 60 120 1;
#X obj 839 880 noteout;
#X msg 1033 147 -12;
#X msg 1069 106 12;
#X connect 0 0 18 0;
#X connect 1 0 0 0;
#X connect 2 0 0 0;
#X connect 3 0 40 0;
#X connect 4 0 44 0;
#X connect 5 0 38 0;
#X connect 6 0 43 0;
#X connect 7 0 28 0;
#X connect 8 0 125 0;
#X connect 9 0 106 0;
#X connect 10 0 104 0;
#X connect 11 0 103 0;
#X connect 12 0 105 0;
#X connect 13 0 72 0;
#X connect 14 0 73 0;
#X connect 15 0 34 0;
#X connect 16 0 36 0;
#X connect 18 1 57 0;
#X connect 18 2 59 0;
#X connect 18 3 60 0;
#X connect 18 4 61 0;
#X connect 18 5 7 0;
#X connect 18 6 8 0;
#X connect 18 7 9 0;
#X connect 18 8 10 0;
#X connect 18 9 11 0;
#X connect 18 10 12 0;
#X connect 18 11 13 0;
#X connect 18 12 14 0;
#X connect 18 13 15 0;
#X connect 18 14 16 0;
#X connect 18 15 17 0;
#X connect 18 17 19 0;
#X connect 20 0 31 0;
#X connect 21 0 119 0;
#X connect 22 0 120 0;
#X connect 23 0 118 0;
#X connect 24 0 121 0;
#X connect 25 0 124 0;
#X connect 26 0 123 0;
#X connect 27 0 122 0;
#X connect 28 0 29 0;
#X connect 28 1 30 0;
#X connect 29 0 75 0;
#X connect 30 0 77 0;
#X connect 30 0 89 0;
#X connect 31 0 100 0;
#X connect 32 0 20 0;
#X connect 32 1 21 0;
#X connect 32 2 22 0;
#X connect 32 3 23 0;
#X connect 33 0 135 0;
#X connect 34 0 33 0;
#X connect 35 0 136 0;
#X connect 36 0 35 0;
#X connect 37 0 91 0;
#X connect 38 0 37 0;
#X connect 39 0 93 0;
#X connect 40 0 39 0;
#X connect 41 0 94 0;
#X connect 42 0 92 0;
#X connect 43 0 42 0;
#X connect 44 0 41 0;
#X connect 47 0 45 0;
#X connect 50 0 48 0;
#X connect 55 0 51 0;
#X connect 56 0 53 0;
#X connect 57 0 3 0;
#X connect 58 0 57 1;
#X connect 58 0 59 1;
#X connect 58 0 60 1;
#X connect 58 0 61 1;
#X connect 59 0 4 0;
#X connect 60 0 5 0;
#X connect 61 0 6 0;
#X connect 62 0 84 0;
#X connect 63 0 64 0;
#X connect 64 0 65 0;
#X connect 65 0 85 0;
#X connect 66 0 68 0;
#X connect 67 0 69 0;
#X connect 68 0 70 0;
#X connect 69 0 70 0;
#X connect 70 0 71 0;
#X connect 71 0 110 1;
#X connect 71 0 110 0;
#X connect 72 0 66 0;
#X connect 72 1 67 0;
#X connect 73 0 62 0;
#X connect 73 1 63 0;
#X connect 74 0 96 0;
#X connect 75 0 74 0;
#X connect 76 0 95 0;
#X connect 77 0 76 0;
#X connect 82 0 78 0;
#X connect 83 0 80 0;
#X connect 84 0 65 0;
#X connect 85 0 110 2;
#X connect 85 0 110 0;
#X connect 86 0 109 0;
#X connect 87 0 81 0;
#X connect 88 0 79 0;
#X connect 89 0 90 0;
#X connect 90 0 75 0;
#X connect 91 0 52 0;
#X connect 91 1 55 0;
#X connect 92 0 54 0;
#X connect 92 1 56 0;
#X connect 93 0 46 0;
#X connect 93 1 47 0;
#X connect 94 0 49 0;
#X connect 94 1 50 0;
#X connect 95 0 88 0;
#X connect 95 1 82 0;
#X connect 96 0 87 0;
#X connect 96 1 83 0;
#X connect 97 0 0 0;
#X connect 98 0 102 0;
#X connect 98 1 101 0;
#X connect 99 0 100 1;
#X connect 99 0 132 1;
#X connect 100 0 109 1;
#X connect 100 0 126 1;
#X connect 101 0 134 1;
#X connect 102 0 134 1;
#X connect 103 0 24 0;
#X connect 103 1 98 0;
#X connect 104 0 26 0;
#X connect 104 1 98 0;
#X connect 105 0 25 0;
#X connect 105 1 98 0;
#X connect 106 0 27 0;
#X connect 106 1 98 0;
#X connect 107 0 134 0;
#X connect 107 1 108 0;
#X connect 107 2 114 0;
#X connect 108 0 134 0;
#X connect 109 0 134 0;
#X connect 109 1 107 0;
#X connect 109 2 111 0;
#X connect 109 3 112 0;
#X connect 110 0 86 0;
#X connect 111 0 134 0;
#X connect 111 1 115 0;
#X connect 111 2 116 0;
#X connect 112 0 134 0;
#X connect 112 1 117 0;
#X connect 112 2 113 0;
#X connect 113 0 134 0;
#X connect 114 0 134 0;
#X connect 115 0 134 0;
#X connect 116 0 134 0;
#X connect 117 0 134 0;
#X connect 118 0 100 0;
#X connect 119 0 100 0;
#X connect 120 0 100 0;
#X connect 121 0 100 0;
#X connect 122 0 100 0;
#X connect 123 0 100 0;
#X connect 124 0 100 0;
#X connect 125 0 32 0;
#X connect 125 1 129 0;
#X connect 126 0 130 0;
#X connect 126 0 134 0;
#X connect 127 0 98 0;
#X connect 128 0 126 0;
#X connect 128 1 131 0;
#X connect 129 0 128 0;
#X connect 129 1 127 0;
#X connect 131 0 134 1;
#X connect 132 0 99 0;
#X connect 133 0 134 0;
#X connect 135 0 132 0;
#X connect 136 0 132 0;
