#N canvas 1098 166 938 626 10;
#X obj 104 586 dac~;
#X obj 32 495 *~ 0.1;
#X msg 265 378 transpose \$1;
#X floatatom 304 409 5 0 0 0 - - -;
#X msg 304 429 window \$1;
#X floatatom 236 458 5 0 0 0 - - -;
#X msg 236 477 delay \$1;
#X obj 119 162 / 100;
#X floatatom 121 143 5 0 0 0 - - -;
#X obj 30 410 pitchshifter;
#X obj 23 173 adc~;
#X obj 239 214 hsl 128 15 0 12 0 0 empty empty empty -2 -8 0 10 -262144
-1 -1 7500 1;
#X floatatom 253 262 5 0 0 0 - - -;
#X obj 176 587 *~ 0.1;
#X obj 177 515 pitchshifter;
#X obj 345 269 hsl 128 15 0 12 0 0 empty empty empty -2 -8 0 10 -262144
-1 -1 9500 1;
#X floatatom 359 317 5 0 0 0 - - -;
#X msg 400 379 transpose \$1;
#X obj 384 624 *~ 0.1;
#X obj 382 539 pitchshifter;
#X obj 525 349 hsl 128 15 0 -12 0 0 empty empty empty -2 -8 0 10 -262144
-1 -1 12700 1;
#X floatatom 539 397 5 0 0 0 - - -;
#X msg 580 459 transpose \$1;
#X obj 463 588 *~ 2;
#X connect 1 0 0 0;
#X connect 2 0 9 1;
#X connect 3 0 4 0;
#X connect 4 0 9 1;
#X connect 4 0 14 1;
#X connect 5 0 6 0;
#X connect 6 0 9 1;
#X connect 6 0 14 1;
#X connect 7 0 1 1;
#X connect 7 0 13 1;
#X connect 7 0 18 1;
#X connect 7 0 19 1;
#X connect 8 0 7 0;
#X connect 9 0 1 0;
#X connect 10 0 9 0;
#X connect 10 0 14 0;
#X connect 10 0 19 0;
#X connect 10 0 0 0;
#X connect 10 1 9 0;
#X connect 10 1 14 0;
#X connect 10 1 19 0;
#X connect 11 0 12 0;
#X connect 12 0 2 0;
#X connect 13 0 0 0;
#X connect 14 0 13 0;
#X connect 15 0 16 0;
#X connect 16 0 17 0;
#X connect 17 0 14 1;
#X connect 18 0 0 0;
#X connect 19 0 23 0;
#X connect 20 0 21 0;
#X connect 21 0 22 0;
#X connect 22 0 19 1;
#X connect 23 0 18 0;
