#N canvas 394 256 808 578 10;
#X obj 104 273 pitchshifter;
#X msg 181 208 transpose \$1;
#X floatatom 183 158 5 0 0 0 - - -;
#X obj 16 134 inlet~;
#X obj 101 416 outlet~;
#X obj 183 106 inlet;
#X obj 183 138 expr int($f1*$f2);
#X obj 383 190 expr $f1 != 0;
#X floatatom 383 209 5 0 0 0 - - -;
#X obj 100 339 *~ 0;
#X obj 374 93 inlet;
#X obj 353 423 outlet;
#X connect 0 0 9 0;
#X connect 1 0 0 1;
#X connect 2 0 1 0;
#X connect 2 0 7 0;
#X connect 2 0 11 0;
#X connect 3 0 0 0;
#X connect 5 0 6 0;
#X connect 6 0 2 0;
#X connect 7 0 8 0;
#X connect 8 0 9 1;
#X connect 9 0 4 0;
#X connect 10 0 2 0;
