#N canvas 563 106 1949 1060 10;
#X obj 620 482 r knob1;
#N canvas 0 50 1404 967 out 0;
#X obj 124 149 *~ 1;
#X obj 140 378 throw~ outL;
#X obj 301 382 throw~ outR;
#X obj 124 44 inlet~;
#X connect 0 0 1 0;
#X connect 0 0 2 0;
#X connect 3 0 0 0;
#X restore 152 1079 pd out;
#N canvas 494 78 754 548 in 0;
#X obj 78 40 r~ inL;
#X obj 168 40 r~ inR;
#X obj 83 197 *~ 1;
#X obj 83 234 outlet~;
#X connect 0 0 2 0;
#X connect 1 0 2 0;
#X connect 2 0 3 0;
#X restore 153 383 pd in;
#X obj 741 596 r knob2;
#X obj 351 488 *~ 1;
#X obj 154 486 *~ 1;
#X obj 287 379 hsl 128 15 0 1 0 0 empty empty empty -2 -8 0 10 -262144
-1 -1 12700 1;
#X floatatom 387 489 5 0 0 0 - - -;
#X floatatom 188 486 5 0 0 0 - - -;
#X obj 283 433 expr 1 - $f1;
#X floatatom 284 396 5 0 0 0 - - -;
#X msg 620 501 \$1 12;
#X obj 609 748 fx;
#X obj 730 748 fx;
#X msg 868 620 \$1 -12;
#X obj 857 753 fx;
#X msg 741 615 \$1 24;
#X obj 868 601 r knob3;
#X obj 284 358 r knob4;
#X obj 347 752 fx;
#X obj 450 656 r notes;
#X floatatom 450 675 5 0 0 0 - - -;
#X obj 450 694 - 60;
#X floatatom 450 713 5 0 0 0 - - -;
#X obj 580 252 r aux;
#X obj 580 317 tgl 15 0 empty empty empty 17 7 0 10 -262144 -1 -1 1
1;
#X floatatom 580 273 5 0 0 0 - - -;
#X obj 580 293 sel 1;
#X msg 580 347 send /led \$1;
#X obj 580 381 s oscOut;
#X obj 618 796 s screenLine1;
#X obj 359 835 s screenLine4;
#X obj 403 453 s screenLine5;
#X msg 403 434 DRY/WET \$1 %;
#X obj 405 406 expr int($f1*100);
#X msg 355 797 keyboard voice: \$1;
#X msg 618 775 knob1 voice: \$1;
#X msg 737 774 knob2 voice: \$1;
#X obj 737 795 s screenLine2;
#X obj 872 816 s screenLine3;
#X msg 873 795 knob3 voice: \$1;
#X connect 0 0 11 0;
#X connect 2 0 5 0;
#X connect 2 0 4 0;
#X connect 3 0 16 0;
#X connect 4 0 12 0;
#X connect 4 0 19 0;
#X connect 4 0 13 0;
#X connect 4 0 15 0;
#X connect 5 0 1 0;
#X connect 6 0 10 0;
#X connect 7 0 4 1;
#X connect 8 0 5 1;
#X connect 9 0 8 0;
#X connect 10 0 9 0;
#X connect 10 0 7 0;
#X connect 10 0 34 0;
#X connect 11 0 12 1;
#X connect 12 0 1 0;
#X connect 12 1 36 0;
#X connect 13 0 1 0;
#X connect 13 1 37 0;
#X connect 14 0 15 1;
#X connect 15 0 1 0;
#X connect 15 1 40 0;
#X connect 16 0 13 1;
#X connect 17 0 14 0;
#X connect 18 0 6 0;
#X connect 19 0 1 0;
#X connect 19 1 35 0;
#X connect 20 0 21 0;
#X connect 21 0 22 0;
#X connect 22 0 23 0;
#X connect 23 0 19 2;
#X connect 24 0 26 0;
#X connect 25 0 6 0;
#X connect 25 0 28 0;
#X connect 26 0 27 0;
#X connect 27 0 25 0;
#X connect 28 0 29 0;
#X connect 33 0 32 0;
#X connect 34 0 33 0;
#X connect 35 0 31 0;
#X connect 36 0 30 0;
#X connect 37 0 38 0;
#X connect 40 0 39 0;
