#N canvas 524 149 1515 711 10;
#X msg 261 504 start;
#X msg 391 601 stop;
#X floatatom 1103 455 10 0 0 0 - - -;
#X obj 878 813 *~;
#X obj 1273 722 snapshot~;
#X obj 1322 695 bang~;
#X floatatom 1344 724 10 0 0 0 - - -;
#X obj 804 727 *~ 441;
#X obj 58 1141 outlet~;
#X obj 1346 -422 clip~ 0 1;
#X obj 1345 -509 vline~;
#X msg 1345 -532 -0.25 \, 0.25 10;
#X obj 1345 -485 cos~;
#X obj 1346 -446 *~ 3;
#X floatatom 1399 -668 5 0 0 0 - - -;
#X text 1437 -668 higher values shorten ramps;
#X obj 1307 -574 bng 15 250 50 0 empty empty empty 17 7 0 10 -262144
-1 -1;
#N canvas 0 0 450 300 (subpatch) 0;
#X array \$1-crown 441 float 1;
#A 0 0.0927188 0.185322 0.277915 0.370494 0.463059 0.555589 0.648107
0.740574 0.833015 0.925413 1 1 1 1 1 1 1 1 1 1 1 1 1 1 1 1 1 1 1 1
1 1 1 1 1 1 1 1 1 1 1 1 1 1 1 1 1 1 1 1 1 1 1 1 1 1 1 1 1 1 1 1 1 1
1 1 1 1 1 1 1 1 1 1 1 1 1 1 1 1 1 1 1 1 1 1 1 1 1 1 1 1 1 1 1 1 1 1
1 1 1 1 1 1 1 1 1 1 1 1 1 1 1 1 1 1 1 1 1 1 1 1 1 1 1 1 1 1 1 1 1 1
1 1 1 1 1 1 1 1 1 1 1 1 1 1 1 1 1 1 1 1 1 1 1 1 1 1 1 1 1 1 1 1 1 1
1 1 1 1 1 1 1 1 1 1 1 1 1 1 1 1 1 1 1 1 1 1 1 1 1 1 1 1 1 1 1 1 1 1
1 1 1 1 1 1 1 1 1 1 1 1 1 1 1 1 1 1 1 1 1 1 1 1 1 1 1 1 1 1 1 1 1 1
1 1 1 1 1 1 1 1 1 1 1 1 1 1 1 1 1 1 1 1 1 1 1 1 1 1 1 1 1 1 1 1 1 1
1 1 1 1 1 1 1 1 1 1 1 1 1 1 1 1 1 1 1 1 1 1 1 1 1 1 1 1 1 1 1 1 1 1
1 1 1 1 1 1 1 1 1 1 1 1 1 1 1 1 1 1 1 1 1 1 1 1 1 1 1 1 1 1 1 1 1 1
1 1 1 1 1 1 1 1 1 1 1 1 1 1 1 1 1 1 1 1 1 1 1 1 1 1 1 1 1 1 1 1 1 1
1 1 1 1 1 1 1 1 1 1 1 1 1 1 1 1 1 1 1 1 1 1 1 1 1 1 1 1 1 1 1 1 1 1
1 1 1 1 1 1 1 1 1 1 1 1 1 1 1 1 1 1 1 1 1 1 1 1 1 1 0.925304 0.832905
0.740464 0.647996 0.555479 0.462948 0.370383 0.277806 0.185211 0.092608
9.81473e-007;
#X coords 0 1 440 0 200 140 1 0 0;
#X restore 1466 -504 graph;
#X obj 1398 -633 t b f;
#X obj 1346 -384 tabwrite~ \$1-crown;
#X obj 803 754 tabread4~ \$1-crown;
#X obj 876 419 r \$1-resetPhase;
#X msg 876 440 0;
#X obj 927 562 phasor~;
#X obj 1723 -607 i;
#X obj 1752 -608 r memorySize;
#X floatatom 1723 -533 15 0 0 0 - - -;
#X floatatom 1723 -581 5 0 0 0 - - -;
#X msg 1723 -513 resize \$1;
#X obj 1723 -555 * 44100;
#X obj 1723 -658 r latebang;
#X obj 52 1084 *~ 1;
#N canvas 0 50 450 250 (subpatch) 0;
#X array \$1-array 1.323e+006 float 0;
#X coords 0 1 1.323e+006 -1 500 300 1 0 0;
#X restore 1505 432 graph;
#X obj 1723 -493 s \$1-array;
#X obj 100 831 tabwrite~ \$1-array;
#X obj 923 754 tabread~ \$1-array;
#X obj 1506 736 hsl 500 15 0 1 0 0 empty empty empty -2 -8 0 10 -262144
-1 -1 14989 1;
#X obj 602 -271 realtime;
#X floatatom 602 -250 10 0 0 0 - - -;
#X obj 390 -433 sel 1 0;
#X obj 577 -333 t b b;
#X obj 1103 435 expr $f1 / 1000;
#X obj 799 326 t f f;
#X floatatom 798 388 5 0 0 0 - - -;
#X obj 1137 745 snapshot~;
#X obj 1186 718 bang~;
#X floatatom 1137 766 5 0 0 0 - - -;
#X floatatom 798 443 5 0 0 0 - - -;
#X obj 799 367 expr 1000 / $f1;
#X obj 1506 760 hsl 500 15 0 1 0 0 empty empty empty -2 -8 0 10 -262144
-1 -1 84 1;
#X floatatom 1464 735 5 0 0 0 - - -;
#X obj 345 893 *~;
#X msg 453 794 1;
#X msg 400 803 0;
#X floatatom 420 824 5 0 0 0 - - -;
#X obj 798 408 t f b;
#X msg 1177 -410 const 0;
#X obj 1177 -390 s \$1-array;
#X obj 928 713 *~ 44100;
#X obj 927 624 *~;
#X obj 1137 786 expr $f1 / memS;
#X obj 1764 -586 value memS;
#X obj 487 -463 tgl 50 0 empty empty empty 17 7 0 10 -262144 -1 -1
0 1;
#X msg 487 -483 color \$1;
#X msg 487 -504 13;
#X obj 486 -524 sel 1;
#X msg 1399 -692 13;
#X obj 18 -531 r~ inSignal;
#X obj -86 -822 r selectedLoopNum;
#X floatatom -86 -801 5 0 0 0 - - -;
#X floatatom -19 -798 5 0 0 0 - - -;
#X obj -45 -799 ==;
#X obj 17 -442 *~ 0;
#X obj 307 -801 i \$1;
#X obj 399 -569 spigot;
#X obj 400 -673 r recordBtn;
#X obj 1180 -459 r lastbang;
#X obj 780 -89 == 0;
#X obj 927 92 s mloopLen;
#X obj 781 -110 r mloopLen;
#X floatatom 682 -68 5 0 0 0 - - -;
#X obj 603 -68 list prepend;
#X obj 603 -49 route 0 1;
#X obj 699 38 r mloopLen;
#X floatatom 659 60 5 0 0 0 - - -;
#X obj 548 108 expr $f1/$f2;
#X floatatom 548 169 5 0 0 0 - - -;
#X floatatom 550 88 5 0 0 0 - - -;
#X floatatom 548 129 5 0 0 0 - - -;
#X obj 548 149 expr round($f1);
#X obj 548 189 expr $f1 * $f2;
#X floatatom 548 210 5 0 0 0 - - -;
#X obj 699 59 / 4;
#X floatatom 728 60 5 0 0 0 - - -;
#X obj 1399 -713 r bigbang;
#X obj 564 367 r reverse;
#X obj 12 -616 s \$1-ON;
#X obj 432 -589 r \$1-ON;
#X obj 41 -462 r \$1-ON;
#X obj 564 388 spigot;
#X obj 627 368 r \$1-ON;
#X obj 765 537 *;
#X obj 564 409 expr if($f1 == 0 \, 1 \, -1);
#X floatatom 564 430 5 0 0 0 - - -;
#X obj 307 -822 r bigbang;
#X obj 685 368 r bigbang;
#X msg 685 389 1;
#X obj 564 450 t b f;
#X obj 404 917 r loopVol;
#X obj 342 1003 *~ 1;
#X obj 404 938 spigot;
#X obj 475 917 r \$1-ON;
#X msg 405 960 \$1 100;
#X obj 405 981 line;
#X floatatom 86 -678 5 0 0 0 - - -;
#X floatatom 475 938 5 0 0 0 - - -;
#N canvas 430 120 1552 815 loop_gfx 0;
#X obj 496 717 s oscOut;
#X obj 623 81 expr ($f1-1)*9 + 3;
#X msg 657 583 /oled/gFillArea 3 \$1 57 5 5 1;
#X obj 304 412 t f f;
#X obj 623 57 inlet;
#X obj 514 53 inlet;
#X obj 81 509 expr $f1 + 2 \; $f1 + 3;
#X obj 81 541 pack;
#X floatatom 623 103 5 0 0 0 - - -;
#X obj 514 237 list append;
#X obj 514 258 route list;
#X obj 256 540 expr $f1 + 1;
#X msg 257 564 /oled/gLine 3 \$1 58 \$1 60 0;
#X msg 83 564 /oled/gLine 3 \$1 58 \$2 58 0;
#X obj 163 250 s askForRefresh;
#X obj 1290 -22 r knob1;
#X msg 1290 -1 1 \$1;
#X msg 1361 -2 2 \$1;
#X obj 1361 -23 r knob2;
#X obj 1428 -22 r knob3;
#X msg 1428 -1 3 \$1;
#X msg 1497 -1 4 \$1;
#X obj 1497 -22 r knob4;
#X obj 1336 285 route 1 2 3 4;
#X floatatom 1335 307 5 0 0 0 - - -;
#X floatatom 1371 307 5 0 0 0 - - -;
#X floatatom 1406 307 5 0 0 0 - - -;
#X floatatom 1443 307 5 0 0 0 - - -;
#X obj 1367 472 printLine;
#X obj 1549 200 t b b;
#X obj 1339 174 spigot;
#X obj 1575 -23 inlet;
#X floatatom 1575 -2 5 0 0 0 - - -;
#X obj 1575 18 sel 1;
#X obj 1651 -26 r scene;
#X obj 1664 44 delay 100;
#X obj 1662 16 sel 1;
#X obj 1339 195 spigot;
#X obj 1603 60 == 1;
#X obj 1055 129 r bigbang;
#X msg 1055 150 set 0;
#X obj 589 487 t f f;
#X obj 454 563 + 1;
#X msg 455 581 /oled/gFillArea 3 \$1 58 3 3 0;
#X msg 642 449 /oled/gFillArea 3 \$1 57 5 5 0;
#X msg 887 579 /oled/gFillArea 3 \$1 52 3 3 1;
#X obj 514 304 route rec play stop clear on off;
#X msg 1098 581 /oled/gFillArea 3 \$1 52 3 3 0;
#X obj 888 495 + 1;
#X obj 1098 498 + 1;
#X obj 1127 130 r bigbang;
#X msg 1577 218 in speed pan out;
#X msg 1127 151 set 1;
#X connect 1 0 8 0;
#X connect 2 0 0 0;
#X connect 3 0 6 0;
#X connect 3 0 11 0;
#X connect 3 1 2 0;
#X connect 4 0 1 0;
#X connect 5 0 14 0;
#X connect 5 0 9 0;
#X connect 6 0 7 0;
#X connect 6 1 7 1;
#X connect 7 0 13 0;
#X connect 8 0 9 1;
#X connect 9 0 10 0;
#X connect 10 0 46 0;
#X connect 11 0 12 0;
#X connect 12 0 0 0;
#X connect 13 0 0 0;
#X connect 15 0 16 0;
#X connect 16 0 30 0;
#X connect 17 0 30 0;
#X connect 18 0 17 0;
#X connect 19 0 20 0;
#X connect 20 0 30 0;
#X connect 21 0 30 0;
#X connect 22 0 21 0;
#X connect 23 0 24 0;
#X connect 23 1 25 0;
#X connect 23 2 26 0;
#X connect 23 3 27 0;
#X connect 24 0 28 1;
#X connect 25 0 28 2;
#X connect 26 0 28 3;
#X connect 27 0 28 4;
#X connect 29 0 27 0;
#X connect 29 0 26 0;
#X connect 29 0 25 0;
#X connect 29 0 24 0;
#X connect 29 1 51 0;
#X connect 30 0 37 0;
#X connect 31 0 32 0;
#X connect 32 0 33 0;
#X connect 32 0 30 1;
#X connect 33 0 29 0;
#X connect 34 0 36 0;
#X connect 34 0 38 0;
#X connect 35 0 32 0;
#X connect 36 0 35 0;
#X connect 37 0 23 0;
#X connect 38 0 37 1;
#X connect 39 0 40 0;
#X connect 40 0 26 0;
#X connect 40 0 25 0;
#X connect 41 0 42 0;
#X connect 41 1 2 0;
#X connect 42 0 43 0;
#X connect 43 0 0 0;
#X connect 44 0 0 0;
#X connect 45 0 0 0;
#X connect 46 0 3 0;
#X connect 46 1 2 0;
#X connect 46 2 41 0;
#X connect 46 3 44 0;
#X connect 46 4 48 0;
#X connect 46 5 49 0;
#X connect 47 0 0 0;
#X connect 48 0 45 0;
#X connect 49 0 47 0;
#X connect 50 0 52 0;
#X connect 51 0 28 0;
#X connect 52 0 24 0;
#X connect 52 0 27 0;
#X restore 252 -503 pd loop_gfx;
#X obj 241 -554 r \$1-gfx_msg;
#X obj 267 797 s \$1-gfx_msg;
#X msg 269 766 rec;
#X msg 303 767 play;
#X obj 138 -482 r loopBtnState;
#X obj 140 -272 spigot;
#X obj 337 -531 r \$1-ON;
#X obj 173 -304 r \$1-ON;
#X floatatom 140 -251 5 0 0 0 - - -;
#X obj 139 -162 spigot;
#X floatatom 139 -141 5 0 0 0 - - -;
#X floatatom 209 -171 5 0 0 0 - - -;
#X obj 209 -191 i;
#X obj 206 -275 t b f;
#X obj 205 -235 delay;
#X msg 206 -255 10;
#X obj 139 -111 sel 1 0;
#X obj 128 -75 bng 15 250 50 0 empty empty empty 17 7 0 10 -262144
-1 -1;
#X obj 172 -75 bng 15 250 50 0 empty empty empty 17 7 0 10 -262144
-1 -1;
#X obj 254 40 tgl 15 0 empty empty empty 17 7 0 10 -262144 -1 -1 1
1;
#X obj 339 -61 r \$1-ON;
#X obj 339 -40 change;
#X obj 339 -19 sel 1;
#X msg 339 2 set 1;
#X obj 627 -200 r \$1-stop;
#X obj 727 -197 r \$1-play;
#X obj 727 -174 f;
#X floatatom 602 -97 10 0 0 0 - - -;
#X obj 141 -392 spigot;
#X obj 174 -412 r \$1-notEmpty;
#X obj 1044 -394 s \$1-notEmpty;
#X msg 1043 -412 0;
#X obj 483 825 s \$1-notEmpty;
#X obj 254 59 sel 1 0;
#X obj 297 158 s \$1-stop;
#X obj 232 159 s \$1-play;
#X obj 162 118 s \$1-gfx_msg;
#X msg 178 91 play;
#X msg 225 92 stop;
#X msg 110 16 1000;
#X obj 110 37 delay;
#X msg 148 17 stop;
#X obj 110 156 s \$1-clear;
#X msg 131 91 clear;
#X obj 1043 -459 r \$1-clear;
#X obj 600 822 s usedTracks;
#X obj 615 749 r usedTracks;
#X obj 599 780 +;
#X obj 921 -391 s usedTracks;
#X obj 936 -431 r usedTracks;
#X obj 921 -410 +;
#X msg 918 -451 -1;
#X obj 391 622 t b b;
#X obj 501 670 spigot;
#X obj 532 620 r \$1-notEmpty;
#X obj 534 642 == 0;
#X msg 501 691 1;
#X msg 628 -181 0 10;
#X obj 628 -160 line;
#X obj -45 -773 pack;
#X floatatom -8 -772 5 0 0 0 - - -;
#X msg -45 -752 \$2 \$1;
#X obj -45 -731 route 0 1;
#X obj -45 -687 tgl 15 0 empty empty empty 17 7 0 10 -262144 -1 -1
0 1;
#X obj -45 -708 sel 1;
#X obj 92 -618 sel 1 0;
#X msg 92 -597 on;
#X msg 125 -599 off;
#X obj 91 -571 s \$1-gfx_msg;
#X obj 90 -778 r selectMode;
#X obj 90 -757 sel 1 0;
#X msg 90 -736 0;
#X obj 301 -307 sel 1;
#X obj 301 -287 i \$1;
#X obj 301 -245 s header;
#X msg 301 -266 track:\$1;
#X obj 296 -336 spigot;
#X obj 339 -363 r selectMode;
#X obj 621 -333 bng 15 250 50 0 empty empty empty 17 7 0 10 -262144
-1 -1;
#X obj 583 -272 bng 15 250 50 0 empty empty empty 17 7 0 10 -262144
-1 -1;
#X obj 570 920 r bigbang;
#X msg 570 941 1;
#X obj -69 -650 bng 15 250 50 0 empty empty empty 17 7 0 10 -262144
-1 -1;
#X obj 669 -637 +;
#X floatatom 669 -616 5 0 0 0 - - -;
#X obj 723 -821 r \$1-ON;
#X floatatom 724 -792 5 0 0 0 - - -;
#X obj 724 -772 change;
#X obj 724 -751 t b f;
#X obj 756 -727 sel 0 1;
#X msg 755 -699 -1;
#X msg 790 -698 1;
#X obj 669 -596 s tracksOnLen;
#X obj 660 -715 r tracksOnLen;
#X obj 641 -689 i;
#X obj 50 1010 /~;
#X obj 69 967 r tracksOnLen;
#X floatatom 69 988 5 0 0 0 - - -;
#X obj 1083 -781 r \$1-clear;
#X obj 928 -779 r \$1-play;
#X obj 1012 -781 r \$1-stop;
#X obj 960 -593 +;
#X floatatom 960 -572 5 0 0 0 - - -;
#X obj 1015 -707 t b f;
#X obj 932 -645 i;
#X msg 1024 -747 -1;
#X obj 951 -670 r tracksPlayingLen;
#X obj 960 -552 s tracksPlayingLen;
#X msg 928 -758 1;
#X obj 456 737 s \$1-finishedRecording;
#X obj 928 -805 r \$1-finishedRecording;
#X obj 344 1071 /~;
#X floatatom 363 1049 5 0 0 0 - - -;
#X obj 363 1029 r tracksPlayingLen;
#X text 373 1072 not used: dived by the number of voices;
#X connect 0 0 34 0;
#X connect 0 0 119 0;
#X connect 0 0 53 0;
#X connect 1 0 34 0;
#X connect 1 0 120 0;
#X connect 1 0 169 0;
#X connect 2 0 50 0;
#X connect 2 0 59 1;
#X connect 3 0 51 0;
#X connect 4 0 6 0;
#X connect 5 0 4 0;
#X connect 6 0 36 0;
#X connect 7 0 20 0;
#X connect 9 0 19 0;
#X connect 10 0 12 0;
#X connect 11 0 10 0;
#X connect 12 0 13 0;
#X connect 13 0 9 0;
#X connect 14 0 18 0;
#X connect 16 0 11 0;
#X connect 16 0 19 0;
#X connect 18 0 16 0;
#X connect 18 1 13 1;
#X connect 20 0 3 0;
#X connect 21 0 22 0;
#X connect 22 0 23 1;
#X connect 23 0 4 0;
#X connect 23 0 7 0;
#X connect 23 0 59 0;
#X connect 24 0 27 0;
#X connect 25 0 24 1;
#X connect 25 0 61 0;
#X connect 26 0 28 0;
#X connect 27 0 29 0;
#X connect 28 0 33 0;
#X connect 29 0 26 0;
#X connect 30 0 24 0;
#X connect 31 0 8 0;
#X connect 35 0 3 1;
#X connect 37 0 38 0;
#X connect 38 0 143 1;
#X connect 38 0 144 0;
#X connect 39 0 0 0;
#X connect 39 0 37 0;
#X connect 39 0 196 0;
#X connect 39 1 40 0;
#X connect 39 1 195 0;
#X connect 40 0 1 0;
#X connect 40 1 37 1;
#X connect 41 0 2 0;
#X connect 42 0 48 0;
#X connect 42 1 41 0;
#X connect 43 0 55 0;
#X connect 44 0 46 0;
#X connect 45 0 44 0;
#X connect 46 0 60 0;
#X connect 47 0 101 0;
#X connect 48 0 43 0;
#X connect 51 0 109 0;
#X connect 52 0 54 0;
#X connect 52 0 149 0;
#X connect 53 0 54 0;
#X connect 54 0 51 1;
#X connect 55 0 47 0;
#X connect 55 1 22 0;
#X connect 56 0 57 0;
#X connect 58 0 35 0;
#X connect 59 0 44 0;
#X connect 59 0 58 0;
#X connect 60 0 49 0;
#X connect 63 0 62 0;
#X connect 64 0 63 0;
#X connect 65 0 64 0;
#X connect 65 1 63 0;
#X connect 66 0 14 0;
#X connect 67 0 72 0;
#X connect 68 0 69 0;
#X connect 69 0 71 0;
#X connect 70 0 71 1;
#X connect 71 0 176 0;
#X connect 72 0 34 0;
#X connect 72 0 212 0;
#X connect 73 0 70 0;
#X connect 73 0 116 1;
#X connect 74 0 65 0;
#X connect 74 0 39 0;
#X connect 75 0 74 0;
#X connect 76 0 56 0;
#X connect 76 0 148 0;
#X connect 77 0 80 0;
#X connect 79 0 77 0;
#X connect 80 0 81 1;
#X connect 81 0 82 0;
#X connect 82 0 87 0;
#X connect 82 1 78 0;
#X connect 82 1 42 0;
#X connect 83 0 84 0;
#X connect 83 0 92 0;
#X connect 85 0 88 0;
#X connect 86 0 90 0;
#X connect 87 0 85 0;
#X connect 88 0 89 0;
#X connect 89 0 86 0;
#X connect 90 0 91 0;
#X connect 91 0 42 0;
#X connect 92 0 93 0;
#X connect 93 0 85 1;
#X connect 93 0 90 1;
#X connect 94 0 66 0;
#X connect 95 0 99 0;
#X connect 97 0 74 1;
#X connect 98 0 72 1;
#X connect 99 0 102 0;
#X connect 100 0 99 1;
#X connect 101 0 23 0;
#X connect 102 0 103 0;
#X connect 103 0 107 0;
#X connect 104 0 73 0;
#X connect 105 0 106 0;
#X connect 106 0 101 1;
#X connect 107 0 47 0;
#X connect 107 1 101 1;
#X connect 108 0 110 0;
#X connect 109 0 228 0;
#X connect 109 0 31 0;
#X connect 110 0 112 0;
#X connect 111 0 110 1;
#X connect 111 0 115 0;
#X connect 112 0 113 0;
#X connect 113 0 109 1;
#X connect 114 0 182 0;
#X connect 114 0 96 0;
#X connect 117 0 116 0;
#X connect 119 0 118 0;
#X connect 120 0 118 0;
#X connect 121 0 145 0;
#X connect 122 0 125 0;
#X connect 123 0 116 2;
#X connect 123 0 193 0;
#X connect 124 0 122 1;
#X connect 124 0 130 0;
#X connect 125 0 126 0;
#X connect 126 0 127 0;
#X connect 127 0 133 0;
#X connect 128 0 126 1;
#X connect 129 0 128 0;
#X connect 130 0 132 0;
#X connect 130 1 129 1;
#X connect 131 0 129 0;
#X connect 132 0 131 0;
#X connect 133 0 134 0;
#X connect 133 1 135 0;
#X connect 134 0 136 0;
#X connect 134 0 156 0;
#X connect 135 0 158 0;
#X connect 136 0 150 0;
#X connect 137 0 138 0;
#X connect 138 0 139 0;
#X connect 139 0 140 0;
#X connect 140 0 136 0;
#X connect 141 0 174 0;
#X connect 142 0 143 0;
#X connect 143 0 144 0;
#X connect 144 0 81 0;
#X connect 145 0 122 0;
#X connect 146 0 145 1;
#X connect 148 0 147 0;
#X connect 150 0 152 0;
#X connect 150 0 154 0;
#X connect 150 1 151 0;
#X connect 150 1 155 0;
#X connect 154 0 153 0;
#X connect 155 0 153 0;
#X connect 156 0 157 0;
#X connect 157 0 159 0;
#X connect 157 0 160 0;
#X connect 158 0 157 0;
#X connect 160 0 153 0;
#X connect 161 0 148 0;
#X connect 161 0 56 0;
#X connect 161 0 168 0;
#X connect 163 0 164 1;
#X connect 164 0 162 0;
#X connect 166 0 167 1;
#X connect 167 0 165 0;
#X connect 168 0 167 0;
#X connect 169 0 52 0;
#X connect 169 1 170 0;
#X connect 170 0 173 0;
#X connect 170 0 226 0;
#X connect 171 0 172 0;
#X connect 172 0 170 1;
#X connect 173 0 164 0;
#X connect 174 0 175 0;
#X connect 175 0 144 0;
#X connect 176 0 178 0;
#X connect 177 0 176 1;
#X connect 178 0 179 0;
#X connect 179 0 181 0;
#X connect 179 1 114 0;
#X connect 180 0 114 0;
#X connect 180 0 199 0;
#X connect 181 0 180 0;
#X connect 182 0 183 0;
#X connect 182 1 184 0;
#X connect 183 0 185 0;
#X connect 184 0 185 0;
#X connect 186 0 177 0;
#X connect 186 0 187 0;
#X connect 187 0 188 0;
#X connect 188 0 180 0;
#X connect 189 0 190 0;
#X connect 190 0 192 0;
#X connect 192 0 191 0;
#X connect 193 0 189 0;
#X connect 194 0 193 1;
#X connect 197 0 198 0;
#X connect 198 0 112 0;
#X connect 200 0 201 0;
#X connect 201 0 209 0;
#X connect 202 0 203 0;
#X connect 203 0 204 0;
#X connect 204 0 205 0;
#X connect 205 0 211 0;
#X connect 205 1 206 0;
#X connect 206 0 207 0;
#X connect 206 1 208 0;
#X connect 207 0 200 1;
#X connect 208 0 200 1;
#X connect 210 0 211 1;
#X connect 211 0 200 0;
#X connect 212 0 31 0;
#X connect 213 0 214 0;
#X connect 214 0 212 1;
#X connect 215 0 222 0;
#X connect 216 0 225 0;
#X connect 217 0 222 0;
#X connect 218 0 219 0;
#X connect 219 0 224 0;
#X connect 220 0 221 0;
#X connect 220 1 218 1;
#X connect 221 0 218 0;
#X connect 222 0 220 0;
#X connect 223 0 221 1;
#X connect 225 0 220 0;
#X connect 227 0 225 0;
#X connect 229 0 228 1;
#X connect 230 0 229 0;
#X coords 0 711 1 710 110 60 0;
