#N canvas 405 0 1712 1060 10;
#X obj 8 6 bng 31 250 50 0 empty empty empty 17 7 0 10 -262144 -1 -1
;
#N canvas 500 227 989 378 init 0;
#X obj 200 280 s bigbang;
#X obj 37 144 t b b;
#X obj 140 32 loadbang;
#X obj 112 278 s latebang;
#X obj 112 254 delay 50;
#X obj 35 17 inlet;
#X obj 832 43 throw~ outL;
#X obj 908 42 throw~ outR;
#X obj 831 18 r~ soundOut;
#X obj 38 278 s lastbang;
#X msg 487 175 0;
#X obj 487 197 s usedTracks;
#X obj 808 205 s memorySize;
#X text 835 180 seconds;
#X obj 488 108 r bigbang;
#X msg 808 178 30;
#X msg 581 174 0;
#X obj 582 200 s tracksOnLen;
#X obj 677 201 s tracksPlayingLen;
#X obj 39 254 delay 80;
#X obj 131 96 delay 200;
#X text 198 98 TODO: hack for organelle;
#X connect 1 0 4 0;
#X connect 1 0 19 0;
#X connect 1 1 0 0;
#X connect 2 0 1 0;
#X connect 2 0 20 0;
#X connect 4 0 3 0;
#X connect 5 0 1 0;
#X connect 8 0 6 0;
#X connect 8 0 7 0;
#X connect 10 0 11 0;
#X connect 14 0 15 0;
#X connect 14 0 16 0;
#X connect 14 0 10 0;
#X connect 15 0 12 0;
#X connect 16 0 17 0;
#X connect 16 0 18 0;
#X connect 19 0 9 0;
#X connect 20 0 1 0;
#X restore 8 42 pd init;
#X obj 159 592 s~ soundOut;
#N canvas 697 180 811 539 screen 0;
#N canvas 484 0 1270 920 screen_init 0;
#X obj 134 18 r bigbang;
#X msg 578 163 /oled/gShowInfoBar 3 0;
#X obj 113 29 bng 15 250 50 0 empty empty empty 17 7 0 10 -262144 -1
-1;
#X msg 463 163 /oled/gClear 3 1;
#X obj 134 51 t b b b b;
#X obj 460 309 s oscOut;
#X obj 258 265 until;
#X obj 258 286 i;
#X obj 289 286 + 1;
#X obj 259 218 t b b;
#X msg 288 240 1;
#X msg 258 240 14;
#X obj 300 619 s oscOut;
#X obj 258 327 expr ($f1-1)*9 + 2;
#X floatatom 258 307 5 0 0 0 - - -;
#X obj 258 348 t f f;
#X msg 204 490 /oled/gSetPixel 3 \$1 62 0;
#X msg 42 164 /oled/gFlip 3;
#X obj 41 188 s oscOut;
#X obj 278 385 + 6;
#X msg 488 431 /oled/gBox 3 \$1 56 7 7 1;
#X obj 226 386 + 0;
#X msg 193 469 /oled/gSetPixel 3 \$1 56 0;
#X connect 0 0 4 0;
#X connect 1 0 5 0;
#X connect 2 0 4 0;
#X connect 3 0 5 0;
#X connect 4 0 17 0;
#X connect 4 1 9 0;
#X connect 4 2 3 0;
#X connect 4 3 1 0;
#X connect 6 0 7 0;
#X connect 7 0 8 0;
#X connect 7 0 14 0;
#X connect 8 0 7 1;
#X connect 9 0 11 0;
#X connect 9 1 10 0;
#X connect 10 0 7 1;
#X connect 11 0 6 0;
#X connect 13 0 15 0;
#X connect 14 0 13 0;
#X connect 15 0 19 0;
#X connect 15 0 21 0;
#X connect 15 1 20 0;
#X connect 16 0 12 0;
#X connect 17 0 18 0;
#X connect 19 0 16 0;
#X connect 19 0 22 0;
#X connect 20 0 12 0;
#X connect 21 0 16 0;
#X connect 21 0 22 0;
#X connect 22 0 12 0;
#X restore 12 12 pd screen_init;
#X obj 193 22 r scene;
#X obj 65 196 r bigbang;
#X obj 65 216 metro 120;
#X msg 92 354 /oled/gFlip 3;
#X obj 232 106 s oscOut;
#X obj 92 380 s oscOut;
#X msg 232 85 /oled/gFillArea 3 0 0 128 52 0;
#X obj 98 251 r askForRefresh;
#X obj 98 272 bng 15 250 50 0 empty empty empty 17 7 0 10 -262144 -1
-1;
#X msg 98 292 1;
#X obj 65 312 spigot;
#X obj 65 333 t b b;
#X msg 65 354 0;
#X obj 193 43 change;
#X obj 193 128 s askForRefresh;
#X obj 193 64 t b f b;
#X obj 491 396 s oscOut;
#X obj 463 436 s askForRefresh;
#X obj 463 184 r header;
#X obj 463 275 t b a b;
#X obj 463 254 list;
#X msg 492 355 /oled/gPrintln 3 5 0 8 0 \$1;
#X msg 558 309 /oled/gFillArea 3 0 0 128 9 1;
#X connect 1 0 14 0;
#X connect 2 0 3 0;
#X connect 3 0 11 0;
#X connect 4 0 6 0;
#X connect 7 0 5 0;
#X connect 8 0 9 0;
#X connect 9 0 10 0;
#X connect 10 0 11 1;
#X connect 11 0 12 0;
#X connect 12 0 13 0;
#X connect 12 1 4 0;
#X connect 13 0 11 1;
#X connect 14 0 16 0;
#X connect 16 0 15 0;
#X connect 16 2 7 0;
#X connect 19 0 21 0;
#X connect 20 0 18 0;
#X connect 20 1 22 0;
#X connect 20 2 23 0;
#X connect 21 0 20 0;
#X connect 22 0 17 0;
#X connect 23 0 17 0;
#X restore 70 26 pd screen;
#N canvas 771 248 761 546 led 0;
#X obj 207 5 r tick;
#X msg 206 383 send /led \$1;
#X obj 206 417 s oscOut;
#X obj 235 253 int;
#X msg 206 253 0;
#X obj 298 159 r isRecording;
#X obj 298 180 sel 1 0;
#X msg 298 201 4;
#X obj 207 44 bng 15 250 50 0 empty empty empty 17 7 0 10 -262144 -1
-1;
#X obj 207 64 t b b;
#X obj 115 209 delay;
#X obj 144 138 r beatSize;
#X msg 332 201 2;
#X obj 115 179 f;
#X floatatom 144 179 5 0 0 0 - - -;
#X obj 144 158 expr ($f1 / 2) * 1000;
#X connect 0 0 8 0;
#X connect 1 0 2 0;
#X connect 3 0 1 0;
#X connect 4 0 1 0;
#X connect 5 0 6 0;
#X connect 6 0 7 0;
#X connect 6 1 12 0;
#X connect 7 0 3 1;
#X connect 8 0 9 0;
#X connect 9 0 13 0;
#X connect 9 1 3 0;
#X connect 10 0 4 0;
#X connect 11 0 15 0;
#X connect 12 0 3 1;
#X connect 13 0 10 0;
#X connect 14 0 13 1;
#X connect 15 0 14 0;
#X restore 133 27 pd led;
#N canvas 0 50 1600 933 miniSynth 0;
#X obj 323 312 osc~;
#X floatatom 324 163 5 0 0 0 - - -;
#X obj 326 427 *~ 1;
#X obj 324 183 mtof;
#X floatatom 325 209 5 0 0 0 - - -;
#X obj 324 236 sig~;
#X obj 324 257 +~;
#X obj 326 18 r notes;
#X obj 509 218 vsl 15 128 0 1 0 0 empty empty empty 0 -9 0 10 -262144
-1 -1 3810 1;
#X obj 325 623 outlet~;
#X obj 324 70 unpack;
#X obj 412 106 sel 0;
#X obj 412 267 line~;
#X obj 324 369 *~;
#X obj 483 41 r bigbang;
#X msg 484 62 0.3;
#X msg 416 142 0 500;
#X msg 460 141 1 10;
#X obj 326 513 *~ 1;
#X obj 498 472 r scene;
#X obj 498 493 == 2;
#X obj 744 54 r knob1;
#X msg 744 75 1 \$1;
#X msg 815 74 2 \$1;
#X obj 815 53 r knob2;
#X obj 882 54 r knob3;
#X msg 882 75 3 \$1;
#X msg 951 75 4 \$1;
#X obj 951 54 r knob4;
#X obj 790 361 route 1 2 3 4;
#X floatatom 789 383 5 0 0 0 - - -;
#X floatatom 825 383 5 0 0 0 - - -;
#X floatatom 860 383 5 0 0 0 - - -;
#X floatatom 897 383 5 0 0 0 - - -;
#X obj 821 548 printLine;
#X obj 1003 276 t b b;
#X obj 793 250 spigot;
#X obj 1105 50 r scene;
#X obj 1118 104 delay 100;
#X obj 1118 82 sel 2;
#X obj 1047 77 == 2;
#X msg 1031 295 synth1 synth2 synth3 synth4;
#X connect 0 0 13 0;
#X connect 1 0 3 0;
#X connect 2 0 18 0;
#X connect 3 0 4 0;
#X connect 4 0 5 0;
#X connect 5 0 6 0;
#X connect 6 0 0 0;
#X connect 7 0 10 0;
#X connect 8 0 2 1;
#X connect 10 0 1 0;
#X connect 10 1 11 0;
#X connect 11 0 16 0;
#X connect 11 1 17 0;
#X connect 12 0 13 1;
#X connect 13 0 2 0;
#X connect 14 0 15 0;
#X connect 15 0 8 0;
#X connect 16 0 12 0;
#X connect 17 0 12 0;
#X connect 18 0 9 0;
#X connect 19 0 20 0;
#X connect 20 0 18 1;
#X connect 21 0 22 0;
#X connect 22 0 36 0;
#X connect 23 0 36 0;
#X connect 24 0 23 0;
#X connect 25 0 26 0;
#X connect 26 0 36 0;
#X connect 27 0 36 0;
#X connect 28 0 27 0;
#X connect 29 0 30 0;
#X connect 29 1 31 0;
#X connect 29 2 32 0;
#X connect 29 3 33 0;
#X connect 30 0 34 1;
#X connect 31 0 34 2;
#X connect 32 0 34 3;
#X connect 33 0 34 4;
#X connect 35 0 33 0;
#X connect 35 0 32 0;
#X connect 35 0 31 0;
#X connect 35 0 30 0;
#X connect 35 1 41 0;
#X connect 36 0 29 0;
#X connect 37 0 39 0;
#X connect 37 0 40 0;
#X connect 38 0 35 0;
#X connect 39 0 38 0;
#X connect 40 0 36 1;
#X connect 41 0 34 0;
#X restore 224 138 pd miniSynth;
#X obj 1038 817 hradio 25 1 0 15 empty empty empty 0 -8 0 10 -262144
-1 -1 2;
#X obj 250 243 s~ inSignal;
#X obj 158 485 *~ 1;
#X floatatom 1040 848 5 0 0 0 - - -;
#X obj 1040 868 s selectedLoopNum;
#X obj 157 279 loop 1;
#X obj 201 279 loop 2;
#X obj 323 905 s recordBtn;
#X obj 323 629 r aux;
#X obj 544 143 r mloopLen;
#X floatatom 543 164 10 0 0 0 - - -;
#X obj 323 705 tgl 40 0 empty empty empty 17 7 0 10 -262144 -1 -1 0
1;
#X msg 374 747 color \$1;
#X msg 374 726 13;
#X obj 374 706 sel 1;
#X obj 323 668 sel 1;
#X obj 245 279 loop 3;
#X obj 288 279 loop 4;
#X obj 454 709 tgl 40 0 empty empty empty 17 7 0 10 -262144 -1 -1 0
1;
#X obj 454 765 s reverse;
#X msg 373 672 0;
#X obj 372 651 r latebang;
#X obj 403 18 adc~;
#X obj 406 131 *~;
#X obj 459 15 vsl 15 128 0 1 0 0 empty empty empty 0 -9 0 10 -262144
-1 -1 0 1;
#X obj 574 650 vsl 20 100 0 1 0 0 empty empty empty 0 -9 0 10 -262144
-1 -1 4315 1;
#X obj 575 882 s loopVol;
#X floatatom 543 205 10 0 0 0 - - -;
#X obj 543 184 expr 60000 / $f1;
#X obj 543 225 s bpm;
#X obj 1010 36 r notes;
#X obj 1037 612 sel 60 62 64 65 67 69 71 72 74 76 77 79 81 83;
#X msg 1037 646 1;
#X msg 1064 646 2;
#X msg 1091 646 3;
#X msg 1119 646 4;
#X msg 1146 646 5;
#X msg 1173 646 6;
#X msg 1202 646 7;
#X msg 1228 646 8;
#X msg 1255 646 9;
#X msg 1283 646 10;
#X msg 1310 646 11;
#X msg 1337 646 12;
#X msg 1363 646 13;
#X msg 1390 646 14;
#X obj 69 278 r~ inSignal;
#X obj 333 279 loop 5;
#X obj 377 279 loop 6;
#X obj 420 279 loop 7;
#X obj 170 304 loop 8;
#X obj 214 304 loop 9;
#X obj 258 304 loop 10;
#X obj 308 304 loop 11;
#X obj 358 304 loop 12;
#X obj 408 304 loop 13;
#X obj 457 304 loop 14;
#N canvas 499 173 1368 650 controls 0;
#X obj 672 394 r knob2;
#X obj 507 396 r knob1;
#X obj 507 504 send;
#X symbolatom 532 480 10 0 0 0 - - -;
#X msg 532 455 symbol knob1_\$1;
#X floatatom 817 179 5 0 0 0 - - -;
#X obj 671 497 send;
#X symbolatom 695 473 10 0 0 0 - - -;
#X msg 695 448 symbol knob2_\$1;
#X obj 851 396 r knob3;
#X obj 853 497 send;
#X symbolatom 877 473 10 0 0 0 - - -;
#X msg 879 447 symbol knob3_\$1;
#X obj 1039 494 send;
#X symbolatom 1064 469 10 0 0 0 - - -;
#X msg 1066 443 symbol knob4_\$1;
#X obj 1040 392 r knob4;
#X obj 817 153 r scene;
#N canvas 11 50 1009 687 encoder 0;
#X obj 11 9 loadbang;
#X msg 11 34 send /enablepatchsub 1;
#X obj 11 59 s oscOut;
#X obj 418 22 r oscIn;
#X floatatom 201 146 5 0 0 0 - - -;
#X msg 519 179 send /gohome 1;
#X obj 519 204 s oscOut;
#X obj 147 427 outlet;
#X obj 229 428 outlet;
#X obj 199 237 sel 0;
#X obj 418 47 routeOSC /encoder/turn /encoder/button;
#X obj 159 191 bng 15 250 50 0 empty empty empty 17 7 0 10 -262144
-1 -1;
#X floatatom 526 108 5 0 0 0 - - -;
#X obj 526 128 sel 1;
#X connect 0 0 1 0;
#X connect 1 0 2 0;
#X connect 3 0 10 0;
#X connect 4 0 9 0;
#X connect 4 0 11 0;
#X connect 5 0 6 0;
#X connect 9 0 7 0;
#X connect 9 1 8 0;
#X connect 10 0 4 0;
#X connect 10 1 12 0;
#X connect 12 0 13 0;
#X connect 13 0 5 0;
#X restore 24 -2 pd encoder;
#X obj 1194 493 send;
#X symbolatom 1219 468 10 0 0 0 - - -;
#X msg 1221 442 symbol aux_\$1;
#X obj 1194 393 r aux;
#X obj 24 21 bng 35 250 50 0 empty empty empty 17 7 0 10 -191407 -1
-1;
#X obj 65 21 bng 35 250 50 0 empty empty empty 17 7 0 10 -191407 -1
-1;
#X msg 24 81 -1;
#X msg 65 81 1;
#X obj 236 295 r bigbang;
#X msg 236 317 2;
#X floatatom 36 401 5 0 0 0 - - -;
#X obj 35 316 +;
#X floatatom 61 317 5 0 0 0 - - -;
#X obj 478 48 r bigbang;
#X msg 478 69 1;
#X obj 36 359 expr if($f1 > $f2 \, 1 \, $f1);
#X obj 36 380 expr if($f1 < 1 \, $f2 \, $f1);
#X obj 36 421 s scene;
#X obj 478 90 s scene;
#X connect 0 0 6 0;
#X connect 1 0 2 0;
#X connect 3 0 2 1;
#X connect 4 0 3 0;
#X connect 5 0 4 0;
#X connect 5 0 12 0;
#X connect 5 0 8 0;
#X connect 5 0 15 0;
#X connect 5 0 21 0;
#X connect 7 0 6 1;
#X connect 8 0 7 0;
#X connect 9 0 10 0;
#X connect 11 0 10 1;
#X connect 12 0 11 0;
#X connect 14 0 13 1;
#X connect 15 0 14 0;
#X connect 16 0 13 0;
#X connect 17 0 5 0;
#X connect 18 0 23 0;
#X connect 18 1 24 0;
#X connect 20 0 19 1;
#X connect 21 0 20 0;
#X connect 22 0 19 0;
#X connect 23 0 25 0;
#X connect 24 0 26 0;
#X connect 25 0 30 0;
#X connect 26 0 30 0;
#X connect 27 0 28 0;
#X connect 28 0 34 1;
#X connect 28 0 35 1;
#X connect 29 0 31 0;
#X connect 29 0 36 0;
#X connect 30 0 34 0;
#X connect 31 0 30 1;
#X connect 32 0 33 0;
#X connect 33 0 31 0;
#X connect 33 0 37 0;
#X connect 34 0 35 0;
#X connect 35 0 29 0;
#X restore 70 7 pd controls and scenes;
#X floatatom 9 93 5 0 0 0 - - -;
#X obj 9 73 r scene;
#N canvas 1017 0 1022 1060 fxs 0;
#X obj 29 -113 inlet~;
#X obj 35 707 outlet~;
#X obj 656 56 hradio 25 1 0 6 empty empty empty 0 -8 0 10 -262144 -1
-1 0;
#X floatatom 656 87 5 0 0 0 - - -;
#X obj 650 -128 r bigbang;
#X msg 650 -108 0;
#X obj 343 -130 r knob1;
#X msg 343 -109 1 \$1;
#X msg 414 -110 2 \$1;
#X obj 414 -131 r knob2;
#X obj 481 -130 r knob3;
#X msg 481 -109 3 \$1;
#X msg 550 -109 4 \$1;
#X obj 550 -130 r knob4;
#X obj 537 162 list prepend;
#X obj 537 183 route list;
#X obj 281 376 route 1 2 3 4;
#X floatatom 280 398 5 0 0 0 - - -;
#X floatatom 316 398 5 0 0 0 - - -;
#X floatatom 351 398 5 0 0 0 - - -;
#X floatatom 388 398 5 0 0 0 - - -;
#X obj 460 378 route 1 2 3 4;
#X floatatom 459 400 5 0 0 0 - - -;
#X floatatom 495 400 5 0 0 0 - - -;
#X floatatom 530 400 5 0 0 0 - - -;
#X floatatom 567 400 5 0 0 0 - - -;
#X obj 626 378 route 1 2 3 4;
#X floatatom 625 400 5 0 0 0 - - -;
#X floatatom 661 400 5 0 0 0 - - -;
#X floatatom 696 400 5 0 0 0 - - -;
#X floatatom 733 400 5 0 0 0 - - -;
#X obj 801 379 route 1 2 3 4;
#X floatatom 800 401 5 0 0 0 - - -;
#X floatatom 836 401 5 0 0 0 - - -;
#X floatatom 871 401 5 0 0 0 - - -;
#X floatatom 908 401 5 0 0 0 - - -;
#X obj 977 382 route 1 2 3 4;
#X floatatom 976 404 5 0 0 0 - - -;
#X floatatom 1012 404 5 0 0 0 - - -;
#X floatatom 1047 404 5 0 0 0 - - -;
#X floatatom 1084 404 5 0 0 0 - - -;
#X obj 537 204 route 1 2 3 4 5, f 17;
#X obj 113 163 simple-delay 1;
#X obj 220 139 e_chorus;
#N canvas 768 186 511 537 bitcrusher 0;
#X obj 74 51 inlet~;
#X obj 82 437 outlet~;
#N canvas 109 343 564 411 guts 0;
#X obj 72 24 inlet~;
#X obj 70 294 outlet~;
#X obj 130 26 inlet;
#X obj 221 138 /;
#X msg 221 116 1 \$1;
#X obj 71 162 *~;
#X obj 130 137 line~;
#X obj 71 264 *~;
#X obj 89 192 wrap~;
#X obj 71 223 -~;
#X obj 130 114 pack 0 20;
#X obj 221 191 line~;
#X obj 221 168 pack 0 20;
#X obj 130 54 max 1;
#X connect 0 0 5 0;
#X connect 2 0 13 0;
#X connect 3 0 12 0;
#X connect 4 0 3 0;
#X connect 5 0 8 0;
#X connect 5 0 9 0;
#X connect 6 0 5 1;
#X connect 7 0 1 0;
#X connect 8 0 9 1;
#X connect 9 0 7 0;
#X connect 10 0 6 0;
#X connect 11 0 7 1;
#X connect 12 0 11 0;
#X connect 13 0 4 0;
#X connect 13 0 10 0;
#X restore 76 260 pd guts;
#X obj 74 133 hip~ 4;
#X obj 75 303 hip~ 4;
#X obj 76 282 *~ 0.125;
#X obj 246 102 hsl 128 15 0 1 0 0 empty empty empty -2 -8 0 10 -262144
-1 -1 0 1;
#X floatatom 243 122 5 0 0 0 - - -;
#X obj 300 121 expr 1 - $f1;
#X floatatom 300 145 5 0 0 0 - - -;
#X obj 74 370 *~;
#X obj 210 370 *~;
#X obj 291 28 r bmpBarSelected;
#X obj 206 34 r knob2_2;
#X obj 206 58 spigot;
#X obj 155 71 loadbang;
#X msg 155 95 0;
#X obj 361 195 s fx1;
#X connect 0 0 3 0;
#X connect 0 0 11 0;
#X connect 2 0 5 0;
#X connect 3 0 2 0;
#X connect 4 0 10 0;
#X connect 5 0 4 0;
#X connect 6 0 7 0;
#X connect 6 0 8 0;
#X connect 7 0 2 1;
#X connect 7 0 10 1;
#X connect 7 0 17 0;
#X connect 8 0 9 0;
#X connect 9 0 11 1;
#X connect 10 0 1 0;
#X connect 11 0 1 0;
#X connect 12 0 14 1;
#X connect 13 0 14 0;
#X connect 14 0 6 0;
#X connect 15 0 16 0;
#X connect 16 0 6 0;
#X restore 146 59 pd bitcrusher;
#N canvas 560 329 929 466 phaser 0;
#X obj 74 38 inlet~;
#X obj 96 127 rpole~;
#X obj 96 102 rzero_rev~;
#X obj 96 176 rpole~;
#X obj 96 151 rzero_rev~;
#X obj 96 224 rpole~;
#X obj 96 199 rzero_rev~;
#X obj 96 273 rpole~;
#X obj 96 248 rzero_rev~;
#X obj 73 403 +~;
#X obj 73 430 outlet~;
#X obj 403 211 phasor~ 0.3;
#X text 493 366 replacement for: expr~ 1 - 0.03 - 0.6*abs($v1-0.5)*abs($v1-0.5)
;
#X obj 345 211 sig~ 1;
#X obj 345 237 -~;
#X obj 346 281 min~;
#X obj 346 306 *~;
#X obj 270 360 -~;
#X obj 271 330 sig~ 0.97;
#X obj 406 300 line~;
#X obj 346 333 *~;
#X obj 406 271 pack 0 10;
#N canvas 228 198 627 317 LICENSE-BSD 0;
#X text 121 56 This software is copyrighted by Miller Puckette \, Reality
Jockey Ltd. and others. The terms (the "Standard Improved BSD License")
apply to all files associated with the software unless explicitly disclaimed
in individual files.;
#X text 123 148 See the file LICENSE.txt for the full license text.
;
#X restore 727 19 pd LICENSE-BSD;
#X obj 96 323 rpole~;
#X obj 96 298 rzero_rev~;
#X obj 96 373 rpole~;
#X obj 96 348 rzero_rev~;
#X text 452 95 freq;
#X text 711 159 depth;
#X obj 691 128 hsl 128 15 0 1 0 0 empty empty empty -2 -8 0 10 -262144
-1 -1 0 1;
#X obj 706 86 r bmpBarSelected;
#X obj 651 60 r knob2_2;
#X obj 651 84 spigot;
#X obj 589 58 loadbang;
#X msg 589 82 0;
#X floatatom 668 155 5 0 0 0 - - -;
#X floatatom 403 90 5 0 0 0 - - -;
#X obj 771 156 s fx1;
#X obj 403 35 r bpm;
#X obj 404 63 / 60;
#X connect 0 0 2 0;
#X connect 0 0 9 0;
#X connect 1 0 4 0;
#X connect 2 0 1 0;
#X connect 3 0 6 0;
#X connect 4 0 3 0;
#X connect 5 0 8 0;
#X connect 6 0 5 0;
#X connect 7 0 24 0;
#X connect 8 0 7 0;
#X connect 9 0 10 0;
#X connect 11 0 15 1;
#X connect 11 0 14 1;
#X connect 13 0 14 0;
#X connect 14 0 15 0;
#X connect 15 0 16 0;
#X connect 15 0 16 1;
#X connect 16 0 20 0;
#X connect 17 0 2 1;
#X connect 17 0 1 1;
#X connect 17 0 4 1;
#X connect 17 0 3 1;
#X connect 17 0 6 1;
#X connect 17 0 5 1;
#X connect 17 0 8 1;
#X connect 17 0 7 1;
#X connect 17 0 24 1;
#X connect 17 0 23 1;
#X connect 17 0 26 1;
#X connect 17 0 25 1;
#X connect 18 0 17 0;
#X connect 19 0 20 1;
#X connect 20 0 17 1;
#X connect 21 0 19 0;
#X connect 23 0 26 0;
#X connect 24 0 23 0;
#X connect 25 0 9 1;
#X connect 26 0 25 0;
#X connect 29 0 35 0;
#X connect 29 0 37 0;
#X connect 30 0 32 1;
#X connect 31 0 32 0;
#X connect 32 0 29 0;
#X connect 33 0 34 0;
#X connect 34 0 29 0;
#X connect 35 0 21 0;
#X connect 36 0 11 0;
#X connect 38 0 39 0;
#X connect 39 0 36 0;
#X restore 235 233 pd phaser;
#X obj 827 -145 r notes;
#X obj 827 -94 unpack;
#X obj 827 -51 sel 73 75 78 80 82;
#X msg 811 -24 1;
#X msg 837 -23 2;
#X msg 865 -24 3;
#X msg 891 -23 4;
#X msg 918 -23 5;
#X msg 949 -22 0;
#X obj 827 -73 spigot;
#X obj 612 730 printLine;
#X obj 724 172 t b b;
#X obj 898 171 t b b;
#X msg 752 191 fx1-1 fx1-2 fx1-3 fx1-4;
#X msg 925 191 fx2-1 fx2-2 fx2-3 fx2-4;
#X obj 1086 170 t b b;
#X msg 1113 190 fx3-1 fx3-2 fx3-3 fx3-4;
#X obj 1271 169 t b b;
#X obj 1455 170 t b b;
#X msg 1298 189 fx4-1 fx4-2 fx4-3 fx4-4;
#X msg 1481 190 fx5-1 fx5-2 fx5-3 fx5-4;
#X obj 774 112 sel 1 2 3 4 5;
#X obj 827 -124 spigot;
#X obj 1006 -144 r scene;
#X obj 1006 -123 == 1;
#X obj 1399 287 r bigbang;
#X msg 1399 308 set 0;
#N canvas 512 167 813 441 reberb 0;
#X obj 81 329 freeverb~;
#X msg 385 155 wet \$1;
#X msg 433 155 dry \$1;
#X obj 388 100 hsl 128 15 0 1 0 0 empty empty empty -2 -8 0 10 -262144
-1 -1 0 1;
#N canvas 1 80 450 300 inv 0;
#X obj 154 69 inlet;
#X obj 154 179 outlet;
#X msg 154 124 1;
#X obj 154 97 t b f;
#X obj 154 151 -;
#X connect 0 0 3 0;
#X connect 2 0 4 0;
#X connect 3 0 2 0;
#X connect 3 1 4 1;
#X connect 4 0 1 0;
#X restore 433 128 pd inv;
#X floatatom 491 153 5 0 0 0 - - -;
#X text 376 84 dry;
#X text 501 83 wet;
#X floatatom 392 129 5 0 0 0 - - -;
#X obj 85 35 inlet~;
#X obj 78 406 outlet~;
#X msg 180 120 roomsize \$1;
#X msg 285 117 damping \$1;
#X msg 644 114 freeze \$1;
#X obj 644 95 tgl 15 0 empty empty empty 0 -6 0 8 -262144 -1 -1 0 1
;
#X obj 297 94 hsl 60 18 0 2 0 1 empty empty damping 2 9 1 12 -261689
-1 -1 0 0;
#X obj 192 97 hsl 60 18 0.11 1.1 0 1 empty empty roomsize 2 9 1 12
-261689 -1 -1 1900 0;
#X floatatom 162 101 3 0 0 0 - - -;
#X floatatom 267 98 3 0 0 0 - - -;
#X connect 0 0 10 0;
#X connect 1 0 0 0;
#X connect 2 0 0 0;
#X connect 3 0 1 0;
#X connect 3 0 4 0;
#X connect 3 0 8 0;
#X connect 4 0 2 0;
#X connect 4 0 5 0;
#X connect 9 0 0 0;
#X connect 11 0 0 0;
#X connect 12 0 0 0;
#X connect 13 0 0 0;
#X connect 14 0 13 0;
#X connect 15 0 12 0;
#X connect 15 0 18 0;
#X connect 16 0 11 0;
#X connect 16 0 17 0;
#X restore 119 426 pd reberb;
#X connect 0 0 1 0;
#X connect 2 0 3 0;
#X connect 3 0 14 1;
#X connect 3 0 67 0;
#X connect 4 0 5 0;
#X connect 5 0 2 0;
#X connect 6 0 7 0;
#X connect 7 0 14 0;
#X connect 8 0 14 0;
#X connect 9 0 8 0;
#X connect 10 0 11 0;
#X connect 11 0 14 0;
#X connect 12 0 14 0;
#X connect 13 0 12 0;
#X connect 14 0 15 0;
#X connect 15 0 41 0;
#X connect 16 0 17 0;
#X connect 16 1 18 0;
#X connect 16 2 19 0;
#X connect 16 3 20 0;
#X connect 17 0 56 1;
#X connect 18 0 56 2;
#X connect 19 0 56 3;
#X connect 20 0 56 4;
#X connect 21 0 22 0;
#X connect 21 1 23 0;
#X connect 21 2 24 0;
#X connect 21 3 25 0;
#X connect 22 0 56 1;
#X connect 23 0 56 2;
#X connect 24 0 56 3;
#X connect 25 0 56 4;
#X connect 26 0 27 0;
#X connect 26 1 28 0;
#X connect 26 2 29 0;
#X connect 26 3 30 0;
#X connect 27 0 56 1;
#X connect 28 0 56 2;
#X connect 29 0 56 3;
#X connect 30 0 56 4;
#X connect 31 0 32 0;
#X connect 31 1 33 0;
#X connect 31 2 34 0;
#X connect 31 3 35 0;
#X connect 32 0 56 1;
#X connect 33 0 56 2;
#X connect 34 0 56 3;
#X connect 35 0 56 4;
#X connect 36 0 37 0;
#X connect 36 1 38 0;
#X connect 36 2 39 0;
#X connect 36 3 40 0;
#X connect 37 0 56 1;
#X connect 38 0 56 2;
#X connect 39 0 56 3;
#X connect 40 0 56 4;
#X connect 41 0 16 0;
#X connect 41 1 21 0;
#X connect 41 2 26 0;
#X connect 41 3 31 0;
#X connect 41 4 36 0;
#X connect 46 0 68 0;
#X connect 47 0 55 0;
#X connect 47 1 55 1;
#X connect 48 0 49 0;
#X connect 48 1 50 0;
#X connect 48 2 51 0;
#X connect 48 3 52 0;
#X connect 48 4 53 0;
#X connect 48 5 54 0;
#X connect 49 0 2 0;
#X connect 50 0 2 0;
#X connect 51 0 2 0;
#X connect 52 0 2 0;
#X connect 53 0 2 0;
#X connect 54 0 2 0;
#X connect 55 0 48 0;
#X connect 57 0 20 0;
#X connect 57 0 19 0;
#X connect 57 0 18 0;
#X connect 57 0 17 0;
#X connect 57 1 59 0;
#X connect 58 0 23 0;
#X connect 58 0 25 0;
#X connect 58 0 24 0;
#X connect 58 0 22 0;
#X connect 58 1 60 0;
#X connect 59 0 56 0;
#X connect 60 0 56 0;
#X connect 61 0 27 0;
#X connect 61 0 30 0;
#X connect 61 0 29 0;
#X connect 61 0 28 0;
#X connect 61 1 62 0;
#X connect 62 0 56 0;
#X connect 63 0 33 0;
#X connect 63 0 35 0;
#X connect 63 0 34 0;
#X connect 63 0 32 0;
#X connect 63 1 65 0;
#X connect 64 0 40 0;
#X connect 64 0 39 0;
#X connect 64 0 38 0;
#X connect 64 0 37 0;
#X connect 64 1 66 0;
#X connect 65 0 56 0;
#X connect 66 0 56 0;
#X connect 67 0 57 0;
#X connect 67 1 58 0;
#X connect 67 2 61 0;
#X connect 67 3 63 0;
#X connect 67 4 64 0;
#X connect 68 0 47 0;
#X connect 69 0 70 0;
#X connect 69 0 54 0;
#X connect 70 0 68 1;
#X connect 71 0 72 0;
#X connect 72 0 40 0;
#X connect 72 0 39 0;
#X connect 72 0 38 0;
#X connect 72 0 37 0;
#X connect 72 0 35 0;
#X connect 72 0 34 0;
#X connect 72 0 33 0;
#X connect 72 0 32 0;
#X connect 72 0 30 0;
#X connect 72 0 29 0;
#X connect 72 0 28 0;
#X connect 72 0 27 0;
#X connect 72 0 25 0;
#X connect 72 0 24 0;
#X connect 72 0 23 0;
#X connect 72 0 22 0;
#X connect 72 0 20 0;
#X connect 72 0 19 0;
#X connect 72 0 18 0;
#X connect 72 0 17 0;
#X connect 73 0 1 0;
#X restore 158 536 pd fxs;
#X obj 236 20 r~ inL;
#X obj 307 18 r~ inR;
#X obj 235 48 hip~ 4;
#X obj 308 48 hip~ 4;
#X obj 234 74 lop~ 10000;
#X obj 307 74 lop~ 10000;
#X msg 942 756 0;
#X obj 1003 735 r lastbang;
#X msg 1003 756 1;
#X obj 942 735 r bigbang;
#X obj 1008 288 t l l;
#X obj 1035 558 unpack;
#X floatatom 692 478 5 0 0 0 - - -;
#X obj 1035 579 spigot;
#X obj 692 498 s loopBtnState;
#X obj 692 458 expr if($f2 > 0 \, 1 \, 0);
#X obj 1072 43 r recordBtn;
#X obj 1010 64 spigot;
#X obj 1072 64 == 0;
#X obj 1010 85 spigot;
#X obj 1054 64 tgl 15 0 empty empty empty 17 7 0 10 -262144 -1 -1 1
1;
#X obj 1055 86 tgl 15 0 empty empty empty 17 7 0 10 -262144 -1 -1 1
1;
#X obj 1105 64 r scene;
#X obj 1105 85 == 1;
#X obj 571 262 r usedTracks;
#X floatatom 571 283 5 0 0 0 - - -;
#X obj 571 303 == 0;
#X obj 571 324 sel 1;
#X msg 571 345 0;
#X obj 571 366 s mloopLen;
#X obj 1093 181 unpack;
#X obj 1009 262 spigot;
#X obj 1010 120 t l l;
#X obj 1093 202 spigot;
#X obj 1066 255 == 0;
#X obj 1133 254 sel 1;
#X obj 1133 276 tgl 40 0 empty empty empty 17 7 0 10 -262144 -1 -1
0 1;
#X obj 1133 321 s selectMode;
#X obj 1179 233 r bigbang;
#X msg 1178 253 1;
#X obj 1158 385 s header;
#X obj 1157 342 sel 0 1;
#X msg 1157 363 MultiMode;
#X msg 1230 362 MonoMode;
#X obj 1093 222 == 61;
#X obj 574 607 r knob4_1;
#X floatatom 574 628 5 0 0 0 - - -;
#X obj 575 829 line;
#X msg 574 808 \$1 200;
#X obj 1068 280 tgl 15 0 empty empty empty 17 7 0 10 -262144 -1 -1
1 1;
#X obj 692 436 spigot;
#X obj 691 414 spigot;
#X obj 733 416 tgl 15 0 empty empty empty 17 7 0 10 -262144 -1 -1 0
1;
#X obj 1372 184 unpack;
#X obj 1373 285 spigot;
#X obj 1372 361 s loopBtnState;
#X floatatom 1373 327 5 0 0 0 - - -;
#X obj 1373 307 expr if($f1 > 0 \, 1 \, 0);
#X msg 1372 160 \$2 \$1;
#X obj 1396 248 == 63;
#X text 755 416 deprecated cuando apreta el mismo track play/stop?
;
#X floatatom 745 222 5 0 0 0 - - -;
#X obj 745 201 r tracksOnLen;
#X floatatom 831 222 5 0 0 0 - - -;
#X obj 832 201 r tracksPlayingLen;
#X obj 774 244 r usedTracks;
#X floatatom 774 265 5 0 0 0 - - -;
#X obj 574 758 * 2;
#X text 600 758 todo: multiplico volumen;
#X obj 1287 214 == 66;
#X obj 1287 236 sel 1;
#X obj 1284 257 tgl 40 0 empty empty empty 17 7 0 10 -262144 -1 -1
0 1;
#X obj 1284 313 s reverse;
#X obj 480 25 r knob1_1;
#X connect 0 0 1 0;
#X connect 5 0 7 0;
#X connect 6 0 9 0;
#X connect 8 0 66 0;
#X connect 9 0 10 0;
#X connect 11 0 8 0;
#X connect 12 0 8 0;
#X connect 14 0 21 0;
#X connect 15 0 16 0;
#X connect 16 0 34 0;
#X connect 17 0 20 0;
#X connect 17 0 13 0;
#X connect 18 0 17 0;
#X connect 19 0 18 0;
#X connect 20 0 19 0;
#X connect 20 1 18 0;
#X connect 21 0 17 0;
#X connect 22 0 8 0;
#X connect 23 0 8 0;
#X connect 24 0 25 0;
#X connect 26 0 17 0;
#X connect 26 0 24 0;
#X connect 27 0 26 0;
#X connect 28 0 29 0;
#X connect 28 1 29 0;
#X connect 29 0 7 0;
#X connect 30 0 29 1;
#X connect 31 0 134 0;
#X connect 33 0 35 0;
#X connect 34 0 33 0;
#X connect 36 0 84 0;
#X connect 37 0 38 0;
#X connect 37 1 39 0;
#X connect 37 2 40 0;
#X connect 37 3 41 0;
#X connect 37 4 42 0;
#X connect 37 5 43 0;
#X connect 37 6 44 0;
#X connect 37 7 45 0;
#X connect 37 8 46 0;
#X connect 37 9 47 0;
#X connect 37 10 48 0;
#X connect 37 11 49 0;
#X connect 37 12 50 0;
#X connect 37 13 51 0;
#X connect 38 0 6 0;
#X connect 39 0 6 0;
#X connect 40 0 6 0;
#X connect 41 0 6 0;
#X connect 42 0 6 0;
#X connect 43 0 6 0;
#X connect 44 0 6 0;
#X connect 45 0 6 0;
#X connect 46 0 6 0;
#X connect 47 0 6 0;
#X connect 48 0 6 0;
#X connect 49 0 6 0;
#X connect 50 0 6 0;
#X connect 51 0 6 0;
#X connect 52 0 8 0;
#X connect 53 0 8 0;
#X connect 54 0 8 0;
#X connect 55 0 8 0;
#X connect 56 0 8 0;
#X connect 57 0 8 0;
#X connect 58 0 8 0;
#X connect 59 0 8 0;
#X connect 60 0 8 0;
#X connect 61 0 8 0;
#X connect 62 0 8 0;
#X connect 65 0 64 0;
#X connect 66 0 2 0;
#X connect 67 0 69 0;
#X connect 68 0 70 0;
#X connect 69 0 71 0;
#X connect 70 0 72 0;
#X connect 71 0 29 0;
#X connect 72 0 29 0;
#X connect 73 0 6 0;
#X connect 74 0 75 0;
#X connect 75 0 6 0;
#X connect 76 0 73 0;
#X connect 77 0 118 0;
#X connect 77 1 78 0;
#X connect 78 0 80 0;
#X connect 78 1 80 1;
#X connect 79 0 81 0;
#X connect 80 0 37 0;
#X connect 82 0 79 0;
#X connect 83 0 85 0;
#X connect 84 0 86 0;
#X connect 85 0 87 0;
#X connect 86 0 99 0;
#X connect 87 0 84 1;
#X connect 88 0 86 1;
#X connect 89 0 90 0;
#X connect 90 0 88 0;
#X connect 91 0 92 0;
#X connect 92 0 93 0;
#X connect 93 0 94 0;
#X connect 94 0 95 0;
#X connect 95 0 96 0;
#X connect 97 0 100 0;
#X connect 97 1 100 1;
#X connect 98 0 77 0;
#X connect 99 0 98 0;
#X connect 99 1 97 0;
#X connect 99 1 125 0;
#X connect 100 0 111 0;
#X connect 100 0 136 0;
#X connect 101 0 116 0;
#X connect 102 0 103 0;
#X connect 103 0 104 0;
#X connect 103 0 108 0;
#X connect 103 0 117 1;
#X connect 105 0 106 0;
#X connect 106 0 103 0;
#X connect 108 0 109 0;
#X connect 108 1 110 0;
#X connect 109 0 107 0;
#X connect 110 0 107 0;
#X connect 111 0 101 0;
#X connect 111 0 102 0;
#X connect 112 0 113 0;
#X connect 113 0 31 0;
#X connect 114 0 32 0;
#X connect 115 0 114 0;
#X connect 116 0 98 1;
#X connect 117 0 82 0;
#X connect 118 0 117 0;
#X connect 119 0 118 1;
#X connect 120 0 121 0;
#X connect 120 1 126 0;
#X connect 121 0 124 0;
#X connect 123 0 122 0;
#X connect 124 0 123 0;
#X connect 125 0 120 0;
#X connect 126 0 121 1;
#X connect 129 0 128 0;
#X connect 131 0 130 0;
#X connect 132 0 133 0;
#X connect 134 0 115 0;
#X connect 136 0 137 0;
#X connect 137 0 138 0;
#X connect 138 0 139 0;
#X connect 140 0 30 0;
