#N canvas 577 95 944 835 10;
#X obj 21 25 inlet;
#X obj 78 241 inlet;
#X obj 219 241 inlet;
#X obj 366 245 inlet;
#X obj 490 246 inlet;
#X floatatom 78 262 5 0 0 0 - - -;
#X floatatom 219 262 5 0 0 0 - - -;
#X floatatom 366 266 5 0 0 0 - - -;
#X floatatom 490 267 5 0 0 0 - - -;
#X obj 224 136 list split 1;
#X obj 191 108 list split 1;
#X obj 261 158 list split 1;
#X obj 300 187 list split 1;
#X obj 78 383 list append;
#X obj 219 386 list append;
#X obj 366 388 list append;
#X obj 490 387 list append;
#X obj 43 611 s askForRefresh;
#X obj 43 589 bng 15 250 50 0 empty empty empty 17 7 0 10 -262144 -1
-1;
#X obj 273 645 s oscOut;
#X obj 490 287 expr int($f1*100);
#X obj 367 287 expr int($f1*100);
#X obj 220 283 expr int($f1*100);
#X obj 78 283 expr int($f1*100);
#X msg 260 591 /oled/gPrintln 3 5 \$1 8 1 \$3: \$2;
#X obj 243 506 t b a a;
#X msg 302 565 /oled/gFillArea 3 0 \$1 128 8 0;
#X msg 78 303 12 \$1;
#X msg 220 305 22 \$1;
#X msg 367 307 32 \$1;
#X msg 489 308 42 \$1;
#X connect 0 0 10 0;
#X connect 1 0 5 0;
#X connect 2 0 6 0;
#X connect 3 0 7 0;
#X connect 4 0 8 0;
#X connect 5 0 23 0;
#X connect 6 0 22 0;
#X connect 7 0 21 0;
#X connect 8 0 20 0;
#X connect 9 0 14 1;
#X connect 9 1 11 0;
#X connect 10 0 13 1;
#X connect 10 1 9 0;
#X connect 11 0 15 1;
#X connect 11 1 12 0;
#X connect 12 0 16 1;
#X connect 13 0 25 0;
#X connect 14 0 25 0;
#X connect 15 0 25 0;
#X connect 16 0 25 0;
#X connect 18 0 17 0;
#X connect 20 0 30 0;
#X connect 21 0 29 0;
#X connect 22 0 28 0;
#X connect 23 0 27 0;
#X connect 24 0 19 0;
#X connect 25 0 18 0;
#X connect 25 1 24 0;
#X connect 25 2 26 0;
#X connect 26 0 19 0;
#X connect 27 0 13 0;
#X connect 28 0 14 0;
#X connect 29 0 15 0;
#X connect 30 0 16 0;
