#N canvas 1028 0 999 637 10;
#X obj 323 312 osc~;
#X obj 32 14 inlet;
#X floatatom 324 163 5 0 0 0 - - -;
#X obj 135 104 tgl 10 0 empty empty empty 17 7 0 10 -66577 -1 -1 0
1;
#X obj 158 57 r \$0-color;
#X msg 158 78 color \$1;
#X obj 234 596 outlet~;
#X obj 428 598 outlet~;
#X obj 235 550 *~;
#X obj 428 546 *~;
#X obj 291 598 hsl 128 15 0 1 0 0 empty empty empty -2 -8 0 10 -262144
-1 -1 6350 1;
#X obj 323 361 *~ 1;
#X obj 324 183 mtof;
#X obj 820 385 osc~;
#X obj 821 409 *~;
#X obj 894 373 hsl 50 20 0 1 0 0 empty empty pan -2 -8 0 10 -260097
-1 -1 0 1;
#X obj 820 494 snapshot~;
#X obj 832 471 bang~;
#X msg 820 346 1;
#X obj 820 441 +~ 0.5;
#X obj 328 489 *~ 1;
#X obj 300 527 expr~ 1 - $v1;
#X obj 440 233 osc~;
#X obj 441 257 *~;
#X obj 737 143 hsl 50 20 0 0.5 0 0 empty empty pitchdeep -2 -8 0 10
-260097 -1 -1 4300 1;
#X obj 440 319 snapshot~;
#X obj 452 296 bang~;
#X obj 734 168 expr~ $v1*$f2;
#X floatatom 440 340 5 0 0 0 - - -;
#X floatatom 325 209 5 0 0 0 - - -;
#X msg 810 136 100;
#X obj 324 236 sig~;
#X obj 324 257 +~;
#X msg 406 168 1;
#X obj 891 398 / 2;
#X obj 440 28 r pitchSpeed;
#X obj 765 62 r pitchDeep;
#X obj 564 36 r spread;
#X floatatom 115 131 5 0 0 0 - - -;
#X obj 115 151 s \$0-index;
#X obj 661 32 r \$0-index;
#X floatatom 564 78 5 0 0 0 - - -;
#X obj 851 110 r bigbang;
#X obj 290 12 inlet;
#X obj 564 98 t b f;
#X obj 566 57 expr $f1*(10*$f2);
#X floatatom 443 100 5 0 0 0 - - -;
#X obj 440 158 expr ($f1*4) + $f2;
#X connect 0 0 11 0;
#X connect 1 0 2 0;
#X connect 2 0 12 0;
#X connect 4 0 5 0;
#X connect 5 0 3 0;
#X connect 8 0 6 0;
#X connect 9 0 7 0;
#X connect 11 0 8 0;
#X connect 11 0 9 0;
#X connect 12 0 29 0;
#X connect 13 0 14 0;
#X connect 14 0 19 0;
#X connect 15 0 34 0;
#X connect 16 0 10 0;
#X connect 17 0 16 0;
#X connect 18 0 13 0;
#X connect 19 0 16 0;
#X connect 19 0 20 0;
#X connect 20 0 9 1;
#X connect 20 0 21 0;
#X connect 21 0 8 1;
#X connect 22 0 23 0;
#X connect 23 0 25 0;
#X connect 24 0 27 0;
#X connect 25 0 28 0;
#X connect 26 0 25 0;
#X connect 27 0 23 1;
#X connect 28 0 32 1;
#X connect 29 0 31 0;
#X connect 30 0 27 1;
#X connect 31 0 32 0;
#X connect 32 0 0 0;
#X connect 33 0 22 0;
#X connect 34 0 14 1;
#X connect 35 0 46 0;
#X connect 36 0 24 0;
#X connect 37 0 45 0;
#X connect 38 0 39 0;
#X connect 40 0 45 1;
#X connect 41 0 44 0;
#X connect 42 0 30 0;
#X connect 43 0 38 0;
#X connect 44 0 46 0;
#X connect 44 1 47 1;
#X connect 45 0 41 0;
#X connect 46 0 47 0;
#X connect 47 0 22 0;
#X connect 47 0 13 0;
#X coords 0 -1 1 1 50 50 1 100 100;
