#N canvas 35 97 975 514 10;
#X obj 246 237 bee;
#X obj 326 23 r notes;
#X obj 326 94 unpack;
#X obj 8 6 bng 31 250 50 0 empty empty empty 17 7 0 10 -262144 -1 -1
;
#N canvas 1011 224 721 300 init 0;
#X obj 167 121 s bigbang;
#X obj 135 97 t b b;
#X obj 172 29 loadbang;
#X obj 82 197 s latebang;
#X obj 82 173 delay 50;
#X obj 131 15 inlet;
#X obj 241 215 print >>>>>>>>>>>>>>>>>>>>>>>;
#X obj 139 249 print <<<<<<<<<<<<<<<<<<<<<<<<;
#X obj 286 87 throw~ outL;
#X obj 303 109 throw~ outR;
#X obj 285 62 r~ soundOut;
#X obj 8 197 s lastbang;
#X obj 9 173 delay 60;
#X obj 529 70 metro 50;
#X obj 529 40 t b b;
#X msg 605 71 0;
#X obj 529 121 i;
#X obj 557 121 + 1;
#X floatatom 529 142 5 0 0 0 - - -;
#X obj 529 19 r bigbang;
#X obj 131 54 bng 31 250 50 0 empty empty empty 17 7 0 10 -262144 -1
-1;
#X obj 529 162 s t;
#X connect 1 0 4 0;
#X connect 1 0 7 0;
#X connect 1 0 12 0;
#X connect 1 1 0 0;
#X connect 1 1 6 0;
#X connect 2 0 20 0;
#X connect 4 0 3 0;
#X connect 5 0 20 0;
#X connect 10 0 8 0;
#X connect 10 0 9 0;
#X connect 12 0 11 0;
#X connect 13 0 16 0;
#X connect 14 0 13 0;
#X connect 14 1 15 0;
#X connect 15 0 16 1;
#X connect 16 0 17 0;
#X connect 16 0 18 0;
#X connect 17 0 16 1;
#X connect 18 0 21 0;
#X connect 19 0 14 0;
#X connect 20 0 1 0;
#X restore 8 42 pd init;
#X obj 272 453 throw~ outL;
#X obj 421 452 throw~ outR;
#X floatatom 326 115 5 0 0 0 - - -;
#X obj 272 395 *~ 1;
#X obj 422 393 *~ 1;
#X obj 642 290 vsl 20 50 0 1 0 0 empty empty empty 0 -9 0 10 -262144
-1 -1 0 1;
#X obj 321 239 bee;
#X obj 399 242 bee;
#X obj 468 241 bee;
#X obj 607 55 hsl 50 20 0 0.5 0 0 empty empty pitchdeep -2 -8 0 10
-260097 -1 -1 1300 1;
#X obj 518 57 hsl 50 20 0 1 0 0 empty empty pitchspeed -2 -8 0 10 -260097
-1 -1 800 1;
#X obj 604 82 s pitchDeep;
#X obj 515 82 s pitchSpeed;
#X obj 692 56 hsl 50 20 0 1 0 0 empty empty spreedPS -2 -8 0 10 -260097
-1 -1 1000 1;
#X obj 688 82 s spread;
#X obj 130 21 r bigbang;
#X msg 130 62 4;
#X obj 159 102 + 1;
#X msg 130 123 \$1 \$1;
#X obj 130 144 route 1 2 3 4;
#X obj 130 102 i;
#X obj 130 42 t b b;
#X msg 159 62 1;
#X obj 130 83 until;
#X obj 634 221 r bigbang;
#X msg 634 242 0.5;
#X connect 0 0 8 0;
#X connect 0 1 9 0;
#X connect 1 0 2 0;
#X connect 2 0 7 0;
#X connect 3 0 4 0;
#X connect 7 0 0 0;
#X connect 7 0 12 0;
#X connect 7 0 11 0;
#X connect 7 0 13 0;
#X connect 8 0 5 0;
#X connect 9 0 6 0;
#X connect 10 0 9 1;
#X connect 10 0 8 1;
#X connect 11 0 8 0;
#X connect 11 1 9 0;
#X connect 12 0 8 0;
#X connect 12 1 9 0;
#X connect 13 0 8 0;
#X connect 13 1 9 0;
#X connect 14 0 16 0;
#X connect 15 0 17 0;
#X connect 18 0 19 0;
#X connect 20 0 26 0;
#X connect 21 0 28 0;
#X connect 22 0 25 1;
#X connect 23 0 24 0;
#X connect 24 0 0 1;
#X connect 24 1 11 1;
#X connect 24 2 12 1;
#X connect 24 3 13 1;
#X connect 25 0 22 0;
#X connect 25 0 23 0;
#X connect 26 0 21 0;
#X connect 26 1 27 0;
#X connect 27 0 25 1;
#X connect 28 0 25 0;
#X connect 29 0 30 0;
#X connect 30 0 10 0;
