#N canvas 516 171 548 567 12;
#X obj 78 54 s bigbang;
#X obj 46 30 t b b;
#X obj 46 7 loadbang;
#X obj 8 7 bng 31 250 50 0 empty empty empty 17 7 0 10 -262144 -1 -1
;
#X obj 46 100 s latebang;
#X obj 52 502 s pokemonNumber;
#N canvas 698 59 703 616 sound 0;
#X obj 171 527 throw~ outL;
#X obj 276 527 throw~ outR;
#X obj 46 47 r notes;
#X obj 327 151 soundfiler;
#X floatatom 327 180 5 0 0 0 - - -;
#X obj 327 211 s tableSize;
#X floatatom 327 95 5 0 0 0 - - -;
#X obj 485 53 table crytab;
#X obj 327 51 r pokemonNumber;
#X msg 327 123 read -resize cries/\$1.wav crytab;
#X obj 61 408 s~ soundOut;
#X obj 172 411 r~ soundOut;
#X obj 238 287 readsf~;
#X msg 238 260 open cries/\$1.wav \, 1;
#X obj 238 109 sel 1;
#X obj 238 199 i;
#N canvas -8 -8 2048 1069 poke_synth 0;
#X floatatom 495 277 5 -100 300 0 - - -;
#X obj 495 254 i;
#X obj 774 250 hsl 200 15 0 1 0 0 empty empty empty -2 -8 0 10 -262144
-1 -1 0 1;
#X obj 775 350 hsl 200 15 0 1 0 0 empty empty empty -2 -8 0 10 -262144
-1 -1 0 1;
#X obj 398 705 snapshot~;
#X obj 447 678 bang~;
#X floatatom 469 707 10 0 0 0 - - -;
#X obj 775 273 hsl 200 15 0 1 0 0 empty empty empty -2 -8 0 10 -262144
-1 -1 19900 1;
#X obj 944 107 r bigbang;
#X msg 968 128 1;
#X msg 742 130 0;
#X obj 704 108 r bigbang;
#X obj 498 208 hsl 200 15 0 1 0 0 empty empty empty -2 -8 0 10 -262144
-1 -1 9950 1;
#X obj 495 233 expr $f1 * 400 - 100;
#X text 524 277 <-- speed percent;
#X floatatom 495 135 5 0 0 0 - - -;
#X floatatom 692 132 5 0 1 0 - - -;
#X floatatom 929 130 5 0 1 0 - - -;
#X msg 538 133 0.5;
#X obj 512 113 r bigbang;
#X text 987 248 start;
#X text 988 271 end;
#X obj 692 168 clip 0 1;
#X obj 921 170 clip 0 1;
#X obj 692 74 line 50;
#X obj 929 72 line 50;
#X obj 43 221 pack 0 0 0;
#X obj 43 325 route 1 2 3 4 5 6;
#X obj 44 56 inlet;
#X obj 42 776 outlet~;
#X obj 771 381 s cursorPosition;
#X obj 795 296 s startMarker;
#X obj 795 320 s endMarker;
#X obj 44 167 poly 6 1;
#X msg 242 151 1 0 0 0 0 0;
#X obj 242 295 spigot;
#X msg 251 173 0 1 0 0 0 0;
#X msg 259 196 0 0 1 0 0 0;
#X msg 267 219 0 0 0 1 0 0;
#X msg 277 242 0 0 0 0 1 0;
#X msg 284 264 0 0 0 0 0 1;
#X obj 242 324 unpack 1 2 3 4 5 6;
#X obj 43 557 poke_voice;
#X obj 53 578 poke_voice;
#X obj 66 600 poke_voice;
#X obj 79 621 poke_voice;
#X obj 91 642 poke_voice;
#X obj 104 663 poke_voice;
#X obj 495 45 r knob2_1;
#X obj 693 53 r knob3_1;
#X obj 929 51 r knob4_1;
#X connect 0 0 47 1;
#X connect 0 0 42 1;
#X connect 0 0 43 1;
#X connect 0 0 44 1;
#X connect 0 0 45 1;
#X connect 0 0 46 1;
#X connect 1 0 0 0;
#X connect 2 0 23 1;
#X connect 2 0 31 0;
#X connect 2 0 47 2;
#X connect 2 0 42 2;
#X connect 2 0 43 2;
#X connect 2 0 44 2;
#X connect 2 0 45 2;
#X connect 2 0 46 2;
#X connect 3 0 30 0;
#X connect 4 0 6 0;
#X connect 5 0 4 0;
#X connect 6 0 3 0;
#X connect 7 0 22 2;
#X connect 7 0 32 0;
#X connect 7 0 47 3;
#X connect 7 0 42 3;
#X connect 7 0 43 3;
#X connect 7 0 44 3;
#X connect 7 0 45 3;
#X connect 7 0 46 3;
#X connect 8 0 9 0;
#X connect 9 0 17 0;
#X connect 10 0 16 0;
#X connect 11 0 10 0;
#X connect 12 0 13 0;
#X connect 13 0 1 0;
#X connect 15 0 12 0;
#X connect 16 0 22 0;
#X connect 17 0 23 0;
#X connect 18 0 15 0;
#X connect 19 0 18 0;
#X connect 22 0 2 0;
#X connect 23 0 7 0;
#X connect 24 0 16 0;
#X connect 25 0 17 0;
#X connect 26 0 27 0;
#X connect 27 0 34 0;
#X connect 27 0 42 0;
#X connect 27 1 36 0;
#X connect 27 1 43 0;
#X connect 27 2 37 0;
#X connect 27 2 44 0;
#X connect 27 3 38 0;
#X connect 27 3 45 0;
#X connect 27 4 39 0;
#X connect 27 4 46 0;
#X connect 27 5 40 0;
#X connect 27 5 47 0;
#X connect 28 0 33 0;
#X connect 33 0 26 0;
#X connect 33 1 26 1;
#X connect 33 2 26 2;
#X connect 33 2 35 1;
#X connect 34 0 35 0;
#X connect 35 0 41 0;
#X connect 36 0 35 0;
#X connect 37 0 35 0;
#X connect 38 0 35 0;
#X connect 39 0 35 0;
#X connect 40 0 35 0;
#X connect 41 0 42 4;
#X connect 41 1 43 4;
#X connect 41 2 44 4;
#X connect 41 3 45 4;
#X connect 41 4 46 4;
#X connect 41 5 47 4;
#X connect 42 0 29 0;
#X connect 42 1 4 0;
#X connect 43 0 29 0;
#X connect 43 1 4 0;
#X connect 44 0 29 0;
#X connect 44 1 4 0;
#X connect 45 0 29 0;
#X connect 45 1 4 0;
#X connect 46 0 29 0;
#X connect 46 1 4 0;
#X connect 47 0 29 0;
#X connect 47 1 4 0;
#X connect 48 0 15 0;
#X connect 49 0 24 0;
#X connect 50 0 25 0;
#X restore 46 204 pd poke_synth;
#X obj 345 333 s lefOff;
#X obj 172 467 looper;
#X obj 238 85 r aux_1;
#X connect 2 0 16 0;
#X connect 3 0 4 0;
#X connect 4 0 5 0;
#X connect 6 0 9 0;
#X connect 8 0 6 0;
#X connect 8 0 15 1;
#X connect 9 0 3 0;
#X connect 11 0 18 0;
#X connect 12 0 10 0;
#X connect 12 1 17 0;
#X connect 13 0 12 0;
#X connect 14 0 15 0;
#X connect 15 0 13 0;
#X connect 16 0 10 0;
#X connect 18 0 0 0;
#X connect 18 0 1 0;
#X connect 19 0 14 0;
#X restore 239 202 pd sound;
#N canvas 670 189 710 551 screen 0;
#X obj 21 52 r 2screen;
#X obj 21 76 s oscOut;
#N canvas 669 124 1016 687 looper_oled 0;
#X msg -28 262 /oled/gFlip 3;
#X obj -28 288 s 2screen;
#X obj 320 176 t b b b b b;
#X obj 322 56 inlet;
#X obj 914 225 spigot;
#X msg 947 202 1;
#X msg 963 225 0;
#X obj 1127 307 s 2screen;
#X msg 1127 286 /oled/gClear 3 1;
#X obj 1042 866 s 2screen;
#X obj 914 246 t b b b;
#X obj 947 160 r scene;
#X obj 5 615 loop_gfx;
#X obj 227 476 r loopData;
#X obj 63 615 loop_gfx;
#X obj 123 614 loop_gfx;
#X obj 183 614 loop_gfx;
#X obj 5 532 count 1 4;
#X msg 5 553 \$1 \$1;
#X obj 5 574 route 1 2 3 4;
#X obj 226 496 route 1 2 3 4;
#X obj 947 950 s 2screen;
#X obj 972 788 r bpm;
#X obj 948 818 i;
#X obj 657 950 s 2screen;
#X obj 750 769 r tickVol;
#X msg 949 925 /oled/gPrintln 3 \$2 3 8 0 \$1 BMP;
#X obj 416 603 r bmpBarSelected;
#X obj 385 631 spigot;
#X obj 399 904 s 2screen;
#X obj 360 690 bng 15 250 50 0 empty empty empty 17 7 0 10 -262144
-1 -1;
#X obj 948 871 pack;
#X obj 1030 815 r bmpBarSelected;
#X obj 1030 836 sel 0 1;
#X msg 1030 857 3;
#X msg 429 843 /oled/gLine 3 6 9 8 7 0;
#X msg 429 823 /oled/gLine 3 5 9 7 7 0;
#X msg 429 803 /oled/gLine 3 5 8 6 7 0;
#X msg 431 733 /oled/gLine 3 6 3 9 6 0;
#X msg 429 754 /oled/gLine 3 5 3 8 6 0;
#X msg 430 775 /oled/gLine 3 5 4 7 6 0;
#X obj 635 785 f;
#X obj 634 805 expr int($f1*100);
#X msg 657 925 /oled/gPrintln 3 107 3 8 0 \$1;
#X msg 1062 857 14;
#X obj 605 289 r isRecording;
#X obj 486 499 t b b;
#X obj 499 344 spigot;
#X obj 594 342 spigot;
#X floatatom 641 344 5 0 0 0 - - -;
#X floatatom 541 345 5 0 0 0 - - -;
#X obj 605 310 == 0;
#X obj 596 403 s 2screen;
#X msg 896 335 /oled/gFillArea 3 0 0 128 13 1;
#X obj 896 356 s 2screen;
#X obj 806 696 t b b;
#X msg 596 382 /oled/gPrintln 3 32 3 8 0 *RECORDING*;
#X obj 612 446 r isCleaning;
#X obj 573 446 == 0;
#X obj 598 524 s 2screen;
#X obj 536 285 t b b;
#X obj 499 435 t b b;
#X obj 568 467 spigot;
#X obj 499 466 spigot;
#X msg 598 502 /oled/gPrintln 3 32 3 8 0 CLEANING...;
#X obj 725 308 loadbang;
#X msg 725 329 0;
#X connect 0 0 1 0;
#X connect 2 0 0 0;
#X connect 2 1 17 0;
#X connect 2 2 60 0;
#X connect 2 3 53 0;
#X connect 2 4 4 0;
#X connect 3 0 2 0;
#X connect 4 0 6 0;
#X connect 4 0 10 0;
#X connect 5 0 4 1;
#X connect 6 0 4 1;
#X connect 8 0 7 0;
#X connect 10 2 8 0;
#X connect 11 0 5 0;
#X connect 13 0 20 0;
#X connect 17 0 18 0;
#X connect 18 0 19 0;
#X connect 19 0 12 0;
#X connect 19 1 14 0;
#X connect 19 2 15 0;
#X connect 19 3 16 0;
#X connect 20 0 12 1;
#X connect 20 1 14 1;
#X connect 20 2 15 1;
#X connect 20 3 16 1;
#X connect 22 0 23 1;
#X connect 23 0 31 0;
#X connect 25 0 41 1;
#X connect 26 0 21 0;
#X connect 27 0 28 1;
#X connect 28 0 30 0;
#X connect 28 0 38 0;
#X connect 28 0 35 0;
#X connect 28 0 36 0;
#X connect 28 0 39 0;
#X connect 28 0 37 0;
#X connect 28 0 40 0;
#X connect 31 0 26 0;
#X connect 32 0 33 0;
#X connect 33 0 34 0;
#X connect 33 1 44 0;
#X connect 34 0 31 1;
#X connect 35 0 29 0;
#X connect 36 0 29 0;
#X connect 37 0 29 0;
#X connect 38 0 29 0;
#X connect 39 0 29 0;
#X connect 40 0 29 0;
#X connect 41 0 42 0;
#X connect 42 0 43 0;
#X connect 43 0 24 0;
#X connect 44 0 31 1;
#X connect 45 0 49 0;
#X connect 45 0 51 0;
#X connect 46 0 28 0;
#X connect 46 1 55 0;
#X connect 47 0 61 0;
#X connect 48 0 56 0;
#X connect 49 0 48 1;
#X connect 50 0 47 1;
#X connect 51 0 50 0;
#X connect 53 0 54 0;
#X connect 55 0 41 0;
#X connect 55 1 23 0;
#X connect 56 0 52 0;
#X connect 57 0 58 0;
#X connect 57 0 62 1;
#X connect 58 0 63 1;
#X connect 60 0 47 0;
#X connect 60 1 48 0;
#X connect 61 0 63 0;
#X connect 61 1 62 0;
#X connect 62 0 64 0;
#X connect 63 0 46 0;
#X connect 64 0 59 0;
#X connect 65 0 66 0;
#X connect 66 0 51 0;
#X connect 66 0 58 0;
#X restore 20 491 pd looper_oled;
#X obj 579 95 s refreshScreen;
#X obj 579 44 r bigbang;
#X obj 579 74 metro 120;
#X obj 260 60 r refreshScreen;
#X obj 437 82 r scene;
#X obj 260 104 i;
#X obj 260 81 bang;
#X obj 260 125 sel 1 2;
#N canvas 669 124 1016 687 looper_oled 0;
#X msg -28 262 /oled/gFlip 3;
#X obj -28 288 s 2screen;
#X obj 320 176 t b b b b b;
#X obj 322 56 inlet;
#X obj 914 225 spigot;
#X msg 947 202 1;
#X msg 963 225 0;
#X obj 1127 307 s 2screen;
#X msg 1127 286 /oled/gClear 3 1;
#X obj 914 246 t b b b;
#X obj 947 160 r scene;
#X obj 5 615 loop_gfx;
#X obj 227 476 r loopData;
#X obj 63 615 loop_gfx;
#X obj 123 614 loop_gfx;
#X obj 183 614 loop_gfx;
#X msg 5 553 \$1 \$1;
#X obj 5 574 route 1 2 3 4;
#X obj 226 496 route 1 2 3 4;
#X obj 1258 824 s 2screen;
#X obj 1253 610 r bpm;
#X obj 1229 640 i;
#X obj 632 858 s 2screen;
#X obj 750 769 r tickVol;
#X obj 437 600 r bmpBarSelected;
#X obj 385 631 spigot;
#X obj 399 904 s 2screen;
#X obj 360 690 bng 15 250 50 0 empty empty empty 17 7 0 10 -262144
-1 -1;
#X obj 1259 745 pack;
#X obj 1311 637 r bmpBarSelected;
#X obj 1311 658 sel 0 1;
#X msg 1315 700 3;
#X msg 429 843 /oled/gLine 3 6 9 8 7 0;
#X msg 429 823 /oled/gLine 3 5 9 7 7 0;
#X msg 429 803 /oled/gLine 3 5 8 6 7 0;
#X msg 431 733 /oled/gLine 3 6 3 9 6 0;
#X msg 429 754 /oled/gLine 3 5 3 8 6 0;
#X msg 430 775 /oled/gLine 3 5 4 7 6 0;
#X obj 635 785 f;
#X obj 634 805 expr int($f1*100);
#X msg 632 833 /oled/gPrintln 3 107 3 8 0 \$1;
#X msg 1350 702 14;
#X obj 605 289 r isRecording;
#X obj 486 499 t b b;
#X obj 499 344 spigot;
#X obj 594 342 spigot;
#X floatatom 641 344 5 0 0 0 - - -;
#X floatatom 541 345 5 0 0 0 - - -;
#X obj 605 310 == 0;
#X obj 596 403 s 2screen;
#X msg 896 335 /oled/gFillArea 3 0 0 128 13 1;
#X obj 896 356 s 2screen;
#X msg 596 382 /oled/gPrintln 3 32 3 8 0 *RECORDING*;
#X obj 612 446 r isCleaning;
#X obj 573 446 == 0;
#X obj 598 524 s 2screen;
#X obj 536 285 t b b;
#X obj 499 435 t b b;
#X obj 568 467 spigot;
#X obj 499 466 spigot;
#X msg 598 502 /oled/gPrintln 3 32 3 8 0 CLEANING...;
#X obj 725 308 loadbang;
#X msg 725 329 0;
#X obj 835 603 t b b b b;
#X obj 1093 884 s 2screen;
#X obj 1096 809 f;
#X obj 1115 787 r delayFb;
#X msg 1260 799 /oled/gPrintln 3 \$2 3 8 0 BPM:\$1;
#X obj 859 887 s 2screen;
#X obj 862 812 f;
#X obj 881 790 r delayWet;
#X obj 1097 831 expr int($f1*9);
#X obj 862 834 expr int($f1*9);
#X msg 1095 859 /oled/gPrintln 3 61 3 8 0 FB\$1;
#X msg 861 862 /oled/gPrintln 3 83 3 8 0 DW\$1;
#X obj 30 472 until;
#X obj 30 493 i;
#X obj 61 493 + 1;
#X msg 30 447 4;
#X obj 44 395 t b b;
#X msg 87 432 1;
#X connect 0 0 1 0;
#X connect 2 0 0 0;
#X connect 2 1 79 0;
#X connect 2 2 56 0;
#X connect 2 3 50 0;
#X connect 2 4 4 0;
#X connect 3 0 2 0;
#X connect 4 0 6 0;
#X connect 4 0 9 0;
#X connect 5 0 4 1;
#X connect 6 0 4 1;
#X connect 8 0 7 0;
#X connect 9 2 8 0;
#X connect 10 0 5 0;
#X connect 12 0 18 0;
#X connect 16 0 17 0;
#X connect 17 0 11 0;
#X connect 17 1 13 0;
#X connect 17 2 14 0;
#X connect 17 3 15 0;
#X connect 18 0 11 1;
#X connect 18 1 13 1;
#X connect 18 2 14 1;
#X connect 18 3 15 1;
#X connect 20 0 21 1;
#X connect 21 0 28 0;
#X connect 23 0 38 1;
#X connect 24 0 25 1;
#X connect 25 0 27 0;
#X connect 25 0 35 0;
#X connect 25 0 32 0;
#X connect 25 0 33 0;
#X connect 25 0 36 0;
#X connect 25 0 34 0;
#X connect 25 0 37 0;
#X connect 28 0 67 0;
#X connect 29 0 30 0;
#X connect 30 0 31 0;
#X connect 30 1 41 0;
#X connect 31 0 28 1;
#X connect 32 0 26 0;
#X connect 33 0 26 0;
#X connect 34 0 26 0;
#X connect 35 0 26 0;
#X connect 36 0 26 0;
#X connect 37 0 26 0;
#X connect 38 0 39 0;
#X connect 39 0 40 0;
#X connect 40 0 22 0;
#X connect 41 0 28 1;
#X connect 42 0 46 0;
#X connect 42 0 48 0;
#X connect 43 0 25 0;
#X connect 43 1 63 0;
#X connect 44 0 57 0;
#X connect 45 0 52 0;
#X connect 46 0 45 1;
#X connect 47 0 44 1;
#X connect 48 0 47 0;
#X connect 50 0 51 0;
#X connect 52 0 49 0;
#X connect 53 0 54 0;
#X connect 53 0 58 1;
#X connect 54 0 59 1;
#X connect 56 0 44 0;
#X connect 56 1 45 0;
#X connect 57 0 59 0;
#X connect 57 1 58 0;
#X connect 58 0 60 0;
#X connect 59 0 43 0;
#X connect 60 0 55 0;
#X connect 61 0 62 0;
#X connect 62 0 48 0;
#X connect 62 0 54 0;
#X connect 63 0 38 0;
#X connect 63 1 69 0;
#X connect 63 2 65 0;
#X connect 63 3 21 0;
#X connect 65 0 71 0;
#X connect 66 0 65 1;
#X connect 67 0 19 0;
#X connect 69 0 72 0;
#X connect 70 0 69 1;
#X connect 71 0 73 0;
#X connect 72 0 74 0;
#X connect 73 0 64 0;
#X connect 74 0 68 0;
#X connect 75 0 76 0;
#X connect 76 0 77 0;
#X connect 76 0 16 0;
#X connect 77 0 76 1;
#X connect 78 0 75 0;
#X connect 79 0 78 0;
#X connect 79 1 80 0;
#X connect 80 0 76 1;
#X restore 297 211 pd looper_oled;
#N canvas 0 50 1062 903 pokemonScreen 0;
#X obj 148 257 r pokemonNumber;
#X floatatom 147 281 5 0 0 0 - - -;
#N canvas 721 29 1152 909 clean 0;
#X obj 1170 383 s 2screen;
#X obj 648 159 t b f b;
#X obj 648 31 inlet;
#X obj 636 450 textfile;
#X msg 673 404 rewind;
#X msg 381 417 /oled/gFlip 3;
#X obj 1225 864 s pokemonName;
#X msg 732 404 read sprites/\$1.txt;
#X obj 1180 825 symbol;
#X obj 654 1099 s 2screen;
#X obj 381 441 s 2screen;
#N canvas 456 107 450 558 int_len 0;
#X obj 205 209 t b i;
#X msg 302 208 1;
#X obj 203 245 i;
#X obj 200 286 expr if($f1 / 10 > 0 \, $f1 / 10 \, 0);
#X floatatom 261 167 5 0 0 0 - - -;
#X obj 148 54 inlet;
#X obj 198 334 sel 0;
#X obj 235 370 bng 15 250 50 0 empty empty empty 17 7 0 10 -262144
-1 -1;
#X obj 234 401 i;
#X obj 297 401 + 1;
#X obj 148 516 outlet;
#X obj 148 79 t b f;
#X floatatom 188 452 5 0 0 0 - - -;
#X obj 148 451 int;
#X connect 0 0 2 0;
#X connect 0 1 2 1;
#X connect 1 0 8 1;
#X connect 2 0 3 0;
#X connect 3 0 6 0;
#X connect 4 0 1 0;
#X connect 4 0 0 0;
#X connect 5 0 11 0;
#X connect 6 1 7 0;
#X connect 6 1 0 0;
#X connect 7 0 8 0;
#X connect 8 0 9 0;
#X connect 8 0 12 0;
#X connect 9 0 8 1;
#X connect 11 0 13 0;
#X connect 11 1 4 0;
#X connect 12 0 13 1;
#X connect 13 0 10 0;
#X restore 768 752 pd int_len;
#X msg 768 702 \$1;
#X floatatom 768 777 5 0 0 0 - - -;
#X obj 768 727 t f f;
#X obj 651 838 route 1 2 3;
#X obj 768 801 list append;
#X obj 768 653 unpack f s;
#X obj 636 505 list length;
#X floatatom 636 532 5 0 0 0 - - -;
#X obj 636 476 t l l;
#X obj 636 557 list append;
#X obj 636 369 t b b b f;
#X obj 637 582 route 1 2;
#X floatatom 466 646 5 0 0 0 - - -;
#X obj 466 669 s ledColor;
#X msg 1204 275 /oled/gFillArea 3 70 4 56 56 1;
#X msg 1180 903 /oled/gPrintln 3 1 2 8 1 \$1;
#X msg 708 913 /oled/gPrintln 3 32 15 8 1 No.\$1;
#X msg 675 894 /oled/gPrintln 3 32 15 8 1 No.0\$1;
#X msg 651 867 /oled/gPrintln 3 32 15 8 1 No.00\$1;
#X msg 1204 299 /oled/gFillArea 3 0 0 69 12 0;
#X msg 1204 323 /oled/gFillArea 3 0 13 69 15 0;
#X msg 1204 347 /oled/gFillArea 3 0 32 69 32 0;
#X connect 1 0 5 0;
#X connect 1 1 22 0;
#X connect 1 2 26 0;
#X connect 1 2 32 0;
#X connect 1 2 31 0;
#X connect 1 2 33 0;
#X connect 2 0 1 0;
#X connect 3 0 20 0;
#X connect 4 0 3 0;
#X connect 5 0 10 0;
#X connect 7 0 3 0;
#X connect 8 0 6 0;
#X connect 8 0 27 0;
#X connect 11 0 13 0;
#X connect 12 0 14 0;
#X connect 13 0 16 0;
#X connect 14 0 11 0;
#X connect 14 1 16 1;
#X connect 15 0 30 0;
#X connect 15 1 29 0;
#X connect 15 2 28 0;
#X connect 16 0 15 0;
#X connect 17 0 12 0;
#X connect 17 1 8 0;
#X connect 18 0 19 0;
#X connect 19 0 21 0;
#X connect 20 0 18 0;
#X connect 20 1 21 1;
#X connect 21 0 23 0;
#X connect 22 0 3 0;
#X connect 22 1 3 0;
#X connect 22 2 4 0;
#X connect 22 3 7 0;
#X connect 23 0 24 0;
#X connect 23 1 17 0;
#X connect 24 0 25 0;
#X connect 26 0 0 0;
#X connect 27 0 9 0;
#X connect 28 0 9 0;
#X connect 29 0 9 0;
#X connect 30 0 9 0;
#X connect 31 0 0 0;
#X connect 32 0 0 0;
#X connect 33 0 0 0;
#X restore 269 474 pd clean and name;
#N canvas 696 0 1022 1060 sprite 0;
#X obj 686 886 s 2screen;
#X obj 655 467 textfile;
#X msg 829 340 rewind;
#X obj 655 520 list length;
#X floatatom 655 547 5 0 0 0 - - -;
#X obj 655 491 t l l;
#X obj 655 572 list append;
#X msg 655 814 /oled/gSetPixel 3 \$1 \$2 \$3;
#X msg 892 814 /oled/gLine 3 \$1 \$2 \$3 \$4 \$5;
#X obj 628 408 until;
#X msg 446 533 /oled/gFlip 3;
#X msg 768 340 stop;
#X obj 603 288 bng 15 250 50 0 empty empty empty 17 7 0 10 -262144
-1 -1;
#X obj 605 308 t b b b;
#X msg 888 340 read sprites/\$1.txt;
#X msg 628 384 50;
#X obj 672 309 delay 50;
#X obj 892 756 pack 1 2 3 4 5;
#X obj 932 725 + 4;
#X obj 1005 725 + 4;
#X obj 892 694 unpack 1 2 3 4 5;
#X obj 695 726 + 4;
#X obj 655 696 unpack 1 2 3;
#X obj 655 756 pack 1 2 3;
#X obj 446 557 s 2screen;
#X obj 874 216 t b b f;
#X obj 875 53 inlet;
#X obj 655 598 route 3 5;
#X obj 676 361 r cancel;
#X obj 655 726 + 70;
#X obj 892 725 + 70;
#X obj 965 725 + 70;
#X connect 1 0 5 0;
#X connect 1 1 11 0;
#X connect 2 0 1 0;
#X connect 3 0 4 0;
#X connect 4 0 6 0;
#X connect 5 0 3 0;
#X connect 5 1 6 1;
#X connect 6 0 27 0;
#X connect 7 0 0 0;
#X connect 8 0 0 0;
#X connect 9 0 1 0;
#X connect 10 0 24 0;
#X connect 11 0 16 0;
#X connect 12 0 13 0;
#X connect 13 0 10 0;
#X connect 13 1 15 0;
#X connect 13 2 16 0;
#X connect 14 0 1 0;
#X connect 15 0 9 0;
#X connect 16 0 12 0;
#X connect 17 0 8 0;
#X connect 18 0 17 1;
#X connect 19 0 17 3;
#X connect 20 0 30 0;
#X connect 20 1 18 0;
#X connect 20 2 31 0;
#X connect 20 3 19 0;
#X connect 20 4 17 4;
#X connect 21 0 23 1;
#X connect 22 0 29 0;
#X connect 22 1 21 0;
#X connect 22 2 23 2;
#X connect 23 0 7 0;
#X connect 25 0 12 0;
#X connect 25 1 2 0;
#X connect 25 2 14 0;
#X connect 26 0 25 0;
#X connect 27 0 22 0;
#X connect 27 1 20 0;
#X connect 28 0 11 0;
#X connect 28 0 9 1;
#X connect 29 0 23 0;
#X connect 30 0 17 0;
#X connect 31 0 17 2;
#X restore 185 558 pd sprite;
#X obj 185 474 delay 50;
#X obj 185 498 i;
#X obj 77 498 i;
#X obj 77 474 delay 500;
#N canvas 989 50 643 877 waveform 0;
#X obj 199 789 s 2screen;
#X obj 213 28 inlet;
#X floatatom 263 544 0 0 0 0 - - -;
#X obj 263 492 tabread crytab;
#X obj 420 358 r tableSize;
#X obj 236 311 until;
#X obj 236 335 i;
#X obj 286 335 + 1;
#X obj 213 105 bng 30 250 50 0 empty empty empty 17 7 0 10 -262144
-1 -1;
#X msg 360 278 0;
#X floatatom 236 359 5 0 0 0 - - -;
#X floatatom 420 382 10 0 0 0 - - -;
#X floatatom 263 468 5 0 0 0 - - -;
#X msg 199 736 /oled/gLine 3 \$1 \$2 \$3 \$4 1;
#X obj 199 698 pack 1 2 3 4;
#X obj 213 161 t b b b;
#X msg 57 267 /oled/gFlip 3;
#X obj 57 291 s 2screen;
#X obj 263 516 abs;
#X obj 263 645 i;
#X obj 413 646 i;
#X obj 357 113 r cancel;
#X obj 199 571 t f f;
#X obj 199 401 t f f;
#X obj 198 548 + 1;
#X floatatom 413 670 5 0 0 0 - - -;
#X floatatom 263 669 5 0 0 0 - - -;
#X obj 187 316 bng 30 250 50 0 empty empty empty 17 7 0 10 -262144
-1 -1;
#X obj 263 608 expr ($f1 * 15) + $f2 \; ($f1 * -16) + $f2 \;;
#X msg 564 276 48;
#X obj 263 444 expr ($f1 / 65) * $f2;
#X msg 236 277 65;
#X connect 1 0 8 0;
#X connect 2 0 28 0;
#X connect 3 0 18 0;
#X connect 4 0 11 0;
#X connect 5 0 6 0;
#X connect 6 0 7 0;
#X connect 6 0 10 0;
#X connect 7 0 6 1;
#X connect 8 0 15 0;
#X connect 9 0 6 1;
#X connect 10 0 23 0;
#X connect 11 0 30 1;
#X connect 12 0 3 0;
#X connect 13 0 0 0;
#X connect 14 0 13 0;
#X connect 15 0 16 0;
#X connect 15 1 31 0;
#X connect 15 2 29 0;
#X connect 15 2 9 0;
#X connect 16 0 17 0;
#X connect 18 0 2 0;
#X connect 19 0 14 1;
#X connect 19 0 26 0;
#X connect 20 0 14 3;
#X connect 20 0 25 0;
#X connect 21 0 5 1;
#X connect 22 0 14 0;
#X connect 22 1 14 2;
#X connect 23 0 24 0;
#X connect 23 1 30 0;
#X connect 24 0 22 0;
#X connect 27 0 6 0;
#X connect 28 0 19 0;
#X connect 28 1 20 0;
#X connect 29 0 28 1;
#X connect 30 0 12 0;
#X connect 31 0 5 0;
#X restore 77 558 pd waveform;
#X obj 147 314 t f b;
#X obj 244 331 s cancel;
#X obj 147 342 t b b b f;
#N canvas 570 93 740 427 markers 0;
#X obj 475 378 s 2screen;
#X msg 78 350 /oled/gFlip 3;
#X obj 77 386 s 2screen;
#N canvas 527 62 919 816 gfx_cursor 0;
#X obj 395 711 s 2screen;
#X obj 208 505 pack 1 2 3 4;
#X obj 260 192 r cursorPosition;
#X obj 208 226 f;
#X obj 499 507 pack 1 2;
#X msg 499 559 /oled/gSetPixel 3 \$1 \$2 1;
#X obj 208 446 - 1;
#X obj 239 446 + 1;
#X obj 268 446 - 1;
#X obj 77 504 pack 1 2 3 4;
#X obj 137 446 - 2;
#X obj 109 445 + 2;
#X obj 77 445 - 2;
#X obj 208 336 t f f b;
#X msg 207 559 /oled/gLine 3 \$1 \$2 \$3 \$4 1;
#X obj 208 273 i;
#X floatatom 208 297 5 0 0 0 - - -;
#X obj 212 91 inlet;
#X msg 308 363 28;
#X obj 208 250 expr $f1 * 65 + 2;
#X connect 1 0 14 0;
#X connect 2 0 3 1;
#X connect 3 0 19 0;
#X connect 4 0 5 0;
#X connect 5 0 0 0;
#X connect 6 0 1 0;
#X connect 7 0 1 2;
#X connect 8 0 1 3;
#X connect 8 0 1 1;
#X connect 9 0 14 0;
#X connect 10 0 9 3;
#X connect 10 0 9 1;
#X connect 11 0 9 2;
#X connect 12 0 9 0;
#X connect 13 0 4 0;
#X connect 13 0 6 0;
#X connect 13 0 12 0;
#X connect 13 1 7 0;
#X connect 13 1 11 0;
#X connect 13 2 18 0;
#X connect 14 0 0 0;
#X connect 15 0 16 0;
#X connect 16 0 13 0;
#X connect 17 0 3 0;
#X connect 18 0 4 1;
#X connect 18 0 10 0;
#X connect 18 0 8 0;
#X connect 19 0 15 0;
#X restore 346 351 pd gfx_cursor;
#X obj 209 106 t b b b b;
#N canvas 502 54 799 765 gfx_markers 0;
#X obj 275 699 s 2screen;
#X obj 293 47 r startMarker;
#X floatatom 293 71 5 0 0 0 - - -;
#X floatatom 477 73 5 0 0 0 - - -;
#X obj 477 49 r endMarker;
#X obj 275 259 i;
#X floatatom 275 283 5 0 0 0 - - -;
#X obj 459 256 i;
#X floatatom 459 280 5 0 0 0 - - -;
#X obj 76 47 inlet;
#X obj 76 107 t b b;
#X obj 275 576 pack f f;
#X obj 275 307 t f f;
#X obj 459 304 t f f;
#X msg 275 606 /oled/gLine 3 \$1 31 \$2 31 1;
#X msg 488 606 /oled/gLine 3 \$1 31 \$1 33 1;
#X obj 510 526 - 1;
#X msg 476 557 /oled/gSetPixel 3 \$1 32 1;
#X obj 461 525 + 1;
#X obj 477 95 expr $f1 * 64 + 2;
#X obj 293 94 expr $f1 * 64 + 1;
#X connect 1 0 2 0;
#X connect 2 0 20 0;
#X connect 3 0 19 0;
#X connect 4 0 3 0;
#X connect 5 0 6 0;
#X connect 6 0 12 0;
#X connect 7 0 8 0;
#X connect 8 0 13 0;
#X connect 9 0 10 0;
#X connect 10 0 5 0;
#X connect 10 1 7 0;
#X connect 11 0 14 0;
#X connect 12 0 11 0;
#X connect 12 1 15 0;
#X connect 12 1 18 0;
#X connect 13 0 11 1;
#X connect 13 1 15 0;
#X connect 13 1 16 0;
#X connect 14 0 0 0;
#X connect 15 0 0 0;
#X connect 16 0 17 0;
#X connect 17 0 0 0;
#X connect 18 0 17 0;
#X connect 19 0 7 1;
#X connect 20 0 5 1;
#X restore 226 352 pd gfx_markers;
#X msg 475 350 /oled/gFillArea 3 0 26 69 8 0;
#X obj 213 44 inlet;
#X connect 1 0 2 0;
#X connect 4 0 1 0;
#X connect 4 1 5 0;
#X connect 4 2 3 0;
#X connect 4 3 6 0;
#X connect 6 0 0 0;
#X connect 7 0 4 0;
#X restore 317 197 pd markers;
#X obj 269 75 t b b b b b;
#X obj 212 11 inlet;
#X obj 611 120 spigot;
#X msg 644 97 1;
#X msg 660 120 0;
#X obj 770 210 s 2screen;
#X msg 770 189 /oled/gClear 3 1;
#X obj 644 55 r scene;
#X obj 811 638 s 2screen;
#X msg 365 835 /oled/gFlip 3;
#X msg 711 947 /oled/gLine 3 \$1 \$3 \$2 \$3 1;
#X obj 711 713 until;
#X obj 711 647 t b b;
#X obj 711 747 i;
#X obj 742 747 + 1;
#X msg 845 690 12;
#X obj 711 849 t f f;
#X obj 711 914 pack 1 2 3;
#X obj 623 993 s 2screen;
#X obj 523 295 t b b b b b;
#X msg 778 486 /oled/gFillArea 3 70 4 56 56 1;
#X msg 789 511 /oled/gLine 3 72 3 123 3 1;
#X msg 795 532 /oled/gLine 3 72 60 123 60 1;
#X msg 798 555 /oled/gLine 3 69 6 69 57 1;
#X msg 803 577 /oled/gLine 3 126 6 126 57 1;
#X msg 809 690 0;
#X obj 711 785 expr $f1 * 6;
#X obj 743 885 + 3;
#X msg 711 689 11;
#X obj 711 809 + 2;
#X connect 0 0 1 0;
#X connect 1 0 9 0;
#X connect 4 0 5 0;
#X connect 5 0 3 0;
#X connect 6 0 8 0;
#X connect 7 0 6 0;
#X connect 9 0 11 0;
#X connect 9 1 10 0;
#X connect 11 1 7 0;
#X connect 11 2 4 0;
#X connect 11 3 2 0;
#X connect 11 3 5 1;
#X connect 11 3 6 1;
#X connect 13 3 12 0;
#X connect 13 4 15 0;
#X connect 14 0 13 0;
#X connect 15 0 17 0;
#X connect 15 0 32 0;
#X connect 16 0 15 1;
#X connect 17 0 15 1;
#X connect 19 0 18 0;
#X connect 20 0 16 0;
#X connect 22 0 31 0;
#X connect 23 0 31 0;
#X connect 24 0 26 0;
#X connect 25 0 41 0;
#X connect 25 1 28 0;
#X connect 25 1 38 0;
#X connect 26 0 27 0;
#X connect 26 0 39 0;
#X connect 27 0 26 1;
#X connect 28 0 30 2;
#X connect 29 0 30 0;
#X connect 29 1 40 0;
#X connect 30 0 23 0;
#X connect 32 0 22 0;
#X connect 32 1 1 0;
#X connect 32 2 25 0;
#X connect 32 3 33 0;
#X connect 32 3 37 0;
#X connect 32 3 36 0;
#X connect 32 3 35 0;
#X connect 32 3 34 0;
#X connect 32 4 19 0;
#X connect 33 0 21 0;
#X connect 34 0 21 0;
#X connect 35 0 21 0;
#X connect 36 0 21 0;
#X connect 37 0 21 0;
#X connect 38 0 26 1;
#X connect 39 0 42 0;
#X connect 40 0 30 1;
#X connect 41 0 24 0;
#X connect 42 0 29 0;
#X restore 262 255 pd pokemonScreen;
#N canvas 667 177 1009 708 init 0;
#X obj 50 26 r bigbang;
#X msg 183 140 /oled/gShowInfoBar 3 0;
#X obj 183 161 s 2screen;
#X obj 119 232 s 2screen;
#X obj 29 37 bng 15 250 50 0 empty empty empty 17 7 0 10 -262144 -1
-1;
#X msg 119 209 /oled/gClear 3 1;
#X obj 50 59 t b b;
#X connect 0 0 6 0;
#X connect 1 0 2 0;
#X connect 4 0 6 0;
#X connect 5 0 3 0;
#X connect 6 0 5 0;
#X connect 6 1 1 0;
#X restore 18 14 pd init;
#X connect 0 0 1 0;
#X connect 4 0 5 0;
#X connect 5 0 3 0;
#X connect 6 0 9 0;
#X connect 7 0 8 1;
#X connect 8 0 10 0;
#X connect 9 0 8 0;
#X connect 10 0 12 0;
#X connect 10 1 11 0;
#X restore 313 202 pd screen;
#X msg 439 78 Bulbasaur;
#X msg 439 38 set \$1;
#X obj 439 15 r pokemonName;
#X obj 310 16 r pokemonNumber;
#X floatatom 369 79 5 0 0 0 - - -;
#X obj 46 76 delay 50;
#X obj 186 308 r latebang;
#N canvas 18 199 1026 679 led 0;
#X msg 245 401 send /led \$1;
#X obj 245 435 s oscOut;
#X floatatom 297 354 5 0 0 0 - - -;
#X obj 245 280 t b f;
#X obj 245 304 delay 500;
#X msg 245 328 0;
#X obj 245 136 r ledColor;
#X floatatom 245 210 5 0 0 0 - - -;
#X obj 101 32 r aux;
#X obj 101 156 sel 1;
#X obj 22 251 r lefOff;
#X obj 101 251 i;
#X msg 22 275 0;
#X obj 631 34 r tick;
#X msg 630 462 send /led \$1;
#X obj 630 496 s oscOut;
#X obj 659 332 int;
#X msg 630 332 0;
#X obj 722 238 r isRecording;
#X obj 722 259 sel 1 0;
#X msg 722 280 4;
#X obj 631 123 bng 15 250 50 0 empty empty empty 17 7 0 10 -262144
-1 -1;
#X obj 631 143 t b b;
#X obj 539 288 delay;
#X obj 568 217 r beatSize;
#X msg 756 280 2;
#X obj 539 258 f;
#X floatatom 568 258 5 0 0 0 - - -;
#X obj 568 237 expr ($f1 / 2) * 1000;
#X obj 358 24 r scene;
#X obj 101 56 spigot;
#X obj 631 58 spigot;
#X obj 358 51 == 1;
#X obj 412 51 == 2;
#X connect 0 0 1 0;
#X connect 2 0 0 0;
#X connect 3 0 4 0;
#X connect 3 1 2 0;
#X connect 4 0 5 0;
#X connect 5 0 0 0;
#X connect 6 0 7 0;
#X connect 7 0 3 0;
#X connect 7 0 11 1;
#X connect 8 0 30 0;
#X connect 9 0 11 0;
#X connect 10 0 12 0;
#X connect 11 0 0 0;
#X connect 12 0 0 0;
#X connect 13 0 31 0;
#X connect 14 0 15 0;
#X connect 16 0 14 0;
#X connect 17 0 14 0;
#X connect 18 0 19 0;
#X connect 19 0 20 0;
#X connect 19 1 25 0;
#X connect 20 0 16 1;
#X connect 21 0 22 0;
#X connect 22 0 26 0;
#X connect 22 1 16 0;
#X connect 23 0 17 0;
#X connect 24 0 28 0;
#X connect 25 0 16 1;
#X connect 26 0 23 0;
#X connect 27 0 26 1;
#X connect 28 0 27 0;
#X connect 29 0 32 0;
#X connect 29 0 33 0;
#X connect 30 0 9 0;
#X connect 31 0 21 0;
#X connect 32 0 30 1;
#X connect 33 0 31 1;
#X restore 393 202 pd led;
#X obj 55 366 hsl 128 15 0 1 0 0 empty empty empty -2 -8 0 10 -262144
-1 -1 0 1;
#X msg 186 332 0;
#X obj 52 426 expr $f1 * ($f2-1) + 1;
#X obj 225 364 r bigbang;
#X msg 225 389 151;
#X obj 52 451 i;
#X floatatom 52 476 5 0 0 0 - - -;
#N canvas 521 44 1356 855 controls 0;
#X obj 491 357 r knob2;
#X obj 326 359 r knob1;
#X obj 326 467 send;
#X symbolatom 351 443 10 0 0 0 - - -;
#X msg 351 418 symbol knob1_\$1;
#X floatatom 616 278 5 0 0 0 - - -;
#X obj 490 460 send;
#X symbolatom 514 436 10 0 0 0 - - -;
#X msg 514 411 symbol knob2_\$1;
#X obj 670 359 r knob3;
#X obj 672 460 send;
#X symbolatom 696 436 10 0 0 0 - - -;
#X msg 698 410 symbol knob3_\$1;
#X obj 858 457 send;
#X symbolatom 883 432 10 0 0 0 - - -;
#X msg 885 406 symbol knob4_\$1;
#X obj 861 357 r knob4;
#X obj 616 252 r scene;
#N canvas 11 50 1009 687 encoder 0;
#X obj 11 9 loadbang;
#X msg 11 34 send /enablepatchsub 1;
#X obj 11 59 s oscOut;
#X obj 418 22 r oscIn;
#X floatatom 201 146 5 0 0 0 - - -;
#X obj 794 147 bng 15 250 50 0 empty empty empty 17 7 0 10 -262144
-1 -1;
#X msg 822 197 send /gohome 1;
#X obj 822 222 s oscOut;
#X obj 147 427 outlet;
#X obj 229 428 outlet;
#X obj 199 237 sel 0;
#X obj 418 47 routeOSC /encoder/turn /encoder/button;
#X obj 159 191 bng 15 250 50 0 empty empty empty 17 7 0 10 -262144
-1 -1;
#X floatatom 570 426 5 0 0 0 - - -;
#X obj 717 247 r bigbang;
#X obj 570 450 s scene;
#X msg 717 317 1;
#X msg 674 278 2;
#X obj 483 448 print SCENE:;
#X floatatom 526 108 5 0 0 0 - - -;
#X obj 526 128 sel 1;
#X obj 481 231 i;
#X obj 483 318 expr if($f1 + 1 > $f2 \, 1 \, $f1 + 1);
#X obj 621 185 delay;
#X msg 605 152 stop;
#X msg 544 176 1200;
#X connect 0 0 1 0;
#X connect 1 0 2 0;
#X connect 3 0 11 0;
#X connect 4 0 10 0;
#X connect 4 0 12 0;
#X connect 5 0 6 0;
#X connect 6 0 7 0;
#X connect 10 0 8 0;
#X connect 10 1 9 0;
#X connect 11 0 4 0;
#X connect 11 1 19 0;
#X connect 13 0 15 0;
#X connect 13 0 18 0;
#X connect 13 0 21 1;
#X connect 14 0 17 0;
#X connect 14 0 16 0;
#X connect 16 0 13 0;
#X connect 17 0 22 1;
#X connect 19 0 20 0;
#X connect 20 0 21 0;
#X connect 20 0 25 0;
#X connect 20 1 24 0;
#X connect 21 0 22 0;
#X connect 22 0 13 0;
#X connect 23 0 5 0;
#X connect 24 0 23 0;
#X connect 25 0 23 0;
#X restore 24 -2 pd encoder;
#X obj 1013 456 send;
#X symbolatom 1038 431 10 0 0 0 - - -;
#X msg 1040 405 symbol aux_\$1;
#X obj 1013 356 r aux;
#X obj 24 21 bng 35 250 50 0 empty empty empty 17 7 0 10 -191407 -1
-1;
#X obj 65 21 bng 35 250 50 0 empty empty empty 17 7 0 10 -191407 -1
-1;
#X msg 24 81 -1;
#X msg 65 81 1;
#X obj 59 434 send;
#X symbolatom 84 410 10 0 0 0 - - -;
#X msg 84 385 symbol encoder_\$1;
#N canvas 5 50 450 300 speedlim50 0;
#X obj 139 116 spigot 1;
#X msg 188 90 0;
#X msg 234 91 1;
#X obj 135 59 t b f;
#X obj 131 147 t b f;
#X obj 184 147 delay 50;
#X obj 130 25 inlet;
#X obj 150 210 outlet;
#X connect 0 0 4 0;
#X connect 1 0 0 1;
#X connect 2 0 0 1;
#X connect 3 0 1 0;
#X connect 3 1 0 0;
#X connect 4 0 5 0;
#X connect 4 1 7 0;
#X connect 5 0 2 0;
#X connect 6 0 3 0;
#X restore 275 637 pd speedlim50;
#X obj 274 1056 s pokemonNumber;
#X floatatom 275 689 5 0 0 0 - - -;
#X obj 484 892 r bigbang;
#X msg 484 916 151;
#X floatatom 274 1032 5 0 0 0 - - -;
#X obj 357 782 r pokemonNumber;
#X obj 274 819 +;
#X msg 275 739 -1;
#X msg 315 739 1;
#X obj 275 947 expr if($f1 > $f2 \, 1 \, $f1);
#X obj 275 972 expr if($f1 <= 0 \, $f2 \, $f1);
#X obj 276 585 r encoder_1;
#X obj 275 714 sel -1 1;
#X connect 0 0 6 0;
#X connect 1 0 2 0;
#X connect 3 0 2 1;
#X connect 4 0 3 0;
#X connect 5 0 4 0;
#X connect 5 0 12 0;
#X connect 5 0 8 0;
#X connect 5 0 15 0;
#X connect 5 0 21 0;
#X connect 5 0 29 0;
#X connect 7 0 6 1;
#X connect 8 0 7 0;
#X connect 9 0 10 0;
#X connect 11 0 10 1;
#X connect 12 0 11 0;
#X connect 14 0 13 1;
#X connect 15 0 14 0;
#X connect 16 0 13 0;
#X connect 17 0 5 0;
#X connect 18 0 23 0;
#X connect 18 1 24 0;
#X connect 20 0 19 1;
#X connect 21 0 20 0;
#X connect 22 0 19 0;
#X connect 23 0 25 0;
#X connect 24 0 26 0;
#X connect 25 0 27 0;
#X connect 26 0 27 0;
#X connect 28 0 27 1;
#X connect 29 0 28 0;
#X connect 30 0 32 0;
#X connect 32 0 43 0;
#X connect 33 0 34 0;
#X connect 34 0 40 1;
#X connect 34 0 41 1;
#X connect 35 0 31 0;
#X connect 36 0 37 1;
#X connect 37 0 40 0;
#X connect 38 0 37 0;
#X connect 39 0 37 0;
#X connect 40 0 41 0;
#X connect 41 0 35 0;
#X connect 42 0 30 0;
#X connect 43 0 38 0;
#X connect 43 1 39 0;
#X restore 355 234 pd controls;
#X obj 52 307 r knob1_1;
#X connect 1 0 13 0;
#X connect 1 1 0 0;
#X connect 2 0 1 0;
#X connect 3 0 1 0;
#X connect 9 0 8 0;
#X connect 10 0 9 0;
#X connect 11 0 12 0;
#X connect 13 0 4 0;
#X connect 14 0 17 0;
#X connect 16 0 18 0;
#X connect 17 0 16 0;
#X connect 18 0 21 0;
#X connect 19 0 20 0;
#X connect 20 0 18 1;
#X connect 21 0 22 0;
#X connect 22 0 5 0;
#X connect 24 0 16 0;
