#N canvas 6 50 1009 708 10;
#X obj 646 113 unpack;
#X floatatom 671 318 5 0 0 0 - - -;
#X obj 240 228 sel 0;
#X obj 653 1433 outlet~;
#X obj 646 16 inlet;
#X obj 653 1347 hip~ 5;
#X floatatom 898 542 4 0 100 0 - - -;
#X obj 655 1291 *~;
#X obj 655 1143 +~;
#X obj 654 1095 samphold~;
#X obj 655 1119 *~;
#X floatatom 646 536 0 0 0 0 - - -;
#X obj 658 598 t b f;
#X obj 739 1120 -~ 0.5;
#X obj 739 1144 *~ 0.5;
#X obj 739 1166 cos~;
#X obj 646 698 phasor~;
#X obj 680 729 +~ 0.5;
#X obj 681 755 wrap~;
#X obj 654 1320 +~;
#X text 680 537 <-- transposition \, halftones/10;
#X obj 898 562 * 0.001;
#X obj 1032 728 phasor~;
#X obj 655 1167 *~ 44100;
#X obj 654 1193 +~ 1;
#X obj 771 597 t b f;
#X obj 1032 564 * 0.01;
#X obj 856 1300 *~;
#X obj 856 1142 +~;
#X obj 855 1094 samphold~;
#X obj 856 1118 *~;
#X obj 941 1113 -~ 0.5;
#X obj 940 1137 *~ 0.5;
#X obj 941 1160 cos~;
#X obj 856 1166 *~ 44100;
#X obj 855 1192 +~ 1;
#X msg 898 520 25;
#X floatatom 1584 750 10 0 10000 0 - - -;
#X obj 1584 770 * 0.001;
#X text 938 542 <-- chunk size (msec);
#X obj 646 630 expr (pow(2 \, $f1/120)-$f3)/$f2;
#X obj 1584 795 t b f;
#X text 1773 719 <-- loop length;
#X text 1814 734 (msec);
#X obj 1032 704 /;
#X obj 653 1247 tabread4~ crytab;
#X obj 856 1246 tabread4~ crytab;
#X msg 302 299 0;
#X floatatom 1673 518 5 0 1 0 - - -;
#X obj 1793 482 r tableSize;
#X floatatom 1793 503 10 0 0 0 - - -;
#X floatatom 1793 547 5 0 0 0 - - -;
#X obj 1792 573 t b f;
#X obj 1672 575 t b f;
#X obj 1793 526 expr ($f1 / 44100) * 1000;
#X obj 1673 538 clip 0.01 1;
#X obj 1540 576 t b f;
#X obj 1644 216 hsl 200 15 0 1 0 0 empty empty empty -2 -8 0 10 -262144
-1 -1 0 1;
#X obj 1644 263 hsl 200 15 0 1 0 0 empty empty empty -2 -8 0 10 -262144
-1 -1 0 1;
#X obj 1477 205 snapshot~;
#X obj 1538 205 bang~;
#X floatatom 1477 226 10 0 0 0 - - -;
#X obj 1645 239 hsl 200 15 0 1 0 0 empty empty empty -2 -8 0 10 -262144
-1 -1 19900 1;
#X obj 1031 832 +~;
#X obj 898 498 r bigbang;
#X floatatom 1540 555 5 0 0 0 - - -;
#X obj 1031 804 *~;
#X obj 1535 631 expr $f3 - $f2;
#X floatatom 1535 652 5 0 0 0 - - -;
#X floatatom 1699 848 5 0 0 0 - - -;
#X obj 1032 922 *~;
#X floatatom 1699 718 10 0 10000 0 - - -;
#X obj 1699 738 * 0.001;
#X obj 1535 672 t b f;
#X obj 1584 720 expr $f3 * $f2;
#X obj 1035 184 hsl 200 15 0 1 0 0 empty empty empty -2 -8 0 10 -262144
-1 -1 19900 1;
#X obj 653 1388 *~;
#X obj 318 494 / 127;
#X floatatom 318 514 5 0 0 0 - - -;
#X obj 646 506 expr ($f1 - 72) * 10;
#X obj 498 277 r fs;
#X floatatom 498 298 5 0 1 0 - - -;
#X obj 545 275 r bigbang;
#X msg 545 297 1;
#X obj 495 318 expr if($f1 == 1 \, 0 \, - 12);
#X obj 671 337 t b f;
#X obj 533 401 expr $f3 + $f2;
#X obj 495 340 t b f;
#X text 332 298 reset phase;
#X text 1857 214 start;
#X text 1858 237 end;
#X text 1855 264 just for testing;
#X obj 1031 18 inlet;
#X obj 1562 26 inlet;
#X obj 1731 25 inlet;
#X obj 1296 1408 outlet~;
#X obj 1986 27 inlet;
#X floatatom 1981 1001 5 0 0 0 - - -;
#X obj 1294 1264 *~;
#X obj 240 1146 line;
#X msg 318 533 \$1 5;
#X msg 240 517 0 150;
#X connect 0 0 1 0;
#X connect 0 1 2 0;
#X connect 1 0 85 0;
#X connect 2 0 101 0;
#X connect 2 1 77 0;
#X connect 2 1 47 0;
#X connect 4 0 0 0;
#X connect 5 0 76 0;
#X connect 6 0 21 0;
#X connect 7 0 19 0;
#X connect 8 0 23 0;
#X connect 9 0 10 0;
#X connect 10 0 8 0;
#X connect 11 0 40 0;
#X connect 12 0 40 0;
#X connect 12 1 40 1;
#X connect 13 0 14 0;
#X connect 14 0 15 0;
#X connect 15 0 7 1;
#X connect 16 0 17 0;
#X connect 16 0 9 1;
#X connect 16 0 10 1;
#X connect 16 0 13 0;
#X connect 17 0 18 0;
#X connect 18 0 29 1;
#X connect 18 0 30 1;
#X connect 18 0 31 0;
#X connect 19 0 5 0;
#X connect 21 0 9 0;
#X connect 21 0 12 0;
#X connect 21 0 29 0;
#X connect 22 0 66 0;
#X connect 23 0 24 0;
#X connect 24 0 45 0;
#X connect 25 0 40 0;
#X connect 25 1 40 2;
#X connect 26 0 44 0;
#X connect 26 0 25 0;
#X connect 27 0 19 1;
#X connect 28 0 34 0;
#X connect 29 0 30 0;
#X connect 30 0 28 0;
#X connect 31 0 32 0;
#X connect 32 0 33 0;
#X connect 33 0 27 1;
#X connect 34 0 35 0;
#X connect 35 0 46 0;
#X connect 36 0 6 0;
#X connect 37 0 38 0;
#X connect 38 0 41 0;
#X connect 40 0 16 0;
#X connect 41 0 44 0;
#X connect 41 1 44 1;
#X connect 44 0 22 0;
#X connect 45 0 7 0;
#X connect 46 0 27 0;
#X connect 47 0 16 1;
#X connect 47 0 22 1;
#X connect 48 0 55 0;
#X connect 49 0 50 0;
#X connect 50 0 54 0;
#X connect 51 0 52 0;
#X connect 52 0 74 0;
#X connect 52 1 71 0;
#X connect 52 1 74 2;
#X connect 53 0 67 0;
#X connect 53 1 67 2;
#X connect 54 0 51 0;
#X connect 55 0 53 0;
#X connect 56 0 67 0;
#X connect 56 1 63 1;
#X connect 56 1 67 1;
#X connect 57 0 65 0;
#X connect 59 0 61 0;
#X connect 60 0 59 0;
#X connect 61 0 58 0;
#X connect 62 0 48 0;
#X connect 63 0 70 0;
#X connect 63 0 98 0;
#X connect 64 0 36 0;
#X connect 65 0 56 0;
#X connect 66 0 63 0;
#X connect 67 0 68 0;
#X connect 68 0 73 0;
#X connect 69 0 70 1;
#X connect 70 0 8 1;
#X connect 70 0 28 1;
#X connect 71 0 72 0;
#X connect 72 0 69 0;
#X connect 73 0 74 0;
#X connect 73 1 66 1;
#X connect 73 1 74 1;
#X connect 74 0 37 0;
#X connect 75 0 26 0;
#X connect 76 0 3 0;
#X connect 77 0 78 0;
#X connect 78 0 100 0;
#X connect 79 0 11 0;
#X connect 80 0 81 0;
#X connect 81 0 84 0;
#X connect 82 0 83 0;
#X connect 83 0 84 0;
#X connect 84 0 87 0;
#X connect 85 0 86 0;
#X connect 85 1 86 2;
#X connect 86 0 79 0;
#X connect 87 0 86 0;
#X connect 87 1 86 1;
#X connect 92 0 75 0;
#X connect 93 0 57 0;
#X connect 94 0 62 0;
#X connect 96 0 97 0;
#X connect 97 0 98 1;
#X connect 98 0 95 0;
#X connect 99 0 76 1;
#X connect 100 0 99 0;
#X connect 101 0 99 0;
