#N canvas 938 310 512 462 10;
#X obj 69 149 bonk~;
#X msg 114 111 learn 0;
#X obj 23 13 adc~;
#X msg 108 28 minvel 40;
#X msg 112 74 learn 10;
#X obj 96 172 route 0 1 2;
#X obj 100 255 readsf~;
#X msg 100 228 open dog.wav \, 1;
#X msg 204 232 open cow.wav \, 1;
#X msg 315 236 open cat.wav \, 1;
#X obj 214 356 dac~;
#X obj 204 253 readsf~;
#X obj 315 257 readsf~;
#X connect 0 1 5 0;
#X connect 1 0 0 0;
#X connect 2 0 0 0;
#X connect 2 1 0 0;
#X connect 3 0 0 0;
#X connect 4 0 0 0;
#X connect 5 0 7 0;
#X connect 5 1 8 0;
#X connect 5 2 9 0;
#X connect 6 0 10 0;
#X connect 6 0 10 1;
#X connect 7 0 6 0;
#X connect 8 0 11 0;
#X connect 9 0 12 0;
#X connect 11 0 10 0;
#X connect 11 0 10 1;
#X connect 12 0 10 0;
#X connect 12 0 10 1;
