#N canvas 630 40 1304 989 10;
#X msg 14 599 help;
#X obj 242 -23 r notes;
#X msg 209 796 prog 1 \$1;
#X msg 90 773 1 \$1 \$2;
#X obj 94 1186 outlet~;
#N canvas 461 145 1145 875 sf2_selector 0;
#X obj 437 904 textfile;
#X msg 471 771 rewind;
#X obj 264 778 until;
#X obj 328 1005 symbol;
#X obj 264 850 i;
#X obj 299 850 + 1;
#X obj 264 802 t b b;
#X obj 355 663 t f f b b;
#X obj 264 898 ==;
#X obj 264 922 sel 1;
#X floatatom 294 898 5 0 0 0 - - -;
#X floatatom 264 874 5 0 0 0 - - -;
#X msg 279 827 1;
#X obj 756 426 textfile;
#X msg 754 309 rewind;
#X obj 707 309 until;
#X obj 707 276 t b b b;
#X obj 687 427 i;
#X obj 722 427 + 1;
#X obj 707 333 t b b;
#X obj 734 465 i;
#X floatatom 734 489 5 0 0 0 - - -;
#X obj 707 228 r bigbang;
#X msg 705 402 0;
#X floatatom 343 586 5 0 0 0 - - -;
#X obj 343 609 change;
#X obj 462 301 r bigbang;
#X msg 462 326 0;
#X msg 342 268 -1;
#X msg 380 269 1;
#X obj 343 523 expr if($f1 > $f2 \, 1 \, $f1);
#X obj 344 388 expr $f1 + $f2;
#X obj 343 548 expr if($f1 < 1 \, $f2 \, $f1);
#X obj 165 530 r latebang;
#X msg 815 310 read sf2/list.txt;
#X obj 342 115 inlet;
#X obj 383 115 inlet;
#X msg 573 771 read sf2/list.txt;
#X obj 355 1062 s sf2Filename;
#X obj 328 1026 t b s;
#X obj 247 1064 s refreshPresets;
#X obj 450 1004 symbol;
#X obj 450 1061 s sf2Cutename;
#X obj 549 1002 i;
#X obj 550 1060 s sf2Cutename_len;
#X msg 165 551 2;
#X obj 264 943 t b b;
#X obj 680 1004 i;
#X obj 437 940 unpack s s f f;
#X obj 680 1059 s numberOfPresets;
#X connect 0 0 48 0;
#X connect 0 1 2 1;
#X connect 1 0 0 0;
#X connect 2 0 6 0;
#X connect 3 0 39 0;
#X connect 4 0 5 0;
#X connect 4 0 11 0;
#X connect 5 0 4 1;
#X connect 6 0 4 0;
#X connect 6 1 0 0;
#X connect 7 0 2 0;
#X connect 7 1 10 0;
#X connect 7 2 1 0;
#X connect 7 2 12 0;
#X connect 7 3 37 0;
#X connect 8 0 9 0;
#X connect 9 0 46 0;
#X connect 10 0 8 1;
#X connect 11 0 8 0;
#X connect 12 0 4 1;
#X connect 13 1 15 1;
#X connect 13 1 20 0;
#X connect 14 0 13 0;
#X connect 15 0 19 0;
#X connect 16 0 15 0;
#X connect 16 1 14 0;
#X connect 16 1 23 0;
#X connect 16 2 34 0;
#X connect 17 0 18 0;
#X connect 17 0 20 1;
#X connect 18 0 17 1;
#X connect 19 0 13 0;
#X connect 19 1 17 0;
#X connect 20 0 21 0;
#X connect 21 0 30 1;
#X connect 21 0 32 1;
#X connect 22 0 16 0;
#X connect 23 0 17 1;
#X connect 24 0 25 0;
#X connect 24 0 31 1;
#X connect 25 0 7 0;
#X connect 26 0 27 0;
#X connect 27 0 31 1;
#X connect 28 0 31 0;
#X connect 29 0 31 0;
#X connect 30 0 32 0;
#X connect 31 0 30 0;
#X connect 32 0 24 0;
#X connect 33 0 45 0;
#X connect 34 0 13 0;
#X connect 35 0 28 0;
#X connect 36 0 29 0;
#X connect 37 0 0 0;
#X connect 39 0 40 0;
#X connect 39 1 38 0;
#X connect 41 0 42 0;
#X connect 43 0 44 0;
#X connect 45 0 7 0;
#X connect 46 0 3 0;
#X connect 46 1 41 0;
#X connect 46 1 43 0;
#X connect 46 1 47 0;
#X connect 47 0 49 0;
#X connect 48 0 3 1;
#X connect 48 1 41 1;
#X connect 48 2 43 1;
#X connect 48 3 47 1;
#X restore 1239 374 pd sf2_selector;
#X msg 360 895 init sf2/\$1.sf2;
#X obj 242 38 list prepend;
#X obj 242 59 route 0 1;
#X obj 159 10 unpack;
#X floatatom 151 48 5 0 0 0 - - -;
#X floatatom 191 46 5 0 0 0 - - -;
#X obj 1240 320 == 81;
#X obj 1240 341 sel 1;
#X obj 1290 342 sel 1;
#X obj 1290 321 == 83;
#X obj 607 171 unpack;
#X floatatom 777 371 5 0 0 0 - - -;
#X floatatom 699 371 5 0 0 0 - - -;
#X obj 699 389 t b f;
#X obj 777 389 t b f;
#X obj 699 428 expr $f2 * 10 + $f3;
#X floatatom 699 447 5 0 0 0 - - -;
#X obj 1072 408 i;
#X obj 1072 338 sel 1;
#X obj 1122 339 sel 1;
#X obj 1072 317 == 77;
#X obj 1122 318 == 79;
#X obj 1072 359 t b b;
#X obj 1072 429 +;
#X msg 1098 378 -1;
#X obj 1122 360 t b b;
#X msg 1149 378 1;
#X obj 1072 520 expr floor($f1 / 10) \; $f1 % 10;
#X floatatom 1072 554 5 0 0 0 - - -;
#X floatatom 1195 555 5 0 0 0 - - -;
#X obj 607 212 spigot;
#N canvas 4 50 1016 682 sf2_data 0;
#X obj 352 442 textfile;
#X msg 386 309 rewind;
#X obj 179 316 until;
#X obj 373 509 symbol;
#X obj 313 633 symbol;
#X obj 179 408 i;
#X obj 214 408 + 1;
#X obj 179 340 t b b;
#X obj 270 201 t f f b b;
#X obj 313 582 ==;
#X obj 313 606 sel 1;
#X floatatom 313 459 5 0 0 0 - - -;
#X floatatom 179 432 5 0 0 0 - - -;
#X obj 488 282 symbol;
#X msg 488 309 read sf2/\$1.txt;
#X obj 271 57 inlet;
#X obj 523 250 r sf2Filename;
#X obj 423 631 symbol;
#X obj 557 631 symbol;
#X obj 172 636 symbol;
#X obj 43 637 symbol;
#X obj 172 582 ==;
#X obj 172 606 sel 1;
#X obj 201 582 - 1;
#X obj 43 584 ==;
#X obj 43 608 sel 1;
#X obj 72 584 - 2;
#X obj 423 581 ==;
#X obj 423 605 sel 1;
#X obj 452 581 + 1;
#X obj 556 582 ==;
#X obj 556 606 sel 1;
#X obj 586 582 + 2;
#X obj 313 709 s presetName;
#X obj 43 712 s presetNameMinus2;
#X obj 172 711 s presetNameMinus1;
#X obj 423 707 s presetNamePlus1;
#X obj 66 201 s refreshScreen;
#X obj 43 657 list prepend;
#X obj 172 657 list prepend;
#X obj 313 654 list prepend;
#X obj 423 652 list prepend;
#X obj 557 652 list prepend;
#X obj 341 581 i;
#X obj 346 57 r lastbang;
#X msg 197 383 0;
#X msg 347 78 0;
#X obj 557 707 s presetNamePlus2;
#X obj 180 275 + 3;
#X obj 271 101 t b f f;
#X obj 363 132 s presetIndex;
#X connect 0 0 3 0;
#X connect 0 1 2 1;
#X connect 1 0 0 0;
#X connect 2 0 7 0;
#X connect 3 0 4 1;
#X connect 3 0 20 1;
#X connect 3 0 19 1;
#X connect 3 0 18 1;
#X connect 3 0 17 1;
#X connect 4 0 40 0;
#X connect 5 0 6 0;
#X connect 5 0 12 0;
#X connect 6 0 5 1;
#X connect 7 0 5 0;
#X connect 7 1 0 0;
#X connect 8 0 48 0;
#X connect 8 1 45 0;
#X connect 8 1 11 0;
#X connect 8 2 1 0;
#X connect 8 3 13 0;
#X connect 9 0 10 0;
#X connect 10 0 4 0;
#X connect 11 0 23 0;
#X connect 11 0 32 0;
#X connect 11 0 29 0;
#X connect 11 0 26 0;
#X connect 11 0 43 0;
#X connect 12 0 21 0;
#X connect 12 0 30 0;
#X connect 12 0 27 0;
#X connect 12 0 9 0;
#X connect 12 0 24 0;
#X connect 13 0 14 0;
#X connect 14 0 0 0;
#X connect 15 0 49 0;
#X connect 16 0 13 1;
#X connect 17 0 41 0;
#X connect 18 0 42 0;
#X connect 19 0 39 0;
#X connect 20 0 38 0;
#X connect 21 0 22 0;
#X connect 22 0 19 0;
#X connect 23 0 21 1;
#X connect 23 0 39 1;
#X connect 24 0 25 0;
#X connect 25 0 20 0;
#X connect 26 0 24 1;
#X connect 26 0 38 1;
#X connect 27 0 28 0;
#X connect 28 0 17 0;
#X connect 29 0 27 1;
#X connect 29 0 41 1;
#X connect 30 0 31 0;
#X connect 31 0 18 0;
#X connect 32 0 30 1;
#X connect 32 0 42 1;
#X connect 38 0 34 0;
#X connect 39 0 35 0;
#X connect 40 0 33 0;
#X connect 41 0 36 0;
#X connect 42 0 47 0;
#X connect 43 0 9 1;
#X connect 43 0 40 1;
#X connect 44 0 46 0;
#X connect 45 0 5 1;
#X connect 46 0 49 0;
#X connect 48 0 2 0;
#X connect 49 0 37 0;
#X connect 49 1 8 0;
#X connect 49 2 50 0;
#X restore 744 511 pd sf2_data;
#X obj 360 874 r sf2Filename;
#X obj 72 541 unpack;
#X obj 90 703 pack;
#X obj 90 671 + 0;
#X obj 94 996 *~;
#X obj 168 955 r knob1_1;
#X msg 166 1006 \$1 100;
#X obj 166 1027 line~;
#X msg 285 596 0;
#X msg 315 596 1;
#X obj 194 576 t f b;
#X msg 401 595 2;
#X msg 372 596 -3;
#X obj 195 620 expr int($f4 + ($f1 - $f2) * (($f5 - $f4) / ($f3 - $f2)))
* 12, f 62;
#X obj 279 669 s logTranspose;
#X obj 194 551 r knob2_1;
#X floatatom 195 641 5 0 0 0 - - -;
#X obj 353 -26 r aux_1;
#X obj 580 382 r refreshPresets;
#X obj 1098 229 bng 20 250 50 0 empty empty empty 17 7 0 10 -262144
-1 -1;
#X obj 1073 228 bng 20 250 50 0 empty empty empty 17 7 0 10 -262144
-1 -1;
#X obj 1210 420 r numberOfPresets;
#X msg 580 403 0;
#X obj 1071 471 expr if($f1 >= $f2 \, 0 \, $f1);
#X obj 607 236 sel 61 63 66 68 70 73 75 78 80 82;
#X obj 806 276 sel 60 62 64 65 67 69 71 72 74 76;
#X msg 821 299 1, f 1;
#X msg 838 298 2, f 1;
#X msg 859 298 3, f 1;
#X msg 874 298 4, f 1;
#X msg 890 298 5, f 1;
#X msg 910 297 6, f 1;
#X msg 929 297 7, f 1;
#X msg 948 297 8, f 1;
#X msg 967 298 9, f 1;
#X msg 805 298 0, f 1;
#X msg 623 260 1, f 1;
#X msg 640 259 2, f 1;
#X msg 660 259 3, f 1;
#X msg 675 258 4, f 1;
#X msg 691 258 5, f 1;
#X msg 712 257 6, f 1;
#X msg 730 258 7, f 1;
#X msg 749 258 8, f 1;
#X msg 769 258 9, f 1;
#X msg 608 260 0, f 1;
#X obj 1073 451 expr if($f1 < 0 \, $f2-1 \, $f1);
#X obj 217 834 delay 5;
#X obj 217 815 bang;
#X msg 215 855 1 60 100;
#X obj 276 835 delay 200;
#X msg 274 856 1 60 0;
#X obj 197 737 bag;
#X msg 197 715 flush;
#X msg 197 758 \$1 0;
#X obj 195 661 change;
#X obj 94 945 fluid~;
#X msg 32 904 dump;
#X floatatom 353 -5 5 0 0 0 - - -;
#X text 464 896 fluid on organelle;
#X obj 356 974 loadbang;
#X msg 356 995 1;
#X floatatom 168 976 5 0 0 0 - - -;
#X msg 435 19 0;
#X obj 436 -9 loadbang;
#X obj 251 1005 s sfVol;
#N canvas 528 91 1080 783 reverb 0;
#X msg 466 356 wet \$1;
#X msg 514 356 dry \$1;
#X msg 89 341 print;
#X obj 469 301 hsl 128 15 0 1 0 0 empty empty empty -2 -8 0 10 -262144
-1 -1 6350 1;
#N canvas 1 80 450 300 inv 0;
#X obj 154 69 inlet;
#X obj 154 179 outlet;
#X msg 154 124 1;
#X obj 154 97 t b f;
#X obj 154 151 -;
#X connect 0 0 3 0;
#X connect 2 0 4 0;
#X connect 3 0 2 0;
#X connect 3 1 4 1;
#X connect 4 0 1 0;
#X restore 514 329 pd inv;
#X floatatom 572 354 5 0 0 0 - - -;
#X text 457 285 dry;
#X text 582 284 wet;
#X floatatom 473 330 5 0 0 0 - - -;
#X obj 125 121 inlet~;
#X obj 114 714 outlet~;
#X obj 472 192 r knob4_1;
#X obj 130 475 freeverb~;
#X obj 376 197 loadbang;
#X msg 376 218 0;
#X connect 0 0 12 0;
#X connect 1 0 12 0;
#X connect 2 0 12 0;
#X connect 3 0 0 0;
#X connect 3 0 4 0;
#X connect 3 0 8 0;
#X connect 4 0 1 0;
#X connect 4 0 5 0;
#X connect 9 0 12 0;
#X connect 9 0 12 1;
#X connect 11 0 3 0;
#X connect 12 0 10 0;
#X connect 12 1 10 0;
#X connect 13 0 14 0;
#X connect 14 0 3 0;
#X restore 95 1121 pd reverb;
#N canvas 615 63 1063 914 chorus 0;
#X obj 94 11 inlet~;
#X obj 79 828 outlet~;
#X msg 224 224 freq \$1;
#X obj 399 143 / 100;
#X floatatom 399 123 5 0 0 2 mod - -;
#X obj 204 184 / 100;
#X floatatom 204 164 5 0 0 2 freq - -;
#X obj 309 45 loadbang;
#X obj 118 318 e_chorus mychorus;
#X msg 309 66 0;
#X obj 454 41 r knob3_1;
#X obj 166 53 r bpm;
#X floatatom 166 74 5 0 0 0 - - -;
#X obj 454 82 * 200;
#X connect 0 0 8 0;
#X connect 3 0 8 2;
#X connect 4 0 3 0;
#X connect 5 0 2 0;
#X connect 5 0 8 1;
#X connect 6 0 5 0;
#X connect 7 0 9 0;
#X connect 8 0 1 0;
#X connect 8 1 1 0;
#X connect 9 0 4 0;
#X connect 10 0 13 0;
#X connect 11 0 12 0;
#X connect 12 0 6 0;
#X connect 13 0 4 0;
#X restore 95 1079 pd chorus;
#X floatatom 1080 67 5 0 0 0 - - -;
#X obj 1080 47 r encoder_1;
#X obj 1071 204 sel -1 1;
#X obj 970 41 r aux_1;
#X floatatom 970 62 5 0 0 0 - - -;
#X obj 1071 182 spigot;
#X obj 1198 228 bng 20 250 50 0 empty empty empty 17 7 0 10 -262144
-1 -1;
#X obj 1173 227 bng 20 250 50 0 empty empty empty 17 7 0 10 -262144
-1 -1;
#X obj 1171 203 sel -1 1;
#X obj 1171 181 spigot;
#X obj 1209 162 == 0;
#X obj 902 39 loadbang;
#X msg 902 60 0;
#X msg 310 931 @sf sf2/\$1.sf2;
#X text 421 930 fluid on windows;
#N canvas 0 50 630 578 damp 0;
#X floatatom 452 165 5 0 0 0 - - -;
#X obj 458 81 r fs;
#X obj 452 185 sel 1;
#X obj 52 100 unpack;
#X obj 321 383 bag;
#X msg 527 305 flush;
#X obj 196 138 t f f;
#X floatatom 223 165 5 0 0 0 - - -;
#X obj 6 334 spigot;
#X floatatom 47 341 5 0 0 0 - - -;
#X obj 6 356 pack;
#X msg 321 403 \$1 0;
#X obj 178 288 spigot;
#X floatatom 222 288 5 0 0 0 - - -;
#X obj 49 321 == 0;
#X msg 179 314 \$1 100;
#X floatatom 367 233 5 0 0 0 - - -;
#X floatatom 367 273 5 0 0 0 - - -;
#X obj 367 252 expr if ($f1 != 0 && $f2 == 0 \, 1 \, 0);
#X obj 335 292 spigot;
#X msg 335 313 \$1 0;
#X obj 223 185 expr if ($f1 == 0 && $f2 == 0 \, 1 \, 0);
#X obj 61 28 inlet;
#X obj 46 522 outlet;
#X obj 535 138 r bigbang;
#X msg 535 159 1;
#X connect 0 0 2 0;
#X connect 0 0 18 1;
#X connect 0 0 21 1;
#X connect 1 0 0 0;
#X connect 2 0 5 0;
#X connect 3 0 8 0;
#X connect 3 0 12 0;
#X connect 3 0 19 0;
#X connect 3 1 6 0;
#X connect 4 0 11 0;
#X connect 5 0 4 0;
#X connect 6 0 10 1;
#X connect 6 1 7 0;
#X connect 6 1 16 0;
#X connect 7 0 21 0;
#X connect 8 0 10 0;
#X connect 9 0 8 1;
#X connect 10 0 23 0;
#X connect 11 0 23 0;
#X connect 12 0 15 0;
#X connect 13 0 12 1;
#X connect 14 0 9 0;
#X connect 15 0 4 0;
#X connect 16 0 18 0;
#X connect 17 0 19 1;
#X connect 18 0 17 0;
#X connect 19 0 20 0;
#X connect 20 0 4 0;
#X connect 21 0 14 0;
#X connect 21 0 13 0;
#X connect 22 0 3 0;
#X connect 24 0 25 0;
#X connect 25 0 0 0;
#X restore 85 271 pd damp;
#X connect 0 0 94 0;
#X connect 1 0 9 0;
#X connect 1 0 7 0;
#X connect 2 0 86 0;
#X connect 2 0 94 0;
#X connect 3 0 94 0;
#X connect 6 0 94 0;
#X connect 7 0 8 0;
#X connect 8 0 121 0;
#X connect 8 1 16 0;
#X connect 9 0 10 0;
#X connect 9 1 11 0;
#X connect 12 0 13 0;
#X connect 13 0 5 0;
#X connect 14 0 5 1;
#X connect 15 0 14 0;
#X connect 16 0 36 0;
#X connect 16 1 36 1;
#X connect 17 0 20 0;
#X connect 18 0 19 0;
#X connect 19 0 21 0;
#X connect 19 1 21 1;
#X connect 20 0 21 0;
#X connect 20 1 21 2;
#X connect 21 0 22 0;
#X connect 22 0 2 0;
#X connect 22 0 23 1;
#X connect 22 0 37 0;
#X connect 23 0 29 0;
#X connect 24 0 28 0;
#X connect 25 0 31 0;
#X connect 26 0 24 0;
#X connect 27 0 25 0;
#X connect 28 0 23 0;
#X connect 28 1 30 0;
#X connect 29 0 84 0;
#X connect 30 0 29 1;
#X connect 31 0 23 0;
#X connect 31 1 32 0;
#X connect 32 0 29 1;
#X connect 33 0 34 0;
#X connect 33 1 35 0;
#X connect 34 0 18 0;
#X connect 35 0 17 0;
#X connect 36 0 62 0;
#X connect 38 0 6 0;
#X connect 38 0 119 0;
#X connect 39 0 41 0;
#X connect 39 1 40 1;
#X connect 40 0 3 0;
#X connect 40 0 90 0;
#X connect 41 0 40 0;
#X connect 42 0 105 0;
#X connect 43 0 100 0;
#X connect 44 0 45 0;
#X connect 45 0 42 1;
#X connect 46 0 51 1;
#X connect 47 0 51 2;
#X connect 48 0 51 0;
#X connect 48 1 49 0;
#X connect 48 1 50 0;
#X connect 48 1 47 0;
#X connect 48 1 46 0;
#X connect 49 0 51 4;
#X connect 50 0 51 3;
#X connect 51 0 54 0;
#X connect 53 0 48 0;
#X connect 54 0 93 0;
#X connect 55 0 7 1;
#X connect 55 0 96 0;
#X connect 56 0 60 0;
#X connect 57 0 31 0;
#X connect 58 0 28 0;
#X connect 59 0 61 1;
#X connect 59 0 84 1;
#X connect 60 0 22 0;
#X connect 61 0 33 0;
#X connect 62 0 83 0;
#X connect 62 1 74 0;
#X connect 62 2 75 0;
#X connect 62 3 76 0;
#X connect 62 4 77 0;
#X connect 62 5 78 0;
#X connect 62 6 79 0;
#X connect 62 7 80 0;
#X connect 62 8 81 0;
#X connect 62 9 82 0;
#X connect 62 10 63 0;
#X connect 63 0 73 0;
#X connect 63 1 64 0;
#X connect 63 2 65 0;
#X connect 63 3 66 0;
#X connect 63 4 67 0;
#X connect 63 5 68 0;
#X connect 63 6 69 0;
#X connect 63 7 70 0;
#X connect 63 8 71 0;
#X connect 63 9 72 0;
#X connect 63 10 26 0;
#X connect 63 10 27 0;
#X connect 63 10 15 0;
#X connect 63 10 12 0;
#X connect 64 0 17 0;
#X connect 65 0 17 0;
#X connect 66 0 17 0;
#X connect 67 0 17 0;
#X connect 68 0 17 0;
#X connect 69 0 17 0;
#X connect 70 0 17 0;
#X connect 71 0 17 0;
#X connect 72 0 17 0;
#X connect 73 0 17 0;
#X connect 74 0 18 0;
#X connect 75 0 18 0;
#X connect 76 0 18 0;
#X connect 77 0 18 0;
#X connect 78 0 18 0;
#X connect 79 0 18 0;
#X connect 80 0 18 0;
#X connect 81 0 18 0;
#X connect 82 0 18 0;
#X connect 83 0 18 0;
#X connect 84 0 61 0;
#X connect 85 0 87 0;
#X connect 86 0 85 0;
#X connect 86 0 88 0;
#X connect 87 0 94 0;
#X connect 88 0 89 0;
#X connect 89 0 94 0;
#X connect 90 0 92 0;
#X connect 91 0 90 0;
#X connect 92 0 3 0;
#X connect 93 0 91 0;
#X connect 93 0 52 0;
#X connect 93 0 41 1;
#X connect 94 0 42 0;
#X connect 94 1 42 0;
#X connect 95 0 94 0;
#X connect 98 0 99 0;
#X connect 99 0 100 0;
#X connect 100 0 44 0;
#X connect 100 0 103 0;
#X connect 101 0 7 1;
#X connect 102 0 101 0;
#X connect 104 0 4 0;
#X connect 105 0 104 0;
#X connect 106 0 111 0;
#X connect 106 0 115 0;
#X connect 107 0 106 0;
#X connect 108 0 58 0;
#X connect 108 1 57 0;
#X connect 109 0 110 0;
#X connect 110 0 111 1;
#X connect 110 0 116 0;
#X connect 111 0 108 0;
#X connect 112 0 5 1;
#X connect 113 0 5 0;
#X connect 114 0 113 0;
#X connect 114 1 112 0;
#X connect 115 0 114 0;
#X connect 116 0 115 1;
#X connect 117 0 118 0;
#X connect 118 0 110 0;
#X connect 119 0 94 0;
#X connect 121 0 39 0;
