#N canvas 290 195 1447 687 12;
#X obj 680 550 *~ 1;
#X obj 568 369 loop;
#X obj 682 368 loop;
#N canvas 800 267 680 411 switchboard 0;
#X obj 68 60 inlet~;
#X msg 388 124 \$1 10;
#X obj 388 148 line~;
#X msg 447 122 \$1 10;
#X obj 447 146 line~;
#X msg 510 122 \$1 10;
#X obj 510 146 line~;
#X msg 570 123 \$1 10;
#X obj 570 147 line~;
#X obj 68 253 *~;
#X obj 124 252 *~;
#X obj 186 252 *~;
#X obj 242 251 *~;
#X obj 68 342 outlet~;
#X obj 214 340 outlet~;
#X obj 314 342 outlet~;
#X obj 424 340 outlet~;
#X obj 94 364 outlet;
#X obj 234 363 outlet;
#X obj 337 366 outlet;
#X obj 451 363 outlet;
#X obj 174 40 inlet;
#X obj 175 130 route 0 1 2 3;
#X floatatom 443 51 5 0 0 0 - - -;
#X obj 445 2 inlet;
#X obj 522 24 r bigbang;
#X msg 523 48 0;
#X obj 175 63 list prepend;
#X obj 388 100 == 0;
#X obj 448 98 == 1;
#X obj 510 98 == 2;
#X obj 571 98 == 3;
#X msg 631 122 \$1 10;
#X obj 631 146 line~;
#X obj 632 97 == 4;
#X obj 601 250 *~;
#X obj 608 348 outlet~;
#X connect 0 0 9 0;
#X connect 0 0 12 0;
#X connect 0 0 11 0;
#X connect 0 0 10 0;
#X connect 0 0 35 0;
#X connect 1 0 2 0;
#X connect 2 0 9 1;
#X connect 3 0 4 0;
#X connect 4 0 10 1;
#X connect 5 0 6 0;
#X connect 6 0 11 1;
#X connect 7 0 8 0;
#X connect 8 0 12 1;
#X connect 9 0 13 0;
#X connect 10 0 14 0;
#X connect 11 0 15 0;
#X connect 12 0 16 0;
#X connect 21 0 27 0;
#X connect 22 0 17 0;
#X connect 22 1 18 0;
#X connect 22 2 19 0;
#X connect 22 3 20 0;
#X connect 23 0 27 1;
#X connect 23 0 28 0;
#X connect 23 0 29 0;
#X connect 23 0 30 0;
#X connect 23 0 31 0;
#X connect 23 0 34 0;
#X connect 24 0 23 0;
#X connect 25 0 26 0;
#X connect 26 0 23 0;
#X connect 27 0 22 0;
#X connect 28 0 1 0;
#X connect 28 0 17 0;
#X connect 29 0 3 0;
#X connect 29 0 18 0;
#X connect 30 0 5 0;
#X connect 30 0 19 0;
#X connect 31 0 7 0;
#X connect 31 0 20 0;
#X connect 32 0 33 0;
#X connect 33 0 35 1;
#X connect 34 0 32 0;
#X connect 35 0 36 0;
#X restore 728 274 pd switchboard;
#X obj 823 243 hradio 25 1 0 5 empty empty empty 0 -8 0 10 -262144
-1 -1 4;
#X obj 795 368 loop;
#X obj 909 369 loop;
#X obj 12 81 hsl 80 20 0 1 0 0 empty empty empty -2 -8 0 10 -262144
-1 -1 7292 1;
#X obj -17 318 bng 30 250 50 0 empty empty empty 17 7 0 10 -261682
-1 -1;
#X obj 293 74 bng 30 250 50 0 empty empty empty 17 7 0 10 -261682 -1
-1;
#X obj 281 134 tgl 15 0 empty empty empty 17 7 0 10 -262144 -1 -1 0
1;
#X obj 281 199 realtime;
#X floatatom 157 242 10 0 0 0 - - -;
#X obj 281 174 sel 1 0;
#X obj 100 289 expr 60000 / $f1;
#X floatatom 100 313 5 0 0 0 - - -;
#X obj 16 369 s tick;
#X obj 100 330 s bpm;
#X obj 43 570 *~;
#X obj 148 408 hsl 80 20 0 1 0 0 empty empty empty -2 -8 0 10 -262144
-1 -1 7900 1;
#X msg 145 460 \$1 30;
#X obj 145 484 line~;
#X obj 145 433 expr $f1 * 0.5;
#X obj -55 202 r bigbang;
#X obj -17 263 metro 500;
#X obj 683 721 outlet~;
#X obj 645 95 inlet~;
#X obj 33 20 r knob1_2;
#X obj 747 -196 r aux_2;
#X obj 752 64 tgl 30 0 empty empty empty 17 7 0 10 -260097 -1 -1 0
1;
#N canvas 1028 121 984 606 aux 0;
#X obj 298 11 inlet;
#X obj 300 516 outlet;
#X obj 300 380 tgl 30 0 empty empty empty 17 7 0 10 -260097 -1 -1 0
1;
#X msg 300 465 record \$1;
#X obj 91 338 bng 30 250 50 0 empty empty empty 17 7 0 10 -258113 -1
-1;
#X msg 91 373 clear;
#X obj 298 35 tgl 30 0 empty empty empty 17 7 0 10 -260097 -1 -1 0
1;
#X obj 300 283 realtime;
#X obj 300 307 expr if ($f1 < 500 \, 1 \, 0);
#X obj 300 331 sel 1;
#X obj 298 74 sel 1 0;
#X obj 91 277 bng 15 250 50 0 empty empty empty 17 7 0 10 -262144 -1
-1;
#X obj 91 298 delay 1000;
#X msg 114 276 stop;
#X obj 423 466 s isRecording;
#X obj 423 410 r bigbang;
#X msg 423 434 0;
#X obj 326 142 r isRecording;
#X obj 298 142 i;
#X obj 298 166 sel 1 0;
#X msg 251 331 0;
#X connect 0 0 6 0;
#X connect 2 0 3 0;
#X connect 2 0 14 0;
#X connect 3 0 1 0;
#X connect 4 0 5 0;
#X connect 5 0 1 0;
#X connect 6 0 10 0;
#X connect 7 0 8 0;
#X connect 8 0 9 0;
#X connect 9 0 2 0;
#X connect 10 0 18 0;
#X connect 10 1 7 1;
#X connect 10 1 13 0;
#X connect 11 0 12 0;
#X connect 12 0 4 0;
#X connect 13 0 12 0;
#X connect 15 0 16 0;
#X connect 16 0 14 0;
#X connect 17 0 18 1;
#X connect 18 0 19 0;
#X connect 19 0 20 0;
#X connect 19 1 7 0;
#X connect 19 1 11 0;
#X connect 20 0 2 0;
#X restore 751 132 pd aux;
#X obj 555 180 r bigbang;
#X msg 555 224 4;
#X obj 584 271 + 1;
#X msg 555 295 \$1 index \$1;
#X obj 555 319 route 1 2 3 4;
#X obj 555 204 t b b;
#X msg 588 225 1;
#X obj 555 271 i;
#X obj 555 248 until;
#X obj 216 330 s beatSize;
#X obj 216 286 expr $f1 / 1000;
#X obj -59 35 r bigbang;
#X floatatom 216 310 5 0 0 0 - - -;
#X obj 1164 193 change;
#X obj 1164 217 spigot;
#X obj 1248 198 r isRecording;
#X obj 1248 222 == 0;
#X obj 1186 10 r encoder_2;
#X obj 1186 61 +;
#X floatatom 1186 34 5 0 0 0 - - -;
#X floatatom 1186 136 5 0 0 0 - - -;
#X obj 1185 89 expr if($f1 > 4 \, 0 \, $f1) \;;
#X obj 1186 112 expr if($f1 < 0 \, 4 \, $f1) \;;
#X obj 1315 1 loadbang;
#X obj 33 44 spigot;
#X obj 592 0 spigot;
#X obj 279 18 sel 1;
#X obj 146 380 spigot;
#X obj 857 57 r knob1_2;
#X obj 857 91 spigot;
#X obj 929 91 spigot;
#X obj 1000 92 spigot;
#X obj 1072 92 spigot;
#X obj 929 57 r knob2_2;
#X obj 1001 59 r knob3_2;
#X obj 1072 60 r knob4_2;
#X obj 272 426 s tickVol;
#X obj 596 58 s bmpBarSelected;
#X obj 747 18 spigot;
#X obj 596 30 == 4;
#X obj 1001 6 != 4;
#X obj 242 373 loadbang;
#X msg 400 65 stop;
#X msg 359 65 1000;
#X obj 359 89 delay;
#X obj 359 113 s cleanAll;
#X obj 547 101 sel 0;
#X msg 544 123 set 0;
#X obj 894 -13 s isCleaning;
#X obj 894 -82 delay;
#X msg 894 -58 1;
#X msg 942 -56 0;
#X obj 1022 -89 r cleanAll;
#X obj 1103 -89 r stopCleanMsg;
#X msg 959 -109 stop;
#X obj 904 -170 sel 1 0;
#X floatatom 895 -34 5 0 0 0 - - -;
#X msg 894 -106 300;
#X msg 1315 25 0;
#X obj 1315 49 t f f f;
#X msg 242 397 0.25;
#X obj 10 106 expr 60000 / (int($f1 * 160) + 20);
#X msg -58 58 0.44;
#X obj 1186 436 s memorySize;
#X msg 1186 409 60;
#X text 1222 407 seconds;
#X obj 1186 380 loadbang;
#X obj 88 616 *~;
#X obj 170 553 r scene;
#X obj 170 577 == 2;
#X obj 147 357 r knob4_2;
#N canvas 768 186 511 537 bitcrusher 0;
#X obj 74 51 inlet~;
#X obj 82 437 outlet~;
#N canvas 109 343 564 411 guts 0;
#X obj 72 24 inlet~;
#X obj 70 294 outlet~;
#X obj 130 26 inlet;
#X obj 221 138 /;
#X msg 221 116 1 \$1;
#X obj 71 162 *~;
#X obj 130 137 line~;
#X obj 71 264 *~;
#X obj 89 192 wrap~;
#X obj 71 223 -~;
#X obj 130 114 pack 0 20;
#X obj 221 191 line~;
#X obj 221 168 pack 0 20;
#X obj 130 54 max 1;
#X connect 0 0 5 0;
#X connect 2 0 13 0;
#X connect 3 0 12 0;
#X connect 4 0 3 0;
#X connect 5 0 8 0;
#X connect 5 0 9 0;
#X connect 6 0 5 1;
#X connect 7 0 1 0;
#X connect 8 0 9 1;
#X connect 9 0 7 0;
#X connect 10 0 6 0;
#X connect 11 0 7 1;
#X connect 12 0 11 0;
#X connect 13 0 4 0;
#X connect 13 0 10 0;
#X restore 76 260 pd guts;
#X obj 74 133 hip~ 4;
#X obj 75 303 hip~ 4;
#X obj 76 282 *~ 0.125;
#X obj 246 102 hsl 128 15 0 1 0 0 empty empty empty -2 -8 0 10 -262144
-1 -1 0 1;
#X floatatom 243 122 5 0 0 0 - - -;
#X obj 300 121 expr 1 - $f1;
#X floatatom 300 145 5 0 0 0 - - -;
#X obj 74 370 *~;
#X obj 210 370 *~;
#X obj 291 28 r bmpBarSelected;
#X obj 206 34 r knob2_2;
#X obj 206 58 spigot;
#X obj 155 71 loadbang;
#X msg 155 95 0;
#X obj 361 195 s fx1;
#X connect 0 0 3 0;
#X connect 0 0 11 0;
#X connect 2 0 5 0;
#X connect 3 0 2 0;
#X connect 4 0 10 0;
#X connect 5 0 4 0;
#X connect 6 0 7 0;
#X connect 6 0 8 0;
#X connect 7 0 2 1;
#X connect 7 0 10 1;
#X connect 7 0 17 0;
#X connect 8 0 9 0;
#X connect 9 0 11 1;
#X connect 10 0 1 0;
#X connect 11 0 1 0;
#X connect 12 0 14 1;
#X connect 13 0 14 0;
#X connect 14 0 6 0;
#X connect 15 0 16 0;
#X connect 16 0 6 0;
#X restore 619 594 pd bitcrusher;
#X obj 682 648 simple-delay 1;
#N canvas 560 329 929 466 phaser 0;
#X obj 74 38 inlet~;
#X obj 96 127 rpole~;
#X obj 96 102 rzero_rev~;
#X obj 96 176 rpole~;
#X obj 96 151 rzero_rev~;
#X obj 96 224 rpole~;
#X obj 96 199 rzero_rev~;
#X obj 96 273 rpole~;
#X obj 96 248 rzero_rev~;
#X obj 73 403 +~;
#X obj 73 430 outlet~;
#X obj 403 211 phasor~ 0.3;
#X text 493 366 replacement for: expr~ 1 - 0.03 - 0.6*abs($v1-0.5)*abs($v1-0.5)
;
#X obj 345 211 sig~ 1;
#X obj 345 237 -~;
#X obj 346 281 min~;
#X obj 346 306 *~;
#X obj 270 360 -~;
#X obj 271 330 sig~ 0.97;
#X obj 406 300 line~;
#X obj 346 333 *~;
#X obj 406 271 pack 0 10;
#N canvas 228 198 627 317 LICENSE-BSD 0;
#X text 121 56 This software is copyrighted by Miller Puckette \, Reality
Jockey Ltd. and others. The terms (the "Standard Improved BSD License")
apply to all files associated with the software unless explicitly disclaimed
in individual files.;
#X text 123 148 See the file LICENSE.txt for the full license text.
;
#X restore 727 19 pd LICENSE-BSD;
#X obj 96 323 rpole~;
#X obj 96 298 rzero_rev~;
#X obj 96 373 rpole~;
#X obj 96 348 rzero_rev~;
#X text 452 95 freq;
#X text 711 159 depth;
#X obj 691 128 hsl 128 15 0 1 0 0 empty empty empty -2 -8 0 10 -262144
-1 -1 0 1;
#X obj 706 86 r bmpBarSelected;
#X obj 651 60 r knob2_2;
#X obj 651 84 spigot;
#X obj 589 58 loadbang;
#X msg 589 82 0;
#X floatatom 668 155 5 0 0 0 - - -;
#X floatatom 403 90 5 0 0 0 - - -;
#X obj 771 156 s fx1;
#X obj 403 35 r bpm;
#X obj 404 63 / 60;
#X connect 0 0 2 0;
#X connect 0 0 9 0;
#X connect 1 0 4 0;
#X connect 2 0 1 0;
#X connect 3 0 6 0;
#X connect 4 0 3 0;
#X connect 5 0 8 0;
#X connect 6 0 5 0;
#X connect 7 0 24 0;
#X connect 8 0 7 0;
#X connect 9 0 10 0;
#X connect 11 0 15 1;
#X connect 11 0 14 1;
#X connect 13 0 14 0;
#X connect 14 0 15 0;
#X connect 15 0 16 0;
#X connect 15 0 16 1;
#X connect 16 0 20 0;
#X connect 17 0 2 1;
#X connect 17 0 1 1;
#X connect 17 0 4 1;
#X connect 17 0 3 1;
#X connect 17 0 6 1;
#X connect 17 0 5 1;
#X connect 17 0 8 1;
#X connect 17 0 7 1;
#X connect 17 0 24 1;
#X connect 17 0 23 1;
#X connect 17 0 26 1;
#X connect 17 0 25 1;
#X connect 18 0 17 0;
#X connect 19 0 20 1;
#X connect 20 0 17 1;
#X connect 21 0 19 0;
#X connect 23 0 26 0;
#X connect 24 0 23 0;
#X connect 25 0 9 1;
#X connect 26 0 25 0;
#X connect 29 0 35 0;
#X connect 29 0 37 0;
#X connect 30 0 32 1;
#X connect 31 0 32 0;
#X connect 32 0 29 0;
#X connect 33 0 34 0;
#X connect 34 0 29 0;
#X connect 35 0 21 0;
#X connect 36 0 11 0;
#X connect 38 0 39 0;
#X connect 39 0 36 0;
#X restore 813 592 pd phaser;
#X obj -67 487 osc~ 880;
#X obj -54 378 t b b;
#X obj -41 551 *~;
#X obj 28 490 line~;
#X obj -54 426 delay;
#X msg -54 450 0 30;
#X msg -54 402 30;
#X msg 24 426 0.2 10;
#X connect 0 0 104 0;
#X connect 1 0 0 0;
#X connect 2 0 0 0;
#X connect 3 0 1 0;
#X connect 3 1 1 1;
#X connect 3 2 2 0;
#X connect 3 3 2 1;
#X connect 3 4 5 0;
#X connect 3 5 5 1;
#X connect 3 6 6 0;
#X connect 3 7 6 1;
#X connect 3 8 0 0;
#X connect 4 0 3 2;
#X connect 5 0 0 0;
#X connect 6 0 0 0;
#X connect 7 0 92 0;
#X connect 8 0 16 0;
#X connect 8 0 106 0;
#X connect 9 0 10 0;
#X connect 10 0 13 0;
#X connect 11 0 12 0;
#X connect 12 0 14 0;
#X connect 12 0 41 0;
#X connect 12 0 24 1;
#X connect 13 0 11 0;
#X connect 13 1 11 1;
#X connect 14 0 15 0;
#X connect 15 0 17 0;
#X connect 18 0 98 0;
#X connect 19 0 22 0;
#X connect 19 0 67 0;
#X connect 20 0 21 0;
#X connect 21 0 18 1;
#X connect 22 0 20 0;
#X connect 23 0 24 0;
#X connect 24 0 8 0;
#X connect 26 0 3 0;
#X connect 27 0 55 0;
#X connect 28 0 56 0;
#X connect 28 0 69 0;
#X connect 28 0 86 0;
#X connect 29 0 30 0;
#X connect 30 0 3 1;
#X connect 31 0 36 0;
#X connect 32 0 39 0;
#X connect 33 0 38 1;
#X connect 34 0 35 0;
#X connect 35 0 1 1;
#X connect 35 1 2 1;
#X connect 35 2 5 1;
#X connect 35 3 6 1;
#X connect 36 0 32 0;
#X connect 36 1 37 0;
#X connect 37 0 38 1;
#X connect 38 0 33 0;
#X connect 38 0 34 0;
#X connect 39 0 38 0;
#X connect 41 0 43 0;
#X connect 42 0 93 0;
#X connect 43 0 40 0;
#X connect 44 0 45 0;
#X connect 45 0 4 0;
#X connect 45 0 71 0;
#X connect 45 0 70 0;
#X connect 46 0 47 0;
#X connect 47 0 45 1;
#X connect 48 0 50 0;
#X connect 49 0 52 0;
#X connect 50 0 49 0;
#X connect 51 0 49 1;
#X connect 51 0 44 0;
#X connect 52 0 53 0;
#X connect 53 0 51 0;
#X connect 54 0 89 0;
#X connect 55 0 7 0;
#X connect 56 0 57 0;
#X connect 57 0 10 0;
#X connect 57 0 74 0;
#X connect 57 1 73 0;
#X connect 58 0 19 0;
#X connect 59 0 60 0;
#X connect 60 0 1 2;
#X connect 61 0 2 2;
#X connect 62 0 5 2;
#X connect 63 0 6 2;
#X connect 64 0 61 0;
#X connect 65 0 62 0;
#X connect 66 0 63 0;
#X connect 69 0 29 0;
#X connect 70 0 55 1;
#X connect 70 0 56 1;
#X connect 70 0 58 1;
#X connect 70 0 68 0;
#X connect 70 0 77 0;
#X connect 71 0 60 1;
#X connect 71 0 63 1;
#X connect 71 0 62 1;
#X connect 71 0 61 1;
#X connect 71 0 69 1;
#X connect 72 0 91 0;
#X connect 73 0 75 0;
#X connect 74 0 75 0;
#X connect 75 0 76 0;
#X connect 77 0 78 0;
#X connect 78 0 10 0;
#X connect 80 0 81 0;
#X connect 81 0 87 0;
#X connect 82 0 87 0;
#X connect 83 0 82 0;
#X connect 84 0 82 0;
#X connect 85 0 80 0;
#X connect 86 0 88 0;
#X connect 86 1 82 0;
#X connect 86 1 85 0;
#X connect 87 0 79 0;
#X connect 88 0 80 0;
#X connect 89 0 90 0;
#X connect 90 0 45 0;
#X connect 90 1 51 0;
#X connect 90 2 47 0;
#X connect 91 0 19 0;
#X connect 92 0 12 0;
#X connect 93 0 7 0;
#X connect 95 0 94 0;
#X connect 97 0 95 0;
#X connect 98 0 25 0;
#X connect 99 0 100 0;
#X connect 100 0 98 1;
#X connect 101 0 58 0;
#X connect 103 0 25 0;
#X connect 104 0 103 0;
#X connect 105 0 107 0;
#X connect 106 0 111 0;
#X connect 106 1 112 0;
#X connect 107 0 18 0;
#X connect 108 0 107 1;
#X connect 109 0 110 0;
#X connect 110 0 108 0;
#X connect 111 0 109 0;
#X connect 112 0 108 0;
