#N canvas -10 44 1016 744 10;
#X obj 607 36 inlet;
#X floatatom 607 57 5 0 0 0 - - -;
#X obj 828 167 s 2screen;
#X obj 607 138 t f f f f f;
#X obj 607 77 expr ($f1 - 1) * 12 + 17;
#X floatatom 607 98 5 0 0 0 - - -;
#X obj 1230 332 i;
#X obj 1203 393 s 2screen;
#X msg 1203 373 /oled/gPrintln 3 107 \$1 8 1 \$2;
#X obj 1203 308 t f b;
#X obj 1203 353 pack;
#X obj 1068 22 inlet;
#X obj 1068 64 s \$0-pos;
#X obj 1105 81 s \$0-vol;
#X obj 1142 101 s \$0-beats;
#X obj 1263 286 r \$0-vol;
#X obj 1263 305 expr int(100 * $f1);
#X obj 1156 616 r \$0-beats;
#X obj 1078 495 t f f f;
#X obj 1217 526 + 4;
#X msg 1217 548 /oled/gBox 3 14 \$1 3 3 1;
#X msg 1245 569 /oled/gBox 3 101 \$1 3 3 1;
#X obj 1189 575 + 6;
#X msg 1189 597 /oled/gLine 3 17 \$1 100 \$1 1;
#X obj 1097 649 i;
#X floatatom 1156 637 5 0 0 0 - - -;
#X obj 1097 761 pack;
#X obj 1118 742 + 5;
#X msg 1097 795 /oled/gSetPixel 3 \$1 \$2 1;
#X obj 1265 631 s 2screen;
#X obj 1097 819 s 2screen;
#X obj 862 773 s 2screen;
#X obj 937 597 r \$0-pos;
#X obj 862 675 i;
#X obj 862 696 - 1;
#X obj 862 717 pack;
#X obj 862 610 t b f b f;
#X obj 927 715 pack;
#X obj 924 672 i;
#X obj 951 671 + 4;
#X msg 927 734 /oled/gSetPixel 3 \$1 \$2 1;
#X obj 1068 43 route pos vol beats selected rec;
#X obj 1183 118 s \$0-selected;
#X obj 1220 138 s \$0-rec;
#X obj 349 439 list prepend;
#X obj 418 418 r \$0-selected;
#X obj 349 460 route 1 0;
#X obj 646 670 s 2screen;
#X obj 246 541 list prepend;
#X obj 246 562 route 1 0;
#X obj 315 520 r \$0-rec;
#X obj -41 872 s 2screen;
#X obj -39 678 t f f;
#X msg 1 696 /oled/gFillArea 3 5 \$1 5 5 1;
#X msg -38 727 /oled/gLine 3 7 \$1 8 \$1 0;
#X obj -38 709 + 1;
#X obj 4 751 expr $f1 + 3 \; $f1 + 4;
#X obj 4 783 pack;
#X obj 2 832 + 3;
#X obj 221 747 pack;
#X obj 271 675 t f f;
#X obj 221 715 expr $f1 + 0 \; $f1 + 3;
#X obj 382 750 pack;
#X obj 382 718 expr $f1 + 0 \; $f1 + 3;
#X obj 549 749 pack;
#X obj 549 717 expr $f1 + 1 \; $f1 + 3;
#X obj 216 840 pack;
#X obj 386 840 pack;
#X obj 387 808 expr $f1 + 4 \; $f1 + 6;
#X obj 556 839 pack;
#X obj 557 807 expr $f1 + 4 \; $f1 + 6;
#X obj 381 896 s 2screen;
#X obj 186 181 spigot;
#X obj 256 94 r \$0-selected;
#X obj 186 202 t f f;
#X obj 232 283 - 1;
#X obj 46 281 pack;
#X obj 46 249 expr $f1 \; $f1 + 6;
#X obj -23 302 pack;
#X obj -23 270 expr $f1 \; $f1 + 6;
#X msg -23 321 /oled/gLine 3 124 \$1 124 \$2 1;
#X obj 100 364 s 2screen;
#X obj 827 125 - 1;
#X msg 827 146 /oled/gFillArea 3 0 \$1 128 9 0;
#X msg 231 303 /oled/gInvertArea 3 3 \$1 121 9;
#X msg 45 300 /oled/gLine 3 2 \$1 2 \$2 1;
#X msg 219 766 /oled/gLine 3 6 \$1 9 \$2 1;
#X msg 381 768 /oled/gLine 3 5 \$1 8 \$2 1;
#X msg 547 767 /oled/gLine 3 5 \$1 7 \$2 1;
#X msg 554 857 /oled/gLine 3 8 \$1 6 \$2 1;
#X msg 385 858 /oled/gLine 3 7 \$1 5 \$2 1;
#X msg 4 802 /oled/gLine 3 7 \$1 7 \$2 0;
#X msg 0 852 /oled/gSetPixel 3 9 \$1 0;
#X obj -33 653 + 1;
#X msg 215 858 /oled/gLine 3 5 \$1 6 \$2 1;
#X obj 216 808 expr $f1 + 5 \; $f1 + 4;
#X msg 862 752 /oled/gFillArea 3 \$1 \$2 3 4 1;
#X obj 937 618 expr int($f1 * 82) + 18;
#X obj 375 518 r bigbang;
#X msg 375 539 0;
#X obj 1097 606 t b f;
#X obj 1097 710 expr int(($f2 - 1) * (86 / $f2)) + 16;
#X obj 656 416 r \$0-beats;
#X obj 646 577 pack;
#X floatatom 656 437 5 0 0 0 - - -;
#X floatatom 655 488 5 0 0 0 - - -;
#X floatatom 752 525 5 0 0 0 - - -;
#X obj 656 457 expr $f1%10 \; floor($f1/10);
#X obj 752 502 expr if($f1 > 4 \, 4 \, $f1);
#X floatatom 539 471 5 0 0 0 - - -;
#X obj 499 521 i;
#X obj 539 491 t b f;
#X obj 499 542 sel 1 2 3 4;
#X obj 499 607 +;
#X floatatom 450 632 5 0 0 0 - - -;
#X msg 645 595 /oled/gPrintln 3 7 \$1 8 1 \$2;
#X msg 490 568 0;
#X msg 517 568 2;
#X msg 549 568 4;
#X msg 580 568 6;
#X msg 500 629 /oled/gSetPixel 3 4 \$1 1;
#X floatatom 282 147 5 0 0 0 - - -;
#X floatatom 1154 180 5 0 0 0 - - -;
#X connect 0 0 1 0;
#X connect 1 0 4 0;
#X connect 3 0 72 0;
#X connect 3 1 109 0;
#X connect 3 2 18 0;
#X connect 3 3 9 0;
#X connect 3 4 82 0;
#X connect 4 0 5 0;
#X connect 5 0 3 0;
#X connect 6 0 10 1;
#X connect 8 0 7 0;
#X connect 9 0 10 0;
#X connect 9 1 6 0;
#X connect 10 0 8 0;
#X connect 11 0 41 0;
#X connect 15 0 16 0;
#X connect 16 0 6 1;
#X connect 17 0 25 0;
#X connect 18 0 36 0;
#X connect 18 1 100 0;
#X connect 18 2 19 0;
#X connect 18 2 22 0;
#X connect 19 0 20 0;
#X connect 19 0 21 0;
#X connect 20 0 29 0;
#X connect 21 0 29 0;
#X connect 22 0 23 0;
#X connect 23 0 29 0;
#X connect 24 0 101 0;
#X connect 25 0 24 1;
#X connect 25 0 101 1;
#X connect 26 0 28 0;
#X connect 27 0 26 1;
#X connect 28 0 30 0;
#X connect 32 0 97 0;
#X connect 33 0 34 0;
#X connect 34 0 35 0;
#X connect 35 0 96 0;
#X connect 36 0 33 0;
#X connect 36 1 35 1;
#X connect 36 2 38 0;
#X connect 36 3 39 0;
#X connect 37 0 40 0;
#X connect 38 0 37 0;
#X connect 39 0 37 1;
#X connect 40 0 31 0;
#X connect 41 0 12 0;
#X connect 41 1 13 0;
#X connect 41 2 14 0;
#X connect 41 3 42 0;
#X connect 41 3 122 0;
#X connect 41 4 43 0;
#X connect 44 0 46 0;
#X connect 45 0 44 1;
#X connect 46 0 48 0;
#X connect 48 0 49 0;
#X connect 49 0 93 0;
#X connect 49 1 60 0;
#X connect 50 0 48 1;
#X connect 52 0 55 0;
#X connect 52 0 56 0;
#X connect 52 0 58 0;
#X connect 52 1 53 0;
#X connect 53 0 51 0;
#X connect 54 0 51 0;
#X connect 55 0 54 0;
#X connect 56 0 57 0;
#X connect 56 1 57 1;
#X connect 57 0 91 0;
#X connect 58 0 92 0;
#X connect 59 0 86 0;
#X connect 60 0 70 0;
#X connect 60 0 68 0;
#X connect 60 0 95 0;
#X connect 60 1 61 0;
#X connect 60 1 65 0;
#X connect 60 1 63 0;
#X connect 61 0 59 0;
#X connect 61 1 59 1;
#X connect 62 0 87 0;
#X connect 63 0 62 0;
#X connect 63 1 62 1;
#X connect 64 0 88 0;
#X connect 65 0 64 0;
#X connect 65 1 64 1;
#X connect 66 0 94 0;
#X connect 67 0 90 0;
#X connect 68 0 67 0;
#X connect 68 1 67 1;
#X connect 69 0 89 0;
#X connect 70 0 69 0;
#X connect 70 1 69 1;
#X connect 72 0 74 0;
#X connect 73 0 72 1;
#X connect 73 0 121 0;
#X connect 74 0 77 0;
#X connect 74 0 79 0;
#X connect 74 1 75 0;
#X connect 75 0 84 0;
#X connect 76 0 85 0;
#X connect 77 0 76 0;
#X connect 77 1 76 1;
#X connect 78 0 80 0;
#X connect 79 0 78 0;
#X connect 79 1 78 1;
#X connect 80 0 81 0;
#X connect 82 0 83 0;
#X connect 83 0 2 0;
#X connect 84 0 81 0;
#X connect 85 0 81 0;
#X connect 86 0 71 0;
#X connect 87 0 71 0;
#X connect 88 0 71 0;
#X connect 89 0 71 0;
#X connect 90 0 71 0;
#X connect 91 0 51 0;
#X connect 92 0 51 0;
#X connect 93 0 52 0;
#X connect 94 0 71 0;
#X connect 95 0 66 0;
#X connect 95 1 66 1;
#X connect 96 0 31 0;
#X connect 97 0 38 1;
#X connect 97 0 33 1;
#X connect 98 0 99 0;
#X connect 99 0 48 1;
#X connect 100 0 24 0;
#X connect 100 1 27 0;
#X connect 101 0 26 0;
#X connect 102 0 104 0;
#X connect 103 0 115 0;
#X connect 104 0 107 0;
#X connect 105 0 103 1;
#X connect 106 0 110 1;
#X connect 107 0 105 0;
#X connect 107 1 108 0;
#X connect 108 0 106 0;
#X connect 109 0 111 0;
#X connect 110 0 112 0;
#X connect 111 0 110 0;
#X connect 111 1 103 0;
#X connect 111 1 113 1;
#X connect 112 0 116 0;
#X connect 112 1 117 0;
#X connect 112 1 116 0;
#X connect 112 2 118 0;
#X connect 112 2 116 0;
#X connect 112 2 117 0;
#X connect 112 3 119 0;
#X connect 112 3 116 0;
#X connect 112 3 117 0;
#X connect 112 3 118 0;
#X connect 113 0 120 0;
#X connect 113 0 114 0;
#X connect 115 0 47 0;
#X connect 116 0 113 0;
#X connect 117 0 113 0;
#X connect 118 0 113 0;
#X connect 119 0 113 0;
#X connect 120 0 47 0;
