#N canvas 609 476 553 299 10;
#X obj 8 6 bng 31 250 50 0 empty empty empty 17 7 0 10 -262144 -1 -1
;
#N canvas 500 227 721 300 init 0;
#X obj 167 121 s bigbang;
#X obj 135 97 t b b;
#X obj 149 56 loadbang;
#X obj 82 197 s latebang;
#X obj 82 173 delay 50;
#X obj 134 10 inlet;
#X obj 241 215 print >>>>>>>>>>>>>>>>>>>>>>>;
#X obj 139 249 print <<<<<<<<<<<<<<<<<<<<<<<<;
#X obj 286 87 throw~ outL;
#X obj 303 109 throw~ outR;
#X obj 285 62 r~ soundOut;
#X obj 8 197 s lastbang;
#X obj 9 173 delay 60;
#X connect 1 0 4 0;
#X connect 1 0 7 0;
#X connect 1 0 12 0;
#X connect 1 1 0 0;
#X connect 1 1 6 0;
#X connect 2 0 1 0;
#X connect 4 0 3 0;
#X connect 5 0 1 0;
#X connect 10 0 8 0;
#X connect 10 0 9 0;
#X connect 12 0 11 0;
#X restore 8 42 pd init;
#X obj 159 153 looper;
#N canvas 499 173 1016 531 controls 0;
#X obj 491 357 r knob2;
#X obj 326 359 r knob1;
#X obj 326 467 send;
#X symbolatom 351 443 10 0 0 0 - - -;
#X msg 351 418 symbol knob1_\$1;
#X floatatom 616 278 5 0 0 0 - - -;
#X obj 490 460 send;
#X symbolatom 514 436 10 0 0 0 - - -;
#X msg 514 411 symbol knob2_\$1;
#X obj 670 359 r knob3;
#X obj 672 460 send;
#X symbolatom 696 436 10 0 0 0 - - -;
#X msg 698 410 symbol knob3_\$1;
#X obj 858 457 send;
#X symbolatom 883 432 10 0 0 0 - - -;
#X msg 885 406 symbol knob4_\$1;
#X obj 861 357 r knob4;
#X obj 616 252 r scene;
#N canvas 11 50 1009 687 encoder 0;
#X obj 11 9 loadbang;
#X msg 11 34 send /enablepatchsub 1;
#X obj 11 59 s oscOut;
#X obj 418 22 r oscIn;
#X floatatom 201 146 5 0 0 0 - - -;
#X obj 794 147 bng 15 250 50 0 empty empty empty 17 7 0 10 -262144
-1 -1;
#X msg 822 197 send /gohome 1;
#X obj 822 222 s oscOut;
#X obj 147 427 outlet;
#X obj 229 428 outlet;
#X obj 199 237 sel 0;
#X obj 418 47 routeOSC /encoder/turn /encoder/button;
#X obj 159 191 bng 15 250 50 0 empty empty empty 17 7 0 10 -262144
-1 -1;
#X floatatom 570 426 5 0 0 0 - - -;
#X obj 717 247 r bigbang;
#X obj 570 450 s scene;
#X msg 717 317 1;
#X msg 674 278 2;
#X obj 483 448 print SCENE:;
#X floatatom 526 108 5 0 0 0 - - -;
#X obj 526 128 sel 1;
#X obj 481 231 i;
#X obj 483 318 expr if($f1 + 1 > $f2 \, 1 \, $f1 + 1);
#X obj 621 185 delay;
#X msg 605 152 stop;
#X msg 544 176 1200;
#X connect 0 0 1 0;
#X connect 1 0 2 0;
#X connect 3 0 11 0;
#X connect 4 0 10 0;
#X connect 4 0 12 0;
#X connect 5 0 6 0;
#X connect 6 0 7 0;
#X connect 10 0 8 0;
#X connect 10 1 9 0;
#X connect 11 0 4 0;
#X connect 11 1 19 0;
#X connect 13 0 15 0;
#X connect 13 0 18 0;
#X connect 13 0 21 1;
#X connect 14 0 17 0;
#X connect 14 0 16 0;
#X connect 16 0 13 0;
#X connect 17 0 22 1;
#X connect 19 0 20 0;
#X connect 20 0 21 0;
#X connect 20 0 25 0;
#X connect 20 1 24 0;
#X connect 21 0 22 0;
#X connect 22 0 13 0;
#X connect 23 0 5 0;
#X connect 24 0 23 0;
#X connect 25 0 23 0;
#X restore 24 -2 pd encoder;
#X obj 1013 456 send;
#X symbolatom 1038 431 10 0 0 0 - - -;
#X msg 1040 405 symbol aux_\$1;
#X obj 1013 356 r aux;
#X obj 24 21 bng 35 250 50 0 empty empty empty 17 7 0 10 -191407 -1
-1;
#X obj 65 21 bng 35 250 50 0 empty empty empty 17 7 0 10 -191407 -1
-1;
#X msg 24 81 -1;
#X msg 65 81 1;
#X obj 59 434 send;
#X symbolatom 84 410 10 0 0 0 - - -;
#X msg 84 385 symbol encoder_\$1;
#X connect 0 0 6 0;
#X connect 1 0 2 0;
#X connect 3 0 2 1;
#X connect 4 0 3 0;
#X connect 5 0 4 0;
#X connect 5 0 12 0;
#X connect 5 0 8 0;
#X connect 5 0 15 0;
#X connect 5 0 21 0;
#X connect 5 0 29 0;
#X connect 7 0 6 1;
#X connect 8 0 7 0;
#X connect 9 0 10 0;
#X connect 11 0 10 1;
#X connect 12 0 11 0;
#X connect 14 0 13 1;
#X connect 15 0 14 0;
#X connect 16 0 13 0;
#X connect 17 0 5 0;
#X connect 18 0 23 0;
#X connect 18 1 24 0;
#X connect 20 0 19 1;
#X connect 21 0 20 0;
#X connect 22 0 19 0;
#X connect 23 0 25 0;
#X connect 24 0 26 0;
#X connect 25 0 27 0;
#X connect 26 0 27 0;
#X connect 28 0 27 1;
#X connect 29 0 28 0;
#X restore 70 6 pd controls;
#X obj 159 194 s~ soundOut;
#N canvas 697 180 711 530 screen 0;
#X obj 128 70 r refreshScreen;
#N canvas 535 241 913 475 screen_init 0;
#X msg 47 179 /oled/gFlip 3;
#X obj 134 18 r bigbang;
#X msg 375 159 /oled/gShowInfoBar 3 0;
#X obj 47 205 s 2screen;
#X obj 375 180 s 2screen;
#X obj 247 183 s 2screen;
#X obj 113 29 bng 15 250 50 0 empty empty empty 17 7 0 10 -262144 -1
-1;
#X msg 248 160 /oled/gClear 3 1;
#X obj 16 12 r 2screen;
#X obj 16 36 s oscOut;
#X obj 134 51 t b b b b;
#X connect 0 0 3 0;
#X connect 1 0 10 0;
#X connect 2 0 4 0;
#X connect 6 0 10 0;
#X connect 7 0 5 0;
#X connect 8 0 9 0;
#X connect 10 0 0 0;
#X connect 10 2 7 0;
#X connect 10 3 2 0;
#X restore 12 12 pd screen_init;
#X obj 305 92 r scene;
#X obj 128 114 i;
#X obj 128 91 bang;
#X obj 128 135 sel 1 2;
#X obj 153 329 r aux_1;
#X obj 128 348 i;
#X obj 128 369 sel 1 0;
#N canvas 658 256 1004 625 voice 0;
#X msg 150 368 /oled/gFlip 3;
#X obj 150 394 s 2screen;
#N canvas 509 122 1152 826 logKnobs 0;
#X obj 81 27 inlet;
#X obj 334 765 s 2screen;
#X obj 355 644 r logTranspose;
#X obj 334 668 i;
#X obj 71 768 s 2screen;
#X obj 71 697 expr int($f1 * 100);
#X obj 610 748 s 2screen;
#X obj 877 747 s 2screen;
#X obj 334 648 bng 15 250 50 0 empty empty empty 17 7 0 10 -262144
-1 -1;
#X floatatom 365 666 5 0 0 0 - - -;
#X obj 82 566 sel 1 2 3 4;
#X obj 81 500 until;
#X msg 81 480 4;
#X obj 81 521 i;
#X obj 108 521 + 1;
#X msg 128 477 1;
#X obj 71 656 f;
#X obj 610 635 f;
#X obj 877 635 f;
#X obj 81 366 t b b;
#X obj 638 612 r knob3_1;
#X obj 893 609 r knob4_1;
#X obj 81 542 t f f;
#X obj 334 709 pack;
#X obj 71 717 pack;
#X msg 334 742 /oled/gPrintln 3 0 \$2 8 1 TRANSPOSE: \$1;
#X obj 610 660 expr int($f1 * 100);
#X obj 877 659 expr int($f1 * 100);
#X obj 610 696 pack;
#X obj 877 696 pack;
#X obj 424 496 expr ($f1 - 1) * 10 + 26;
#X obj 91 630 r sfVol;
#X msg 877 723 /oled/gPrintln 3 0 \$2 8 1 REVERB: \$1%;
#X msg 610 725 /oled/gPrintln 3 0 \$2 8 1 CHORUS: \$1%;
#X msg 70 744 /oled/gPrintln 3 0 \$2 8 1 AMPLITUDE: \$1%;
#X connect 0 0 19 0;
#X connect 2 0 3 1;
#X connect 2 0 9 0;
#X connect 3 0 23 0;
#X connect 5 0 24 0;
#X connect 8 0 3 0;
#X connect 10 0 16 0;
#X connect 10 1 8 0;
#X connect 10 2 17 0;
#X connect 10 3 18 0;
#X connect 11 0 13 0;
#X connect 12 0 11 0;
#X connect 13 0 14 0;
#X connect 13 0 22 0;
#X connect 14 0 13 1;
#X connect 15 0 13 1;
#X connect 16 0 5 0;
#X connect 17 0 26 0;
#X connect 18 0 27 0;
#X connect 19 0 12 0;
#X connect 19 1 15 0;
#X connect 20 0 17 1;
#X connect 21 0 18 1;
#X connect 22 0 10 0;
#X connect 22 1 30 0;
#X connect 23 0 25 0;
#X connect 24 0 34 0;
#X connect 25 0 1 0;
#X connect 26 0 28 0;
#X connect 27 0 29 0;
#X connect 28 0 33 0;
#X connect 29 0 32 0;
#X connect 30 0 23 1;
#X connect 30 0 24 1;
#X connect 30 0 28 1;
#X connect 30 0 29 1;
#X connect 31 0 16 1;
#X connect 32 0 7 0;
#X connect 33 0 6 0;
#X connect 34 0 4 0;
#X restore 310 417 pd logKnobs;
#X obj 324 175 t b b b b b;
#X obj 689 324 s 2screen;
#X msg 689 303 /oled/gFillArea 3 0 0 128 64 0;
#X obj 322 56 inlet;
#N canvas 244 204 776 528 sf2name_gfx 0;
#X obj 143 133 s 2screen;
#X obj 100 43 inlet;
#X obj 100 64 t b b;
#X obj 100 197 symbol;
#X obj 100 361 s 2screen;
#X msg 142 113 /oled/gFillArea 3 0 0 128 13 1;
#X obj 135 176 r sf2Cutename;
#X obj 193 268 r sf2Cutename_len;
#X obj 100 316 list;
#X msg 100 338 /oled/gPrintln 3 \$2 3 8 0 \$1;
#X obj 193 287 expr 128 - (6 * $f1) - 2;
#X connect 1 0 2 0;
#X connect 2 0 3 0;
#X connect 2 1 5 0;
#X connect 3 0 8 0;
#X connect 5 0 0 0;
#X connect 6 0 3 1;
#X connect 7 0 10 0;
#X connect 8 0 9 0;
#X connect 9 0 4 0;
#X connect 10 0 8 1;
#X restore 618 385 pd sf2name_gfx;
#N canvas 806 441 450 300 presetname 0;
#X obj 120 35 inlet;
#X obj 120 56 t b b;
#X obj 162 264 s 2screen;
#X msg 286 135 /oled/gLine 3 2 15 2 21 1;
#X msg 284 161 /oled/gLine 3 124 15 124 21 1;
#X msg 287 112 /oled/gFillArea 3 3 14 121 9 1;
#X obj 90 130 r presetName;
#X obj 54 148 list;
#X msg 51 182 /oled/gPrintln 3 5 15 8 0 \$2;
#X connect 0 0 1 0;
#X connect 1 0 7 0;
#X connect 1 1 4 0;
#X connect 1 1 3 0;
#X connect 1 1 5 0;
#X connect 3 0 2 0;
#X connect 4 0 2 0;
#X connect 5 0 2 0;
#X connect 6 0 7 1;
#X connect 7 0 8 0;
#X connect 8 0 2 0;
#X restore 476 401 pd presetname;
#X connect 0 0 1 0;
#X connect 3 0 0 0;
#X connect 3 1 2 0;
#X connect 3 2 8 0;
#X connect 3 3 7 0;
#X connect 3 4 5 0;
#X connect 5 0 4 0;
#X connect 6 0 3 0;
#X restore 197 426 pd voice;
#N canvas 823 86 1016 682 presets 0;
#X msg 62 445 /oled/gFlip 3;
#X obj 62 471 s 2screen;
#X obj 324 175 t b b b b b;
#X obj 322 56 inlet;
#X obj 914 225 spigot;
#X msg 947 202 1;
#X msg 963 225 0;
#X obj 1127 307 s 2screen;
#X msg 1127 286 /oled/gClear 3 1;
#X obj 1049 760 s 2screen;
#X msg 1303 445 /oled/gFillArea 3 0 0 128 13 1;
#X msg 1096 428 /oled/gLine 3 122 13 122 63 1;
#X msg 1095 448 /oled/gLine 3 127 13 127 63 1;
#X msg 1096 467 /oled/gLine 3 122 63 127 63 1;
#X msg 900 421 /oled/gFillArea 3 3 34 116 9 1;
#X msg 899 443 /oled/gLine 3 2 35 2 41 1;
#X msg 898 467 /oled/gLine 3 119 35 119 41 1;
#X obj 914 246 t b b b;
#X msg 731 434 /oled/gLine 3 6 35 9 38 0;
#X msg 731 455 /oled/gLine 3 5 35 8 38 0;
#X msg 732 475 /oled/gLine 3 5 36 7 38 0;
#X msg 730 504 /oled/gLine 3 5 40 6 39 0;
#X msg 730 525 /oled/gLine 3 5 41 7 39 0;
#X msg 730 545 /oled/gLine 3 6 41 8 39 0;
#N canvas 244 204 776 528 sf2name_gfx 0;
#X obj 143 133 s 2screen;
#X obj 100 43 inlet;
#X obj 100 64 t b b;
#X obj 100 197 symbol;
#X obj 100 361 s 2screen;
#X msg 142 113 /oled/gFillArea 3 0 0 128 13 1;
#X obj 135 176 r sf2Cutename;
#X obj 193 268 r sf2Cutename_len;
#X obj 100 316 list;
#X msg 100 338 /oled/gPrintln 3 \$2 3 8 0 \$1;
#X obj 193 287 expr 128 - (6 * $f1) - 2;
#X connect 1 0 2 0;
#X connect 2 0 3 0;
#X connect 2 1 5 0;
#X connect 3 0 8 0;
#X connect 5 0 0 0;
#X connect 6 0 3 1;
#X connect 7 0 10 0;
#X connect 8 0 9 0;
#X connect 9 0 4 0;
#X connect 10 0 8 1;
#X restore 486 453 pd sf2name_gfx;
#N canvas 4 50 1016 682 presetsNames_gfx 0;
#X obj 453 47 inlet;
#X obj 293 811 s 2screen;
#X obj 606 192 s 2screen;
#X obj 453 194 until;
#X obj 453 215 i;
#X obj 480 215 + 1;
#X msg 510 189 1;
#X obj 453 90 t b b;
#X msg 453 174 5;
#X msg 619 119 /oled/gFillArea 3 0 13 122 21 0;
#X msg 625 139 /oled/gFillArea 3 0 43 122 21 0;
#X obj 289 564 list;
#X obj 829 352 != 3;
#X obj 455 269 t f f;
#X obj 336 389 r presetName;
#X obj 647 389 r presetNamePlus2;
#X obj 470 390 r presetNamePlus1;
#X obj 179 385 r presetNameMinus1;
#X obj 11 389 r presetNameMinus2;
#X obj 352 297 sel 1 2 3 4 5;
#X obj 1092 373 expr ($f1 - 1) * 10 + 15;
#X obj 829 401 sel 1 0;
#X obj 293 735 list;
#X obj 391 71 bng 15 250 50 0 empty empty empty 17 7 0 10 -262144 -1
-1;
#X obj 293 756 list;
#X obj 615 409 list;
#X obj 438 410 list;
#X obj 303 409 list;
#X obj 146 404 list;
#X obj -20 410 list;
#X msg 293 791 /oled/gPrintln 3 \$4 \$5 8 \$3 \$1 \$2;
#X msg 829 422 2;
#X msg 861 422 11;
#X obj 247 213 r numberOfPresets;
#X floatatom 247 233 5 0 0 0 - - -;
#X obj 85 215 r presetIndex;
#X floatatom 85 236 5 0 0 0 - - -;
#X obj 85 256 expr if($f1 - 2 >= 0 \, 1 \, 0) \; if($f1 - 1 >= 0 \,
1 \, 0) \; if($f1 + 1 < $f2 \, 1 \, 0) \; if($f1 + 2 < $f2 \, 1 \,
0);
#X obj -20 431 spigot;
#X obj 146 425 spigot;
#X obj 438 431 spigot;
#X obj 615 430 spigot;
#X msg 629 161 /oled/gFillArea 3 10 34 109 9 1;
#X connect 0 0 7 0;
#X connect 3 0 4 0;
#X connect 4 0 5 0;
#X connect 4 0 13 0;
#X connect 5 0 4 1;
#X connect 6 0 4 1;
#X connect 7 0 8 0;
#X connect 7 1 9 0;
#X connect 7 1 6 0;
#X connect 7 1 10 0;
#X connect 7 1 42 0;
#X connect 8 0 3 0;
#X connect 9 0 2 0;
#X connect 10 0 2 0;
#X connect 11 0 22 0;
#X connect 12 0 11 1;
#X connect 12 0 21 0;
#X connect 13 0 19 0;
#X connect 13 1 12 0;
#X connect 13 1 20 0;
#X connect 14 0 27 1;
#X connect 15 0 25 1;
#X connect 16 0 26 1;
#X connect 17 0 28 1;
#X connect 18 0 29 1;
#X connect 19 0 29 0;
#X connect 19 1 28 0;
#X connect 19 2 27 0;
#X connect 19 3 26 0;
#X connect 19 4 25 0;
#X connect 20 0 24 1;
#X connect 21 0 31 0;
#X connect 21 1 32 0;
#X connect 22 0 24 0;
#X connect 23 0 7 0;
#X connect 24 0 30 0;
#X connect 25 0 41 0;
#X connect 26 0 40 0;
#X connect 27 0 11 0;
#X connect 28 0 39 0;
#X connect 29 0 38 0;
#X connect 30 0 1 0;
#X connect 31 0 22 1;
#X connect 32 0 22 1;
#X connect 33 0 34 0;
#X connect 34 0 37 1;
#X connect 35 0 36 0;
#X connect 36 0 37 0;
#X connect 37 0 38 1;
#X connect 37 1 39 1;
#X connect 37 2 40 1;
#X connect 37 3 41 1;
#X connect 38 0 11 0;
#X connect 39 0 11 0;
#X connect 40 0 11 0;
#X connect 41 0 11 0;
#X connect 42 0 2 0;
#X restore 346 496 pd presetsNames_gfx;
#X obj 947 160 r aux_1;
#X obj 947 181 sel 1;
#N canvas 4 50 590 431 scrollbar_gfx 0;
#X obj 179 46 inlet;
#X obj 206 121 s 2screen;
#X obj 179 79 t b b;
#X msg 206 101 /oled/gFillArea 3 123 13 4 50 0;
#X obj 454 144 r numberOfPresets;
#X floatatom 454 164 5 0 0 0 - - -;
#X obj 365 143 r presetIndex;
#X floatatom 365 164 5 0 0 0 - - -;
#X obj 176 401 s 2screen;
#X msg 176 381 /oled/gFillArea 3 124 \$1 2 \$2 1;
#X obj 176 307 pack;
#X obj 175 211 expr int((5 / ($f3 + 4)) * 48);
#X obj 175 244 t b f;
#X obj 174 265 expr int(($f2 / $f3) * (48 - $f4 + 1)) + 14 \;;
#X connect 0 0 2 0;
#X connect 2 0 11 0;
#X connect 2 1 3 0;
#X connect 3 0 1 0;
#X connect 4 0 5 0;
#X connect 5 0 11 2;
#X connect 5 0 13 2;
#X connect 6 0 7 0;
#X connect 7 0 11 1;
#X connect 7 0 13 1;
#X connect 9 0 8 0;
#X connect 10 0 9 0;
#X connect 11 0 12 0;
#X connect 11 0 13 3;
#X connect 12 0 13 0;
#X connect 12 1 10 1;
#X connect 13 0 10 0;
#X restore 227 419 pd scrollbar_gfx;
#X connect 0 0 1 0;
#X connect 2 0 0 0;
#X connect 2 1 28 0;
#X connect 2 2 25 0;
#X connect 2 3 24 0;
#X connect 2 4 4 0;
#X connect 3 0 2 0;
#X connect 4 0 6 0;
#X connect 4 0 17 0;
#X connect 5 0 4 1;
#X connect 6 0 4 1;
#X connect 8 0 7 0;
#X connect 10 0 9 0;
#X connect 11 0 9 0;
#X connect 12 0 9 0;
#X connect 13 0 9 0;
#X connect 14 0 9 0;
#X connect 15 0 9 0;
#X connect 16 0 9 0;
#X connect 17 0 18 0;
#X connect 17 0 23 0;
#X connect 17 0 22 0;
#X connect 17 0 21 0;
#X connect 17 0 20 0;
#X connect 17 0 19 0;
#X connect 17 1 10 0;
#X connect 17 1 16 0;
#X connect 17 1 15 0;
#X connect 17 1 14 0;
#X connect 17 1 11 0;
#X connect 17 1 13 0;
#X connect 17 1 12 0;
#X connect 17 2 8 0;
#X connect 18 0 9 0;
#X connect 19 0 9 0;
#X connect 20 0 9 0;
#X connect 21 0 9 0;
#X connect 22 0 9 0;
#X connect 23 0 9 0;
#X connect 26 0 27 0;
#X connect 27 0 5 0;
#X restore 59 428 pd presets;
#N canvas 149 56 1652 985 looper_oled 0;
#X msg -28 262 /oled/gFlip 3;
#X obj -28 288 s 2screen;
#X obj 320 176 t b b b b b;
#X obj 322 56 inlet;
#X obj 914 225 spigot;
#X msg 947 202 1;
#X msg 963 225 0;
#X obj 1127 307 s 2screen;
#X msg 1127 286 /oled/gClear 3 1;
#X obj 914 246 t b b b;
#X obj 947 160 r scene;
#X obj 5 615 loop_gfx;
#X obj 227 476 r loopData;
#X obj 63 615 loop_gfx;
#X obj 123 614 loop_gfx;
#X obj 183 614 loop_gfx;
#X msg 5 553 \$1 \$1;
#X obj 5 574 route 1 2 3 4;
#X obj 226 496 route 1 2 3 4;
#X obj 416 603 r bmpBarSelected;
#X obj 385 631 spigot;
#X obj 399 904 s 2screen;
#X obj 360 690 bng 15 250 50 0 empty empty empty 17 7 0 10 -262144
-1 -1;
#X msg 429 843 /oled/gLine 3 6 9 8 7 0;
#X msg 429 823 /oled/gLine 3 5 9 7 7 0;
#X msg 429 803 /oled/gLine 3 5 8 6 7 0;
#X msg 431 733 /oled/gLine 3 6 3 9 6 0;
#X msg 429 754 /oled/gLine 3 5 3 8 6 0;
#X msg 430 775 /oled/gLine 3 5 4 7 6 0;
#X obj 605 289 r isRecording;
#X obj 486 499 t b b;
#X obj 499 344 spigot;
#X obj 594 342 spigot;
#X floatatom 641 344 5 0 0 0 - - -;
#X floatatom 541 345 5 0 0 0 - - -;
#X obj 605 310 == 0;
#X obj 596 403 s 2screen;
#X msg 896 335 /oled/gFillArea 3 0 0 128 13 1;
#X obj 896 356 s 2screen;
#X msg 596 382 /oled/gPrintln 3 32 3 8 0 *RECORDING*;
#X obj 612 446 r isCleaning;
#X obj 573 446 == 0;
#X obj 598 524 s 2screen;
#X obj 536 285 t b b;
#X obj 499 435 t b b;
#X obj 568 467 spigot;
#X obj 499 466 spigot;
#X msg 598 502 /oled/gPrintln 3 32 3 8 0 CLEANING...;
#X obj 725 308 loadbang;
#X msg 725 329 0;
#X obj 1267 865 s 2screen;
#X obj 1262 651 r bpm;
#X obj 1238 681 i;
#X obj 641 899 s 2screen;
#X obj 759 810 r tickVol;
#X obj 1268 786 pack;
#X obj 1320 678 r bmpBarSelected;
#X obj 1320 699 sel 0 1;
#X msg 1324 741 3;
#X obj 644 826 f;
#X obj 643 846 expr int($f1*100);
#X msg 641 874 /oled/gPrintln 3 107 3 8 0 \$1;
#X msg 1359 743 14;
#X obj 844 644 t b b b b;
#X obj 1102 925 s 2screen;
#X obj 1105 850 f;
#X msg 1269 840 /oled/gPrintln 3 \$2 3 8 0 BPM:\$1;
#X obj 868 928 s 2screen;
#X obj 871 853 f;
#X obj 1106 872 expr int($f1*9);
#X obj 871 875 expr int($f1*9);
#X msg 870 903 /oled/gPrintln 3 83 3 8 0 FB\$1;
#X obj 909 816 r delayFb;
#X floatatom 909 837 5 0 0 0 - - -;
#X floatatom 1137 833 5 0 0 0 - - -;
#X obj 1150 763 r fx1;
#X msg 1104 900 /oled/gPrintln 3 61 3 8 0 P\$1;
#X obj 30 472 until;
#X obj 30 493 i;
#X obj 61 493 + 1;
#X msg 30 447 4;
#X obj 44 395 t b b;
#X msg 87 432 1;
#X connect 0 0 1 0;
#X connect 2 0 0 0;
#X connect 2 1 81 0;
#X connect 2 2 43 0;
#X connect 2 3 37 0;
#X connect 2 4 4 0;
#X connect 3 0 2 0;
#X connect 4 0 6 0;
#X connect 4 0 9 0;
#X connect 5 0 4 1;
#X connect 6 0 4 1;
#X connect 8 0 7 0;
#X connect 9 2 8 0;
#X connect 10 0 5 0;
#X connect 12 0 18 0;
#X connect 16 0 17 0;
#X connect 17 0 11 0;
#X connect 17 1 13 0;
#X connect 17 2 14 0;
#X connect 17 3 15 0;
#X connect 18 0 11 1;
#X connect 18 1 13 1;
#X connect 18 2 14 1;
#X connect 18 3 15 1;
#X connect 19 0 20 1;
#X connect 20 0 22 0;
#X connect 20 0 26 0;
#X connect 20 0 23 0;
#X connect 20 0 24 0;
#X connect 20 0 27 0;
#X connect 20 0 25 0;
#X connect 20 0 28 0;
#X connect 23 0 21 0;
#X connect 24 0 21 0;
#X connect 25 0 21 0;
#X connect 26 0 21 0;
#X connect 27 0 21 0;
#X connect 28 0 21 0;
#X connect 29 0 33 0;
#X connect 29 0 35 0;
#X connect 30 0 20 0;
#X connect 30 1 63 0;
#X connect 31 0 44 0;
#X connect 32 0 39 0;
#X connect 33 0 32 1;
#X connect 34 0 31 1;
#X connect 35 0 34 0;
#X connect 37 0 38 0;
#X connect 39 0 36 0;
#X connect 40 0 41 0;
#X connect 40 0 45 1;
#X connect 41 0 46 1;
#X connect 43 0 31 0;
#X connect 43 1 32 0;
#X connect 44 0 46 0;
#X connect 44 1 45 0;
#X connect 45 0 47 0;
#X connect 46 0 30 0;
#X connect 47 0 42 0;
#X connect 48 0 49 0;
#X connect 49 0 35 0;
#X connect 49 0 41 0;
#X connect 51 0 52 1;
#X connect 52 0 55 0;
#X connect 54 0 59 1;
#X connect 55 0 66 0;
#X connect 56 0 57 0;
#X connect 57 0 58 0;
#X connect 57 1 62 0;
#X connect 58 0 55 1;
#X connect 59 0 60 0;
#X connect 60 0 61 0;
#X connect 61 0 53 0;
#X connect 62 0 55 1;
#X connect 63 0 59 0;
#X connect 63 1 68 0;
#X connect 63 2 65 0;
#X connect 63 3 52 0;
#X connect 65 0 69 0;
#X connect 66 0 50 0;
#X connect 68 0 70 0;
#X connect 69 0 76 0;
#X connect 70 0 71 0;
#X connect 71 0 67 0;
#X connect 72 0 68 1;
#X connect 72 0 73 0;
#X connect 75 0 74 0;
#X connect 75 0 65 1;
#X connect 76 0 64 0;
#X connect 77 0 78 0;
#X connect 78 0 79 0;
#X connect 78 0 16 0;
#X connect 79 0 78 1;
#X connect 80 0 77 0;
#X connect 81 0 80 0;
#X connect 81 1 82 0;
#X connect 82 0 78 1;
#X restore 283 207 pd looper_oled;
#X obj 502 113 s refreshScreen;
#X obj 502 62 r bigbang;
#X obj 502 92 metro 120;
#X connect 0 0 4 0;
#X connect 2 0 3 1;
#X connect 3 0 5 0;
#X connect 4 0 3 0;
#X connect 5 0 7 0;
#X connect 5 1 11 0;
#X connect 6 0 7 1;
#X connect 7 0 8 0;
#X connect 8 0 10 0;
#X connect 8 1 9 0;
#X connect 13 0 14 0;
#X connect 14 0 12 0;
#X restore 70 26 pd screen;
#N canvas 771 248 761 546 led 0;
#X obj 207 5 r tick;
#X msg 206 383 send /led \$1;
#X obj 206 417 s oscOut;
#X obj 235 253 int;
#X msg 206 253 0;
#X obj 298 159 r isRecording;
#X obj 298 180 sel 1 0;
#X msg 298 201 4;
#X obj 207 44 bng 15 250 50 0 empty empty empty 17 7 0 10 -262144 -1
-1;
#X obj 207 64 t b b;
#X obj 115 209 delay;
#X obj 144 138 r beatSize;
#X msg 332 201 2;
#X obj 115 179 f;
#X floatatom 144 179 5 0 0 0 - - -;
#X obj 144 158 expr ($f1 / 2) * 1000;
#X connect 0 0 8 0;
#X connect 1 0 2 0;
#X connect 3 0 1 0;
#X connect 4 0 1 0;
#X connect 5 0 6 0;
#X connect 6 0 7 0;
#X connect 6 1 12 0;
#X connect 7 0 3 1;
#X connect 8 0 9 0;
#X connect 9 0 13 0;
#X connect 9 1 3 0;
#X connect 10 0 4 0;
#X connect 11 0 15 0;
#X connect 12 0 3 1;
#X connect 13 0 10 0;
#X connect 14 0 13 1;
#X connect 15 0 14 0;
#X restore 133 27 pd led;
#X obj 158 119 fluidplayer;
#X connect 0 0 1 0;
#X connect 2 0 4 0;
#X connect 7 0 2 0;
