#N canvas 785 65 574 701 12;
#X obj -741 157 cnv 15 200 200 empty empty empty 20 12 0 14 -233017
-66577 0;
#X obj -731 205 timer;
#X obj -731 325 +;
#X obj -633 180 unpack f f f;
#X text -587 158 b c d;
#X floatatom -731 442 5 0 0 0 - - -;
#X obj -686 100 t b l b b;
#X msg -792 90 stop;
#X obj -762 -180 inlet;
#X obj -686 70 pack f f f;
#X text -640 -155 comienzo fin duración;
#X obj -653 40 -;
#X obj -731 471 outlet;
#X obj -509 422 f;
#X obj -653 10 f;
#X obj -760 -30 loadbang;
#X obj -760 0 \$1;
#X obj -760 30 route 0;
#X msg -760 60 10;
#X obj -792 122 metro;
#X obj -731 235 /;
#X obj -731 265 pow 2;
#X obj -792 405 t b;
#X obj -731 295 *;
#X text -645 307 t/=d \; c * t * t + b;
#X obj -424 355 delay;
#X obj -424 50 t f f;
#X obj -424 385 t b b;
#X obj -695 -60 t f b f b;
#X obj -762 -150 route stop;
#X obj -695 -120 unpack f f f;
#X obj -762 -120 t b b;
#X msg -424 325 stop;
#X obj -491 100 t f;
#X obj -605 -50 t f f;
#X connect 1 0 20 0;
#X connect 2 0 5 0;
#X connect 3 0 2 1;
#X connect 3 1 23 1;
#X connect 3 2 20 1;
#X connect 5 0 12 0;
#X connect 6 0 19 0;
#X connect 6 1 3 0;
#X connect 6 2 1 1;
#X connect 6 3 1 0;
#X connect 7 0 19 0;
#X connect 8 0 29 0;
#X connect 9 0 6 0;
#X connect 11 0 9 1;
#X connect 13 0 5 0;
#X connect 14 0 11 0;
#X connect 15 0 16 0;
#X connect 16 0 17 0;
#X connect 17 0 18 0;
#X connect 17 1 19 1;
#X connect 18 0 19 1;
#X connect 19 0 1 1;
#X connect 20 0 21 0;
#X connect 21 0 23 0;
#X connect 22 0 7 0;
#X connect 23 0 2 0;
#X connect 25 0 27 0;
#X connect 26 0 9 2;
#X connect 26 1 25 1;
#X connect 27 0 22 0;
#X connect 27 1 13 0;
#X connect 28 0 9 0;
#X connect 28 1 14 0;
#X connect 28 2 11 1;
#X connect 28 3 25 0;
#X connect 29 0 31 0;
#X connect 29 1 30 0;
#X connect 30 0 28 0;
#X connect 30 1 34 0;
#X connect 30 2 26 0;
#X connect 31 0 7 0;
#X connect 31 1 32 0;
#X connect 32 0 25 0;
#X connect 33 0 13 1;
#X connect 34 0 14 1;
#X connect 34 1 33 0;
