#N canvas 11 50 1009 687 10;
#X obj 132 65 inlet;
#X obj 130 130 unpack 1 2 3 4 5;
#X obj 130 332 pack 1 2 3 4 5;
#X obj 130 470 s 2screen;
#X obj 131 221 expr $f1 + $f5 \; $f2 + $f6 \; $f3 + $f5 \; $f4 + $f6
;
#X msg 129 371 /oled/gLine 3 \$1 \$2 \$3 \$4 \$5;
#X obj 566 70 inlet;
#X obj 497 70 inlet;
#X connect 0 0 1 0;
#X connect 1 0 4 0;
#X connect 1 1 4 1;
#X connect 1 2 4 2;
#X connect 1 3 4 3;
#X connect 1 4 2 4;
#X connect 2 0 5 0;
#X connect 4 0 2 0;
#X connect 4 1 2 1;
#X connect 4 2 2 2;
#X connect 4 3 2 3;
#X connect 5 0 3 0;
#X connect 6 0 4 5;
#X connect 7 0 4 4;
