#N canvas 11 50 1009 687 10;
#X obj 131 221 expr $f1 + $f3 \; $f2 + $f4;
#X obj 132 65 inlet;
#X obj 130 130 unpack 1 2 3 4 5;
#X obj 131 285 pack 1 2 3 4 5;
#X msg 132 324 /oled/gFillArea 3 \$1 \$2 \$3 \$4 \$5;
#X obj 131 423 s 2screen;
#X obj 383 62 inlet;
#X obj 314 62 inlet;
#X connect 0 0 3 0;
#X connect 0 1 3 1;
#X connect 1 0 2 0;
#X connect 2 0 0 0;
#X connect 2 1 0 1;
#X connect 2 2 3 2;
#X connect 2 3 3 3;
#X connect 2 4 3 4;
#X connect 3 0 4 0;
#X connect 4 0 5 0;
#X connect 6 0 0 3;
#X connect 7 0 0 2;
