#N canvas 631 276 1043 682 10;
#X obj -743 -368 sel 1;
#X msg -1006 -55 start;
#X msg -958 -56 stop;
#X obj -467 -312 t b b b;
#X obj -467 116 *~ 441000;
#X floatatom -396 115 10 0 0 0 - - -;
#X obj -396 91 * 44100;
#X floatatom -467 -132 5 0 0 0 - - -;
#X obj -467 -156 expr 1 / $f2;
#X obj -506 179 *~;
#X obj 106 143 hsl 100 15 0 1 0 0 empty empty empty -2 -8 0 10 -262144
-1 -1 0 1;
#X obj -355 -12 snapshot~;
#X obj -306 -39 bang~;
#X floatatom -284 -10 10 0 0 0 - - -;
#X obj -574 63 *~ 441;
#X obj -1054 -476 inlet~;
#X obj -730 -777 inlet;
#X obj -475 353 outlet~;
#X obj -1057 -11 tabwrite~ \$0-array;
#X obj -467 155 tabread~ \$0-array;
#X obj -396 68 r \$0-loopSize;
#X obj 196 -417 clip~ 0 1;
#X obj 195 -504 vline~;
#X msg 195 -527 -0.25 \, 0.25 10;
#X obj 195 -480 cos~;
#X obj 196 -441 *~ 3;
#X floatatom 267 -660 5 0 0 0 - - -;
#X text 305 -660 higher values shorten ramps;
#X obj 157 -569 bng 15 250 50 0 empty empty empty 17 7 0 10 -262144
-1 -1;
#X text 185 -569 make crown;
#N canvas 0 0 450 300 (subpatch) 0;
#X array \$0-crown 441 float 1;
#A 0 0.427933 0.855332 1 1 1 1 1 1 1 1 1 1 1 1 1 1 1 1 1 1 1 1 1 1
1 1 1 1 1 1 1 1 1 1 1 1 1 1 1 1 1 1 1 1 1 1 1 1 1 1 1 1 1 1 1 1 1 1
1 1 1 1 1 1 1 1 1 1 1 1 1 1 1 1 1 1 1 1 1 1 1 1 1 1 1 1 1 1 1 1 1 1
1 1 1 1 1 1 1 1 1 1 1 1 1 1 1 1 1 1 1 1 1 1 1 1 1 1 1 1 1 1 1 1 1 1
1 1 1 1 1 1 1 1 1 1 1 1 1 1 1 1 1 1 1 1 1 1 1 1 1 1 1 1 1 1 1 1 1 1
1 1 1 1 1 1 1 1 1 1 1 1 1 1 1 1 1 1 1 1 1 1 1 1 1 1 1 1 1 1 1 1 1 1
1 1 1 1 1 1 1 1 1 1 1 1 1 1 1 1 1 1 1 1 1 1 1 1 1 1 1 1 1 1 1 1 1 1
1 1 1 1 1 1 1 1 1 1 1 1 1 1 1 1 1 1 1 1 1 1 1 1 1 1 1 1 1 1 1 1 1 1
1 1 1 1 1 1 1 1 1 1 1 1 1 1 1 1 1 1 1 1 1 1 1 1 1 1 1 1 1 1 1 1 1 1
1 1 1 1 1 1 1 1 1 1 1 1 1 1 1 1 1 1 1 1 1 1 1 1 1 1 1 1 1 1 1 1 1 1
1 1 1 1 1 1 1 1 1 1 1 1 1 1 1 1 1 1 1 1 1 1 1 1 1 1 1 1 1 1 1 1 1 1
1 1 1 1 1 1 1 1 1 1 1 1 1 1 1 1 1 1 1 1 1 1 1 1 1 1 1 1 1 1 1 1 1 1
1 1 1 1 1 1 1 1 1 1 1 1 1 1 1 1 1 1 1 1 1 1 1 1 1 1 1 1 1 1 1 1 1 1
1 1 1 1 1 1 0.854821 0.427422 4.52987e-006;
#X coords 0 1 440 0 200 140 1 0 0;
#X restore 316 -499 graph;
#X obj 266 -625 t b f;
#X obj 196 -379 tabwrite~ \$0-crown;
#X obj -575 90 tabread4~ \$0-crown;
#X obj -346 225 line~;
#X obj -497 254 *~;
#X obj 260 59 r bigbang;
#X msg 260 80 1;
#X obj -670 -532 r tick;
#X obj -670 -511 bng 15 250 50 0 empty empty empty 17 7 0 10 -262144
-1 -1;
#X obj -744 -405 i;
#X obj -776 -557 change;
#X obj -670 -491 t b b;
#X obj -776 -536 t b f;
#X obj -746 -430 spigot;
#X msg -656 -448 1, f 2;
#X msg -685 -449 0;
#X floatatom -700 -716 5 0 0 0 - - -;
#X msg -346 204 \$1 100;
#X obj 198 105 vsl 10 32 0 1 0 0 empty empty empty 0 -9 0 10 -262144
-1 -1 3100 1;
#X obj -700 -696 s \$0-vol;
#X obj 193 48 r \$0-vol;
#X floatatom -519 -774 5 0 0 0 - - -;
#X obj 103 103 tgl 10 0 empty empty empty 17 7 0 10 -66577 -1 -1 1
1;
#X obj -519 -754 s \$0-selected;
#X obj 160 -158 r \$0-selected;
#X obj -144 -116 sel 1;
#X msg -141 -54 color 2;
#X msg -56 -54 color 0;
#X obj -408 -119 r \$0-resetPhase;
#X msg -408 -98 0;
#X obj -727 -286 s \$0-color;
#X obj 61 -71 r \$0-color;
#X msg 61 -50 color \$1;
#X msg -727 -305 13;
#X msg -695 -304 16;
#X obj -529 -414 i;
#X obj -503 -414 + 1;
#X obj -529 -454 spigot;
#X msg -495 -474 1;
#X floatatom -529 -393 5 0 0 0 - - -;
#X obj -486 -508 b;
#X msg -458 -473 0;
#X obj -529 -373 s \$0-beats;
#X obj 166 -55 r \$0-beats;
#X floatatom 103 125 2 0 0 1 beats - -;
#X msg -512 -435 1;
#X obj -641 -628 s \$0-clear;
#X obj -346 -763 r \$0-clear;
#X obj -562 -165 r \$0-clear;
#X obj -131 -77 r \$0-clear;
#X obj -218 -638 s \$0-beats;
#X msg -219 -657 0;
#X msg -344 -656 \; \$0-array const 0;
#X obj -729 -757 route record volume clear index;
#X obj -582 -696 s \$0-index;
#X floatatom -583 -716 5 0 0 0 - - -;
#X floatatom 118 103 2 0 0 0 - - -;
#X obj 171 17 r \$0-index;
#X obj 104 457 s loopData;
#X obj 103 397 list prepend;
#X msg 67 239 beats \$1;
#X msg -9 240 pos \$1;
#X msg 160 239 vol \$1;
#X msg 259 240 selected \$1;
#X obj -838 -698 s \$0-rec;
#X obj 368 219 r \$0-rec;
#X msg 368 240 rec \$1;
#X obj -360 -473 r \$0-beats;
#X floatatom -360 -390 5 0 0 0 - - -;
#X floatatom -352 -239 10 0 0 0 - - -;
#X obj -201 -510 r beatSize;
#X floatatom -202 -381 5 0 0 0 - - -;
#X obj -352 -213 s \$0-loopSize;
#X obj -1006 -320 b;
#X msg -561 -100 0;
#X obj -467 -47 phasor~;
#X obj 512 -26 inlet;
#X floatatom -87 -276 5 0 0 0 - - -;
#X obj -360 -370 t b f;
#X obj -352 -264 expr $f2 * $f3;
#X obj -155 -210 bng 15 250 50 0 empty empty empty 17 7 0 10 -262144
-1 -1;
#X text -280 -240 segundos;
#X obj -201 -489 t f f;
#X obj -202 -417 spigot;
#X obj -107 -416 spigot;
#X msg -927 -703 0;
#X floatatom -86 -381 5 0 0 0 - - -;
#X obj -202 -357 t b f;
#X obj -87 -188 t b f;
#X obj -91 -688 loadbang;
#X floatatom -157 -418 5 0 0 0 - - -;
#X obj -111 -510 r \$0-isClean;
#X obj -132 -639 s \$0-isClean;
#X obj -927 -683 s \$0-isClean;
#X floatatom -64 -417 5 0 0 0 - - -;
#X obj -75 -466 != 1;
#X msg -132 -659 1;
#X obj -87 -299 expr ($f2 * ($f1 * $f2)) / $f2;
#X text -51 -274 segundos;
#X obj -346 -701 bng 15 250 50 0 empty empty empty 17 7 0 10 -262144
-1 -1;
#X obj -623 -659 r cleanAll;
#X floatatom -703 -429 5 0 0 0 - - -;
#X obj -562 -144 t b b;
#X obj -845 -286 s \$0-clear;
#X obj 324 -558 table \$0-array;
#X obj 574 -602 i;
#X obj 603 -603 r memorySize;
#X floatatom 573 -528 15 0 0 0 - - -;
#X floatatom 574 -576 5 0 0 0 - - -;
#X obj 573 -471 s \$0-array;
#X msg 573 -495 resize \$1;
#X obj 575 -550 * 44100;
#X obj 575 -653 r latebang;
#X msg 267 -701 60;
#X obj -451 -647 s stopCleanMsg;
#X connect 0 0 64 0;
#X connect 0 0 71 0;
#X connect 0 0 104 0;
#X connect 0 0 134 0;
#X connect 0 1 3 0;
#X connect 0 1 65 0;
#X connect 0 1 72 0;
#X connect 1 0 18 0;
#X connect 2 0 18 0;
#X connect 3 0 8 0;
#X connect 3 2 2 0;
#X connect 4 0 19 0;
#X connect 5 0 4 1;
#X connect 6 0 5 0;
#X connect 7 0 106 0;
#X connect 8 0 7 0;
#X connect 9 0 35 0;
#X connect 10 0 92 0;
#X connect 11 0 13 0;
#X connect 12 0 11 0;
#X connect 13 0 10 0;
#X connect 14 0 33 0;
#X connect 15 0 18 0;
#X connect 15 0 35 0;
#X connect 16 0 84 0;
#X connect 19 0 9 1;
#X connect 20 0 6 0;
#X connect 21 0 32 0;
#X connect 22 0 24 0;
#X connect 23 0 22 0;
#X connect 24 0 25 0;
#X connect 25 0 21 0;
#X connect 26 0 31 0;
#X connect 28 0 23 0;
#X connect 28 0 32 0;
#X connect 31 0 28 0;
#X connect 31 1 25 1;
#X connect 33 0 9 0;
#X connect 34 0 35 1;
#X connect 35 0 17 0;
#X connect 36 0 37 0;
#X connect 37 0 49 0;
#X connect 38 0 39 0;
#X connect 39 0 42 0;
#X connect 40 0 0 0;
#X connect 41 0 43 0;
#X connect 42 0 46 0;
#X connect 42 1 44 0;
#X connect 42 1 68 0;
#X connect 43 0 45 0;
#X connect 43 1 40 1;
#X connect 44 0 40 0;
#X connect 45 0 132 0;
#X connect 46 0 132 0;
#X connect 47 0 50 0;
#X connect 48 0 34 0;
#X connect 49 0 48 0;
#X connect 49 0 93 0;
#X connect 51 0 49 0;
#X connect 52 0 54 0;
#X connect 53 0 94 0;
#X connect 55 0 56 0;
#X connect 55 0 53 0;
#X connect 56 0 57 0;
#X connect 56 1 58 0;
#X connect 57 0 53 0;
#X connect 58 0 53 0;
#X connect 59 0 60 0;
#X connect 60 0 106 1;
#X connect 62 0 63 0;
#X connect 63 0 53 0;
#X connect 64 0 61 0;
#X connect 65 0 61 0;
#X connect 66 0 67 0;
#X connect 66 0 70 0;
#X connect 67 0 66 1;
#X connect 68 0 66 0;
#X connect 69 0 68 1;
#X connect 70 0 73 0;
#X connect 71 0 69 0;
#X connect 71 0 76 0;
#X connect 72 0 68 1;
#X connect 74 0 75 0;
#X connect 75 0 91 0;
#X connect 76 0 66 1;
#X connect 78 0 130 0;
#X connect 79 0 133 0;
#X connect 80 0 57 0;
#X connect 82 0 81 0;
#X connect 84 0 41 0;
#X connect 84 0 95 0;
#X connect 84 0 116 0;
#X connect 84 1 47 0;
#X connect 84 2 77 0;
#X connect 84 3 86 0;
#X connect 84 4 52 0;
#X connect 86 0 85 0;
#X connect 87 0 90 1;
#X connect 88 0 87 0;
#X connect 90 0 89 0;
#X connect 91 0 90 0;
#X connect 92 0 90 0;
#X connect 93 0 90 0;
#X connect 94 0 90 0;
#X connect 96 0 97 0;
#X connect 97 0 90 0;
#X connect 98 0 99 0;
#X connect 99 0 109 0;
#X connect 100 0 103 0;
#X connect 100 0 8 1;
#X connect 101 0 113 0;
#X connect 102 0 118 0;
#X connect 104 0 1 0;
#X connect 105 0 106 0;
#X connect 106 0 4 0;
#X connect 106 0 11 0;
#X connect 106 0 14 0;
#X connect 107 0 49 0;
#X connect 108 0 119 0;
#X connect 109 0 110 0;
#X connect 109 1 110 1;
#X connect 109 1 128 1;
#X connect 110 0 100 0;
#X connect 111 0 8 0;
#X connect 113 0 114 0;
#X connect 113 1 115 0;
#X connect 114 0 102 0;
#X connect 115 0 117 0;
#X connect 116 0 124 0;
#X connect 117 0 128 0;
#X connect 118 0 110 0;
#X connect 118 1 110 2;
#X connect 119 0 111 0;
#X connect 119 1 8 1;
#X connect 120 0 127 0;
#X connect 122 0 114 1;
#X connect 122 0 121 0;
#X connect 122 0 126 0;
#X connect 126 0 115 1;
#X connect 126 0 125 0;
#X connect 127 0 123 0;
#X connect 128 0 108 0;
#X connect 130 0 83 0;
#X connect 130 0 127 0;
#X connect 130 0 82 0;
#X connect 130 0 145 0;
#X connect 131 0 77 0;
#X connect 132 0 44 1;
#X connect 133 0 105 0;
#X connect 133 1 60 0;
#X connect 136 0 139 0;
#X connect 137 0 136 1;
#X connect 138 0 141 0;
#X connect 139 0 142 0;
#X connect 141 0 140 0;
#X connect 142 0 138 0;
#X connect 143 0 136 0;
#X connect 144 0 26 0;
#X coords 0 -1 1 1 110 60 2 100 100;
