#N canvas 531 307 280 173 12;
#N canvas 985 171 710 565 screen 0;
#X obj 20 98 s refreshScreen;
#X obj 20 77 metro 120;
#N canvas 494 308 913 475 screen_init 0;
#X msg 47 179 /oled/gFlip 3;
#X obj 134 18 r bigbang;
#X msg 375 159 /oled/gShowInfoBar 3 0;
#X obj 47 205 s 2screen;
#X obj 375 180 s 2screen;
#X obj 247 183 s 2screen;
#X obj 113 29 bng 15 250 50 0 empty empty empty 17 7 0 10 -262144 -1
-1;
#X msg 248 160 /oled/gClear 3 1;
#X obj 16 12 r 2screen;
#X obj 16 36 s oscOut;
#X obj 134 51 t b b b b;
#X connect 0 0 3 0;
#X connect 1 0 10 0;
#X connect 2 0 4 0;
#X connect 6 0 10 0;
#X connect 7 0 5 0;
#X connect 8 0 9 0;
#X connect 10 0 0 0;
#X connect 10 2 7 0;
#X connect 10 3 2 0;
#X restore 13 9 pd screen_init;
#X obj 288 57 r refreshScreen;
#X obj 465 79 r scene;
#X obj 288 101 i;
#X obj 288 78 bang;
#X obj 288 198 sel 1 2;
#N canvas 149 56 1652 985 looper_oled 0;
#X msg -28 262 /oled/gFlip 3;
#X obj -28 288 s 2screen;
#X obj 320 176 t b b b b b;
#X obj 322 56 inlet;
#X obj 914 225 spigot;
#X msg 947 202 1;
#X msg 963 225 0;
#X obj 1127 307 s 2screen;
#X msg 1127 286 /oled/gClear 3 1;
#X obj 914 246 t b b b;
#X obj 947 160 r scene;
#X obj 5 615 loop_gfx;
#X obj 227 476 r loopData;
#X obj 63 615 loop_gfx;
#X obj 123 614 loop_gfx;
#X obj 183 614 loop_gfx;
#X msg 5 553 \$1 \$1;
#X obj 5 574 route 1 2 3 4;
#X obj 226 496 route 1 2 3 4;
#X obj 416 603 r bmpBarSelected;
#X obj 385 631 spigot;
#X obj 399 904 s 2screen;
#X obj 360 690 bng 15 250 50 0 empty empty empty 17 7 0 10 -262144
-1 -1;
#X msg 429 843 /oled/gLine 3 6 9 8 7 0;
#X msg 429 823 /oled/gLine 3 5 9 7 7 0;
#X msg 429 803 /oled/gLine 3 5 8 6 7 0;
#X msg 431 733 /oled/gLine 3 6 3 9 6 0;
#X msg 429 754 /oled/gLine 3 5 3 8 6 0;
#X msg 430 775 /oled/gLine 3 5 4 7 6 0;
#X obj 605 289 r isRecording;
#X obj 486 499 t b b;
#X obj 499 344 spigot;
#X obj 594 342 spigot;
#X floatatom 641 344 5 0 0 0 - - -;
#X floatatom 541 345 5 0 0 0 - - -;
#X obj 605 310 == 0;
#X obj 596 403 s 2screen;
#X msg 896 335 /oled/gFillArea 3 0 0 128 13 1;
#X obj 896 356 s 2screen;
#X msg 596 382 /oled/gPrintln 3 32 3 8 0 *RECORDING*;
#X obj 612 446 r isCleaning;
#X obj 573 446 == 0;
#X obj 598 524 s 2screen;
#X obj 536 285 t b b;
#X obj 499 435 t b b;
#X obj 568 467 spigot;
#X obj 499 466 spigot;
#X msg 598 502 /oled/gPrintln 3 32 3 8 0 CLEANING...;
#X obj 725 308 loadbang;
#X msg 725 329 0;
#X obj 1267 865 s 2screen;
#X obj 1262 651 r bpm;
#X obj 1238 681 i;
#X obj 641 899 s 2screen;
#X obj 759 810 r tickVol;
#X obj 1268 786 pack;
#X obj 1320 678 r bmpBarSelected;
#X obj 1320 699 sel 0 1;
#X msg 1324 741 3;
#X obj 644 826 f;
#X obj 643 846 expr int($f1*100);
#X msg 641 874 /oled/gPrintln 3 107 3 8 0 \$1;
#X msg 1359 743 14;
#X obj 844 644 t b b b b;
#X obj 1102 925 s 2screen;
#X obj 1105 850 f;
#X msg 1269 840 /oled/gPrintln 3 \$2 3 8 0 BPM:\$1;
#X obj 868 928 s 2screen;
#X obj 871 853 f;
#X obj 1106 872 expr int($f1*9);
#X obj 871 875 expr int($f1*9);
#X floatatom 909 837 5 0 0 0 - - -;
#X floatatom 1137 833 5 0 0 0 - - -;
#X obj 30 472 until;
#X obj 30 493 i;
#X obj 61 493 + 1;
#X msg 30 447 4;
#X obj 44 395 t b b;
#X msg 87 432 1;
#X obj 1150 762 r looperfx1;
#X obj 909 815 r looperfx2;
#X msg 1104 899 /oled/gPrintln 3 61 3 8 0 Ch\$1;
#X msg 869 902 /oled/gPrintln 3 83 3 8 0 Rb\$1;
#X connect 0 0 1 0;
#X connect 2 0 0 0;
#X connect 2 1 77 0;
#X connect 2 2 43 0;
#X connect 2 3 37 0;
#X connect 2 4 4 0;
#X connect 3 0 2 0;
#X connect 4 0 6 0;
#X connect 4 0 9 0;
#X connect 5 0 4 1;
#X connect 6 0 4 1;
#X connect 8 0 7 0;
#X connect 9 2 8 0;
#X connect 10 0 5 0;
#X connect 12 0 18 0;
#X connect 16 0 17 0;
#X connect 17 0 11 0;
#X connect 17 1 13 0;
#X connect 17 2 14 0;
#X connect 17 3 15 0;
#X connect 18 0 11 1;
#X connect 18 1 13 1;
#X connect 18 2 14 1;
#X connect 18 3 15 1;
#X connect 19 0 20 1;
#X connect 20 0 22 0;
#X connect 20 0 26 0;
#X connect 20 0 23 0;
#X connect 20 0 24 0;
#X connect 20 0 27 0;
#X connect 20 0 25 0;
#X connect 20 0 28 0;
#X connect 23 0 21 0;
#X connect 24 0 21 0;
#X connect 25 0 21 0;
#X connect 26 0 21 0;
#X connect 27 0 21 0;
#X connect 28 0 21 0;
#X connect 29 0 33 0;
#X connect 29 0 35 0;
#X connect 30 0 20 0;
#X connect 30 1 63 0;
#X connect 31 0 44 0;
#X connect 32 0 39 0;
#X connect 33 0 32 1;
#X connect 34 0 31 1;
#X connect 35 0 34 0;
#X connect 37 0 38 0;
#X connect 39 0 36 0;
#X connect 40 0 41 0;
#X connect 40 0 45 1;
#X connect 41 0 46 1;
#X connect 43 0 31 0;
#X connect 43 1 32 0;
#X connect 44 0 46 0;
#X connect 44 1 45 0;
#X connect 45 0 47 0;
#X connect 46 0 30 0;
#X connect 47 0 42 0;
#X connect 48 0 49 0;
#X connect 49 0 35 0;
#X connect 49 0 41 0;
#X connect 51 0 52 1;
#X connect 52 0 55 0;
#X connect 54 0 59 1;
#X connect 55 0 66 0;
#X connect 56 0 57 0;
#X connect 57 0 58 0;
#X connect 57 1 62 0;
#X connect 58 0 55 1;
#X connect 59 0 60 0;
#X connect 60 0 61 0;
#X connect 61 0 53 0;
#X connect 62 0 55 1;
#X connect 63 0 59 0;
#X connect 63 1 68 0;
#X connect 63 2 65 0;
#X connect 63 3 52 0;
#X connect 65 0 69 0;
#X connect 66 0 50 0;
#X connect 68 0 70 0;
#X connect 69 0 81 0;
#X connect 70 0 82 0;
#X connect 73 0 74 0;
#X connect 74 0 75 0;
#X connect 74 0 16 0;
#X connect 75 0 74 1;
#X connect 76 0 73 0;
#X connect 77 0 76 0;
#X connect 77 1 78 0;
#X connect 78 0 74 1;
#X connect 79 0 72 0;
#X connect 79 0 65 1;
#X connect 80 0 68 1;
#X connect 80 0 71 0;
#X connect 81 0 64 0;
#X connect 82 0 67 0;
#X restore 311 326 pd looper_oled;
#X obj 465 143 s stopDelays;
#X obj 465 101 bng 15 250 50 0 empty empty empty 17 7 0 10 -262144
-1 -1;
#X msg 465 121 stop;
#X floatatom 318 101 5 0 0 0 - - -;
#X obj 20 47 r lastbang;
#N canvas 484 146 1393 618 gabe_oled 0;
#N canvas 641 85 1158 955 gabe 0;
#X obj 365 66 inlet;
#X obj 364 90 t b b b;
#N canvas -7 0 1022 1060 body 0;
#X obj 123 160 t b b b;
#X obj 124 79 inlet;
#X floatatom 363 125 5 0 0 0 - - -;
#X floatatom 548 120 5 0 0 0 - - -;
#X obj 668 694 gfx_rec;
#X obj 303 688 gfx_line;
#X obj 117 685 gfx_pix;
#X msg 663 168 2 15 26 14 1;
#X msg 674 191 0 19 2 3 1;
#X msg 395 240 28 20 28 26 1;
#X msg 117 586 1 25 1;
#X msg 129 618 29 22 1;
#X msg 62 495 2 28 0;
#X msg 398 368 2 15 2 16 0;
#X msg 44 470 0 19 0;
#X msg 690 224 4 29 23 5 1;
#X msg 405 414 4 31 4 33 0;
#X msg 405 438 26 31 26 33 0;
#X msg 36 408 5 33 0;
#X msg 53 434 25 33 0;
#X msg 406 264 7 34 23 34 1;
#X msg 46 332 12 35 1;
#X msg 54 350 16 35 1;
#X msg 66 363 18 35 1;
#X msg 699 249 4 7 23 8 1;
#X msg 28 278 26 7 0;
#X msg 31 202 4 7 0;
#X msg 35 219 4 9 0;
#X msg 39 238 4 12 0;
#X msg 174 314 3 11 1;
#X msg 181 338 28 12 1;
#X msg 421 317 27 11 27 13 1;
#X msg 186 360 5 6 1;
#X msg 729 296 6 4 19 3 1;
#X msg 742 315 7 2 17 2 1;
#X obj 455 59 unpack;
#X obj 458 18 r gabeXY;
#X connect 0 1 12 0;
#X connect 0 1 13 0;
#X connect 0 1 14 0;
#X connect 0 1 16 0;
#X connect 0 1 17 0;
#X connect 0 1 18 0;
#X connect 0 1 19 0;
#X connect 0 1 25 0;
#X connect 0 1 26 0;
#X connect 0 1 28 0;
#X connect 0 1 27 0;
#X connect 0 2 7 0;
#X connect 0 2 9 0;
#X connect 0 2 8 0;
#X connect 0 2 11 0;
#X connect 0 2 10 0;
#X connect 0 2 15 0;
#X connect 0 2 20 0;
#X connect 0 2 21 0;
#X connect 0 2 23 0;
#X connect 0 2 22 0;
#X connect 0 2 24 0;
#X connect 0 2 29 0;
#X connect 0 2 30 0;
#X connect 0 2 31 0;
#X connect 0 2 32 0;
#X connect 0 2 33 0;
#X connect 0 2 34 0;
#X connect 1 0 0 0;
#X connect 2 0 5 1;
#X connect 2 0 6 1;
#X connect 2 0 4 1;
#X connect 3 0 5 2;
#X connect 3 0 6 2;
#X connect 3 0 4 2;
#X connect 7 0 4 0;
#X connect 8 0 4 0;
#X connect 9 0 5 0;
#X connect 10 0 6 0;
#X connect 11 0 6 0;
#X connect 12 0 6 0;
#X connect 13 0 5 0;
#X connect 14 0 6 0;
#X connect 15 0 4 0;
#X connect 16 0 5 0;
#X connect 17 0 5 0;
#X connect 18 0 6 0;
#X connect 19 0 6 0;
#X connect 20 0 5 0;
#X connect 21 0 6 0;
#X connect 22 0 6 0;
#X connect 23 0 6 0;
#X connect 24 0 4 0;
#X connect 25 0 6 0;
#X connect 26 0 6 0;
#X connect 27 0 6 0;
#X connect 28 0 6 0;
#X connect 29 0 6 0;
#X connect 30 0 6 0;
#X connect 31 0 5 0;
#X connect 32 0 6 0;
#X connect 33 0 4 0;
#X connect 34 0 4 0;
#X connect 35 0 2 0;
#X connect 35 1 3 0;
#X connect 36 0 35 0;
#X restore 668 321 pd body;
#X obj 864 226 s gabeXY;
#X obj 381 320 t b b b b b b;
#N canvas 0 50 1126 699 ears_compo 0;
#X obj 653 514 i;
#X obj 654 536 route 0 1;
#X obj 725 191 bng 30 250 50 0 empty empty empty 17 7 0 10 -262144
-1 -1;
#X msg 835 412 1;
#X msg 781 416 0;
#X obj 828 294 r blink;
#X msg 779 370 \$1;
#X obj 781 392 delay;
#X obj 779 346 t f b;
#X msg 725 226 100;
#X floatatom 725 121 5 0 0 0 - - -;
#X obj 724 50 loadbang;
#X obj 703 50 bng 15 250 50 0 empty empty empty 17 7 0 10 -262144 -1
-1;
#X obj 725 74 metro 300;
#X obj 725 144 == 0;
#X obj 725 168 sel 1;
#X obj 725 250 spigot;
#X obj 779 231 == 0;
#X obj 725 97 random 8;
#N canvas -7 0 1022 1060 ears 0;
#X obj 123 160 t b b b;
#X obj 124 79 inlet;
#X floatatom 363 125 5 0 0 0 - - -;
#X floatatom 548 120 5 0 0 0 - - -;
#X obj 668 694 gfx_rec;
#X obj 303 688 gfx_line;
#X obj 117 685 gfx_pix;
#X obj 455 59 unpack;
#X obj 460 18 r gabeXY;
#X msg 136 354 9 0 11 0 1;
#X msg 249 353 19 0 21 0 1;
#X msg 134 382 8 1 12 1 1;
#X msg 250 380 18 1 22 1 1;
#X msg 685 214 7 0 17 2 0;
#X msg 92 436 23 2 1;
#X msg 83 416 7 2 1;
#X connect 0 0 15 0;
#X connect 0 0 14 0;
#X connect 0 1 9 0;
#X connect 0 1 12 0;
#X connect 0 1 11 0;
#X connect 0 1 10 0;
#X connect 0 2 13 0;
#X connect 1 0 0 0;
#X connect 2 0 5 1;
#X connect 2 0 6 1;
#X connect 2 0 4 1;
#X connect 3 0 5 2;
#X connect 3 0 6 2;
#X connect 3 0 4 2;
#X connect 7 0 2 0;
#X connect 7 1 3 0;
#X connect 8 0 7 0;
#X connect 9 0 5 0;
#X connect 10 0 5 0;
#X connect 11 0 5 0;
#X connect 12 0 5 0;
#X connect 13 0 4 0;
#X connect 14 0 6 0;
#X connect 15 0 6 0;
#X restore 575 636 pd ears;
#X obj 328 65 inlet;
#N canvas -7 0 1022 1060 ears_1 0;
#X obj 123 160 t b b b;
#X obj 124 79 inlet;
#X floatatom 363 125 5 0 0 0 - - -;
#X floatatom 548 120 5 0 0 0 - - -;
#X obj 668 694 gfx_rec;
#X obj 303 688 gfx_line;
#X obj 117 685 gfx_pix;
#X obj 455 59 unpack;
#X obj 460 18 r gabeXY;
#X msg 685 214 7 0 17 2 0;
#X msg 136 355 10 0 12 0 1;
#X msg 134 382 9 1 13 1 1;
#X msg 249 353 18 0 20 0 1;
#X msg 250 380 17 1 21 1 1;
#X msg 83 416 7 2 0;
#X msg 92 436 23 2 0;
#X connect 0 0 14 0;
#X connect 0 0 15 0;
#X connect 0 1 10 0;
#X connect 0 1 13 0;
#X connect 0 1 11 0;
#X connect 0 1 12 0;
#X connect 0 2 9 0;
#X connect 1 0 0 0;
#X connect 2 0 5 1;
#X connect 2 0 6 1;
#X connect 2 0 4 1;
#X connect 3 0 5 2;
#X connect 3 0 6 2;
#X connect 3 0 4 2;
#X connect 7 0 2 0;
#X connect 7 1 3 0;
#X connect 8 0 7 0;
#X connect 9 0 4 0;
#X connect 10 0 5 0;
#X connect 11 0 5 0;
#X connect 12 0 5 0;
#X connect 13 0 5 0;
#X connect 14 0 6 0;
#X connect 15 0 6 0;
#X restore 690 636 pd ears_1;
#X obj 878 345 r stopDelays;
#X obj 588 228 r isHowling;
#X obj 747 480 spigot;
#X obj 587 279 == 0;
#X msg 631 304 1;
#X obj 631 280 sel 1 0;
#X msg 663 304 0;
#X connect 0 0 1 0;
#X connect 0 0 17 0;
#X connect 1 0 19 0;
#X connect 1 1 21 0;
#X connect 2 0 9 0;
#X connect 3 0 24 0;
#X connect 4 0 24 0;
#X connect 5 0 8 0;
#X connect 6 0 7 0;
#X connect 7 0 4 0;
#X connect 8 0 6 0;
#X connect 8 1 3 0;
#X connect 9 0 16 0;
#X connect 10 0 14 0;
#X connect 11 0 13 0;
#X connect 12 0 13 0;
#X connect 13 0 18 0;
#X connect 14 0 15 0;
#X connect 15 0 2 0;
#X connect 16 0 8 0;
#X connect 17 0 16 1;
#X connect 18 0 10 0;
#X connect 20 0 0 0;
#X connect 22 0 7 0;
#X connect 23 0 25 0;
#X connect 23 0 27 0;
#X connect 24 0 0 1;
#X connect 25 0 24 1;
#X connect 26 0 0 1;
#X connect 27 0 26 0;
#X connect 27 1 28 0;
#X connect 28 0 0 1;
#X restore 689 617 pd ears_compo;
#N canvas 0 50 1565 699 paws_compo 0;
#X obj 653 514 i;
#X obj 647 160 bng 30 250 50 0 empty empty empty 17 7 0 10 -262144
-1 -1;
#X floatatom 702 81 5 0 0 0 - - -;
#X obj 701 10 loadbang;
#X obj 680 10 bng 15 250 50 0 empty empty empty 17 7 0 10 -262144 -1
-1;
#X obj 702 34 metro 300;
#X obj 702 104 == 0;
#X obj 702 128 sel 1;
#X obj 702 210 spigot;
#X obj 756 191 == 0;
#X obj 328 65 inlet;
#N canvas -7 0 1022 1060 paws 0;
#X obj 123 160 t b b b;
#X obj 124 79 inlet;
#X floatatom 363 125 5 0 0 0 - - -;
#X floatatom 548 120 5 0 0 0 - - -;
#X obj 668 694 gfx_rec;
#X obj 303 688 gfx_line;
#X obj 117 685 gfx_pix;
#X obj 455 59 unpack;
#X obj 459 18 r gabeXY;
#X msg 712 256 7 36 17 4 0;
#X msg 467 375 8 35 4 4 1;
#X msg 491 411 9 39 2 1 1;
#X msg 583 376 19 35 4 4 1;
#X msg 587 415 20 39 2 1 1;
#X connect 0 1 10 0;
#X connect 0 1 13 0;
#X connect 0 1 12 0;
#X connect 0 1 11 0;
#X connect 0 2 9 0;
#X connect 1 0 0 0;
#X connect 2 0 5 1;
#X connect 2 0 6 1;
#X connect 2 0 4 1;
#X connect 3 0 5 2;
#X connect 3 0 6 2;
#X connect 3 0 4 2;
#X connect 7 0 2 0;
#X connect 7 1 3 0;
#X connect 8 0 7 0;
#X connect 9 0 4 0;
#X connect 10 0 4 0;
#X connect 11 0 4 0;
#X connect 12 0 4 0;
#X connect 13 0 4 0;
#X restore 602 630 pd paws;
#N canvas -7 0 1022 1060 paws_1 0;
#X obj 123 160 t b b b;
#X obj 124 79 inlet;
#X floatatom 363 125 5 0 0 0 - - -;
#X floatatom 548 120 5 0 0 0 - - -;
#X obj 668 694 gfx_rec;
#X obj 303 688 gfx_line;
#X obj 117 685 gfx_pix;
#X obj 455 59 unpack;
#X obj 459 18 r gabeXY;
#X msg 712 256 7 36 17 4 0;
#X msg 552 347 19 35 4 4 1;
#X msg 567 389 20 39 2 1 1;
#X msg 445 345 8 34 4 4 1;
#X msg 470 388 9 38 2 1 1;
#X connect 0 1 12 0;
#X connect 0 1 11 0;
#X connect 0 1 10 0;
#X connect 0 1 13 0;
#X connect 0 2 9 0;
#X connect 1 0 0 0;
#X connect 2 0 5 1;
#X connect 2 0 6 1;
#X connect 2 0 4 1;
#X connect 3 0 5 2;
#X connect 3 0 6 2;
#X connect 3 0 4 2;
#X connect 7 0 2 0;
#X connect 7 1 3 0;
#X connect 8 0 7 0;
#X connect 9 0 4 0;
#X connect 10 0 4 0;
#X connect 11 0 4 0;
#X connect 12 0 4 0;
#X connect 13 0 4 0;
#X restore 686 630 pd paws_1;
#N canvas -7 0 1022 1060 paws_2 0;
#X obj 123 160 t b b b;
#X obj 124 79 inlet;
#X floatatom 363 125 5 0 0 0 - - -;
#X floatatom 548 120 5 0 0 0 - - -;
#X obj 668 694 gfx_rec;
#X obj 303 688 gfx_line;
#X obj 117 685 gfx_pix;
#X obj 455 59 unpack;
#X obj 459 18 r gabeXY;
#X msg 712 256 7 36 17 4 0;
#X msg 445 345 8 35 4 4 1;
#X msg 470 388 9 39 2 1 1;
#X msg 552 347 19 34 4 4 1;
#X msg 567 390 20 38 2 1 1;
#X connect 0 1 10 0;
#X connect 0 1 13 0;
#X connect 0 1 12 0;
#X connect 0 1 11 0;
#X connect 0 2 9 0;
#X connect 1 0 0 0;
#X connect 2 0 5 1;
#X connect 2 0 6 1;
#X connect 2 0 4 1;
#X connect 3 0 5 2;
#X connect 3 0 6 2;
#X connect 3 0 4 2;
#X connect 7 0 2 0;
#X connect 7 1 3 0;
#X connect 8 0 7 0;
#X connect 9 0 4 0;
#X connect 10 0 4 0;
#X connect 11 0 4 0;
#X connect 12 0 4 0;
#X connect 13 0 4 0;
#X restore 764 630 pd paws_2;
#X obj 654 536 route 0 1 2;
#X obj 784 433 delay;
#X obj 784 359 * 1;
#X obj 839 433 delay;
#X obj 839 359 * 2;
#X obj 903 433 delay;
#X obj 903 359 * 3;
#X obj 731 431 delay;
#X msg 731 456 1;
#X obj 731 357 * 0;
#X msg 784 459 2;
#X msg 841 458 1;
#X msg 731 380 \$1;
#X msg 784 383 \$1;
#X msg 839 383 \$1;
#X msg 903 383 \$1;
#X msg 904 458 0;
#X msg 824 303 150;
#X obj 937 253 sel 0 1 2;
#X obj 1044 436 delay;
#X obj 1044 362 * 1;
#X obj 991 434 delay;
#X msg 991 459 1;
#X obj 991 360 * 0;
#X msg 991 383 \$1;
#X msg 1044 386 \$1;
#X msg 1015 321 150;
#X msg 1044 462 0;
#X obj 1184 440 delay;
#X obj 1184 366 * 1;
#X obj 1131 438 delay;
#X obj 1131 364 * 0;
#X msg 1131 387 \$1;
#X msg 1184 390 \$1;
#X msg 1155 325 150;
#X msg 1184 466 0;
#X msg 1131 463 2;
#X obj 933 218 random 3;
#X obj 702 57 random 10;
#X obj 1307 403 r stopDelays;
#X connect 0 0 9 0;
#X connect 0 0 14 0;
#X connect 1 0 8 0;
#X connect 2 0 6 0;
#X connect 3 0 5 0;
#X connect 4 0 5 0;
#X connect 5 0 52 0;
#X connect 6 0 7 0;
#X connect 7 0 8 0;
#X connect 8 0 51 0;
#X connect 9 0 8 1;
#X connect 10 0 0 0;
#X connect 14 0 11 0;
#X connect 14 1 12 0;
#X connect 14 2 13 0;
#X connect 15 0 24 0;
#X connect 16 0 27 0;
#X connect 17 0 25 0;
#X connect 18 0 28 0;
#X connect 19 0 30 0;
#X connect 20 0 29 0;
#X connect 21 0 22 0;
#X connect 22 0 0 1;
#X connect 23 0 26 0;
#X connect 24 0 0 1;
#X connect 25 0 0 1;
#X connect 26 0 21 0;
#X connect 27 0 15 0;
#X connect 28 0 17 0;
#X connect 29 0 19 0;
#X connect 30 0 0 1;
#X connect 31 0 18 0;
#X connect 31 0 23 0;
#X connect 31 0 20 0;
#X connect 31 0 16 0;
#X connect 32 0 31 0;
#X connect 32 1 40 0;
#X connect 32 2 48 0;
#X connect 33 0 41 0;
#X connect 34 0 39 0;
#X connect 35 0 36 0;
#X connect 36 0 0 1;
#X connect 37 0 38 0;
#X connect 38 0 35 0;
#X connect 39 0 33 0;
#X connect 40 0 37 0;
#X connect 40 0 34 0;
#X connect 41 0 0 1;
#X connect 42 0 49 0;
#X connect 43 0 47 0;
#X connect 44 0 50 0;
#X connect 45 0 46 0;
#X connect 46 0 44 0;
#X connect 47 0 42 0;
#X connect 48 0 45 0;
#X connect 48 0 43 0;
#X connect 49 0 0 1;
#X connect 50 0 0 1;
#X connect 51 0 32 0;
#X connect 52 0 2 0;
#X connect 53 0 42 0;
#X connect 53 0 44 0;
#X connect 53 0 35 0;
#X connect 53 0 33 0;
#X connect 53 0 21 0;
#X connect 53 0 19 0;
#X connect 53 0 17 0;
#X connect 53 0 15 0;
#X restore 424 632 pd paws_compo;
#X msg 640 197 1;
#X obj 596 243 spigot;
#X msg 596 291 0;
#X obj 640 173 r bigbang;
#X obj 726 173 r scene;
#X obj 726 197 sel 1;
#X obj 864 170 r bigbang;
#X obj 596 267 t b b;
#X msg 866 198 48 12;
#X obj 217 507 r isHowling;
#X obj 44 563 spigot;
#X obj 216 535 == 0;
#N canvas 446 147 1364 735 face 0;
#N canvas -7 0 1022 1060 eyes 0;
#X obj 123 160 t b b b;
#X obj 124 79 inlet;
#X floatatom 363 125 5 0 0 0 - - -;
#X floatatom 548 120 5 0 0 0 - - -;
#X obj 668 694 gfx_rec;
#X obj 303 688 gfx_line;
#X obj 117 685 gfx_pix;
#X obj 455 59 unpack;
#X obj 461 18 r faceXY;
#X msg 107 360 11 9 12 9 0;
#X msg 109 382 10 10 11 10 0;
#X msg 243 359 18 9 19 9 0;
#X msg 245 381 19 10 20 10 0;
#X msg 720 367 9 8 13 3 1;
#X connect 0 1 9 0;
#X connect 0 1 12 0;
#X connect 0 1 11 0;
#X connect 0 1 10 0;
#X connect 0 2 13 0;
#X connect 1 0 0 0;
#X connect 2 0 5 1;
#X connect 2 0 6 1;
#X connect 2 0 4 1;
#X connect 3 0 5 2;
#X connect 3 0 6 2;
#X connect 3 0 4 2;
#X connect 7 0 2 0;
#X connect 7 1 3 0;
#X connect 8 0 7 0;
#X connect 9 0 5 0;
#X connect 10 0 5 0;
#X connect 11 0 5 0;
#X connect 12 0 5 0;
#X connect 13 0 4 0;
#X restore 779 520 pd eyes;
#X obj 57 18 inlet;
#N canvas -7 0 1022 1060 nose 0;
#X obj 123 160 t b b b;
#X obj 124 79 inlet;
#X floatatom 363 125 5 0 0 0 - - -;
#X floatatom 548 120 5 0 0 0 - - -;
#X obj 668 694 gfx_rec;
#X obj 303 688 gfx_line;
#X obj 117 685 gfx_pix;
#X obj 455 59 unpack;
#X msg 820 326 14 11 3 2 0;
#X msg 103 446 15 13 0;
#X obj 460 17 r faceXY;
#X connect 0 2 8 0;
#X connect 0 2 9 0;
#X connect 1 0 0 0;
#X connect 2 0 5 1;
#X connect 2 0 6 1;
#X connect 2 0 4 1;
#X connect 3 0 5 2;
#X connect 3 0 6 2;
#X connect 3 0 4 2;
#X connect 7 0 2 0;
#X connect 7 1 3 0;
#X connect 8 0 4 0;
#X connect 9 0 6 0;
#X connect 10 0 7 0;
#X restore 106 133 pd nose;
#X obj 60 102 t b b b b;
#N canvas -7 0 1022 1060 mouth_close 0;
#X obj 123 160 t b b b;
#X obj 124 79 inlet;
#X floatatom 363 125 5 0 0 0 - - -;
#X floatatom 548 120 5 0 0 0 - - -;
#X obj 668 694 gfx_rec;
#X obj 303 688 gfx_line;
#X obj 117 685 gfx_pix;
#X obj 455 59 unpack;
#X msg 260 448 14 14 16 14 0;
#X msg 103 446 13 15 0;
#X msg 119 466 17 15 0;
#X obj 460 18 r faceXY;
#X msg 647 380 13 14 5 3 1;
#X connect 0 1 9 0;
#X connect 0 1 10 0;
#X connect 0 1 8 0;
#X connect 0 2 12 0;
#X connect 1 0 0 0;
#X connect 2 0 5 1;
#X connect 2 0 6 1;
#X connect 2 0 4 1;
#X connect 3 0 5 2;
#X connect 3 0 6 2;
#X connect 3 0 4 2;
#X connect 7 0 2 0;
#X connect 7 1 3 0;
#X connect 8 0 5 0;
#X connect 9 0 6 0;
#X connect 10 0 6 0;
#X connect 11 0 7 0;
#X connect 12 0 4 0;
#X restore 96 766 pd mouth_close;
#X obj 1119 138 r gabeXY;
#X obj 1119 162 unpack;
#X obj 1116 307 pack;
#X obj 1116 331 s faceXY;
#X obj 1096 239 +;
#X obj 1173 237 +;
#X floatatom 1207 236 5 0 0 0 - - -;
#X floatatom 1125 237 5 0 0 0 - - -;
#X obj 97 638 i;
#X obj 223 361 bng 30 250 50 0 empty empty empty 17 7 0 10 -262144
-1 -1;
#X msg 307 489 1;
#X msg 233 540 0;
#N canvas -7 0 1022 1060 mouth_open1 0;
#X obj 123 160 t b b b;
#X obj 124 79 inlet;
#X floatatom 363 125 5 0 0 0 - - -;
#X floatatom 548 120 5 0 0 0 - - -;
#X obj 668 694 gfx_rec;
#X obj 303 688 gfx_line;
#X obj 117 685 gfx_pix;
#X obj 455 59 unpack;
#X msg 261 456 14 14 16 14 0;
#X obj 460 18 r faceXY;
#X msg 284 491 13 15 17 15 0;
#X msg 647 380 13 14 5 3 1;
#X connect 0 1 8 0;
#X connect 0 1 10 0;
#X connect 0 2 11 0;
#X connect 1 0 0 0;
#X connect 2 0 5 1;
#X connect 2 0 6 1;
#X connect 2 0 4 1;
#X connect 3 0 5 2;
#X connect 3 0 6 2;
#X connect 3 0 4 2;
#X connect 7 0 2 0;
#X connect 7 1 3 0;
#X connect 8 0 5 0;
#X connect 9 0 7 0;
#X connect 10 0 5 0;
#X connect 11 0 4 0;
#X restore 214 767 pd mouth_open1;
#X obj 507 316 bng 30 250 50 0 empty empty empty 17 7 0 10 -262144
-1 -1;
#X msg 529 488 0;
#X msg 604 465 2;
#X obj 97 676 route 0 1 2;
#N canvas -7 0 1022 1060 mouth_open2 0;
#X obj 123 160 t b b b;
#X obj 124 79 inlet;
#X floatatom 363 125 5 0 0 0 - - -;
#X floatatom 548 120 5 0 0 0 - - -;
#X obj 668 694 gfx_rec;
#X obj 303 688 gfx_line;
#X obj 117 685 gfx_pix;
#X obj 455 59 unpack;
#X msg 261 456 14 14 16 14 0;
#X obj 460 18 r faceXY;
#X msg 284 491 13 15 17 15 0;
#X msg 115 441 13 16 0;
#X msg 123 466 17 16 0;
#X msg 647 380 13 14 5 3 1;
#X connect 0 1 8 0;
#X connect 0 1 10 0;
#X connect 0 1 11 0;
#X connect 0 1 12 0;
#X connect 0 2 13 0;
#X connect 1 0 0 0;
#X connect 2 0 5 1;
#X connect 2 0 6 1;
#X connect 2 0 4 1;
#X connect 3 0 5 2;
#X connect 3 0 6 2;
#X connect 3 0 4 2;
#X connect 7 0 2 0;
#X connect 7 1 3 0;
#X connect 8 0 5 0;
#X connect 9 0 7 0;
#X connect 10 0 5 0;
#X connect 11 0 6 0;
#X connect 12 0 6 0;
#X connect 13 0 4 0;
#X restore 335 766 pd mouth_open2;
#X obj 660 412 s blink;
#X obj 779 397 i;
#X obj 780 419 route 0 1;
#N canvas -7 0 1022 1060 eyes_closed 0;
#X obj 123 160 t b b b;
#X obj 124 79 inlet;
#X floatatom 363 125 5 0 0 0 - - -;
#X floatatom 548 120 5 0 0 0 - - -;
#X obj 668 694 gfx_rec;
#X obj 303 688 gfx_line;
#X obj 117 685 gfx_pix;
#X obj 455 59 unpack;
#X obj 461 18 r faceXY;
#X msg 107 360 11 9 12 9 0;
#X msg 243 359 18 9 19 9 0;
#X msg 720 367 9 8 13 3 1;
#X msg 72 397 10 10 0;
#X msg 215 394 20 10 0;
#X connect 0 1 9 0;
#X connect 0 1 13 0;
#X connect 0 1 10 0;
#X connect 0 1 12 0;
#X connect 0 2 11 0;
#X connect 1 0 0 0;
#X connect 2 0 4 1;
#X connect 2 0 5 1;
#X connect 2 0 6 1;
#X connect 3 0 4 2;
#X connect 3 0 5 2;
#X connect 3 0 6 2;
#X connect 7 0 2 0;
#X connect 7 1 3 0;
#X connect 8 0 7 0;
#X connect 9 0 5 0;
#X connect 10 0 5 0;
#X connect 11 0 4 0;
#X connect 12 0 6 0;
#X connect 13 0 6 0;
#X restore 860 519 pd eyes_closed;
#X obj 819 180 bng 30 250 50 0 empty empty empty 17 7 0 10 -262144
-1 -1;
#X msg 982 372 1;
#X msg 903 388 0;
#X obj 939 225 r blink;
#X msg 901 342 \$1;
#X obj 903 364 delay;
#X obj 901 318 t f b;
#X msg 819 215 100;
#X msg 507 351 200;
#X obj 529 463 delay;
#X floatatom 819 110 5 0 0 0 - - -;
#X obj 818 39 loadbang;
#X obj 797 39 bng 15 250 50 0 empty empty empty 17 7 0 10 -262144 -1
-1;
#X obj 819 63 metro 300;
#X obj 819 133 == 0;
#X obj 819 157 sel 1;
#X obj 819 239 spigot;
#X obj 873 220 == 0;
#X obj 819 86 random 8;
#X obj 207 173 r notes;
#X obj 207 197 unpack;
#X obj 245 226 != 0;
#X obj 223 412 t b b b;
#X obj 507 384 t b f b;
#X msg 293 447 stop;
#X msg 603 420 stop;
#X obj 670 260 r stopDelays;
#X obj 91 317 r borkMode;
#X floatatom 90 341 5 0 0 0 - - -;
#X obj 90 364 == 0;
#X obj 232 468 spigot;
#X obj 245 250 sel 1 0;
#X obj 301 393 spigot;
#X msg 327 287 1;
#X msg 370 281 -1;
#X obj 346 312 +;
#X obj 423 186 r bigbang;
#X msg 423 210 0;
#X floatatom 346 336 5 0 0 0 - - -;
#X obj 346 359 sel 0;
#X obj 552 157 r borkMode;
#X obj 552 181 change;
#X obj 552 205 spigot;
#X obj 656 165 r isHowling;
#X obj 656 189 == 0;
#X obj 377 511 s blink;
#X msg 377 488 200;
#X obj 233 516 delay 150;
#X obj 29 552 spigot;
#X obj 29 501 r scene;
#X obj 29 525 == 1;
#X connect 1 0 3 0;
#X connect 3 1 13 0;
#X connect 3 2 2 0;
#X connect 3 3 24 0;
#X connect 5 0 6 0;
#X connect 6 0 9 0;
#X connect 6 1 10 0;
#X connect 7 0 8 0;
#X connect 9 0 7 0;
#X connect 10 0 7 1;
#X connect 11 0 10 1;
#X connect 12 0 9 1;
#X connect 13 0 21 0;
#X connect 14 0 49 0;
#X connect 15 0 13 1;
#X connect 15 0 73 0;
#X connect 16 0 13 1;
#X connect 18 0 35 0;
#X connect 19 0 13 1;
#X connect 20 0 13 1;
#X connect 21 0 4 0;
#X connect 21 1 17 0;
#X connect 21 2 22 0;
#X connect 24 0 25 0;
#X connect 24 0 44 0;
#X connect 25 0 0 0;
#X connect 25 1 26 0;
#X connect 27 0 34 0;
#X connect 28 0 24 1;
#X connect 29 0 24 1;
#X connect 30 0 33 0;
#X connect 31 0 32 0;
#X connect 32 0 29 0;
#X connect 33 0 31 0;
#X connect 33 1 28 0;
#X connect 34 0 43 0;
#X connect 35 0 23 0;
#X connect 35 0 50 0;
#X connect 36 0 19 0;
#X connect 37 0 41 0;
#X connect 38 0 40 0;
#X connect 39 0 40 0;
#X connect 40 0 45 0;
#X connect 41 0 42 0;
#X connect 42 0 27 0;
#X connect 43 0 33 0;
#X connect 44 0 43 1;
#X connect 45 0 37 0;
#X connect 46 0 47 0;
#X connect 47 1 48 0;
#X connect 48 0 58 0;
#X connect 49 0 75 0;
#X connect 49 1 57 0;
#X connect 49 2 15 0;
#X connect 49 2 51 0;
#X connect 50 0 75 0;
#X connect 50 1 36 0;
#X connect 50 2 20 0;
#X connect 50 2 52 0;
#X connect 51 0 74 0;
#X connect 52 0 36 0;
#X connect 53 0 36 0;
#X connect 53 0 32 0;
#X connect 53 0 74 0;
#X connect 54 0 55 0;
#X connect 55 0 56 0;
#X connect 55 0 59 1;
#X connect 56 0 57 1;
#X connect 57 0 74 0;
#X connect 58 0 14 0;
#X connect 58 0 60 0;
#X connect 58 1 61 0;
#X connect 59 0 16 0;
#X connect 60 0 62 0;
#X connect 61 0 62 0;
#X connect 62 0 65 0;
#X connect 63 0 64 0;
#X connect 64 0 62 1;
#X connect 65 0 62 1;
#X connect 65 0 66 0;
#X connect 66 0 59 0;
#X connect 67 0 68 0;
#X connect 68 0 69 0;
#X connect 69 0 18 0;
#X connect 70 0 71 0;
#X connect 71 0 69 1;
#X connect 73 0 72 0;
#X connect 74 0 16 0;
#X connect 75 0 13 0;
#X connect 76 0 77 0;
#X connect 77 0 75 1;
#X restore 148 631 pd face;
#X obj 148 564 spigot;
#N canvas 375 62 1364 735 face_howl 0;
#N canvas -7 0 1022 1060 eyes 0;
#X obj 123 160 t b b b;
#X obj 124 79 inlet;
#X floatatom 363 125 5 0 0 0 - - -;
#X floatatom 548 120 5 0 0 0 - - -;
#X obj 668 694 gfx_rec;
#X obj 303 688 gfx_line;
#X obj 117 685 gfx_pix;
#X obj 455 59 unpack;
#X obj 461 18 r faceXY;
#X msg 108 360 11 6 12 6 0;
#X msg 110 382 10 7 11 7 0;
#X msg 244 381 19 7 20 7 0;
#X msg 243 359 18 6 19 6 0;
#X msg 729 394 18 6 3 2 1;
#X msg 721 366 10 6 3 2 1;
#X connect 0 1 9 0;
#X connect 0 1 11 0;
#X connect 0 1 12 0;
#X connect 0 1 10 0;
#X connect 0 2 14 0;
#X connect 0 2 13 0;
#X connect 1 0 0 0;
#X connect 2 0 5 1;
#X connect 2 0 6 1;
#X connect 2 0 4 1;
#X connect 3 0 5 2;
#X connect 3 0 6 2;
#X connect 3 0 4 2;
#X connect 7 0 2 0;
#X connect 7 1 3 0;
#X connect 8 0 7 0;
#X connect 9 0 5 0;
#X connect 10 0 5 0;
#X connect 11 0 5 0;
#X connect 12 0 5 0;
#X connect 13 0 4 0;
#X connect 14 0 4 0;
#X restore 779 520 pd eyes;
#X obj 57 18 inlet;
#N canvas 287 17 1022 1060 nose 0;
#X obj 123 160 t b b b;
#X obj 124 79 inlet;
#X floatatom 363 125 5 0 0 0 - - -;
#X floatatom 548 120 5 0 0 0 - - -;
#X obj 668 694 gfx_rec;
#X obj 303 688 gfx_line;
#X obj 117 685 gfx_pix;
#X obj 455 59 unpack;
#X obj 460 17 r faceXY;
#X msg 820 326 14 7 3 2 0;
#X msg 103 446 15 9 0;
#X connect 0 2 9 0;
#X connect 0 2 10 0;
#X connect 1 0 0 0;
#X connect 2 0 5 1;
#X connect 2 0 6 1;
#X connect 2 0 4 1;
#X connect 3 0 5 2;
#X connect 3 0 6 2;
#X connect 3 0 4 2;
#X connect 7 0 2 0;
#X connect 7 1 3 0;
#X connect 8 0 7 0;
#X connect 9 0 4 0;
#X connect 10 0 6 0;
#X restore 135 225 pd nose;
#X obj 60 102 t b b b b;
#N canvas -7 0 1022 1060 mouth_close 0;
#X obj 123 160 t b b b;
#X obj 124 79 inlet;
#X floatatom 363 125 5 0 0 0 - - -;
#X floatatom 548 120 5 0 0 0 - - -;
#X obj 668 694 gfx_rec;
#X obj 303 688 gfx_line;
#X obj 117 685 gfx_pix;
#X obj 455 59 unpack;
#X obj 460 18 r faceXY;
#X msg 103 446 14 10 0;
#X msg 647 380 13 10 5 3 1;
#X msg 119 466 16 10 0;
#X connect 0 1 9 0;
#X connect 0 1 11 0;
#X connect 0 2 10 0;
#X connect 1 0 0 0;
#X connect 2 0 5 1;
#X connect 2 0 6 1;
#X connect 2 0 4 1;
#X connect 3 0 5 2;
#X connect 3 0 6 2;
#X connect 3 0 4 2;
#X connect 7 0 2 0;
#X connect 7 1 3 0;
#X connect 8 0 7 0;
#X connect 9 0 6 0;
#X connect 10 0 4 0;
#X connect 11 0 6 0;
#X restore 96 766 pd mouth_close;
#X obj 1119 138 r gabeXY;
#X obj 1119 162 unpack;
#X obj 1116 307 pack;
#X obj 1116 331 s faceXY;
#X obj 1096 239 +;
#X obj 1173 237 +;
#X floatatom 1207 236 5 0 0 0 - - -;
#X floatatom 1125 237 5 0 0 0 - - -;
#X obj 94 555 i;
#X obj 223 361 bng 30 250 50 0 empty empty empty 17 7 0 10 -262144
-1 -1;
#X msg 307 489 1;
#X msg 233 540 0;
#N canvas -7 0 1022 1060 mouth_open1 0;
#X obj 123 160 t b b b;
#X obj 124 79 inlet;
#X floatatom 363 125 5 0 0 0 - - -;
#X floatatom 548 120 5 0 0 0 - - -;
#X obj 668 694 gfx_rec;
#X obj 303 688 gfx_line;
#X obj 117 685 gfx_pix;
#X obj 455 59 unpack;
#X obj 460 18 r faceXY;
#X msg 648 380 13 10 5 3 1;
#X msg 262 455 14 10 16 10 0;
#X connect 0 1 10 0;
#X connect 0 2 9 0;
#X connect 1 0 0 0;
#X connect 2 0 5 1;
#X connect 2 0 6 1;
#X connect 2 0 4 1;
#X connect 3 0 5 2;
#X connect 3 0 6 2;
#X connect 3 0 4 2;
#X connect 7 0 2 0;
#X connect 7 1 3 0;
#X connect 8 0 7 0;
#X connect 9 0 4 0;
#X connect 10 0 5 0;
#X restore 214 767 pd mouth_open1;
#N canvas -7 0 1022 1060 mouth_open2 0;
#X obj 123 160 t b b b;
#X obj 124 79 inlet;
#X floatatom 363 125 5 0 0 0 - - -;
#X floatatom 548 120 5 0 0 0 - - -;
#X obj 668 694 gfx_rec;
#X obj 303 688 gfx_line;
#X obj 117 685 gfx_pix;
#X obj 455 59 unpack;
#X obj 460 18 r faceXY;
#X msg 647 380 13 10 5 3 1;
#X msg 625 460 14 10 3 2 0;
#X connect 0 1 10 0;
#X connect 0 2 9 0;
#X connect 1 0 0 0;
#X connect 2 0 5 1;
#X connect 2 0 6 1;
#X connect 2 0 4 1;
#X connect 3 0 5 2;
#X connect 3 0 6 2;
#X connect 3 0 4 2;
#X connect 7 0 2 0;
#X connect 7 1 3 0;
#X connect 8 0 7 0;
#X connect 9 0 4 0;
#X connect 10 0 4 0;
#X restore 351 765 pd mouth_open2;
#X obj 779 397 i;
#X obj 780 419 route 0 1;
#N canvas 862 0 1022 1060 eyes_closed 0;
#X obj 123 160 t b b b;
#X obj 124 79 inlet;
#X floatatom 363 125 5 0 0 0 - - -;
#X floatatom 548 120 5 0 0 0 - - -;
#X obj 668 694 gfx_rec;
#X obj 303 688 gfx_line;
#X obj 117 685 gfx_pix;
#X obj 455 59 unpack;
#X obj 461 18 r faceXY;
#X msg 237 324 18 6 19 6 0;
#X msg 73 397 10 7 0;
#X msg 145 324 11 6 12 6 0;
#X msg 217 400 20 7 0;
#X msg 719 381 18 6 3 2 1;
#X msg 709 353 10 6 3 2 1;
#X connect 0 1 10 0;
#X connect 0 1 9 0;
#X connect 0 1 11 0;
#X connect 0 1 12 0;
#X connect 0 2 14 0;
#X connect 0 2 13 0;
#X connect 1 0 0 0;
#X connect 2 0 5 1;
#X connect 2 0 6 1;
#X connect 2 0 4 1;
#X connect 3 0 5 2;
#X connect 3 0 6 2;
#X connect 3 0 4 2;
#X connect 7 0 2 0;
#X connect 7 1 3 0;
#X connect 8 0 7 0;
#X connect 9 0 5 0;
#X connect 10 0 6 0;
#X connect 11 0 5 0;
#X connect 12 0 6 0;
#X connect 13 0 4 0;
#X connect 14 0 4 0;
#X restore 860 519 pd eyes_closed;
#X obj 819 180 bng 30 250 50 0 empty empty empty 17 7 0 10 -262144
-1 -1;
#X msg 982 372 1;
#X msg 903 388 0;
#X obj 939 225 r blink;
#X msg 901 342 \$1;
#X obj 903 364 delay;
#X obj 901 318 t f b;
#X msg 819 215 100;
#X floatatom 819 110 5 0 0 0 - - -;
#X obj 818 39 loadbang;
#X obj 797 39 bng 15 250 50 0 empty empty empty 17 7 0 10 -262144 -1
-1;
#X obj 819 63 metro 300;
#X obj 819 133 == 0;
#X obj 819 157 sel 1;
#X obj 819 239 spigot;
#X obj 873 220 == 0;
#X obj 819 86 random 8;
#X obj 207 173 r notes;
#X obj 207 197 unpack;
#X obj 245 226 != 0;
#X obj 223 412 t b b b;
#X msg 293 447 stop;
#X obj 581 223 r stopDelays;
#X obj 90 317 r borkMode;
#X floatatom 90 341 5 0 0 0 - - -;
#X obj 90 364 == 0;
#X obj 232 468 spigot;
#X obj 245 250 sel 1 0;
#X obj 301 393 spigot;
#X msg 327 287 1;
#X msg 370 281 -1;
#X obj 346 312 +;
#X obj 423 186 r bigbang;
#X msg 423 210 0;
#X floatatom 346 336 5 0 0 0 - - -;
#X obj 346 359 sel 0;
#X obj 309 582 s setEyes;
#X obj 734 330 r setEyes;
#X obj 214 713 route 0 1;
#X obj 214 687 i;
#X obj 456 647 tgl 15 0 empty empty empty 17 7 0 10 -262144 -1 -1 0
1;
#X obj 512 369 r borkMode;
#X obj 512 393 change;
#X obj 512 417 spigot;
#X obj 616 377 r isHowling;
#X obj 512 441 t b b;
#X obj 94 600 route 0 1 2;
#X msg 542 469 2;
#X msg 505 518 0;
#X obj 505 494 delay 100;
#X msg 577 468 1;
#X obj 234 516 delay 2000;
#X obj 25 521 spigot;
#X obj 25 470 r scene;
#X obj 25 494 == 1;
#X connect 1 0 3 0;
#X connect 3 1 13 0;
#X connect 3 2 2 0;
#X connect 3 3 19 0;
#X connect 5 0 6 0;
#X connect 6 0 9 0;
#X connect 6 1 10 0;
#X connect 7 0 8 0;
#X connect 9 0 7 0;
#X connect 10 0 7 1;
#X connect 11 0 10 1;
#X connect 12 0 9 1;
#X connect 13 0 68 0;
#X connect 14 0 42 0;
#X connect 15 0 13 1;
#X connect 15 0 58 0;
#X connect 16 0 13 1;
#X connect 16 0 58 0;
#X connect 19 0 20 0;
#X connect 19 0 37 0;
#X connect 20 0 0 0;
#X connect 20 1 21 0;
#X connect 22 0 29 0;
#X connect 23 0 19 1;
#X connect 24 0 19 1;
#X connect 25 0 28 0;
#X connect 26 0 27 0;
#X connect 27 0 24 0;
#X connect 28 0 26 0;
#X connect 28 1 23 0;
#X connect 29 0 36 0;
#X connect 30 0 34 0;
#X connect 31 0 33 0;
#X connect 32 0 33 0;
#X connect 33 0 38 0;
#X connect 33 0 62 0;
#X connect 34 0 35 0;
#X connect 35 0 22 0;
#X connect 36 0 28 0;
#X connect 37 0 36 1;
#X connect 38 0 30 0;
#X connect 39 0 40 0;
#X connect 40 1 41 0;
#X connect 41 0 49 0;
#X connect 42 0 74 0;
#X connect 42 1 48 0;
#X connect 42 2 15 0;
#X connect 42 2 43 0;
#X connect 43 0 73 0;
#X connect 44 0 27 0;
#X connect 44 0 73 0;
#X connect 45 0 46 0;
#X connect 46 0 47 0;
#X connect 46 0 50 1;
#X connect 47 0 48 1;
#X connect 48 0 73 0;
#X connect 49 0 14 0;
#X connect 49 0 51 0;
#X connect 49 1 52 0;
#X connect 50 0 16 0;
#X connect 51 0 53 0;
#X connect 52 0 53 0;
#X connect 53 0 56 0;
#X connect 54 0 55 0;
#X connect 55 0 53 1;
#X connect 56 0 53 1;
#X connect 56 0 57 0;
#X connect 57 0 50 0;
#X connect 59 0 19 1;
#X connect 60 0 17 0;
#X connect 60 1 18 0;
#X connect 61 0 60 0;
#X connect 62 0 61 1;
#X connect 63 0 64 0;
#X connect 64 0 65 0;
#X connect 65 0 67 0;
#X connect 66 0 65 1;
#X connect 67 0 71 0;
#X connect 67 1 69 0;
#X connect 67 1 72 0;
#X connect 68 0 4 0;
#X connect 68 1 61 0;
#X connect 68 2 18 0;
#X connect 69 0 13 1;
#X connect 70 0 13 1;
#X connect 70 0 58 0;
#X connect 71 0 70 0;
#X connect 72 0 58 0;
#X connect 73 0 16 0;
#X connect 74 0 13 0;
#X connect 75 0 76 0;
#X connect 76 0 74 1;
#X restore 44 630 pd face_howl;
#N canvas -7 0 1022 1060 cleanface 0;
#X obj 103 297 inlet;
#X floatatom 546 557 5 0 0 0 - - -;
#X floatatom 731 552 5 0 0 0 - - -;
#X obj 228 909 gfx_rec;
#X obj 638 491 unpack;
#X obj 644 450 r faceXY;
#X msg 103 575 9 4 13 16 1;
#X connect 0 0 6 0;
#X connect 1 0 3 1;
#X connect 2 0 3 2;
#X connect 4 0 1 0;
#X connect 4 1 2 0;
#X connect 5 0 4 0;
#X connect 6 0 3 0;
#X restore 266 628 pd cleanface;
#X obj 955 228 s isHowling;
#X msg 952 201 0;
#X connect 0 0 1 0;
#X connect 1 1 4 0;
#X connect 1 2 8 0;
#X connect 4 1 17 0;
#X connect 4 1 20 0;
#X connect 4 2 22 0;
#X connect 4 3 6 0;
#X connect 4 4 5 0;
#X connect 7 0 8 1;
#X connect 8 0 14 0;
#X connect 9 0 8 1;
#X connect 10 0 7 0;
#X connect 11 0 12 0;
#X connect 12 0 7 0;
#X connect 13 0 15 0;
#X connect 13 0 24 0;
#X connect 14 0 9 0;
#X connect 14 1 2 0;
#X connect 15 0 3 0;
#X connect 16 0 17 1;
#X connect 16 0 18 0;
#X connect 17 0 21 0;
#X connect 18 0 20 1;
#X connect 20 0 19 0;
#X connect 24 0 23 0;
#X restore 646 334 pd gabe;
#X obj 265 54 inlet;
#X msg 35 230 /oled/gFlip 3;
#X obj 35 256 s 2screen;
#X obj 913 182 s 2screen;
#X msg 913 161 /oled/gClear 3 1;
#X msg 902 58 1;
#X obj 858 104 spigot;
#X msg 858 152 0;
#X obj 902 34 r bigbang;
#X obj 988 34 r scene;
#X obj 988 58 sel 1;
#X obj 858 128 t b b;
#N canvas 498 238 1132 665 knob_logs 0;
#X obj 317 -58 inlet;
#X obj 318 40 spigot;
#X obj 368 16 r borkMode;
#X obj 318 66 t b b;
#X msg 763 190 /oled/gFillArea 3 0 0 128 10 0;
#X msg 777 215 /oled/gFillArea 3 0 54 128 10 0;
#X floatatom 368 40 5 0 0 0 - - -;
#X obj 362 -10 bng 15 250 50 0 empty empty empty 17 7 0 10 -262144
-1 -1;
#X obj 780 252 s 2screen;
#X obj 21 358 i;
#X obj 676 410 i;
#X obj 1018 410 i;
#X obj 732 347 r granularStart;
#X obj 42 622 s 2screen;
#X obj 1066 358 r granularEnd;
#X msg 1022 438 /oled/gLine 3 \$1 60 \$1 62 1;
#X msg 676 439 /oled/gLine 3 \$1 60 \$1 62 1;
#X obj 345 331 r granularSpeed;
#X obj 903 426 pack 1 2 3;
#X msg 904 471 /oled/gLine 3 \$2 61 \$3 61 1;
#X obj 733 371 expr int($f1 * 121) + 1;
#X obj 1067 382 expr int($f1 * 121) + 5;
#X obj 318 210 spigot;
#X msg 498 178 1;
#X msg 403 204 0;
#X msg 549 179 stop;
#X obj 403 180 delay 1000;
#X obj 296 439 f;
#X obj 344 355 expr int($f1 / 10) / 10;
#X obj 344 379 expr if($f1 == 0 \, 0.1 \, $f1);
#X obj 296 463 pack;
#X obj 345 441 i;
#X obj 85 344 r transposition;
#X msg 21 389 /oled/gPrintln 3 0 1 8 1 T:\$1;
#X msg 297 514 /oled/gPrintln 3 \$2 1 8 1 S:\$1;
#X obj 345 418 expr if($f1 < 0 \, 90 \, 96);
#X obj 905 156 s 2screen;
#X obj 867 40 delay 1000;
#X obj 403 141 t b b b;
#X obj 868 17 t b f b;
#X obj 897 69 sel 0 1;
#X msg 905 131 /oled/gPrintln 3 35 1 8 1 SYNTH MODE;
#X msg 865 109 /oled/gPrintln 3 24 1 8 1 SAMPLE TRIGGER;
#X connect 0 0 1 0;
#X connect 0 0 7 0;
#X connect 1 0 3 0;
#X connect 2 0 6 0;
#X connect 3 0 22 0;
#X connect 4 0 8 0;
#X connect 5 0 8 0;
#X connect 6 0 1 1;
#X connect 6 0 39 0;
#X connect 9 0 33 0;
#X connect 10 0 16 0;
#X connect 11 0 15 0;
#X connect 12 0 20 0;
#X connect 12 0 38 0;
#X connect 14 0 21 0;
#X connect 14 0 38 0;
#X connect 15 0 13 0;
#X connect 16 0 13 0;
#X connect 17 0 28 0;
#X connect 17 0 38 0;
#X connect 18 0 19 0;
#X connect 19 0 13 0;
#X connect 20 0 10 1;
#X connect 20 0 18 1;
#X connect 21 0 11 1;
#X connect 21 0 18 2;
#X connect 22 0 11 0;
#X connect 22 0 10 0;
#X connect 22 0 9 0;
#X connect 22 0 18 0;
#X connect 22 0 27 0;
#X connect 23 0 22 1;
#X connect 24 0 22 1;
#X connect 25 0 26 0;
#X connect 26 0 24 0;
#X connect 26 0 4 0;
#X connect 26 0 5 0;
#X connect 27 0 30 0;
#X connect 28 0 29 0;
#X connect 29 0 27 1;
#X connect 29 0 35 0;
#X connect 30 0 34 0;
#X connect 31 0 30 1;
#X connect 32 0 9 1;
#X connect 32 0 38 0;
#X connect 33 0 13 0;
#X connect 34 0 13 0;
#X connect 35 0 31 0;
#X connect 37 0 4 0;
#X connect 38 0 26 0;
#X connect 38 1 23 0;
#X connect 38 1 25 0;
#X connect 38 2 4 0;
#X connect 38 2 5 0;
#X connect 39 0 37 0;
#X connect 39 1 40 0;
#X connect 39 2 4 0;
#X connect 40 0 42 0;
#X connect 40 1 41 0;
#X connect 41 0 36 0;
#X connect 42 0 36 0;
#X restore 398 350 pd knob_logs;
#X obj 265 87 t b b b b b;
#X connect 1 0 14 0;
#X connect 2 0 3 0;
#X connect 5 0 4 0;
#X connect 6 0 7 1;
#X connect 7 0 12 0;
#X connect 8 0 7 1;
#X connect 9 0 6 0;
#X connect 10 0 11 0;
#X connect 11 0 6 0;
#X connect 12 0 8 0;
#X connect 12 1 5 0;
#X connect 14 0 2 0;
#X connect 14 2 13 0;
#X connect 14 3 0 0;
#X connect 14 4 7 0;
#X restore 288 404 pd gabe_oled;
#X connect 1 0 0 0;
#X connect 3 0 6 0;
#X connect 4 0 10 0;
#X connect 4 0 12 0;
#X connect 5 0 7 0;
#X connect 6 0 5 0;
#X connect 7 0 14 0;
#X connect 7 1 8 0;
#X connect 10 0 11 0;
#X connect 11 0 9 0;
#X connect 12 0 5 1;
#X connect 13 0 1 0;
#X restore 74 99 pd screen;
#X obj 8 7 bng 31 250 50 0 empty empty empty 17 7 0 10 -262144 -1 -1
;
#N canvas 636 62 1224 864 sound 0;
#X obj 44 825 throw~ outL;
#X obj 149 825 throw~ outR;
#X obj 46 47 r notes;
#X obj 234 477 soundfiler;
#X floatatom 234 506 5 0 0 0 - - -;
#X obj 234 537 s tableSize;
#X floatatom 234 361 5 0 0 0 - - -;
#X obj 375 357 table borktab;
#X obj 310 711 s~ soundOut;
#X obj 44 687 r~ soundOut;
#X msg 234 449 read -resize wav/\$1.wav borktab;
#X obj 46 92 list prepend;
#X floatatom 139 93 5 0 0 0 - - -;
#X obj 46 116 route 0 1;
#X obj 47 255 unpack;
#X obj 47 279 spigot;
#X obj 47 303 - 59;
#X floatatom 47 327 5 0 0 0 - - -;
#X obj 47 350 t f f;
#X obj 382 36 sel 1;
#X obj 382 59 tgl 15 0 empty empty empty 17 7 0 10 -262144 -1 -1 0
1;
#N canvas 0 50 938 801 bork_beats 0;
#X obj 37 169 pack 0 0 0;
#X obj 37 12 inlet;
#X obj 37 368 readsf~;
#X msg 37 341 open wav/\$1.wav \, 1;
#X obj 105 394 readsf~;
#X msg 105 367 open wav/\$1.wav \, 1;
#X obj 175 420 readsf~;
#X msg 175 393 open wav/\$1.wav \, 1;
#X obj 243 446 readsf~;
#X msg 243 419 open wav/\$1.wav \, 1;
#X obj 38 785 outlet~;
#X msg 41 86 \$1 100;
#X obj 371 372 readsf~;
#X msg 371 345 open wav/\$1.wav \, 1;
#X obj 439 398 readsf~;
#X msg 439 371 open wav/\$1.wav \, 1;
#X obj 509 424 readsf~;
#X msg 509 397 open wav/\$1.wav \, 1;
#X obj 577 450 readsf~;
#X msg 577 423 open wav/\$1.wav \, 1;
#X obj 41 498 readsf~;
#X msg 41 471 open wav/\$1.wav \, 1;
#X obj 109 524 readsf~;
#X msg 109 497 open wav/\$1.wav \, 1;
#X obj 179 550 readsf~;
#X msg 179 523 open wav/\$1.wav \, 1;
#X obj 247 576 readsf~;
#X msg 247 549 open wav/\$1.wav \, 1;
#X obj 375 502 readsf~;
#X msg 375 475 open wav/\$1.wav \, 1;
#X obj 443 528 readsf~;
#X msg 443 501 open wav/\$1.wav \, 1;
#X obj 513 554 readsf~;
#X msg 513 527 open wav/\$1.wav \, 1;
#X obj 581 580 readsf~;
#X msg 581 553 open wav/\$1.wav \, 1;
#X obj 39 280 route 1 2 3 4 5 6 7 8 9 10 11 12 13 14 15 16;
#X obj 38 135 poly 16 1;
#X connect 0 0 36 0;
#X connect 1 0 11 0;
#X connect 2 0 10 0;
#X connect 3 0 2 0;
#X connect 4 0 10 0;
#X connect 5 0 4 0;
#X connect 6 0 10 0;
#X connect 7 0 6 0;
#X connect 8 0 10 0;
#X connect 9 0 8 0;
#X connect 11 0 37 0;
#X connect 12 0 10 0;
#X connect 13 0 12 0;
#X connect 14 0 10 0;
#X connect 15 0 14 0;
#X connect 16 0 10 0;
#X connect 17 0 16 0;
#X connect 18 0 10 0;
#X connect 19 0 18 0;
#X connect 20 0 10 0;
#X connect 21 0 20 0;
#X connect 22 0 10 0;
#X connect 23 0 22 0;
#X connect 24 0 10 0;
#X connect 25 0 24 0;
#X connect 26 0 10 0;
#X connect 27 0 26 0;
#X connect 28 0 10 0;
#X connect 29 0 28 0;
#X connect 30 0 10 0;
#X connect 31 0 30 0;
#X connect 32 0 10 0;
#X connect 33 0 32 0;
#X connect 34 0 10 0;
#X connect 35 0 34 0;
#X connect 36 0 3 0;
#X connect 36 1 5 0;
#X connect 36 2 7 0;
#X connect 36 3 9 0;
#X connect 36 4 13 0;
#X connect 36 5 15 0;
#X connect 36 6 17 0;
#X connect 36 7 19 0;
#X connect 36 8 21 0;
#X connect 36 9 23 0;
#X connect 36 10 25 0;
#X connect 36 11 27 0;
#X connect 36 12 29 0;
#X connect 36 13 31 0;
#X connect 36 14 33 0;
#X connect 36 15 35 0;
#X connect 37 0 0 0;
#X connect 37 1 0 1;
#X connect 37 2 0 2;
#X restore 48 490 pd bork_beats;
#X obj 44 727 looper;
#X obj 294 19 r bigbang;
#X msg 294 43 0;
#X obj 231 290 r bigbang;
#X msg 231 314 3;
#X obj 382 13 r aux_1;
#X obj 388 90 s borkMode;
#N canvas -1 101 2048 1069 bork_granular 0;
#X floatatom 414 319 5 -100 300 0 - - -;
#X obj 774 250 hsl 200 15 0 1 0 0 empty empty empty -2 -8 0 10 -262144
-1 -1 0 1;
#X obj 775 350 hsl 200 15 0 1 0 0 empty empty empty -2 -8 0 10 -262144
-1 -1 0 1;
#X obj 398 705 snapshot~;
#X obj 447 678 bang~;
#X floatatom 469 707 10 0 0 0 - - -;
#X obj 775 273 hsl 200 15 0 1 0 0 empty empty empty -2 -8 0 10 -262144
-1 -1 19900 1;
#X obj 944 107 r bigbang;
#X msg 968 128 1;
#X msg 822 130 0;
#X obj 784 108 r bigbang;
#X obj 498 71 hsl 200 15 0 1 0 0 empty empty empty -2 -8 0 10 -262144
-1 -1 0 1;
#X text 443 319 <-- speed percent;
#X floatatom 495 135 5 0 0 0 - - -;
#X floatatom 772 132 5 0 1 0 - - -;
#X floatatom 929 130 5 0 1 0 - - -;
#X msg 538 133 0.5;
#X obj 512 113 r bigbang;
#X text 987 248 start;
#X text 988 271 end;
#X obj 772 168 clip 0 1;
#X obj 921 170 clip 0 1;
#X obj 772 74 line 50;
#X obj 929 72 line 50;
#X obj 43 271 pack 0 0 0;
#X obj 43 325 route 1 2 3 4 5 6;
#X obj 44 56 inlet;
#X obj 42 776 outlet~;
#X obj 771 381 s cursorPosition;
#X obj 795 296 s startMarker;
#X obj 795 320 s endMarker;
#X obj 44 167 poly 6 1;
#X msg 242 151 1 0 0 0 0 0;
#X obj 242 295 spigot;
#X msg 251 173 0 1 0 0 0 0;
#X msg 259 196 0 0 1 0 0 0;
#X msg 267 219 0 0 0 1 0 0;
#X msg 277 242 0 0 0 0 1 0;
#X msg 284 264 0 0 0 0 0 1;
#X obj 242 324 unpack 1 2 3 4 5 6;
#X obj 43 557 bork_voice;
#X obj 53 578 bork_voice;
#X obj 66 600 bork_voice;
#X obj 79 621 bork_voice;
#X obj 91 642 bork_voice;
#X obj 104 663 bork_voice;
#X obj 495 14 r knob2_1;
#X obj 773 13 r knob3_1;
#X obj 929 11 r knob4_1;
#X obj 773 37 spigot;
#X obj 929 35 spigot;
#X obj 1052 20 r borkMode;
#X obj 495 38 spigot;
#X floatatom 524 253 5 0 0 0 - - -;
#X obj 524 276 s granularSpeed;
#X obj 1024 206 s granularEnd;
#X obj 823 207 s granularStart;
#X obj 497 200 expr if($f1 == 0 \, 0.1 \, $f1);
#X obj 497 176 expr int($f1 * 100) + 50;
#X connect 0 0 45 1;
#X connect 0 0 40 1;
#X connect 0 0 41 1;
#X connect 0 0 42 1;
#X connect 0 0 43 1;
#X connect 0 0 44 1;
#X connect 1 0 21 1;
#X connect 1 0 29 0;
#X connect 1 0 45 2;
#X connect 1 0 40 2;
#X connect 1 0 41 2;
#X connect 1 0 42 2;
#X connect 1 0 43 2;
#X connect 1 0 44 2;
#X connect 2 0 28 0;
#X connect 3 0 5 0;
#X connect 4 0 3 0;
#X connect 5 0 2 0;
#X connect 6 0 20 2;
#X connect 6 0 30 0;
#X connect 6 0 45 3;
#X connect 6 0 40 3;
#X connect 6 0 41 3;
#X connect 6 0 42 3;
#X connect 6 0 43 3;
#X connect 6 0 44 3;
#X connect 7 0 8 0;
#X connect 8 0 15 0;
#X connect 9 0 14 0;
#X connect 10 0 9 0;
#X connect 11 0 13 0;
#X connect 13 0 58 0;
#X connect 14 0 20 0;
#X connect 15 0 21 0;
#X connect 16 0 13 0;
#X connect 17 0 16 0;
#X connect 20 0 1 0;
#X connect 20 0 56 0;
#X connect 21 0 6 0;
#X connect 21 0 55 0;
#X connect 22 0 14 0;
#X connect 23 0 15 0;
#X connect 24 0 25 0;
#X connect 25 0 32 0;
#X connect 25 0 40 0;
#X connect 25 1 34 0;
#X connect 25 1 41 0;
#X connect 25 2 35 0;
#X connect 25 2 42 0;
#X connect 25 3 36 0;
#X connect 25 3 43 0;
#X connect 25 4 37 0;
#X connect 25 4 44 0;
#X connect 25 5 38 0;
#X connect 25 5 45 0;
#X connect 26 0 31 0;
#X connect 31 0 24 0;
#X connect 31 1 24 1;
#X connect 31 2 24 2;
#X connect 31 2 33 1;
#X connect 32 0 33 0;
#X connect 33 0 39 0;
#X connect 34 0 33 0;
#X connect 35 0 33 0;
#X connect 36 0 33 0;
#X connect 37 0 33 0;
#X connect 38 0 33 0;
#X connect 39 0 40 4;
#X connect 39 1 41 4;
#X connect 39 2 42 4;
#X connect 39 3 43 4;
#X connect 39 4 44 4;
#X connect 39 5 45 4;
#X connect 40 0 27 0;
#X connect 40 1 3 0;
#X connect 41 0 27 0;
#X connect 41 1 3 0;
#X connect 42 0 27 0;
#X connect 42 1 3 0;
#X connect 43 0 27 0;
#X connect 43 1 3 0;
#X connect 44 0 27 0;
#X connect 44 1 3 0;
#X connect 45 0 27 0;
#X connect 45 1 3 0;
#X connect 46 0 52 0;
#X connect 47 0 49 0;
#X connect 48 0 50 0;
#X connect 49 0 22 0;
#X connect 50 0 23 0;
#X connect 51 0 50 1;
#X connect 51 0 49 1;
#X connect 51 0 52 1;
#X connect 52 0 11 0;
#X connect 53 0 0 0;
#X connect 53 0 54 0;
#X connect 57 0 53 0;
#X connect 58 0 57 0;
#X restore 568 524 pd bork_granular;
#X obj 566 250 unpack;
#X obj 566 314 +;
#X floatatom 623 315 5 0 0 0 - - -;
#X obj 568 479 pack;
#X obj 914 169 r borkMode;
#X obj 859 198 spigot;
#X obj 859 142 r knob1_1;
#X msg 950 248 0;
#X msg 980 248 1;
#X obj 859 228 t f b;
#X obj 860 272 expr int($f4 + ($f1 - $f2) * (($f5 - $f4) / ($f3 - $f2)))
* 12, f 62;
#X floatatom 860 293 5 0 0 0 - - -;
#X obj 624 339 s transposition;
#X msg 1037 248 -1;
#X msg 1066 247 1;
#X obj 841 429 bag;
#X msg 841 407 flush;
#X msg 841 450 \$1 0;
#X obj 860 316 change;
#X msg 80 437 1;
#X obj 285 392 > 20;
#X obj 285 416 s isHowling;
#X floatatom 370 416 5 0 0 0 - - -;
#X connect 2 0 11 0;
#X connect 3 0 4 0;
#X connect 4 0 5 0;
#X connect 6 0 10 0;
#X connect 6 0 50 0;
#X connect 9 0 22 0;
#X connect 10 0 3 0;
#X connect 11 0 13 0;
#X connect 12 0 11 1;
#X connect 13 0 14 0;
#X connect 13 1 30 0;
#X connect 14 0 15 0;
#X connect 14 1 15 1;
#X connect 15 0 16 0;
#X connect 16 0 17 0;
#X connect 17 0 18 0;
#X connect 18 0 21 0;
#X connect 18 1 6 0;
#X connect 19 0 20 0;
#X connect 20 0 12 0;
#X connect 20 0 28 0;
#X connect 20 0 49 0;
#X connect 21 0 8 0;
#X connect 22 0 0 0;
#X connect 22 0 1 0;
#X connect 23 0 24 0;
#X connect 24 0 20 0;
#X connect 25 0 26 0;
#X connect 26 0 6 0;
#X connect 27 0 19 0;
#X connect 29 0 8 0;
#X connect 30 0 31 0;
#X connect 30 1 33 1;
#X connect 31 0 33 0;
#X connect 32 0 31 1;
#X connect 32 0 42 0;
#X connect 33 0 29 0;
#X connect 33 0 45 0;
#X connect 34 0 35 1;
#X connect 35 0 39 0;
#X connect 36 0 35 0;
#X connect 37 0 40 1;
#X connect 38 0 40 2;
#X connect 39 0 40 0;
#X connect 39 1 44 0;
#X connect 39 1 43 0;
#X connect 39 1 38 0;
#X connect 39 1 37 0;
#X connect 40 0 41 0;
#X connect 41 0 32 0;
#X connect 41 0 48 0;
#X connect 43 0 40 3;
#X connect 44 0 40 4;
#X connect 45 0 47 0;
#X connect 46 0 45 0;
#X connect 47 0 29 0;
#X connect 48 0 46 0;
#X connect 49 0 21 0;
#X connect 50 0 51 0;
#X connect 50 0 52 0;
#X restore 146 99 pd sound;
#N canvas 778 196 1026 679 led 0;
#X obj 631 34 r tick;
#X msg 630 462 send /led \$1;
#X obj 630 496 s oscOut;
#X obj 659 332 int;
#X msg 630 332 0;
#X obj 722 238 r isRecording;
#X obj 722 259 sel 1 0;
#X msg 722 280 4;
#X obj 631 123 bng 15 250 50 0 empty empty empty 17 7 0 10 -262144
-1 -1;
#X obj 631 143 t b b;
#X obj 539 288 delay;
#X obj 568 217 r beatSize;
#X msg 756 280 2;
#X obj 539 258 f;
#X floatatom 568 258 5 0 0 0 - - -;
#X obj 568 237 expr ($f1 / 2) * 1000;
#X obj 358 24 r scene;
#X obj 101 136 spigot;
#X obj 631 58 spigot;
#X obj 358 51 == 1;
#X obj 412 51 == 2;
#X obj 101 56 t b f;
#X obj 358 75 sel 1;
#X obj 101 99 i;
#X msg 102 225 send /led \$1;
#X obj 102 249 s oscOut;
#X obj 101 175 sel 0 1;
#X msg 101 199 0;
#X msg 141 200 7;
#X obj 101 22 r borkMode;
#X connect 0 0 18 0;
#X connect 1 0 2 0;
#X connect 3 0 1 0;
#X connect 4 0 1 0;
#X connect 5 0 6 0;
#X connect 6 0 7 0;
#X connect 6 1 12 0;
#X connect 7 0 3 1;
#X connect 8 0 9 0;
#X connect 9 0 13 0;
#X connect 9 1 3 0;
#X connect 10 0 4 0;
#X connect 11 0 15 0;
#X connect 12 0 3 1;
#X connect 13 0 10 0;
#X connect 14 0 13 1;
#X connect 15 0 14 0;
#X connect 16 0 19 0;
#X connect 16 0 20 0;
#X connect 17 0 26 0;
#X connect 18 0 8 0;
#X connect 19 0 17 1;
#X connect 19 0 22 0;
#X connect 20 0 18 1;
#X connect 21 0 23 0;
#X connect 21 1 23 1;
#X connect 22 0 23 0;
#X connect 23 0 17 0;
#X connect 24 0 25 0;
#X connect 26 0 27 0;
#X connect 26 1 28 0;
#X connect 27 0 24 0;
#X connect 28 0 24 0;
#X connect 29 0 21 0;
#X restore 95 124 pd led;
#N canvas 521 44 1356 855 controls 0;
#X obj 491 357 r knob2;
#X obj 326 359 r knob1;
#X obj 326 467 send;
#X symbolatom 351 443 10 0 0 0 - - -;
#X msg 351 418 symbol knob1_\$1;
#X floatatom 616 278 5 0 0 0 - - -;
#X obj 490 460 send;
#X symbolatom 514 436 10 0 0 0 - - -;
#X msg 514 411 symbol knob2_\$1;
#X obj 670 359 r knob3;
#X obj 672 460 send;
#X symbolatom 696 436 10 0 0 0 - - -;
#X msg 698 410 symbol knob3_\$1;
#X obj 858 457 send;
#X symbolatom 883 432 10 0 0 0 - - -;
#X msg 885 406 symbol knob4_\$1;
#X obj 861 357 r knob4;
#X obj 616 252 r scene;
#N canvas 11 50 1009 687 encoder 0;
#X obj 11 9 loadbang;
#X msg 11 34 send /enablepatchsub 1;
#X obj 11 59 s oscOut;
#X obj 418 22 r oscIn;
#X floatatom 201 146 5 0 0 0 - - -;
#X obj 794 147 bng 15 250 50 0 empty empty empty 17 7 0 10 -262144
-1 -1;
#X msg 822 197 send /gohome 1;
#X obj 822 222 s oscOut;
#X obj 147 427 outlet;
#X obj 229 428 outlet;
#X obj 199 237 sel 0;
#X obj 418 47 routeOSC /encoder/turn /encoder/button;
#X obj 159 191 bng 15 250 50 0 empty empty empty 17 7 0 10 -262144
-1 -1;
#X floatatom 570 426 5 0 0 0 - - -;
#X obj 717 247 r bigbang;
#X obj 570 450 s scene;
#X msg 717 317 1;
#X msg 674 278 2;
#X obj 483 448 print SCENE:;
#X floatatom 526 108 5 0 0 0 - - -;
#X obj 526 128 sel 1;
#X obj 481 231 i;
#X obj 483 318 expr if($f1 + 1 > $f2 \, 1 \, $f1 + 1);
#X obj 621 185 delay;
#X msg 605 152 stop;
#X msg 544 176 1200;
#X connect 0 0 1 0;
#X connect 1 0 2 0;
#X connect 3 0 11 0;
#X connect 4 0 10 0;
#X connect 4 0 12 0;
#X connect 5 0 6 0;
#X connect 6 0 7 0;
#X connect 10 0 8 0;
#X connect 10 1 9 0;
#X connect 11 0 4 0;
#X connect 11 1 19 0;
#X connect 13 0 15 0;
#X connect 13 0 18 0;
#X connect 13 0 21 1;
#X connect 14 0 17 0;
#X connect 14 0 16 0;
#X connect 16 0 13 0;
#X connect 17 0 22 1;
#X connect 19 0 20 0;
#X connect 20 0 21 0;
#X connect 20 0 25 0;
#X connect 20 1 24 0;
#X connect 21 0 22 0;
#X connect 22 0 13 0;
#X connect 23 0 5 0;
#X connect 24 0 23 0;
#X connect 25 0 23 0;
#X restore 24 -2 pd encoder;
#X obj 1013 456 send;
#X symbolatom 1038 431 10 0 0 0 - - -;
#X msg 1040 405 symbol aux_\$1;
#X obj 1013 356 r aux;
#X obj 24 21 bng 35 250 50 0 empty empty empty 17 7 0 10 -191407 -1
-1;
#X obj 65 21 bng 35 250 50 0 empty empty empty 17 7 0 10 -191407 -1
-1;
#X msg 24 81 -1;
#X msg 65 81 1;
#X obj 59 434 send;
#X symbolatom 84 410 10 0 0 0 - - -;
#X msg 84 385 symbol encoder_\$1;
#X obj 712 248 loadbang;
#X msg 712 272 1;
#X connect 0 0 6 0;
#X connect 1 0 2 0;
#X connect 3 0 2 1;
#X connect 4 0 3 0;
#X connect 5 0 4 0;
#X connect 5 0 12 0;
#X connect 5 0 8 0;
#X connect 5 0 15 0;
#X connect 5 0 21 0;
#X connect 5 0 29 0;
#X connect 7 0 6 1;
#X connect 8 0 7 0;
#X connect 9 0 10 0;
#X connect 11 0 10 1;
#X connect 12 0 11 0;
#X connect 14 0 13 1;
#X connect 15 0 14 0;
#X connect 16 0 13 0;
#X connect 17 0 5 0;
#X connect 18 0 23 0;
#X connect 18 1 24 0;
#X connect 20 0 19 1;
#X connect 21 0 20 0;
#X connect 22 0 19 0;
#X connect 23 0 25 0;
#X connect 24 0 26 0;
#X connect 25 0 27 0;
#X connect 26 0 27 0;
#X connect 28 0 27 1;
#X connect 29 0 28 0;
#X connect 30 0 31 0;
#X connect 31 0 5 0;
#X restore 146 123 pd controls;
#N canvas 0 50 450 300 init 0;
#X obj 57 93 s bigbang;
#X obj 30 140 s latebang;
#X obj 30 116 delay 50;
#X obj 9 47 t b b b;
#X obj 8 188 s lastbang;
#X obj 8 163 delay 55;
#X obj 66 9 loadbang;
#X obj 16 7 inlet;
#X connect 2 0 1 0;
#X connect 3 0 5 0;
#X connect 3 1 2 0;
#X connect 3 2 0 0;
#X connect 5 0 4 0;
#X connect 6 0 3 0;
#X connect 7 0 3 0;
#X restore 8 43 pd init;
#X text 158 175 bork in peace;
#X connect 1 0 5 0;
