#N canvas 843 49 1030 781 10;
#X obj 188 491 unpack;
#X floatatom 188 531 5 0 0 0 - - -;
#X floatatom 664 602 5 0 0 0 - - -;
#X obj 664 638 / 127;
#X obj 558 695 line~;
#X obj 561 539 sel 0;
#X obj 406 1501 outlet~;
#X obj 95 1317 *~;
#X obj 243 1306 *~;
#X floatatom 411 1249 5 0 0 0 - - -;
#X obj 384 1270 expr 1 - $f1;
#X obj 411 1224 r mix_X;
#X obj 578 1313 *~;
#X obj 728 1303 *~;
#X obj 240 1372 *~;
#X obj 585 1373 *~;
#X floatatom 406 1348 5 0 0 0 - - -;
#X obj 370 1383 expr 1 - $f1;
#X obj 406 1323 r mix_Y;
#X msg 682 397 5;
#X msg 716 397 100;
#X obj 411 1465 *~;
#X obj 99 1179 lop~ 4500;
#X obj 100 1155 tabread4~ table1;
#X obj 242 1179 lop~ 4500;
#X obj 580 1188 lop~ 4500;
#X obj 728 1193 lop~ 4500;
#X obj 729 1169 tabread4~ table4;
#X obj 581 1164 tabread4~ table3;
#X obj 243 1155 tabread4~ table2;
#X obj 343 831 line~;
#X floatatom 439 746 0 0 0 0 - - -;
#X obj 343 855 mtof~;
#X obj 342 918 phasor~;
#X obj 439 701 r portamento;
#X obj 343 807 pack 0 10;
#X obj 340 658 r main_octave;
#X obj 325 745 + 0;
#X obj 616 761 r bigbang;
#X msg 366 722 0;
#X obj 185 1088 *~;
#X obj 282 1085 *~;
#X obj 582 1095 *~;
#X obj 728 1096 *~;
#X obj 748 962 route 1 2 3 4;
#X obj 748 927 r tableSize;
#X obj 682 337 r bigbang;
#X obj 664 677 pack;
#X obj 558 656 pack;
#X text 750 396 ball A-R;
#X obj 239 64 delay 100;
#X obj 194 242 pack 1 1;
#X obj 194 154 int;
#X obj 251 94 t b 0;
#X obj 343 65 t b b;
#X msg 393 98 100;
#X msg 312 124 0;
#X floatatom 193 176 5 0 0 0 - - -;
#X obj 164 206 +;
#X obj 201 5 t b b f;
#X obj 201 -89 inlet;
#X obj 38 97 r ball_octave;
#X msg 460 780 10;
#X connect 0 0 1 0;
#X connect 0 1 5 0;
#X connect 1 0 37 0;
#X connect 2 0 3 0;
#X connect 3 0 47 0;
#X connect 4 0 21 1;
#X connect 5 0 48 0;
#X connect 5 1 2 0;
#X connect 7 0 14 0;
#X connect 8 0 14 0;
#X connect 9 0 8 1;
#X connect 9 0 10 0;
#X connect 9 0 13 1;
#X connect 10 0 7 1;
#X connect 10 0 12 1;
#X connect 11 0 9 0;
#X connect 12 0 15 0;
#X connect 13 0 15 0;
#X connect 14 0 21 0;
#X connect 15 0 21 0;
#X connect 16 0 15 1;
#X connect 16 0 17 0;
#X connect 17 0 14 1;
#X connect 18 0 16 0;
#X connect 19 0 47 1;
#X connect 20 0 48 1;
#X connect 21 0 6 0;
#X connect 22 0 7 0;
#X connect 23 0 22 0;
#X connect 24 0 8 0;
#X connect 25 0 12 0;
#X connect 26 0 13 0;
#X connect 27 0 26 0;
#X connect 28 0 25 0;
#X connect 29 0 24 0;
#X connect 30 0 32 0;
#X connect 31 0 35 1;
#X connect 32 0 33 0;
#X connect 33 0 40 0;
#X connect 33 0 41 0;
#X connect 33 0 42 0;
#X connect 33 0 43 0;
#X connect 34 0 31 0;
#X connect 35 0 30 0;
#X connect 36 0 37 1;
#X connect 37 0 35 0;
#X connect 38 0 62 0;
#X connect 38 0 39 0;
#X connect 39 0 37 1;
#X connect 40 0 23 0;
#X connect 41 0 29 0;
#X connect 42 0 28 0;
#X connect 43 0 27 0;
#X connect 44 0 40 1;
#X connect 44 1 41 1;
#X connect 44 2 42 1;
#X connect 44 3 43 1;
#X connect 45 0 44 0;
#X connect 46 0 19 0;
#X connect 46 0 20 0;
#X connect 47 0 4 0;
#X connect 48 0 4 0;
#X connect 50 0 53 0;
#X connect 51 0 0 0;
#X connect 52 0 57 0;
#X connect 53 0 52 0;
#X connect 53 1 56 0;
#X connect 54 0 52 0;
#X connect 54 1 55 0;
#X connect 55 0 51 1;
#X connect 56 0 51 1;
#X connect 57 0 58 0;
#X connect 58 0 51 0;
#X connect 59 0 50 0;
#X connect 59 1 54 0;
#X connect 59 2 52 1;
#X connect 60 0 59 0;
#X connect 61 0 58 1;
#X connect 62 0 35 1;
