#N canvas 164 223 856 509 10;
#X obj 168 314 sel 1 0;
#X obj 283 229 r ballY;
#X floatatom 283 258 5 0 0 0 - - -, f 5;
#X floatatom 400 243 5 0 0 0 - - -, f 5;
#X floatatom 519 206 5 0 0 1 paddle_size - -, f 5;
#X obj 160 206 bng 15 250 50 0 empty empty empty 17 7 0 10 -262144
-1 -1;
#X msg 191 347 1;
#X obj 168 284 expr if($f2 > $f3 - $f4 && $f2 < $f3 + $f4 \, 1 \, 0)
\;;
#X obj 156 75 inlet;
#X obj 191 555 outlet;
#X obj 396 84 inlet;
#X obj 523 177 r paddle_height;
#X obj 261 490 s sfx_goal;
#X obj 76 509 s sfx_padle;
#X obj 400 185 * 64;
#X obj 520 228 / 2;
#X obj 191 475 spigot;
#X obj 402 404 r winningOff;
#X obj 99 476 spigot;
#X connect 0 0 18 0;
#X connect 0 1 6 0;
#X connect 1 0 2 0;
#X connect 2 0 7 1;
#X connect 3 0 7 2;
#X connect 4 0 15 0;
#X connect 5 0 7 0;
#X connect 6 0 16 0;
#X connect 7 0 0 0;
#X connect 8 0 5 0;
#X connect 10 0 14 0;
#X connect 11 0 4 0;
#X connect 14 0 3 0;
#X connect 15 0 7 3;
#X connect 16 0 9 0;
#X connect 16 0 12 0;
#X connect 17 0 18 1;
#X connect 17 0 16 1;
#X connect 18 0 13 0;
