#N canvas 6 50 1009 687 10;
#X obj 806 14 inlet;
#X obj 474 111 until;
#X obj 629 148 array size \$1;
#X floatatom 629 171 5 0 0 0 - - -, f 5;
#X obj 627 -32 inlet;
#X obj 629 190 / 64;
#X obj 513 182 +;
#X obj 474 271 int;
#X obj 474 182 i;
#X obj 474 320 tabread;
#X msg 736 147 set \$1;
#X obj 838 250 pack 1 1 1;
#X floatatom 900 163 5 0 63 0 - - -, f 5;
#X floatatom 863 163 5 0 123 0 - - -, f 5;
#X obj 474 424 +;
#X obj 635 403 +;
#X floatatom 635 383 5 0 0 0 - - -, f 5;
#X obj 474 364 expr ($f1 + 1) / 2;
#X obj 474 481 pack;
#X obj 474 444 i;
#X obj 507 219 i;
#X obj 540 218 + 1;
#X obj 681 817 s 2screen;
#X obj 873 226 + 1;
#X obj 911 228 + 1;
#X msg 828 452 /oled/gFillArea 3 \$2 \$3 62 30 0;
#X msg 474 507 \$2 \$1;
#X obj 459 637 unpack;
#X obj 581 661 i;
#X obj 611 661 i;
#X obj 460 700 pack 1 2 3 4;
#X obj 533 625 bang;
#X obj 474 535 t l l;
#X obj 559 565 unpack;
#X msg 474 86 60;
#X msg 562 142 2;
#X obj 475 392 expr $f1 * 28 + 2;
#X obj 794 81 bng 15 250 50 0 empty empty empty 17 7 0 10 -262144 -1
-1;
#X floatatom 596 191 5 0 0 0 - - -, f 5;
#X floatatom 677 383 5 0 0 0 - - -, f 5;
#X floatatom 513 465 5 0 0 0 - - -, f 5;
#X msg 460 727 /oled/gLine 3 \$3 \$4 \$1 \$2 1;
#X obj 474 141 t b b;
#X obj 864 82 unpack 1 2;
#X obj 1056 16 inlet;
#X msg -34 458 /oled/gFillArea 3 \$2 \$3 62 30 0;
#X obj -59 324 t l l;
#N canvas 4 50 450 558 int_len 0;
#X obj 78 179 t b i;
#X msg 161 178 1;
#X obj 76 210 i;
#X obj 74 245 expr if($f1 / 10 > 0 \, $f1 / 10 \, 0);
#X floatatom 125 119 5 0 0 0 - - -, f 5;
#X obj 127 46 inlet;
#X obj 72 286 sel 0;
#X obj 104 317 bng 15 250 50 0 empty empty empty 17 7 0 10 -262144
-1 -1;
#X obj 103 344 i;
#X obj 157 344 + 1;
#X floatatom 102 396 5 0 0 0 - - -, f 5;
#X obj 102 442 outlet;
#X connect 0 0 2 0;
#X connect 0 1 2 1;
#X connect 1 0 8 1;
#X connect 2 0 3 0;
#X connect 3 0 6 0;
#X connect 4 0 1 0;
#X connect 4 0 0 0;
#X connect 5 0 4 0;
#X connect 6 1 7 0;
#X connect 6 1 0 0;
#X connect 7 0 8 0;
#X connect 8 0 9 0;
#X connect 8 0 10 0;
#X connect 9 0 8 1;
#X connect 10 0 11 0;
#X restore 206 489 pd int_len;
#X obj -65 673 pack 1 2 3;
#X floatatom 206 462 5 0 0 0 - - -, f 5;
#X floatatom 205 515 5 0 0 0 - - -, f 5;
#X msg -66 748 /oled/gPrintln 3 \$1 \$2 8 1 \$3;
#X obj -61 541 unpack 1 2 3;
#X obj -65 588 expr if($f1 == 1 \, 2 \, 128 - $f2 * 6 - 2);
#X obj 253 586 expr if($f1 == 1 \, 2 \, 55);
#X obj 187 670 pack 1 2 3;
#X obj -64 625 t f f;
#X obj -62 253 pack 1 1 1;
#X obj 627 3 t b b b s b;
#X msg 170 703 /oled/gFillArea 3 \$1 \$2 \$3 8 0;
#X obj 253 630 expr $f1 * 6;
#X connect 0 0 43 0;
#X connect 1 0 42 0;
#X connect 2 0 3 0;
#X connect 3 0 5 0;
#X connect 4 0 58 0;
#X connect 5 0 38 0;
#X connect 6 0 8 1;
#X connect 7 0 9 0;
#X connect 8 0 6 0;
#X connect 8 0 7 0;
#X connect 9 0 17 0;
#X connect 10 0 9 0;
#X connect 11 0 25 0;
#X connect 12 0 14 1;
#X connect 12 0 24 0;
#X connect 12 0 29 1;
#X connect 13 0 23 0;
#X connect 13 0 28 1;
#X connect 13 0 39 0;
#X connect 14 0 19 0;
#X connect 15 0 40 0;
#X connect 16 0 15 0;
#X connect 17 0 36 0;
#X connect 18 0 26 0;
#X connect 19 0 18 0;
#X connect 20 0 21 0;
#X connect 20 0 16 0;
#X connect 21 0 20 1;
#X connect 23 0 11 1;
#X connect 23 0 57 1;
#X connect 24 0 11 2;
#X connect 24 0 57 2;
#X connect 25 0 22 0;
#X connect 26 0 32 0;
#X connect 27 0 30 0;
#X connect 27 1 31 0;
#X connect 27 1 30 1;
#X connect 28 0 30 2;
#X connect 29 0 30 3;
#X connect 30 0 41 0;
#X connect 31 0 28 0;
#X connect 31 0 29 0;
#X connect 32 0 33 0;
#X connect 32 1 27 0;
#X connect 33 0 28 1;
#X connect 33 1 29 1;
#X connect 34 0 1 0;
#X connect 35 0 8 1;
#X connect 35 0 20 1;
#X connect 36 0 14 0;
#X connect 37 0 12 0;
#X connect 37 0 13 0;
#X connect 38 0 6 1;
#X connect 39 0 15 1;
#X connect 40 0 18 1;
#X connect 41 0 22 0;
#X connect 42 0 8 0;
#X connect 42 1 20 0;
#X connect 43 0 13 0;
#X connect 43 1 12 0;
#X connect 44 0 49 0;
#X connect 46 0 52 0;
#X connect 46 1 45 0;
#X connect 47 0 50 0;
#X connect 48 0 51 0;
#X connect 49 0 47 0;
#X connect 49 0 48 2;
#X connect 50 0 53 1;
#X connect 50 0 60 0;
#X connect 51 0 22 0;
#X connect 52 1 53 0;
#X connect 52 2 54 0;
#X connect 53 0 56 0;
#X connect 54 0 48 1;
#X connect 54 0 55 1;
#X connect 55 0 59 0;
#X connect 56 0 48 0;
#X connect 56 1 55 0;
#X connect 57 0 46 0;
#X connect 58 0 57 0;
#X connect 58 1 34 0;
#X connect 58 2 2 0;
#X connect 58 2 35 0;
#X connect 58 2 37 0;
#X connect 58 3 10 0;
#X connect 58 3 2 1;
#X connect 58 4 11 0;
#X connect 59 0 22 0;
#X connect 60 0 55 2;
