#N canvas 11 50 1009 687 10;
#X obj 131 221 expr $f1 + $f3 \; $f2 + $f4;
#X obj 132 65 inlet;
#X obj 131 423 s 2screen;
#X msg 131 324 /oled/gSetPixel 3 \$1 \$2 \$3;
#X obj 131 130 unpack 1 2 3;
#X obj 131 285 pack 1 2 3;
#X obj 343 67 inlet;
#X obj 274 67 inlet;
#X connect 0 0 5 0;
#X connect 0 1 5 1;
#X connect 1 0 4 0;
#X connect 3 0 2 0;
#X connect 4 0 0 0;
#X connect 4 1 0 1;
#X connect 4 2 5 2;
#X connect 5 0 3 0;
#X connect 6 0 0 3;
#X connect 7 0 0 2;
