#N canvas 59 72 450 300 10;
#X obj 255 49 inlet;
#X obj 646 226 s 2screen;
#X msg 646 196 /oled/gLine 3 2 15 121 15 1;
#N canvas 11 50 1009 686 HOLD 0;
#X obj 59 93 t b b b;
#X obj 52 49 inlet;
#X obj 596 665 gfx_rec;
#X obj 232 658 gfx_line;
#X obj 55 661 gfx_pix;
#X obj 708 610 loadbang;
#X msg 708 634 0;
#X msg 650 360 13 2 18 11 1;
#X msg 316 454 13 7 27 7 0;
#X msg 309 476 17 2 17 12 0;
#X msg 308 497 22 2 22 12 0;
#X msg 310 520 26 2 26 6 0;
#X msg 267 252 15 2 15 3 0;
#X msg 275 275 15 5 15 6 0;
#X msg 281 300 20 3 20 5 0;
#X msg 291 320 25 2 25 5 0;
#X msg 302 339 29 3 29 5 0;
#X msg 306 361 15 11 15 12 0;
#X msg 315 384 20 8 20 11 0;
#X msg 321 406 25 8 25 9 0;
#X msg 327 426 25 11 25 12 0;
#X msg 90 419 30 2 0;
#X msg 78 447 30 6 0;
#X msg 81 347 15 9 0;
#X msg 88 370 23 10 0;
#X msg 94 392 27 10 0;
#X msg 646 284 35 6 2 4 1;
#X msg 639 262 34 7 4 2 1;
#X msg 640 215 2 9 9 2 1;
#X msg 637 154 2 5 4 3 1;
#X msg 640 177 7 5 4 3 1;
#X msg 241 176 2 5 4 3 0;
#X msg 252 194 8 3 10 5 0;
#X msg 264 215 5 7 7 7 0;
#X msg 659 384 28 7 3 6 0;
#X msg 637 129 4 3 5 3 1;
#X connect 0 0 22 0;
#X connect 0 0 21 0;
#X connect 0 0 23 0;
#X connect 0 0 25 0;
#X connect 0 0 24 0;
#X connect 0 1 12 0;
#X connect 0 1 13 0;
#X connect 0 1 8 0;
#X connect 0 1 9 0;
#X connect 0 1 10 0;
#X connect 0 1 11 0;
#X connect 0 1 14 0;
#X connect 0 1 15 0;
#X connect 0 1 16 0;
#X connect 0 1 17 0;
#X connect 0 1 18 0;
#X connect 0 1 19 0;
#X connect 0 1 20 0;
#X connect 0 1 31 0;
#X connect 0 1 33 0;
#X connect 0 1 32 0;
#X connect 0 2 7 0;
#X connect 0 2 34 0;
#X connect 0 2 27 0;
#X connect 0 2 26 0;
#X connect 0 2 35 0;
#X connect 0 2 30 0;
#X connect 0 2 29 0;
#X connect 0 2 28 0;
#X connect 1 0 0 0;
#X connect 5 0 6 0;
#X connect 6 0 2 2;
#X connect 6 0 2 1;
#X connect 6 0 3 2;
#X connect 6 0 3 1;
#X connect 6 0 4 2;
#X connect 6 0 4 1;
#X connect 7 0 2 0;
#X connect 8 0 3 0;
#X connect 9 0 3 0;
#X connect 10 0 3 0;
#X connect 11 0 3 0;
#X connect 12 0 3 0;
#X connect 13 0 3 0;
#X connect 14 0 3 0;
#X connect 15 0 3 0;
#X connect 16 0 3 0;
#X connect 17 0 3 0;
#X connect 18 0 3 0;
#X connect 19 0 3 0;
#X connect 20 0 3 0;
#X connect 21 0 4 0;
#X connect 22 0 4 0;
#X connect 23 0 4 0;
#X connect 24 0 4 0;
#X connect 25 0 4 0;
#X connect 26 0 2 0;
#X connect 27 0 2 0;
#X connect 28 0 2 0;
#X connect 29 0 2 0;
#X connect 30 0 2 0;
#X connect 31 0 3 0;
#X connect 32 0 3 0;
#X connect 33 0 3 0;
#X connect 34 0 2 0;
#X connect 35 0 2 0;
#X restore 510 326 pd HOLD;
#N canvas 6 50 1009 686 PUSH 0;
#X obj 59 93 t b b b;
#X obj 52 49 inlet;
#X obj 596 665 gfx_rec;
#X obj 232 658 gfx_line;
#X obj 55 661 gfx_pix;
#X obj 708 610 loadbang;
#X msg 708 634 0;
#X msg 623 61 90 7 4 2 1;
#X msg 630 81 91 6 2 4 1;
#X msg 652 206 98 2 19 5 1;
#X msg 653 230 102 8 15 5 1;
#X msg 561 250 100 5 2 2 0;
#X msg 280 166 102 2 102 6 0;
#X msg 280 187 107 2 107 6 0;
#X msg 282 209 112 2 112 6 0;
#X msg 285 284 110 3 111 3 0;
#X msg 286 327 115 5 115 6 0;
#X msg 288 448 104 11 104 12 0;
#X msg 304 493 114 8 114 9 0;
#X msg 309 514 114 11 114 12 0;
#X msg 291 401 106 8 106 12 0;
#X msg 283 423 111 8 111 12 0;
#X msg 25 370 100 3 0;
#X msg 94 392 112 10 0;
#X msg 90 419 116 10 0;
#X msg 775 284 120 3 3 4 1;
#X msg 775 308 120 8 3 4 1;
#X msg 312 554 122 3 124 5 0;
#X msg 319 575 122 11 124 9 0;
#X msg 323 596 120 6 120 8 0;
#X msg 775 339 122 5 3 5 1;
#X msg 283 261 108 5 110 5 0;
#X msg 280 237 105 2 105 5 0;
#X msg 287 305 115 2 115 3 0;
#X msg 349 471 109 8 109 11 0;
#X msg 101 499 104 9 0;
#X connect 0 0 24 0;
#X connect 0 0 22 0;
#X connect 0 0 23 0;
#X connect 0 0 35 0;
#X connect 0 1 14 0;
#X connect 0 1 32 0;
#X connect 0 1 20 0;
#X connect 0 1 21 0;
#X connect 0 1 15 0;
#X connect 0 1 33 0;
#X connect 0 1 16 0;
#X connect 0 1 17 0;
#X connect 0 1 34 0;
#X connect 0 1 18 0;
#X connect 0 1 19 0;
#X connect 0 1 11 0;
#X connect 0 1 13 0;
#X connect 0 1 12 0;
#X connect 0 1 27 0;
#X connect 0 1 29 0;
#X connect 0 1 28 0;
#X connect 0 1 31 0;
#X connect 0 2 9 0;
#X connect 0 2 10 0;
#X connect 0 2 7 0;
#X connect 0 2 8 0;
#X connect 0 2 25 0;
#X connect 0 2 30 0;
#X connect 0 2 26 0;
#X connect 1 0 0 0;
#X connect 5 0 6 0;
#X connect 6 0 2 2;
#X connect 6 0 2 1;
#X connect 6 0 3 2;
#X connect 6 0 3 1;
#X connect 6 0 4 2;
#X connect 6 0 4 1;
#X connect 7 0 2 0;
#X connect 8 0 2 0;
#X connect 9 0 2 0;
#X connect 10 0 2 0;
#X connect 11 0 2 0;
#X connect 12 0 3 0;
#X connect 13 0 3 0;
#X connect 14 0 3 0;
#X connect 15 0 3 0;
#X connect 16 0 3 0;
#X connect 17 0 3 0;
#X connect 18 0 3 0;
#X connect 19 0 3 0;
#X connect 20 0 3 0;
#X connect 21 0 3 0;
#X connect 22 0 4 0;
#X connect 23 0 4 0;
#X connect 24 0 4 0;
#X connect 25 0 2 0;
#X connect 26 0 2 0;
#X connect 27 0 3 0;
#X connect 28 0 3 0;
#X connect 29 0 3 0;
#X connect 30 0 2 0;
#X connect 31 0 3 0;
#X connect 32 0 3 0;
#X connect 33 0 3 0;
#X connect 34 0 3 0;
#X connect 35 0 4 0;
#X restore 317 324 pd PUSH;
#X obj 247 125 t b b b;
#X connect 0 0 5 0;
#X connect 2 0 1 0;
#X connect 5 0 4 0;
#X connect 5 1 3 0;
#X connect 5 2 2 0;
