#N canvas 230 265 1024 687 10;
#X floatatom -101 593 5 0 0 0 - - -;
#X floatatom -91 118 5 0 0 0 - - -;
#X obj -96 318 float;
#X obj -101 567 line;
#X obj -101 541 pack;
#X obj -96 344 t f b;
#X floatatom -503 405 5 0 0 0 - - -;
#X floatatom -36 443 5 0 0 0 - - -;
#X obj -36 417 +;
#X floatatom -509 120 5 0 0 0 - - -;
#X obj 240 726 outlet;
#X obj -509 91 r ballX;
#X obj -91 92 r ballY;
#X obj 126 140 bng 15 250 50 0 empty empty empty 17 7 0 10 -262144
-1 -1;
#X obj 149 138 r direction;
#X floatatom 149 288 5 0 0 0 - - -;
#X obj 150 317 sel 0;
#X obj 149 261 expr if ($f1 == 1 \, 1 \, 0);
#X obj -36 466 +, f 9;
#X floatatom -36 492 10 0 0 0 - - -;
#X msg 170 375 0;
#X floatatom 94 456 5 0 0 0 - - -;
#X obj 96 431 line 2000;
#X obj 97 404 pack \$1 2000;
#X text -354 265 a little bit of delay to the paddle;
#X obj 150 193 *;
#X floatatom 270 126 5 0 0 0 - - -;
#X obj 270 77 sel 1;
#X msg 267 103 -1;
#X msg 307 102 1;
#X floatatom 150 165 5 0 0 0 - - -;
#X floatatom 149 218 5 0 0 0 - - -;
#X obj 270 29 inlet;
#X msg 96 374 10000;
#X obj -166 200 r bigbang;
#X obj 67 528 /;
#X obj 85 506 r height;
#X obj 526 25 inlet;
#X obj 621 21 inlet;
#X floatatom 217 681 5 0 0 0 - - -;
#X floatatom 67 573 5 0 0 0 - - -;
#X floatatom 210 623 5 0 0 0 - - -;
#X floatatom 516 341 5 0 0 0 - - -;
#X floatatom 605 306 5 0 0 0 - - -;
#X obj 209 596 expr if ($f2 == 1 \, $f1 \, $f3);
#X obj 208 650 expr $f1 * ($f2 - $f3) + $f3/2;
#X obj 492 603 r height;
#X obj 529 628 r paddle_height;
#X obj 279 700 /;
#X text 308 126 = 1 if right paddle;
#X obj -493 227 pack;
#X obj -456 176 int;
#X obj -493 256 route -1 1;
#X obj -457 150 bang;
#X obj -441 389 bng 15 250 50 0 empty empty empty 17 7 0 10 -262144
-1 -1;
#X obj -491 363 bng 15 250 50 0 empty empty empty 17 7 0 10 -262144
-1 -1;
#X floatatom -299 230 5 0 0 0 - - -;
#X obj -300 282 expr $f2 - 200 * $f1;
#X msg -164 234 1200;
#X obj -503 339 expr ( $f1 / 128 ) * $f2;
#X obj -456 370 expr ( 1 - ($f1 / 128) ) * $f2;
#X obj 602 339 change;
#X obj -299 206 r knob4_1;
#X msg -233 235 0.5;
#X msg 582 528 0.5;
#X obj 625 499 loadbang;
#X connect 0 0 35 0;
#X connect 1 0 2 0;
#X connect 2 0 5 0;
#X connect 3 0 0 0;
#X connect 4 0 3 0;
#X connect 5 0 4 0;
#X connect 5 1 8 0;
#X connect 6 0 8 1;
#X connect 7 0 18 0;
#X connect 8 0 7 0;
#X connect 9 0 50 1;
#X connect 9 0 53 0;
#X connect 11 0 9 0;
#X connect 12 0 1 0;
#X connect 14 0 13 0;
#X connect 14 0 30 0;
#X connect 15 0 16 0;
#X connect 16 0 33 0;
#X connect 16 1 20 0;
#X connect 17 0 15 0;
#X connect 18 0 19 0;
#X connect 19 0 4 1;
#X connect 20 0 23 0;
#X connect 21 0 18 1;
#X connect 22 0 21 0;
#X connect 23 0 22 0;
#X connect 25 0 31 0;
#X connect 26 0 25 1;
#X connect 26 0 51 1;
#X connect 27 0 28 0;
#X connect 27 1 29 0;
#X connect 28 0 26 0;
#X connect 29 0 26 0;
#X connect 30 0 25 0;
#X connect 31 0 17 0;
#X connect 32 0 27 0;
#X connect 33 0 23 0;
#X connect 34 0 58 0;
#X connect 34 0 63 0;
#X connect 35 0 40 0;
#X connect 35 0 44 0;
#X connect 36 0 35 1;
#X connect 37 0 42 0;
#X connect 38 0 43 0;
#X connect 39 0 48 0;
#X connect 41 0 45 0;
#X connect 42 0 44 1;
#X connect 43 0 61 0;
#X connect 44 0 41 0;
#X connect 45 0 39 0;
#X connect 46 0 45 1;
#X connect 46 0 48 1;
#X connect 47 0 45 2;
#X connect 48 0 10 0;
#X connect 50 0 52 0;
#X connect 51 0 50 0;
#X connect 52 0 59 0;
#X connect 52 1 60 0;
#X connect 53 0 51 0;
#X connect 56 0 57 0;
#X connect 57 0 59 1;
#X connect 57 0 60 1;
#X connect 58 0 57 1;
#X connect 59 0 6 0;
#X connect 59 0 55 0;
#X connect 60 0 6 0;
#X connect 60 0 54 0;
#X connect 61 0 44 2;
#X connect 62 0 56 0;
#X connect 63 0 56 0;
#X connect 64 0 44 2;
#X connect 65 0 64 0;
#X coords 0 687 1 686 85 60 0;
