#N canvas 4 50 1009 687 10;
#X msg 787 602 1;
#X msg 886 599 -1;
#X obj 502 105 bng 25 250 50 0 empty empty tick 17 7 0 10 -262144 -1
-1;
#X floatatom 622 408 5 0 0 0 - - -, f 5;
#X floatatom 600 701 5 0 0 0 - - -, f 5;
#X obj 578 397 int;
#X obj 886 557 spigot;
#X floatatom 788 661 5 0 0 0 - - -, f 5;
#X obj 787 560 spigot;
#X obj 787 518 <= 1;
#X obj 625 439 t i i i;
#X obj 54 14 inlet;
#X obj 545 798 outlet;
#X floatatom 916 290 5 0 0 0 - - -, f 5;
#X obj 637 656 expr $f1 + $f2 * $f3;
#X obj 885 518 >=;
#X obj 443 749 change;
#X obj 442 769 bng 15 250 50 0 empty empty empty 17 7 0 10 -262144
-1 -1;
#X msg 261 600 1;
#X msg 360 597 -1;
#X obj 51 72 bng 25 250 50 0 empty empty tick 17 7 0 10 -262144 -1
-1;
#X floatatom 96 406 5 0 0 0 - - -, f 5;
#X floatatom 74 699 5 0 0 0 - - -, f 5;
#X obj 52 395 int;
#X obj 360 555 spigot;
#X floatatom 261 632 5 0 0 0 - - -, f 5;
#X obj 261 558 spigot;
#X obj 99 437 t i i i;
#X obj 77 802 outlet;
#X obj 1151 -175 inlet;
#X floatatom 481 275 5 0 0 0 - - -, f 5;
#X obj 111 654 expr $f1 + $f2 * $f3;
#X obj 380 506 >=;
#X obj 216 773 s direction;
#X obj 515 856 s sfx_bounce;
#X obj 788 693 change;
#X obj 833 695 bng 15 250 50 0 empty empty empty 17 7 0 10 -262144
-1 -1;
#X obj 373 845 s paddlebounce;
#X obj 966 400 r height;
#X obj 402 390 r paddle_width;
#X obj 219 511 <=;
#X obj 1050 283 r ball_size;
#X obj 905 482 expr $f2 - $f1 - $f3;
#X floatatom 771 248 5 0 0 0 - - -, f 5;
#X floatatom 1152 197 5 0 0 0 - - -, f 5;
#X floatatom 861 -4 5 0 0 0 - - -, f 5;
#X obj 863 24 expr $f2 - ($f2 * $f1) + 1 \; $f2 * $f1 + 1;
#X floatatom 1151 -31 5 0 0 0 - - -, f 5;
#X msg 811 -45 0.5;
#X floatatom 907 -105 5 0 0 0 - - -, f 5;
#X obj 908 -132 random 100;
#X floatatom 909 -61 5 0 0 0 - - -, f 5;
#X obj 908 -158 r paddlebounce;
#X obj 908 -85 / 100;
#X obj 907 -34 expr $f1 * 0.6 + 0.2;
#X obj 739 390 expr $f1 + $f2;
#X msg 126 308 64;
#X msg 190 308 32;
#X obj 503 549 r bigbang;
#X obj 1157 -7 change;
#X obj 1128 18 bng 15 250 50 0 empty empty empty 17 7 0 10 -262144
-1 -1;
#X obj 786 -72 r resetGame;
#X obj 125 264 r resetGame;
#X obj 1035 323 t b f;
#X obj 306 374 r ball_size;
#X obj 218 442 expr $f1 + $f2;
#X obj 435 469 expr 128 - $f2 - $f1;
#X obj 826 88 sel 1;
#X obj 594 169 spigot;
#X msg 818 133 1;
#X msg 841 133 0;
#X obj 882 183 spigot;
#X msg 753 130 1;
#X msg 776 130 0;
#X obj 1091 128 spigot;
#X msg 1057 159 0;
#X obj 985 182 s ballY;
#X obj 929 78 bang;
#X msg 984 158 32;
#X obj 826 67 r steadyX;
#X msg 732 28 0;
#X obj 628 831 spigot;
#X obj 839 760 r winningOff;
#X connect 0 0 7 0;
#X connect 1 0 7 0;
#X connect 2 0 5 0;
#X connect 3 0 10 0;
#X connect 4 0 5 1;
#X connect 4 0 12 0;
#X connect 5 0 3 0;
#X connect 6 0 1 0;
#X connect 7 0 14 2;
#X connect 7 0 35 0;
#X connect 8 0 0 0;
#X connect 9 0 8 1;
#X connect 9 0 8 0;
#X connect 10 0 14 0;
#X connect 10 1 9 0;
#X connect 10 2 15 0;
#X connect 11 0 2 0;
#X connect 11 0 20 0;
#X connect 13 0 14 1;
#X connect 13 0 42 0;
#X connect 13 0 55 0;
#X connect 14 0 4 0;
#X connect 15 0 6 1;
#X connect 15 0 6 0;
#X connect 16 0 17 0;
#X connect 16 0 33 0;
#X connect 17 0 37 0;
#X connect 18 0 25 0;
#X connect 19 0 25 0;
#X connect 20 0 23 0;
#X connect 21 0 27 0;
#X connect 22 0 23 1;
#X connect 22 0 28 0;
#X connect 23 0 21 0;
#X connect 24 0 19 0;
#X connect 25 0 31 2;
#X connect 25 0 16 0;
#X connect 26 0 18 0;
#X connect 27 0 31 0;
#X connect 27 1 40 0;
#X connect 27 2 32 0;
#X connect 29 0 47 0;
#X connect 30 0 31 1;
#X connect 31 0 22 0;
#X connect 32 0 24 1;
#X connect 32 0 24 0;
#X connect 35 0 36 0;
#X connect 36 0 81 0;
#X connect 38 0 42 1;
#X connect 39 0 65 1;
#X connect 39 0 66 1;
#X connect 40 0 26 1;
#X connect 40 0 26 0;
#X connect 41 0 63 0;
#X connect 42 0 15 1;
#X connect 43 0 30 0;
#X connect 44 0 13 0;
#X connect 45 0 46 0;
#X connect 46 0 68 0;
#X connect 46 1 74 0;
#X connect 47 0 46 1;
#X connect 47 0 59 0;
#X connect 47 0 71 0;
#X connect 48 0 45 0;
#X connect 49 0 53 0;
#X connect 50 0 49 0;
#X connect 51 0 54 0;
#X connect 52 0 50 0;
#X connect 53 0 51 0;
#X connect 54 0 45 0;
#X connect 55 0 9 1;
#X connect 56 0 23 0;
#X connect 57 0 5 0;
#X connect 58 0 18 0;
#X connect 58 0 0 0;
#X connect 59 0 60 0;
#X connect 60 0 45 0;
#X connect 61 0 48 0;
#X connect 62 0 57 0;
#X connect 62 0 56 0;
#X connect 63 0 13 0;
#X connect 63 1 42 2;
#X connect 63 1 55 1;
#X connect 64 0 65 0;
#X connect 64 0 66 0;
#X connect 65 0 40 1;
#X connect 66 0 32 1;
#X connect 67 0 72 0;
#X connect 67 0 73 0;
#X connect 67 0 77 0;
#X connect 67 1 69 0;
#X connect 67 1 70 0;
#X connect 68 0 43 0;
#X connect 69 0 68 1;
#X connect 69 0 74 1;
#X connect 70 0 71 1;
#X connect 71 0 43 0;
#X connect 72 0 71 1;
#X connect 73 0 68 1;
#X connect 73 0 74 1;
#X connect 74 0 44 0;
#X connect 75 0 44 0;
#X connect 77 0 75 0;
#X connect 77 0 78 0;
#X connect 78 0 76 0;
#X connect 79 0 67 0;
#X connect 80 0 67 0;
#X connect 81 0 34 0;
#X connect 82 0 81 1;
