#N canvas 4 50 1486 708 10;
#X obj 276 158 s lastnote;
#X obj 156 55 unpack;
#X floatatom 156 95 5 0 0 0 - - -;
#X floatatom 632 166 5 0 0 0 - - -;
#X obj 632 202 / 127;
#X obj 526 259 line~;
#X obj 529 103 sel 0;
#X obj 374 1065 outlet~;
#X obj 160 -86 inlet;
#X obj 276 100 spigot;
#X obj 63 881 *~;
#X obj 211 870 *~;
#X floatatom 379 813 5 0 0 0 - - -;
#X obj 352 834 expr 1 - $f1;
#X obj 379 788 r mix_X;
#X obj 546 877 *~;
#X obj 696 867 *~;
#X obj 208 936 *~;
#X obj 553 937 *~;
#X floatatom 374 912 5 0 0 0 - - -;
#X obj 338 947 expr 1 - $f1;
#X obj 374 887 r mix_Y;
#X obj 379 1029 *~;
#X obj 67 743 lop~ 4500;
#X obj 68 719 tabread4~ table1;
#X obj 210 743 lop~ 4500;
#X obj 548 752 lop~ 4500;
#X obj 696 757 lop~ 4500;
#X obj 697 733 tabread4~ table4;
#X obj 549 728 tabread4~ table3;
#X obj 211 719 tabread4~ table2;
#X obj 311 395 line~;
#X obj 311 419 mtof~;
#X obj 310 482 phasor~;
#X obj 311 371 pack 0 10;
#X obj 293 309 + 0;
#X obj 153 652 *~;
#X obj 250 649 *~;
#X obj 550 659 *~;
#X obj 696 660 *~;
#X obj 716 526 route 1 2 3 4;
#X obj 716 491 r tableSize;
#X obj 833 -120 r bigbang;
#X obj 632 241 pack;
#X obj 526 220 pack;
#X obj 942 23 expr $f1 * 1000 + 5;
#X obj 1206 21 expr $f1 * 1000 + 5;
#X obj 608 -46 r knob1_3;
#X obj 942 -47 r knob2_3;
#X obj 1069 -48 r knob3_3;
#X obj 1205 -48 r knob4_3;
#X obj 605 25 expr $f4 + ($f1 - $f2) * (($f5 - $f4) / ($f3 - $f2))
;
#X msg 696 -1 0;
#X msg 726 -1 1;
#X obj 607 -21 t f b;
#X obj 605 47 i;
#X msg 812 -2 2;
#X obj 605 67 * 12;
#X floatatom 1206 46 5 0 0 0 - - -;
#X floatatom 1069 44 5 0 0 0 - - -;
#X floatatom 943 45 5 0 0 0 - - -;
#X floatatom 605 88 5 0 0 0 - - -;
#X obj 1069 21 expr $f1 * 2000 + 10;
#X msg 773 -89 0;
#X msg 834 -92 10;
#X msg 895 -92 600;
#X msg 951 -95 10;
#X obj 971 238 s synth_param2;
#X obj 877 238 s synth_param1;
#X obj 1064 238 s synth_param3;
#X obj 1156 238 s synth_param4;
#X msg 783 -1 -3;
#X connect 1 0 2 0;
#X connect 1 1 6 0;
#X connect 1 1 9 1;
#X connect 2 0 9 0;
#X connect 2 0 35 0;
#X connect 3 0 4 0;
#X connect 4 0 43 0;
#X connect 5 0 22 1;
#X connect 6 0 44 0;
#X connect 6 1 3 0;
#X connect 8 0 1 0;
#X connect 9 0 0 0;
#X connect 10 0 17 0;
#X connect 11 0 17 0;
#X connect 12 0 11 1;
#X connect 12 0 13 0;
#X connect 12 0 16 1;
#X connect 13 0 10 1;
#X connect 13 0 15 1;
#X connect 14 0 12 0;
#X connect 15 0 18 0;
#X connect 16 0 18 0;
#X connect 17 0 22 0;
#X connect 18 0 22 0;
#X connect 19 0 18 1;
#X connect 19 0 20 0;
#X connect 20 0 17 1;
#X connect 21 0 19 0;
#X connect 22 0 7 0;
#X connect 23 0 10 0;
#X connect 24 0 23 0;
#X connect 25 0 11 0;
#X connect 26 0 15 0;
#X connect 27 0 16 0;
#X connect 28 0 27 0;
#X connect 29 0 26 0;
#X connect 30 0 25 0;
#X connect 31 0 32 0;
#X connect 32 0 33 0;
#X connect 33 0 36 0;
#X connect 33 0 37 0;
#X connect 33 0 38 0;
#X connect 33 0 39 0;
#X connect 34 0 31 0;
#X connect 35 0 34 0;
#X connect 36 0 24 0;
#X connect 37 0 30 0;
#X connect 38 0 29 0;
#X connect 39 0 28 0;
#X connect 40 0 36 1;
#X connect 40 1 37 1;
#X connect 40 2 38 1;
#X connect 40 3 39 1;
#X connect 41 0 40 0;
#X connect 42 0 65 0;
#X connect 42 0 64 0;
#X connect 42 0 66 0;
#X connect 42 0 63 0;
#X connect 43 0 5 0;
#X connect 44 0 5 0;
#X connect 45 0 60 0;
#X connect 46 0 58 0;
#X connect 47 0 54 0;
#X connect 48 0 45 0;
#X connect 49 0 62 0;
#X connect 50 0 46 0;
#X connect 51 0 55 0;
#X connect 52 0 51 1;
#X connect 53 0 51 2;
#X connect 54 0 51 0;
#X connect 54 1 56 0;
#X connect 54 1 71 0;
#X connect 54 1 53 0;
#X connect 54 1 52 0;
#X connect 55 0 57 0;
#X connect 56 0 51 4;
#X connect 57 0 61 0;
#X connect 58 0 34 1;
#X connect 58 0 70 0;
#X connect 59 0 44 1;
#X connect 59 0 69 0;
#X connect 60 0 43 1;
#X connect 60 0 67 0;
#X connect 61 0 35 1;
#X connect 61 0 68 0;
#X connect 62 0 59 0;
#X connect 63 0 61 0;
#X connect 64 0 60 0;
#X connect 65 0 59 0;
#X connect 66 0 58 0;
#X connect 71 0 51 3;
