#N canvas 4 50 1009 687 10;
#X obj 61 128 unpack;
#X floatatom 61 167 5 0 0 0 - - -, f 5;
#X obj 61 396 osc~;
#X obj 61 205 mtof;
#X floatatom 61 244 5 0 0 0 - - -, f 5;
#X obj 61 435 *~;
#X obj 221 318 line~;
#X obj 217 171 sel 0;
#X obj 61 282 sig~;
#X obj 61 532 outlet~;
#X obj 61 41 inlet;
#X msg 223 267 0 100;
#X msg 309 266 100 10;
#X connect 0 0 1 0;
#X connect 0 1 7 0;
#X connect 1 0 3 0;
#X connect 2 0 5 0;
#X connect 3 0 4 0;
#X connect 4 0 8 0;
#X connect 5 0 9 0;
#X connect 6 0 5 1;
#X connect 7 0 11 0;
#X connect 7 1 12 0;
#X connect 8 0 2 0;
#X connect 10 0 0 0;
#X connect 11 0 6 0;
#X connect 12 0 6 0;
