#N canvas 630 263 429 248 12;
#X obj 78 54 s bigbang;
#X obj 46 30 t b b;
#X obj 46 7 loadbang;
#X obj 8 6 bng 31 250 50 0 empty empty empty 17 7 0 10 -262144 -1 -1
;
#X obj 46 100 s latebang;
#X obj 46 76 delay 50;
#N canvas 11 50 1009 649 screen 0;
#X obj 24 10 r 2screen;
#X obj 24 34 s oscOut;
#N canvas 11 50 1009 687 static 0;
#X obj 577 201 s 2screen;
#X msg 50 426 /oled/gFlip 3;
#X obj 50 26 r bigbang;
#X msg 577 62 /oled/gShowInfoBar 3 0;
#X obj 690 402 until;
#X obj 690 320 t b b;
#X obj 690 426 i;
#X obj 748 425 + 1;
#X obj 51 797 s 2screen;
#X obj 577 83 s 2screen;
#X obj 578 144 s 2screen;
#X obj 7 13 bng 30 250 50 0 empty empty empty 17 7 0 10 -262144 -1
-1;
#X msg 578 121 /oled/gClear 3 1;
#X msg 800 366 1;
#X obj 354 357 until;
#X obj 354 275 t b b;
#X obj 354 381 i;
#X obj 385 381 + 1;
#X msg 354 297 13;
#X msg 531 318 0;
#X msg 689 341 13;
#X obj 51 59 t b b b b b b b;
#X obj 354 406 t f f;
#X obj 438 428 sel 2 6 9;
#X obj 354 481 spigot;
#X msg 524 457 1;
#X msg 441 455 0;
#X msg 690 568 /oled/gLine 3 \$1 56 \$1 63 0;
#X msg 355 572 /oled/gFillArea 3 \$1 56 7 5 0;
#X msg 577 175 /oled/gFillArea 3 0 56 128 7 1;
#X msg 70 324 /oled/gLine 3 0 55 127 55 1;
#X obj 691 458 expr int($f1 * 9.2);
#X obj 355 523 expr int($f1 * 9.25) + 6;
#X connect 1 0 8 0;
#X connect 2 0 21 0;
#X connect 3 0 9 0;
#X connect 4 0 6 0;
#X connect 5 0 20 0;
#X connect 5 1 13 0;
#X connect 6 0 7 0;
#X connect 6 0 31 0;
#X connect 7 0 6 1;
#X connect 11 0 21 0;
#X connect 12 0 10 0;
#X connect 13 0 6 1;
#X connect 14 0 16 0;
#X connect 15 0 18 0;
#X connect 15 1 19 0;
#X connect 16 0 17 0;
#X connect 16 0 22 0;
#X connect 17 0 16 1;
#X connect 18 0 14 0;
#X connect 19 0 16 1;
#X connect 20 0 4 0;
#X connect 21 0 1 0;
#X connect 21 1 30 0;
#X connect 21 2 15 0;
#X connect 21 3 5 0;
#X connect 21 4 29 0;
#X connect 21 5 12 0;
#X connect 21 6 3 0;
#X connect 22 0 24 0;
#X connect 22 1 23 0;
#X connect 23 0 26 0;
#X connect 23 1 26 0;
#X connect 23 2 26 0;
#X connect 23 3 25 0;
#X connect 24 0 32 0;
#X connect 25 0 24 1;
#X connect 26 0 24 1;
#X connect 27 0 8 0;
#X connect 28 0 8 0;
#X connect 29 0 0 0;
#X connect 30 0 8 0;
#X connect 31 0 27 0;
#X connect 32 0 28 0;
#X restore 132 11 pd static;
#X obj 688 77 r noteData;
#X obj 688 162 unpack 1 2 3;
#X obj 338 777 pack 1 2 3;
#X obj 989 107 r headerPosition;
#X floatatom 989 132 5 0 0 0 - - -;
#X floatatom 732 309 5 0 0 0 - - -;
#X obj 337 860 s 2screen;
#X floatatom 339 246 5 0 0 0 - - -;
#X obj 732 231 -;
#X floatatom 732 256 5 0 0 0 - - -;
#X obj 1139 104 r headerPosition_Top;
#X floatatom 1139 129 5 0 0 0 - - -;
#X floatatom 1176 313 5 0 0 0 - - -;
#X obj 1178 231 -;
#X floatatom 1178 256 5 0 0 0 - - -;
#X floatatom 558 354 5 0 0 0 - - -;
#X obj 700 784 pack 1 2 3;
#X obj 700 857 s 2screen;
#X obj 770 419 expr $f1 - $f2;
#X obj 338 691 int;
#X obj 700 697 int;
#X obj 339 550 sel 0 2 4 5 7 9 11 12 14 16 17 19 21 23;
#X obj 338 667 bang;
#X obj 340 220 % 24;
#X obj 699 673 bang;
#X obj 393 297 expr int($f1 * 5.33) + 2;
#X obj 1377 103 r headers_dif;
#X floatatom 1377 128 5 0 0 0 - - -;
#X obj 1178 284 expr if($f1 > 0 \, 0 \, int((abs($f1) / $f2) * 56))
;
#X obj 732 285 expr if($f1 <= 0 \, 56 \, 56 - int((abs($f1) / $f2)
* 56));
#X obj 732 332 t f f;
#X obj 558 377 spigot;
#X obj 558 402 s pianolaNote;
#X obj 703 374 == 56;
#X obj 338 740 +;
#X obj 700 726 +;
#X obj 339 268 t f f f;
#N canvas 5 50 1009 687 offset 0;
#X obj 90 63 inlet;
#X floatatom 90 88 5 0 0 0 - - -;
#X obj 363 472 outlet;
#X msg 79 258 0;
#X msg 102 285 -1;
#X msg 127 257 -1;
#X msg 197 286 1;
#X msg 154 283 -1;
#X msg 331 286 -1;
#X msg 375 287 0;
#X msg 403 258 0;
#X msg 471 285 -1;
#X msg 625 260 -1;
#X msg 650 287 -1;
#X msg 39 288 0;
#X obj 90 189 sel 0 1 2 3 4 5 6 7 8 9 10 11 12 13 14 15 16 17 18 19
20 21 22 23, f 66;
#X msg 221 258 1;
#X msg 247 287 0;
#X msg 263 258 0;
#X msg 289 285 0;
#X msg 306 259 -2;
#X msg 421 286 0;
#X msg 446 258 0;
#X msg 516 288 2;
#X msg 539 259 2;
#X msg 559 287 1;
#X msg 582 260 0;
#X msg 607 286 0;
#X connect 0 0 1 0;
#X connect 1 0 15 0;
#X connect 3 0 2 0;
#X connect 4 0 2 0;
#X connect 5 0 2 0;
#X connect 6 0 2 0;
#X connect 7 0 2 0;
#X connect 8 0 2 0;
#X connect 9 0 2 0;
#X connect 10 0 2 0;
#X connect 11 0 2 0;
#X connect 12 0 2 0;
#X connect 13 0 2 0;
#X connect 14 0 2 0;
#X connect 15 0 14 0;
#X connect 15 1 3 0;
#X connect 15 2 4 0;
#X connect 15 3 5 0;
#X connect 15 4 7 0;
#X connect 15 5 6 0;
#X connect 15 6 16 0;
#X connect 15 7 17 0;
#X connect 15 8 18 0;
#X connect 15 9 19 0;
#X connect 15 10 20 0;
#X connect 15 11 8 0;
#X connect 15 12 9 0;
#X connect 15 13 10 0;
#X connect 15 14 21 0;
#X connect 15 15 22 0;
#X connect 15 16 11 0;
#X connect 15 17 23 0;
#X connect 15 18 24 0;
#X connect 15 19 25 0;
#X connect 15 20 26 0;
#X connect 15 21 27 0;
#X connect 15 22 12 0;
#X connect 15 23 13 0;
#X connect 16 0 2 0;
#X connect 17 0 2 0;
#X connect 18 0 2 0;
#X connect 19 0 2 0;
#X connect 20 0 2 0;
#X connect 21 0 2 0;
#X connect 22 0 2 0;
#X connect 23 0 2 0;
#X connect 24 0 2 0;
#X connect 25 0 2 0;
#X connect 26 0 2 0;
#X connect 27 0 2 0;
#X restore 433 466 pd offset;
#X msg 701 826 /oled/gBox 3 \$1 \$2 5 \$3 1;
#X msg 337 825 /oled/gFillArea 3 \$1 \$2 5 \$3 1;
#X obj 703 398 sel 1;
#X msg 703 422 1;
#X obj 703 447 s aNoteisOn;
#N canvas 0 50 1024 687 logKnobs 0;
#X obj 468 638 s 2screen;
#X msg 893 526 /oled/gFillArea 3 0 0 128 10 0;
#X msg 893 555 /oled/gLine 3 0 10 123 10 1;
#X obj 33 14 r metroBang;
#X msg 673 555 /oled/gPrintln 3 0 0 8 1 \$1;
#X obj 35 170 spigot;
#X obj 672 531 symbol;
#X msg 78 102 1;
#X msg 119 126 0;
#X obj 214 103 r bigbang;
#X obj 79 78 bang;
#X floatatom 91 170 5 0 0 0 - - -;
#X obj 561 107 change;
#X obj 757 111 change;
#X obj 757 86 r knob2;
#X obj 826 111 change;
#X obj 826 86 r knob3;
#X obj 891 110 change;
#X obj 891 85 r knob4;
#X obj 35 195 i;
#X floatatom 68 196 5 0 0 0 - - -;
#X msg 532 134 1;
#X msg 757 136 2;
#X msg 826 136 3;
#X msg 891 135 4;
#X obj 33 267 sel 1 2 3 4 5;
#X obj 967 86 r selectedFile;
#X msg 964 136 5;
#X obj 34 238 t f b b;
#X obj 84 362 r pause;
#X obj 84 387 == 0;
#X obj 561 82 r speed;
#X obj 49 473 expr int($f1 * 1000);
#X obj 34 498 i;
#X msg 34 527 /oled/gPrintln 3 0 0 8 1 SPEED: \$1%;
#X obj 103 419 spigot;
#X obj 64 668 i;
#X obj 34 424 spigot;
#X obj 634 82 r knob1;
#X obj 634 107 change;
#X obj 98 599 r headerPosition;
#X obj 246 600 r songLength;
#X msg 66 693 /oled/gPrintln 3 0 0 8 1 POSITION: \$1%;
#X obj 79 642 expr int(($f1 / $f2)*100);
#X obj 248 440 i;
#X msg 248 469 /oled/gPrintln 3 0 0 8 1 ZOOM: \$1%;
#X obj 263 415 expr int($f1 * 100);
#X obj 499 401 i;
#X obj 514 376 expr int($f1 * 100);
#X obj 248 440 i;
#X msg 248 469 /oled/gPrintln 3 0 0 8 1 ZOOM: \$1%;
#X obj 263 415 expr int($f1 * 100);
#X msg 499 430 /oled/gPrintln 3 0 0 8 1 KEYS VOL: \$1%;
#X obj 828 404 i;
#X obj 843 379 expr int($f1 * 100);
#X msg 828 433 /oled/gPrintln 3 0 0 8 1 PIANOLA VOL: \$1%;
#X obj 120 101 delay 600;
#X connect 1 0 0 0;
#X connect 2 0 0 0;
#X connect 3 0 5 0;
#X connect 4 0 0 0;
#X connect 5 0 19 0;
#X connect 6 0 4 0;
#X connect 7 0 11 0;
#X connect 8 0 11 0;
#X connect 9 0 8 0;
#X connect 10 0 7 0;
#X connect 10 0 56 0;
#X connect 11 0 5 1;
#X connect 12 0 10 0;
#X connect 12 0 21 0;
#X connect 12 0 32 0;
#X connect 13 0 10 0;
#X connect 13 0 22 0;
#X connect 13 0 46 0;
#X connect 14 0 13 0;
#X connect 15 0 10 0;
#X connect 15 0 23 0;
#X connect 15 0 48 0;
#X connect 16 0 15 0;
#X connect 17 0 10 0;
#X connect 17 0 24 0;
#X connect 17 0 54 0;
#X connect 18 0 17 0;
#X connect 19 0 28 0;
#X connect 20 0 19 1;
#X connect 21 0 20 0;
#X connect 22 0 20 0;
#X connect 23 0 20 0;
#X connect 24 0 20 0;
#X connect 25 0 37 0;
#X connect 25 0 35 0;
#X connect 25 1 44 0;
#X connect 25 2 47 0;
#X connect 25 3 53 0;
#X connect 25 4 6 0;
#X connect 26 0 10 0;
#X connect 26 0 27 0;
#X connect 26 0 6 1;
#X connect 27 0 20 0;
#X connect 28 0 25 0;
#X connect 28 1 2 0;
#X connect 28 2 1 0;
#X connect 29 0 30 0;
#X connect 29 0 35 1;
#X connect 30 0 37 1;
#X connect 31 0 12 0;
#X connect 32 0 33 1;
#X connect 33 0 34 0;
#X connect 34 0 0 0;
#X connect 35 0 36 0;
#X connect 36 0 42 0;
#X connect 37 0 33 0;
#X connect 38 0 39 0;
#X connect 39 0 21 0;
#X connect 40 0 43 0;
#X connect 41 0 43 1;
#X connect 42 0 0 0;
#X connect 43 0 36 1;
#X connect 44 0 45 0;
#X connect 45 0 0 0;
#X connect 46 0 44 1;
#X connect 47 0 52 0;
#X connect 48 0 47 1;
#X connect 49 0 50 0;
#X connect 51 0 49 1;
#X connect 52 0 0 0;
#X connect 53 0 55 0;
#X connect 54 0 53 1;
#X connect 55 0 0 0;
#X connect 56 0 8 0;
#X restore 134 69 pd logKnobs;
#X obj 647 125 bng 15 250 50 0 empty empty empty 17 7 0 10 -262144
-1 -1;
#X connect 0 0 1 0;
#X connect 3 0 4 0;
#X connect 3 0 47 0;
#X connect 4 0 18 0;
#X connect 4 0 26 0;
#X connect 4 1 11 0;
#X connect 4 2 16 0;
#X connect 5 0 42 0;
#X connect 6 0 7 0;
#X connect 7 0 11 1;
#X connect 8 0 33 0;
#X connect 10 0 39 0;
#X connect 11 0 12 0;
#X connect 12 0 32 0;
#X connect 13 0 14 0;
#X connect 14 0 16 1;
#X connect 15 0 21 1;
#X connect 15 0 5 1;
#X connect 15 0 19 1;
#X connect 16 0 17 0;
#X connect 17 0 31 0;
#X connect 18 0 34 0;
#X connect 19 0 41 0;
#X connect 21 0 5 2;
#X connect 21 0 19 2;
#X connect 22 0 37 0;
#X connect 23 0 38 0;
#X connect 24 0 25 0;
#X connect 24 1 25 0;
#X connect 24 2 25 0;
#X connect 24 3 25 0;
#X connect 24 4 25 0;
#X connect 24 5 25 0;
#X connect 24 6 25 0;
#X connect 24 7 25 0;
#X connect 24 8 25 0;
#X connect 24 9 25 0;
#X connect 24 10 25 0;
#X connect 24 11 25 0;
#X connect 24 12 25 0;
#X connect 24 13 25 0;
#X connect 24 14 27 0;
#X connect 25 0 22 0;
#X connect 26 0 10 0;
#X connect 27 0 23 0;
#X connect 28 0 22 1;
#X connect 28 0 23 1;
#X connect 29 0 30 0;
#X connect 30 0 31 1;
#X connect 30 0 32 1;
#X connect 31 0 15 0;
#X connect 32 0 8 0;
#X connect 33 0 36 0;
#X connect 33 1 21 0;
#X connect 34 0 35 0;
#X connect 36 0 34 1;
#X connect 36 0 43 0;
#X connect 37 0 5 0;
#X connect 38 0 19 0;
#X connect 39 0 24 0;
#X connect 39 1 40 0;
#X connect 39 2 28 0;
#X connect 40 0 37 1;
#X connect 40 0 38 1;
#X connect 41 0 20 0;
#X connect 42 0 9 0;
#X connect 43 0 44 0;
#X connect 44 0 45 0;
#X restore 253 155 pd screen;
#N canvas 11 50 1009 687 player 0;
#X obj 267 497 textfile;
#X msg 323 437 rewind;
#X obj 267 438 until;
#X obj 267 639 unpack 1 2 3;
#X obj 261 930 pack 1 2 3;
#X obj 261 863 spigot;
#X obj 238 147 +;
#X obj 179 -19 t b b;
#X msg 259 -22 0;
#X msg 109 -21 stop;
#X obj 267 544 list length;
#X floatatom 267 568 5 0 0 0 - - -;
#X obj 267 520 t l l;
#X obj 267 591 list append;
#X obj 238 172 expr if($f1 > $f2 \, 0 \, $f1);
#X obj 267 615 route 3 1;
#X floatatom 618 142 10 0 0 0 - - -;
#X floatatom 238 223 5 0 0 0 - - -;
#X obj 261 968 s noteData;
#X obj 843 390 s headerPosition;
#X obj 893 296 s 2screen;
#X obj 179 -61 r bigbang;
#X obj 238 117 f;
#X obj 723 756 r headerPosition_Top;
#X obj 238 197 expr if($f1 < 0 \, $f2 \, $f1);
#X obj 300 393 t b b b;
#X obj 584 757 r headerPosition;
#X floatatom 584 782 5 0 0 0 - - -;
#X floatatom 723 781 5 0 0 0 - - -;
#X floatatom 522 780 5 0 0 0 - - -;
#X floatatom 473 781 5 0 0 0 - - -;
#X obj 378 817 expr if(($f1 > $f3 && $f1 < $f4) || ($f2 > $f3 && $f2
< $f4) || ($f1 < $f3 && $f2 > $f4) \, 1 \, 0), f 64;
#X obj 618 164 expr $f1 * $f2;
#X obj 727 141 r multiplier;
#X floatatom 618 189 5 0 0 0 - - -;
#X obj 361 733 *;
#X obj 388 690 r multiplier;
#X obj 323 733 *;
#X obj 271 127 r speed;
#X obj 845 488 s headerPosition_Top;
#X obj 845 461 +;
#X obj 893 321 print ----------------;
#X obj 1150 723 r aNoteisOn;
#X obj 1076 884 s pianolaAllOff;
#X obj 1076 788 spigot;
#X obj 1076 574 bng 15 250 50 0 empty empty empty 17 7 0 10 -262144
-1 -1;
#X msg 1150 747 0;
#X msg 1121 387 1;
#X obj 425 383 r selectedFile;
#X obj 386 411 symbol;
#X obj 866 433 r headers_dif;
#X msg 386 434 read miditxt/\$1.txt;
#X obj 300 262 t b f f b;
#X obj 250 68 spigot;
#X obj 500 -20 r pause;
#X obj 500 5 == 0;
#X obj 604 -18 r knob1;
#X obj 604 7 spigot;
#X obj 604 34 expr $f1 * $f2;
#X obj 124 192 r headers_dif;
#X obj 124 217 bang;
#X obj 179 7 metro 60;
#X obj 1040 837 bng 15 250 50 0 empty empty empty 17 7 0 10 -262144
-1 -1;
#X obj 785 291 s nextTick;
#X obj 298 -58 r selectedFile;
#X obj 298 -33 bang;
#X msg 893 272 /oled/gFillArea 3 0 0 128 55 0;
#X obj 147 86 s metroBang;
#X obj 179 30 t b b b;
#X obj 17 113 s 2screen;
#X msg 23 87 /oled/gFlip 3;
#X obj 621 228 s songLength;
#X connect 0 0 12 0;
#X connect 0 1 2 1;
#X connect 0 1 45 0;
#X connect 1 0 0 0;
#X connect 2 0 0 0;
#X connect 3 0 5 0;
#X connect 3 1 37 0;
#X connect 3 2 35 0;
#X connect 4 0 18 0;
#X connect 5 0 4 0;
#X connect 6 0 14 0;
#X connect 7 0 61 0;
#X connect 7 1 8 0;
#X connect 8 0 22 1;
#X connect 9 0 61 0;
#X connect 10 0 11 0;
#X connect 11 0 13 0;
#X connect 12 0 10 0;
#X connect 12 1 13 1;
#X connect 13 0 15 0;
#X connect 14 0 24 0;
#X connect 15 0 3 0;
#X connect 15 1 34 0;
#X connect 15 1 16 0;
#X connect 16 0 32 0;
#X connect 17 0 22 1;
#X connect 17 0 52 0;
#X connect 21 0 7 0;
#X connect 22 0 6 0;
#X connect 23 0 28 0;
#X connect 24 0 17 0;
#X connect 25 0 2 0;
#X connect 25 1 1 0;
#X connect 25 2 49 0;
#X connect 26 0 27 0;
#X connect 27 0 31 2;
#X connect 28 0 31 3;
#X connect 29 0 31 1;
#X connect 30 0 31 0;
#X connect 31 0 5 1;
#X connect 32 0 34 0;
#X connect 33 0 32 1;
#X connect 34 0 14 1;
#X connect 34 0 24 1;
#X connect 34 0 58 1;
#X connect 34 0 71 0;
#X connect 35 0 29 0;
#X connect 35 0 4 2;
#X connect 36 0 35 1;
#X connect 36 0 37 1;
#X connect 37 0 30 0;
#X connect 37 0 4 1;
#X connect 38 0 6 1;
#X connect 40 0 39 0;
#X connect 42 0 46 0;
#X connect 44 0 43 0;
#X connect 44 0 62 0;
#X connect 45 0 44 0;
#X connect 46 0 44 1;
#X connect 47 0 44 1;
#X connect 48 0 49 1;
#X connect 49 0 51 0;
#X connect 50 0 40 1;
#X connect 51 0 0 0;
#X connect 52 1 25 0;
#X connect 52 2 19 0;
#X connect 52 2 40 0;
#X connect 52 3 66 0;
#X connect 52 3 47 0;
#X connect 52 3 63 0;
#X connect 53 0 22 0;
#X connect 54 0 55 0;
#X connect 54 0 57 1;
#X connect 55 0 53 1;
#X connect 56 0 57 0;
#X connect 57 0 58 0;
#X connect 58 0 17 0;
#X connect 59 0 60 0;
#X connect 60 0 17 0;
#X connect 61 0 68 0;
#X connect 64 0 65 0;
#X connect 65 0 8 0;
#X connect 66 0 20 0;
#X connect 68 0 70 0;
#X connect 68 1 67 0;
#X connect 68 2 53 0;
#X connect 70 0 69 0;
#X restore 106 155 pd player;
#N canvas 11 50 1009 595 knobs 0;
#X obj 65 309 hsl 128 25 0 1 0 0 empty empty empty -2 -8 0 10 -262144
-1 -1 12700 1;
#X floatatom 62 367 5 0 0 0 - - -;
#X obj 62 282 r knob1;
#X obj 769 316 hsl 128 25 0 1 0 0 empty empty empty -2 -8 0 10 -262144
-1 -1 6350 1;
#X obj 59 390 s speed;
#X obj 260 303 hsl 128 25 0 1 0 0 empty empty empty -2 -8 0 10 -262144
-1 -1 6350 1;
#X obj 519 42 r bigbang;
#X msg 837 291 0.5;
#X msg 139 284 1;
#X obj 519 95 s multiplier;
#X obj 256 277 r knob2;
#X obj 766 292 r knob3;
#X msg 766 393 \$1 100;
#X obj 766 500 s keyVol;
#X obj 949 314 hsl 128 25 0 1 0 0 empty empty empty -2 -8 0 10 -262144
-1 -1 6350 1;
#X msg 1017 289 0.5;
#X msg 946 391 \$1 100;
#X obj 946 290 r knob4;
#X obj 946 505 s pianolaVol;
#X floatatom 946 368 5 0 0 0 - - -;
#X obj 837 266 r bigbang;
#X obj 1017 265 r bigbang;
#X obj 139 261 r bigbang;
#X floatatom 766 370 5 0 0 0 - - -;
#X obj 946 416 line;
#X obj 766 418 line;
#X floatatom 946 441 8 0 0 0 - - -;
#X floatatom 766 443 5 0 0 0 - - -;
#X msg 519 68 1;
#X obj 321 253 r bigbang;
#X msg 321 276 0.5;
#X floatatom 257 358 5 0 0 0 - - -;
#X obj 256 382 s headers_dif;
#X obj 257 333 expr (2 - $f1 * 2) + 0.01;
#X obj 562 259 r aux;
#X obj 562 284 sel 1;
#X obj 562 329 tgl 15 0 empty empty empty 17 7 0 10 -262144 -1 -1 0
1;
#X obj 562 359 s pause;
#X obj 617 281 r bigbang;
#X msg 617 306 0;
#X obj 62 339 expr $f1 * 0.15 - 0.05;
#X obj 946 343 expr $f1 * 0.005;
#X obj 766 346 expr $f1 * 0.02;
#X connect 0 0 40 0;
#X connect 1 0 4 0;
#X connect 2 0 0 0;
#X connect 3 0 42 0;
#X connect 5 0 33 0;
#X connect 6 0 28 0;
#X connect 7 0 3 0;
#X connect 8 0 0 0;
#X connect 10 0 5 0;
#X connect 11 0 3 0;
#X connect 12 0 25 0;
#X connect 14 0 41 0;
#X connect 15 0 14 0;
#X connect 16 0 24 0;
#X connect 17 0 14 0;
#X connect 19 0 16 0;
#X connect 20 0 7 0;
#X connect 21 0 15 0;
#X connect 22 0 8 0;
#X connect 23 0 12 0;
#X connect 24 0 26 0;
#X connect 25 0 27 0;
#X connect 26 0 18 0;
#X connect 27 0 13 0;
#X connect 28 0 9 0;
#X connect 29 0 30 0;
#X connect 30 0 5 0;
#X connect 31 0 32 0;
#X connect 33 0 31 0;
#X connect 34 0 35 0;
#X connect 35 0 36 0;
#X connect 36 0 37 0;
#X connect 38 0 39 0;
#X connect 39 0 36 0;
#X connect 40 0 1 0;
#X connect 41 0 19 0;
#X connect 42 0 23 0;
#X coords 0 595 1 594 140 130 0;
#X restore 27 154 pd knobs;
#N canvas 645 136 1009 578 sound 0;
#X obj 251 525 throw~ outL;
#X obj 357 527 throw~ outR;
#X obj 312 453 *~ 1;
#N canvas 11 67 1009 528 pianola_synth 0;
#X obj 340 488 outlet~;
#X obj 79 25 r bigbang;
#X obj 79 106 until;
#X msg 79 79 24;
#X obj 79 180 i;
#X obj 114 180 + 1;
#X obj 79 50 t b b;
#X obj 79 130 t b b;
#X obj 169 180 i;
#X obj 203 180 + 1;
#X msg 188 106 1;
#X obj 79 217 pack 1 2;
#X obj 79 244 route 1 2 3 4 5 6 7 8 9 10 11 12 13 14 15 16 17 18 19
20 21 22 23 24, f 70;
#X obj 84 315 pianola_voice;
#X obj 486 312 pianola_voice;
#X obj 96 338 pianola_voice;
#X obj 108 361 pianola_voice;
#X obj 120 383 pianola_voice;
#X obj 132 406 pianola_voice;
#X obj 143 429 pianola_voice;
#X obj 218 314 pianola_voice;
#X obj 230 337 pianola_voice;
#X obj 242 360 pianola_voice;
#X obj 254 382 pianola_voice;
#X obj 266 405 pianola_voice;
#X obj 277 428 pianola_voice;
#X obj 352 313 pianola_voice;
#X obj 364 336 pianola_voice;
#X obj 376 359 pianola_voice;
#X obj 388 381 pianola_voice;
#X obj 400 404 pianola_voice;
#X obj 411 427 pianola_voice;
#X obj 498 335 pianola_voice;
#X obj 510 358 pianola_voice;
#X obj 522 380 pianola_voice;
#X obj 534 403 pianola_voice;
#X obj 545 426 pianola_voice;
#X msg 232 106 48;
#X connect 1 0 6 0;
#X connect 2 0 7 0;
#X connect 3 0 2 0;
#X connect 4 0 5 0;
#X connect 4 0 11 0;
#X connect 5 0 4 1;
#X connect 6 0 3 0;
#X connect 6 1 37 0;
#X connect 6 1 10 0;
#X connect 7 0 4 0;
#X connect 7 1 8 0;
#X connect 8 0 9 0;
#X connect 8 0 11 1;
#X connect 9 0 8 1;
#X connect 10 0 4 1;
#X connect 11 0 12 0;
#X connect 12 0 13 0;
#X connect 12 1 15 0;
#X connect 12 2 16 0;
#X connect 12 3 17 0;
#X connect 12 4 18 0;
#X connect 12 5 19 0;
#X connect 12 6 20 0;
#X connect 12 7 21 0;
#X connect 12 8 22 0;
#X connect 12 9 23 0;
#X connect 12 10 24 0;
#X connect 12 11 25 0;
#X connect 12 12 26 0;
#X connect 12 13 27 0;
#X connect 12 14 28 0;
#X connect 12 15 29 0;
#X connect 12 16 30 0;
#X connect 12 17 31 0;
#X connect 12 18 14 0;
#X connect 12 19 32 0;
#X connect 12 20 33 0;
#X connect 12 21 34 0;
#X connect 12 22 35 0;
#X connect 12 23 36 0;
#X connect 13 0 0 0;
#X connect 14 0 0 0;
#X connect 15 0 0 0;
#X connect 16 0 0 0;
#X connect 17 0 0 0;
#X connect 18 0 0 0;
#X connect 19 0 0 0;
#X connect 20 0 0 0;
#X connect 21 0 0 0;
#X connect 22 0 0 0;
#X connect 23 0 0 0;
#X connect 24 0 0 0;
#X connect 25 0 0 0;
#X connect 26 0 0 0;
#X connect 27 0 0 0;
#X connect 28 0 0 0;
#X connect 29 0 0 0;
#X connect 30 0 0 0;
#X connect 31 0 0 0;
#X connect 32 0 0 0;
#X connect 33 0 0 0;
#X connect 34 0 0 0;
#X connect 35 0 0 0;
#X connect 36 0 0 0;
#X connect 37 0 8 1;
#X restore 358 209 pd pianola_synth;
#X obj 375 279 r pianolaVol;
#X obj 357 326 *~;
#X floatatom 375 303 5 0 0 0 - - -;
#X obj 74 360 r keyVol;
#X floatatom 74 384 5 0 0 0 - - -;
#X obj 56 408 *~;
#N canvas 10 50 487 571 keys_synth 0;
#X obj 52 25 r notes;
#X obj 53 67 poly 6 1;
#X obj 55 172 pack 0 0 0;
#X obj 55 198 route 1 2 3 4 5 6;
#X obj 55 262 keys_voice;
#X obj 59 451 outlet~;
#X obj 85 131 - 12;
#X obj 157 263 keys_voice;
#X obj 169 285 keys_voice;
#X obj 181 308 keys_voice;
#X obj 79 307 keys_voice;
#X obj 67 284 keys_voice;
#X connect 0 0 1 0;
#X connect 1 0 2 0;
#X connect 1 1 6 0;
#X connect 1 2 2 2;
#X connect 2 0 3 0;
#X connect 3 0 4 0;
#X connect 3 1 11 0;
#X connect 3 2 10 0;
#X connect 3 3 7 0;
#X connect 3 4 8 0;
#X connect 3 5 9 0;
#X connect 4 0 5 0;
#X connect 6 0 2 1;
#X connect 7 0 5 0;
#X connect 8 0 5 0;
#X connect 9 0 5 0;
#X connect 10 0 5 0;
#X connect 11 0 5 0;
#X restore 58 198 pd keys_synth;
#X connect 2 0 0 0;
#X connect 2 0 1 0;
#X connect 3 0 5 0;
#X connect 4 0 6 0;
#X connect 5 0 2 0;
#X connect 6 0 5 1;
#X connect 7 0 8 0;
#X connect 8 0 9 1;
#X connect 9 0 2 0;
#X connect 10 0 9 0;
#X restore 185 155 pd sound;
#N canvas 410 109 1009 687 encoder 0;
#X obj 11 9 loadbang;
#X msg 11 34 send /enablepatchsub 1;
#X obj 11 59 s oscOut;
#X obj 347 39 r oscIn;
#X obj 347 64 routeOSC /encoder/turn /encoder/button;
#X floatatom 347 89 5 0 0 0 - - -;
#X obj 497 90 bng 15 250 50 0 empty empty empty 17 7 0 10 -262144 -1
-1;
#X msg 497 110 send /gohome 1;
#X obj 497 135 s oscOut;
#X obj 437 904 textfile;
#X msg 471 771 rewind;
#X obj 264 778 until;
#X msg 573 771 read miditxt/list.txt;
#X obj 437 927 symbol;
#X obj 398 1005 symbol;
#X obj 264 900 i;
#X obj 299 900 + 1;
#X obj 264 802 t b b;
#X obj 355 663 t f f b b;
#X obj 264 948 ==;
#X obj 264 972 sel 1;
#X floatatom 294 948 5 0 0 0 - - -;
#X floatatom 264 924 5 0 0 0 - - -;
#X msg 282 875 1;
#X obj 634 425 textfile;
#X msg 632 308 rewind;
#X obj 585 308 until;
#X msg 690 308 read miditxt/list.txt;
#X obj 585 275 t b b b;
#X obj 565 426 i;
#X obj 600 426 + 1;
#X obj 585 332 t b b;
#X obj 612 464 i;
#X floatatom 612 488 5 0 0 0 - - -;
#X obj 585 227 r bigbang;
#X msg 583 401 0;
#X floatatom 343 586 5 0 0 0 - - -;
#X obj 343 609 change;
#X obj 398 1081 s selectedFile;
#X obj 344 333 i;
#X obj 378 276 r bigbang;
#X msg 378 301 0;
#X obj 453 203 sel 0;
#X msg 453 228 -1;
#X msg 491 229 1;
#X obj 347 136 t b f;
#X obj 343 523 expr if($f1 > $f2 \, 1 \, $f1);
#X obj 344 388 expr $f1 + $f2;
#X floatatom 344 413 5 0 0 0 - - -;
#X floatatom 377 335 5 0 0 0 - - -;
#X obj 343 548 expr if($f1 < 1 \, $f2 \, $f1);
#X obj 206 470 r latebang;
#X obj 206 506 i;
#X text 41 449 hack to start with last song;
#X connect 0 0 1 0;
#X connect 1 0 2 0;
#X connect 3 0 4 0;
#X connect 4 0 5 0;
#X connect 4 1 6 0;
#X connect 5 0 45 0;
#X connect 6 0 7 0;
#X connect 7 0 8 0;
#X connect 9 0 13 0;
#X connect 9 1 11 1;
#X connect 10 0 9 0;
#X connect 11 0 17 0;
#X connect 12 0 9 0;
#X connect 13 0 14 1;
#X connect 14 0 38 0;
#X connect 15 0 16 0;
#X connect 15 0 22 0;
#X connect 16 0 15 1;
#X connect 17 0 15 0;
#X connect 17 1 9 0;
#X connect 18 0 11 0;
#X connect 18 1 23 0;
#X connect 18 1 21 0;
#X connect 18 2 10 0;
#X connect 18 3 12 0;
#X connect 19 0 20 0;
#X connect 20 0 14 0;
#X connect 21 0 19 1;
#X connect 22 0 19 0;
#X connect 23 0 15 1;
#X connect 24 1 26 1;
#X connect 24 1 32 0;
#X connect 25 0 24 0;
#X connect 26 0 31 0;
#X connect 27 0 24 0;
#X connect 28 0 26 0;
#X connect 28 1 25 0;
#X connect 28 1 35 0;
#X connect 28 2 27 0;
#X connect 29 0 30 0;
#X connect 29 0 32 1;
#X connect 30 0 29 1;
#X connect 31 0 24 0;
#X connect 31 1 29 0;
#X connect 32 0 33 0;
#X connect 33 0 46 1;
#X connect 33 0 50 1;
#X connect 33 0 52 1;
#X connect 34 0 28 0;
#X connect 35 0 29 1;
#X connect 36 0 37 0;
#X connect 36 0 49 0;
#X connect 37 0 18 0;
#X connect 39 0 47 0;
#X connect 40 0 41 0;
#X connect 41 0 49 0;
#X connect 42 0 43 0;
#X connect 42 1 44 0;
#X connect 43 0 47 1;
#X connect 44 0 47 1;
#X connect 45 0 39 0;
#X connect 45 1 42 0;
#X connect 46 0 50 0;
#X connect 47 0 48 0;
#X connect 48 0 46 0;
#X connect 49 0 39 1;
#X connect 50 0 36 0;
#X connect 51 0 52 0;
#X connect 52 0 18 0;
#X restore 331 155 pd encoder;
#N canvas 215 143 592 367 led 0;
#X obj 175 300 s oscOut;
#X msg 175 269 send /led \$1;
#X obj 175 13 r pause;
#X obj 175 38 sel 1;
#X obj 175 99 tgl 15 0 empty empty empty 17 7 0 10 -262144 -1 -1 0
1;
#X obj 368 47 t b b;
#X msg 267 76 stop;
#X obj 226 76 bang;
#X obj 225 104 delay 500;
#X obj 175 185 sel 0;
#X msg 175 210 0;
#X msg 260 209 7;
#X connect 1 0 0 0;
#X connect 2 0 3 0;
#X connect 3 0 4 0;
#X connect 3 1 5 0;
#X connect 4 0 7 0;
#X connect 4 0 9 0;
#X connect 5 0 6 0;
#X connect 5 1 10 0;
#X connect 6 0 8 0;
#X connect 7 0 8 0;
#X connect 8 0 4 0;
#X connect 9 0 10 0;
#X connect 9 1 11 0;
#X connect 10 0 1 0;
#X connect 11 0 1 0;
#X restore 326 195 pd led;
#X connect 1 0 5 0;
#X connect 1 1 0 0;
#X connect 2 0 1 0;
#X connect 3 0 1 0;
#X connect 5 0 4 0;
