#N canvas 383 94 593 638 10;
#X floatatom 41 72 5 0 0 0 - - -, f 5;
#X obj 41 331 osc~;
#X obj 41 226 mtof;
#X floatatom 41 249 5 0 0 0 - - -, f 5;
#X obj 41 440 *~;
#X obj 278 393 line~;
#X obj 278 204 sel 0;
#X obj 41 287 sig~;
#X obj 41 537 outlet~;
#X obj 41 46 inlet;
#X msg 278 267 0 20;
#X msg 320 266 100 5;
#X obj 278 178 ==;
#X obj 278 69 % 24;
#X floatatom 278 90 5 0 0 0 - - -, f 5;
#X obj 304 145 % 24;
#X floatatom 304 179 5 0 0 0 - - -, f 5;
#X obj 278 26 r pianolaNote;
#X floatatom 278 47 5 0 0 0 - - -, f 5;
#X obj 162 226 r pianolaAllOff;
#X obj 429 296 r nextTick;
#X obj 278 339 spigot;
#X msg 319 319 0;
#X msg 353 318 1;
#X obj 353 296 r bigbang;
#X connect 0 0 15 0;
#X connect 0 0 2 0;
#X connect 1 0 4 0;
#X connect 2 0 3 0;
#X connect 3 0 7 0;
#X connect 4 0 8 0;
#X connect 5 0 4 1;
#X connect 6 0 10 0;
#X connect 6 1 11 0;
#X connect 7 0 1 0;
#X connect 9 0 0 0;
#X connect 10 0 21 0;
#X connect 11 0 5 0;
#X connect 11 0 22 0;
#X connect 12 0 6 0;
#X connect 13 0 14 0;
#X connect 14 0 12 0;
#X connect 15 0 16 0;
#X connect 16 0 12 1;
#X connect 17 0 18 0;
#X connect 18 0 13 0;
#X connect 19 0 10 0;
#X connect 20 0 23 0;
#X connect 21 0 5 0;
#X connect 22 0 21 1;
#X connect 23 0 21 1;
#X connect 24 0 23 0;
