#N canvas 404 51 1031 845 12;
#X obj 11 3 bng 31 250 50 0 empty empty empty 17 7 0 10 -262144 -1
-1;
#N canvas 710 123 1124 836 player 0;
#X obj 141 419 textfile;
#X msg 374 329 rewind;
#X obj 470 242 r selectedFile;
#X obj 174 615 route 0 4;
#X obj 124 804 print melody:;
#X obj 268 798 print bass:;
#X obj 384 54 bng 30 250 50 0 empty empty empty 17 7 0 10 -262144 -1
-1;
#X obj 132 105 bng 30 250 50 0 empty empty empty 17 7 0 10 -262144
-1 -1;
#X obj 361 658 print ---------------------;
#X obj 142 470 list length;
#X obj 142 443 t l l;
#X obj 142 494 list append;
#X obj 142 546 t b l;
#X obj 71 484 bng 15 250 50 0 empty empty empty 17 7 0 10 -262144 -1
-1;
#X obj 283 671 unpack;
#X obj 322 694 > 0;
#X obj 283 717 spigot;
#X floatatom 283 741 5 0 0 0 - - -;
#X obj 283 774 s bassNotes;
#X obj 95 -67 inlet;
#X obj 144 781 s melodyNotes;
#X obj 235 418 t b b;
#X obj 361 598 sel 0;
#X obj 403 694 print --- NEW PART ---;
#X obj 142 522 route 3 1;
#X obj 821 123 r selectedFile_totalParts;
#X obj 437 274 pack a s f;
#X floatatom 641 246 5 0 0 0 - - -;
#X obj 641 196 expr if($f1 > $f2 \, 1 \, $f1);
#X obj 641 221 expr if($f1 < 1 \, $f2 \, $f1);
#X obj 589 90 r bigbang;
#X msg 589 114 0;
#X obj 551 139 +;
#X msg 551 115 1;
#X msg 437 326 read mididata/\$2_\$3.txt;
#X floatatom 821 147 5 0 0 0 - - -;
#X obj 474 -83 bng 30 250 50 0 empty empty empty 17 7 0 10 -262144
-1 -1;
#X obj 514 -83 bng 30 250 50 0 empty empty empty 17 7 0 10 -262144
-1 -1;
#X msg 514 -48 1;
#X msg 474 -48 -1;
#X obj 558 -82 r latebang;
#N canvas 0 50 1450 897 fileSelector 0;
#X obj 229 680 textfile;
#X msg 228 621 rewind;
#X obj 55 588 until;
#X obj 228 747 symbol;
#X obj 189 795 symbol;
#X obj 55 690 i;
#X obj 90 690 + 1;
#X obj 55 612 t b b;
#X obj 146 493 t f f b b;
#X obj 55 738 ==;
#X obj 55 762 sel 1;
#X floatatom 85 738 5 0 0 0 - - -;
#X floatatom 55 714 5 0 0 0 - - -;
#X msg 73 665 1;
#X obj 437 307 textfile;
#X msg 435 210 rewind;
#X obj 388 210 until;
#X obj 388 177 t b b b;
#X obj 368 308 i;
#X obj 403 308 + 1;
#X obj 388 234 t b b;
#X obj 415 346 i;
#X floatatom 415 370 5 0 0 0 - - -;
#X obj 388 129 r bigbang;
#X msg 386 283 0;
#X floatatom 146 468 5 0 0 0 - - -;
#X obj 189 871 s selectedFile;
#X obj 147 255 i;
#X obj 180 205 r bigbang;
#X msg 180 230 0;
#X obj 256 125 sel 0;
#X msg 256 150 -1;
#X msg 294 151 1;
#X obj 147 98 t b f;
#X obj 146 405 expr if($f1 > $f2 \, 1 \, $f1);
#X obj 147 310 expr $f1 + $f2;
#X floatatom 147 335 5 0 0 0 - - -;
#X floatatom 175 254 5 0 0 0 - - -;
#X obj 146 430 expr if($f1 < 1 \, $f2 \, $f1);
#X msg 493 210 read mididata/list.txt;
#X msg 285 620 read mididata/list.txt;
#X floatatom 322 808 5 0 0 0 - - -;
#X obj 246 79 print ---------------;
#X obj 230 718 unpack s f;
#X obj 322 871 s selectedFile_totalParts;
#X obj 147 34 inlet;
#X obj 95 870 print song:;
#X connect 0 0 43 0;
#X connect 0 1 2 1;
#X connect 1 0 0 0;
#X connect 2 0 7 0;
#X connect 3 0 4 1;
#X connect 4 0 26 0;
#X connect 4 0 46 0;
#X connect 5 0 6 0;
#X connect 5 0 12 0;
#X connect 6 0 5 1;
#X connect 7 0 5 0;
#X connect 7 1 0 0;
#X connect 8 0 2 0;
#X connect 8 1 13 0;
#X connect 8 1 11 0;
#X connect 8 2 1 0;
#X connect 8 3 40 0;
#X connect 9 0 10 0;
#X connect 10 0 4 0;
#X connect 11 0 9 1;
#X connect 12 0 9 0;
#X connect 13 0 5 1;
#X connect 14 1 16 1;
#X connect 14 1 21 0;
#X connect 15 0 14 0;
#X connect 16 0 20 0;
#X connect 17 0 16 0;
#X connect 17 1 15 0;
#X connect 17 1 24 0;
#X connect 17 2 39 0;
#X connect 18 0 19 0;
#X connect 18 0 21 1;
#X connect 19 0 18 1;
#X connect 20 0 14 0;
#X connect 20 1 18 0;
#X connect 21 0 22 0;
#X connect 22 0 34 1;
#X connect 22 0 38 1;
#X connect 23 0 17 0;
#X connect 24 0 18 1;
#X connect 25 0 37 0;
#X connect 25 0 8 0;
#X connect 27 0 35 0;
#X connect 28 0 29 0;
#X connect 29 0 37 0;
#X connect 30 0 31 0;
#X connect 30 1 32 0;
#X connect 31 0 35 1;
#X connect 32 0 35 1;
#X connect 33 0 27 0;
#X connect 33 1 30 0;
#X connect 33 1 42 0;
#X connect 34 0 38 0;
#X connect 35 0 36 0;
#X connect 36 0 34 0;
#X connect 37 0 27 1;
#X connect 38 0 25 0;
#X connect 39 0 14 0;
#X connect 40 0 0 0;
#X connect 41 0 44 0;
#X connect 43 0 3 0;
#X connect 43 1 41 0;
#X connect 45 0 33 0;
#X restore 571 19 pd fileSelector;
#X obj 449 396 print;
#X obj 511 -15 t b b f;
#X obj 384 89 t b b b b;
#X obj 132 140 t b b;
#X obj 169 183 s turnOffVoices;
#X obj 264 -72 inlet;
#X obj 474 -125 inlet;
#X obj 518 -122 inlet;
#X connect 0 0 10 0;
#X connect 0 1 21 0;
#X connect 1 0 0 0;
#X connect 2 0 26 1;
#X connect 3 0 20 0;
#X connect 3 0 4 0;
#X connect 3 1 14 0;
#X connect 3 1 5 0;
#X connect 6 0 44 0;
#X connect 7 0 45 0;
#X connect 9 0 11 0;
#X connect 10 0 9 0;
#X connect 10 1 11 1;
#X connect 11 0 24 0;
#X connect 12 0 13 0;
#X connect 12 1 3 0;
#X connect 13 0 0 0;
#X connect 14 0 16 0;
#X connect 14 1 15 0;
#X connect 15 0 16 1;
#X connect 16 0 17 0;
#X connect 17 0 18 0;
#X connect 19 0 7 0;
#X connect 21 0 7 0;
#X connect 21 1 1 0;
#X connect 22 0 8 0;
#X connect 22 1 23 0;
#X connect 22 1 13 0;
#X connect 24 0 12 0;
#X connect 24 1 22 0;
#X connect 25 0 35 0;
#X connect 26 0 34 0;
#X connect 27 0 32 1;
#X connect 27 0 26 2;
#X connect 28 0 29 0;
#X connect 29 0 27 0;
#X connect 30 0 31 0;
#X connect 31 0 32 1;
#X connect 32 0 28 0;
#X connect 33 0 32 0;
#X connect 34 0 0 0;
#X connect 34 0 42 0;
#X connect 35 0 28 1;
#X connect 35 0 29 1;
#X connect 36 0 39 0;
#X connect 37 0 38 0;
#X connect 38 0 43 0;
#X connect 39 0 43 0;
#X connect 40 0 38 0;
#X connect 43 0 6 0;
#X connect 43 1 31 0;
#X connect 43 2 41 0;
#X connect 44 0 7 0;
#X connect 44 1 1 0;
#X connect 44 2 26 0;
#X connect 44 3 33 0;
#X connect 45 0 0 0;
#X connect 45 1 46 0;
#X connect 47 0 6 0;
#X connect 48 0 36 0;
#X connect 49 0 37 0;
#X restore 314 402 pd player;
#X obj 80 327 tgl 50 0 empty empty empty 17 7 0 10 -159808 -1 -1 0
1;
#N canvas 69 45 1277 889 bass 0;
#X obj 888 819 outlet~;
#X obj 889 782 *~ 1;
#X obj 14 174 soundfiler;
#X obj 1430 448 readsf~;
#X obj 435 590 lop~ 4500;
#X obj 888 683 *~;
#X floatatom 789 360 5 0 0 0 - - -;
#X obj 1223 538 line~;
#X obj 1222 98 sel 0;
#X obj 1430 395 bang;
#X obj 986 20 r bassNotes;
#X floatatom 984 72 5 0 0 0 - - -;
#X obj 789 118 i;
#X obj 789 68 t b f;
#X msg 1223 446 0 500;
#X msg 1272 446 1 5;
#X obj 790 19 inlet;
#X msg 1429 421 open wavetables/kick.wav \, 1;
#X obj 789 262 + 0;
#X obj 1034 243 realtime;
#X floatatom 1034 267 12 0 0 0 - - -;
#X obj 1088 217 spigot;
#X msg 1127 191 0;
#X obj 1127 165 r bigbang;
#X obj 1034 144 t b b;
#X msg 1112 192 1;
#X obj 1034 314 sel 1;
#X msg 1066 336 0;
#X obj 1034 339 tgl 15 0 empty empty empty 17 7 0 10 -262144 -1 -1
0 1;
#X obj 1034 359 expr if($f1 == 0 \, 0 \, 12);
#X floatatom 1034 383 5 0 0 0 - - -;
#X msg 962 242 0;
#X obj 14 224 soundfiler;
#X obj 789 383 mtof;
#X obj 789 407 / 440;
#X floatatom 789 431 5 0 0 0 - - -;
#X obj 1034 289 expr if($f1 < 340 \, 1 \, 0);
#X obj 962 218 delay 340;
#X obj 1465 240 i;
#X floatatom 1464 365 5 0 0 0 - - -;
#X obj 1499 239 + 1;
#X msg 1550 186 stop;
#X obj 1403 123 t b b b;
#X obj 801 332 expr $f1 + $f2;
#X obj 1464 212 metro 50;
#X floatatom 1465 264 5 0 0 0 - - -;
#X msg 1389 232 0;
#X obj 1465 287 t f f;
#X obj 1464 340 expr sin($f1/$f2);
#X obj 1412 185 delay 1000 1 msec;
#X obj 1500 311 expr if(70 - $f1 > 2 \, 70 - $f1 \, 2);
#X obj 16 116 r bigbang;
#X obj 18 18 table bassLoop1;
#X obj 18 39 table bassLoop2;
#X obj 17 61 table bassLoop3;
#X obj 133 19 table bassBlip;
#X msg 14 151 read -resize wavetables/bass_toster.wav bassLoop1;
#X msg 13 201 read -resize wavetables/bass_sid.wav bassLoop2;
#X obj 13 275 soundfiler;
#X msg 12 252 read -resize wavetables/bass_sub.wav bassLoop3;
#X obj 149 443 t b f;
#X obj 119 516 f;
#X floatatom 189 489 5 0 0 0 - - -;
#X obj 121 590 pack f f;
#X msg 148 640 set 0 \, addcomma \, add2 \$1 \$2;
#X obj 121 611 t b l;
#X obj 121 697 line~;
#X floatatom 170 543 5 0 0 0 - - -;
#X obj 170 563 * 1000;
#X floatatom 188 586 5 0 0 0 - - -;
#X msg 121 670 0 \, 81415 1552.42;
#X obj 171 522 expr 1 / ($f1 / ($f2 / 44100));
#X obj 15 329 soundfiler;
#X msg 14 306 read -resize wavetables/bass_blip.wav bassBlip;
#X obj 121 719 tabread4~ bassBlip;
#X obj 121 741 lop~ 4500;
#X obj 150 394 mtof;
#X obj 150 418 / 440;
#X obj 434 541 *~;
#X obj 433 517 phasor~ 1;
#X obj 433 493 expr $f1 / ($f2 / 44100);
#X obj 434 565 tabread4~ bassLoop1;
#X obj 789 286 t f b;
#X msg 821 309 0;
#X obj 679 591 lop~ 4500;
#X obj 678 542 *~;
#X obj 677 518 phasor~ 1;
#X obj 677 494 expr $f1 / ($f2 / 44100);
#X obj 678 566 tabread4~ bassLoop2;
#X obj 887 590 lop~ 4500;
#X obj 886 541 *~;
#X obj 885 517 phasor~ 1;
#X obj 885 493 expr $f1 / ($f2 / 44100);
#X obj 886 565 tabread4~ bassLoop3;
#X obj 789 151 - 12;
#X connect 1 0 0 0;
#X connect 2 0 80 1;
#X connect 2 0 78 1;
#X connect 3 0 1 0;
#X connect 4 0 5 0;
#X connect 5 0 1 0;
#X connect 6 0 33 0;
#X connect 7 0 5 1;
#X connect 8 0 14 0;
#X connect 8 1 24 0;
#X connect 8 1 15 0;
#X connect 8 1 9 0;
#X connect 8 1 42 0;
#X connect 9 0 17 0;
#X connect 10 0 11 0;
#X connect 11 0 12 1;
#X connect 12 0 94 0;
#X connect 13 0 12 0;
#X connect 13 1 8 0;
#X connect 14 0 7 0;
#X connect 15 0 7 0;
#X connect 16 0 13 0;
#X connect 17 0 3 0;
#X connect 18 0 43 1;
#X connect 18 0 82 0;
#X connect 19 0 20 0;
#X connect 20 0 36 0;
#X connect 21 0 19 1;
#X connect 22 0 21 1;
#X connect 23 0 22 0;
#X connect 24 0 19 0;
#X connect 24 0 25 0;
#X connect 24 0 37 0;
#X connect 24 1 21 0;
#X connect 25 0 21 1;
#X connect 26 0 28 0;
#X connect 26 1 27 0;
#X connect 28 0 29 0;
#X connect 29 0 30 0;
#X connect 30 0 18 1;
#X connect 31 0 28 0;
#X connect 32 0 85 1;
#X connect 32 0 87 1;
#X connect 33 0 34 0;
#X connect 34 0 35 0;
#X connect 35 0 80 0;
#X connect 35 0 87 0;
#X connect 35 0 92 0;
#X connect 36 0 26 0;
#X connect 37 0 31 0;
#X connect 38 0 40 0;
#X connect 38 0 45 0;
#X connect 39 0 43 0;
#X connect 40 0 38 1;
#X connect 41 0 44 0;
#X connect 42 0 46 0;
#X connect 42 1 49 0;
#X connect 42 2 41 0;
#X connect 43 0 6 0;
#X connect 44 0 38 0;
#X connect 45 0 47 0;
#X connect 46 0 38 1;
#X connect 47 0 48 0;
#X connect 47 1 50 0;
#X connect 48 0 39 0;
#X connect 49 0 44 0;
#X connect 50 0 48 1;
#X connect 51 0 56 0;
#X connect 51 0 57 0;
#X connect 51 0 59 0;
#X connect 51 0 73 0;
#X connect 56 0 2 0;
#X connect 57 0 32 0;
#X connect 58 0 92 1;
#X connect 58 0 90 1;
#X connect 59 0 58 0;
#X connect 60 0 61 0;
#X connect 60 1 71 0;
#X connect 61 0 63 0;
#X connect 62 0 61 1;
#X connect 62 0 71 1;
#X connect 63 0 65 0;
#X connect 64 0 70 0;
#X connect 65 0 70 0;
#X connect 65 1 64 0;
#X connect 66 0 74 0;
#X connect 67 0 68 0;
#X connect 68 0 69 0;
#X connect 68 0 63 1;
#X connect 70 0 66 0;
#X connect 71 0 67 0;
#X connect 72 0 62 0;
#X connect 73 0 72 0;
#X connect 74 0 75 0;
#X connect 75 0 1 0;
#X connect 76 0 77 0;
#X connect 77 0 60 0;
#X connect 78 0 81 0;
#X connect 79 0 78 0;
#X connect 80 0 79 0;
#X connect 81 0 4 0;
#X connect 82 0 6 0;
#X connect 82 0 76 0;
#X connect 82 1 83 0;
#X connect 83 0 79 1;
#X connect 83 0 86 1;
#X connect 83 0 91 1;
#X connect 84 0 5 0;
#X connect 85 0 88 0;
#X connect 86 0 85 0;
#X connect 87 0 86 0;
#X connect 88 0 84 0;
#X connect 89 0 5 0;
#X connect 90 0 93 0;
#X connect 91 0 90 0;
#X connect 92 0 91 0;
#X connect 93 0 89 0;
#X connect 94 0 18 0;
#X restore 80 480 pd bass;
#X obj 168 543 s~ soundOut;
#X obj 209 325 bng 50 250 50 0 empty empty empty 17 7 0 10 -260097
-1 -1;
#N canvas 597 134 1319 651 lead 0;
#X obj 44 152 soundfiler;
#X floatatom 44 176 10 0 0 0 - - -;
#X obj 22 86 r bigbang;
#X obj 528 24 r melodyNotes;
#X obj 527 236 pack 0 0 0;
#X obj 527 280 route 1 2 3 4 5 6;
#X obj 527 457 *~ 1;
#X obj 528 617 outlet~;
#X obj 25 377 soundfiler;
#X floatatom 25 401 10 0 0 0 - - -;
#X obj 25 424 s leadBlipSize;
#X obj 28 55 table leadBlip;
#X obj 28 9 table leadLoop1;
#X obj 44 199 s leadLoop1Size;
#X msg 25 353 read -resize wavetables/lead_blip.wav leadBlip;
#X msg 44 122 read -resize wavetables/lead_vgm.wav leadLoop1;
#X obj 28 32 table leadLoop2;
#X obj 47 266 soundfiler;
#X floatatom 47 290 10 0 0 0 - - -;
#X obj 47 312 s leadLoop2Size;
#X msg 47 242 read -resize wavetables/lead_gamer.wav leadLoop2;
#X obj 731 20 r notes;
#X obj 731 43 unpack;
#X obj 767 90 != 60;
#X obj 731 67 t f f;
#X obj 730 137 pack;
#X obj 730 113 spigot;
#X obj 729 228 pack 0 0 0;
#X obj 729 272 route 1 2 3 4 5 6;
#X obj 729 449 *~ 1;
#X obj 730 174 poly 6 1;
#X obj 527 334 voice_lead;
#X obj 578 404 voice_lead;
#X obj 541 359 voice_lead;
#X obj 560 382 voice_lead;
#X obj 528 182 poly 4 1;
#X obj 729 327 voice_keys;
#X obj 743 351 voice_keys;
#X obj 762 375 voice_keys;
#X obj 817 326 voice_keys;
#X obj 831 350 voice_keys;
#X obj 850 374 voice_keys;
#X connect 0 0 1 0;
#X connect 1 0 13 0;
#X connect 2 0 14 0;
#X connect 2 0 15 0;
#X connect 2 0 20 0;
#X connect 2 0 18 0;
#X connect 2 0 17 0;
#X connect 2 0 19 0;
#X connect 3 0 35 0;
#X connect 4 0 5 0;
#X connect 5 0 31 0;
#X connect 5 1 33 0;
#X connect 5 2 34 0;
#X connect 5 3 32 0;
#X connect 6 0 7 0;
#X connect 8 0 9 0;
#X connect 9 0 10 0;
#X connect 14 0 8 0;
#X connect 15 0 0 0;
#X connect 17 0 18 0;
#X connect 18 0 19 0;
#X connect 20 0 17 0;
#X connect 21 0 22 0;
#X connect 22 0 24 0;
#X connect 22 1 25 1;
#X connect 23 0 26 1;
#X connect 24 0 26 0;
#X connect 24 1 23 0;
#X connect 25 0 30 0;
#X connect 26 0 25 0;
#X connect 27 0 28 0;
#X connect 28 0 36 0;
#X connect 28 1 37 0;
#X connect 28 2 38 0;
#X connect 28 3 39 0;
#X connect 28 4 40 0;
#X connect 28 5 41 0;
#X connect 29 0 7 0;
#X connect 30 0 27 0;
#X connect 30 1 27 1;
#X connect 30 2 27 2;
#X connect 31 0 6 0;
#X connect 32 0 6 0;
#X connect 33 0 6 0;
#X connect 34 0 6 0;
#X connect 35 0 4 0;
#X connect 35 1 4 1;
#X connect 35 2 4 2;
#X connect 36 0 29 0;
#X connect 37 0 29 0;
#X connect 38 0 29 0;
#X connect 39 0 29 0;
#X connect 40 0 29 0;
#X connect 41 0 29 0;
#X restore 142 480 pd lead;
#X obj 243 493 readsf~;
#X msg 243 466 open wavetables/snare.wav \, 1;
#X obj 577 330 bng 50 250 50 0 empty empty empty 17 7 0 10 -258113
-1 -1;
#X obj 178 207 r aux;
#N canvas 649 108 1009 687 encoder 0;
#X obj 11 9 loadbang;
#X msg 11 34 send /enablepatchsub 1;
#X obj 11 59 s oscOut;
#X obj 344 39 r oscIn;
#X obj 344 64 routeOSC /encoder/turn /encoder/button;
#X floatatom 344 89 5 0 0 0 - - -;
#X obj 606 90 bng 15 250 50 0 empty empty empty 17 7 0 10 -262144 -1
-1;
#X msg 606 110 send /gohome 1;
#X obj 606 135 s oscOut;
#X obj 342 180 sel 0;
#X obj 290 370 outlet;
#X obj 372 371 outlet;
#X connect 0 0 1 0;
#X connect 1 0 2 0;
#X connect 3 0 4 0;
#X connect 4 0 5 0;
#X connect 4 1 6 0;
#X connect 5 0 9 0;
#X connect 6 0 7 0;
#X connect 7 0 8 0;
#X connect 9 0 10 0;
#X connect 9 1 11 0;
#X restore 402 262 pd encoder;
#N canvas 955 369 450 300 init 0;
#X obj 72 115 s bigbang;
#X obj 40 91 t b b;
#X obj 54 50 loadbang;
#X obj 40 181 s latebang;
#X obj 40 157 delay 50;
#X obj 215 112 throw~ outL;
#X obj 232 134 throw~ outR;
#X obj 216 81 r~ soundOut;
#X obj 39 4 inlet;
#X obj 146 209 print >>>>>>>>>>>>>>>>>>>>>>>;
#X obj 44 243 print <<<<<<<<<<<<<<<<<<<<<<<<;
#X connect 1 0 4 0;
#X connect 1 0 10 0;
#X connect 1 1 0 0;
#X connect 1 1 9 0;
#X connect 2 0 1 0;
#X connect 4 0 3 0;
#X connect 7 0 5 0;
#X connect 7 0 6 0;
#X connect 8 0 1 0;
#X restore 11 39 pd init;
#X obj 577 386 s turnOffVoices;
#X obj 305 329 bng 40 250 50 0 empty empty empty 17 7 0 10 -260097
-1 -1;
#X obj 401 330 bng 35 250 50 0 empty empty empty 17 7 0 10 -191407
-1 -1;
#X obj 442 330 bng 35 250 50 0 empty empty empty 17 7 0 10 -191407
-1 -1;
#X obj 80 261 r fs;
#X obj 305 151 r notes;
#X obj 305 175 unpack;
#X obj 305 259 == 60;
#X obj 305 283 sel 1;
#X obj 80 285 == 0;
#X obj 178 231 sel 1;
#X obj 344 198 > 0;
#X obj 305 219 spigot;
#X obj 210 255 s slowOff;
#X obj 592 128 bonk~;
#X msg 637 90 learn 0;
#X obj 546 -8 adc~;
#X msg 635 53 learn 10;
#X obj 619 151 sel 0 1 2;
#X msg 134 408 1;
#X msg 631 7 minvel 30;
#X connect 0 0 12 0;
#X connect 2 0 3 0;
#X connect 3 0 4 0;
#X connect 5 0 1 0;
#X connect 5 0 8 0;
#X connect 6 0 4 0;
#X connect 7 0 4 0;
#X connect 8 0 7 0;
#X connect 9 0 13 0;
#X connect 10 0 23 0;
#X connect 11 0 15 0;
#X connect 11 1 16 0;
#X connect 14 0 1 1;
#X connect 15 0 1 2;
#X connect 16 0 1 3;
#X connect 17 0 22 0;
#X connect 18 0 19 0;
#X connect 19 0 25 0;
#X connect 19 1 24 0;
#X connect 20 0 21 0;
#X connect 21 0 14 0;
#X connect 22 0 2 0;
#X connect 23 0 5 0;
#X connect 23 1 26 0;
#X connect 24 0 25 1;
#X connect 25 0 20 0;
#X connect 27 1 31 0;
#X connect 28 0 27 0;
#X connect 29 0 27 0;
#X connect 29 1 27 0;
#X connect 30 0 27 0;
#X connect 31 0 32 0;
#X connect 31 1 5 0;
#X connect 32 0 3 0;
#X connect 33 0 27 0;
