#N canvas 174 159 1452 815 10;
#X obj 531 774 outlet~;
#X obj 568 184 pack 0 10;
#X obj 685 574 *~;
#X obj 568 159 + 0;
#X obj 568 68 inlet;
#X obj 568 117 unpack;
#X obj 1059 386 moses 1;
#X obj 1108 426 / 127;
#X msg 1108 449 \$1 5;
#X msg 1059 450 \$1 15;
#X msg 864 687 0;
#X obj 537 717 *~ 1;
#X obj 1059 542 line;
#X obj 568 241 mtof;
#X obj 568 277 / 440;
#X floatatom 568 301 5 0 0 0 - - -;
#X obj 568 208 line;
#X obj 559 550 phasor~ 1;
#X obj 700 482 r leadLoop1Size;
#X obj 684 600 tabread4~ leadLoop1;
#X obj 40 374 t b f;
#X obj 110 388 r leadBlipSize;
#X obj 40 438 f;
#X floatatom 109 408 5 0 0 0 - - -;
#X obj 42 512 pack f f;
#X msg 69 562 set 0 \, addcomma \, add2 \$1 \$2;
#X obj 42 533 t b l;
#X obj 568 339 t f b;
#X msg 595 359 0;
#X obj 595 380 s resetPhase;
#X obj 611 522 r resetPhase;
#X floatatom 559 524 5 0 0 0 - - -;
#X obj 559 503 expr $f1 / ($f2 / 44100);
#X obj 42 619 line~;
#X obj 42 682 tabread4~ leadBlip;
#X floatatom 91 465 5 0 0 0 - - -;
#X obj 91 485 * 1000;
#X floatatom 109 508 5 0 0 0 - - -;
#X msg 42 592 0 \, 47492 1811.15;
#X obj 92 444 expr 1 / ($f1 / ($f2 / 44100));
#X obj 864 666 r turnOffVoices;
#X obj 442 568 *~;
#X obj 316 544 phasor~ 1;
#X obj 368 516 r resetPhase;
#X floatatom 316 518 5 0 0 0 - - -;
#X obj 316 497 expr $f1 / ($f2 / 44100);
#X obj 457 476 r leadLoop2Size;
#X obj 442 595 tabread4~ leadLoop2;
#X msg 1154 521 0 200;
#X obj 1154 501 r slowOff;
#X connect 1 0 16 0;
#X connect 2 0 19 0;
#X connect 3 0 1 0;
#X connect 4 0 5 0;
#X connect 5 0 3 0;
#X connect 5 1 6 0;
#X connect 6 0 9 0;
#X connect 6 1 7 0;
#X connect 7 0 8 0;
#X connect 8 0 12 0;
#X connect 9 0 12 0;
#X connect 10 0 11 1;
#X connect 11 0 0 0;
#X connect 12 0 11 1;
#X connect 13 0 14 0;
#X connect 14 0 15 0;
#X connect 15 0 27 0;
#X connect 16 0 13 0;
#X connect 17 0 2 0;
#X connect 18 0 2 1;
#X connect 18 0 32 1;
#X connect 19 0 11 0;
#X connect 20 0 22 0;
#X connect 20 1 39 0;
#X connect 21 0 23 0;
#X connect 22 0 24 0;
#X connect 23 0 22 1;
#X connect 23 0 39 1;
#X connect 24 0 26 0;
#X connect 25 0 38 0;
#X connect 26 0 38 0;
#X connect 26 1 25 0;
#X connect 27 0 20 0;
#X connect 27 0 32 0;
#X connect 27 0 45 0;
#X connect 27 1 28 0;
#X connect 28 0 29 0;
#X connect 30 0 17 1;
#X connect 31 0 17 0;
#X connect 32 0 31 0;
#X connect 33 0 34 0;
#X connect 34 0 11 0;
#X connect 35 0 36 0;
#X connect 36 0 37 0;
#X connect 36 0 24 1;
#X connect 38 0 33 0;
#X connect 39 0 35 0;
#X connect 40 0 10 0;
#X connect 41 0 47 0;
#X connect 42 0 41 0;
#X connect 43 0 42 1;
#X connect 44 0 42 0;
#X connect 45 0 44 0;
#X connect 46 0 41 1;
#X connect 46 0 45 1;
#X connect 47 0 11 0;
#X connect 48 0 12 0;
#X connect 49 0 48 0;
